<svg xmlns="http://www.w3.org/2000/svg" width="88" height="118" viewBox="0 0 88 118"><g fill="gray"><path d="M43.057 94.716c.314 0 .584-.048.809-.145.225-.096.412-.222.559-.377a1.43 1.43 0 0 0 .324-.533c.068-.198.102-.403.102-.616 0-.23-.041-.429-.125-.597a1.081 1.081 0 0 0-.336-.406 1.529 1.529 0 0 0-.5-.229 2.453 2.453 0 0 0-.611-.074c-.346 0-.633.055-.863.163a1.66 1.66 0 0 0-.555.402c-.139.158-.238.328-.301.508s-.092.342-.092.486c0 .429.129.773.387 1.03.258.258.659.388 1.202.388z"/><path d="M86.326 100.644c-.309.416-.613.788-.914 1.118a7.213 7.213 0 0 1-.412.408 4.41 4.41 0 0 1-.436.353 2.475 2.475 0 0 1-.43.252.984.984 0 0 1-.406.096c-.172 0-.285-.08-.338-.239a2.25 2.25 0 0 1-.078-.662c0-.331.051-.737.152-1.22s.193-.912.271-1.289c.08-.376.15-.745.213-1.104.061-.359.092-.686.092-.98 0-.193-.016-.345-.051-.458a.624.624 0 0 0-.143-.262c-.062-.062-.135-.103-.215-.122s-.168-.028-.26-.028c-.068 0-.139.001-.209.005-.072.002-.143.004-.209.004-.082 0-.16-.004-.238-.014a.837.837 0 0 1-.229-.061.436.436 0 0 1-.186-.15 13.56 13.56 0 0 0-.154-.21.79.79 0 0 0-.199-.191.575.575 0 0 0-.334-.084c-.428 0-.85.091-1.26.272a5.006 5.006 0 0 0-1.178.732 6.469 6.469 0 0 0-1.027 1.077 8.61 8.61 0 0 0-.879 1.465 9.023 9.023 0 0 0-.605 1.576c-.121.452-.18.894-.188 1.324-.096.079-.189.156-.289.241a4.595 4.595 0 0 1-.508.379 2.947 2.947 0 0 1-.592.295 2.02 2.02 0 0 1-.707.118c-.117 0-.254-.022-.412-.066a5.505 5.505 0 0 1-.449-.145 10.714 10.714 0 0 1-.369-.146 2.134 2.134 0 0 0-.166-.065l.047-.188c.055-.074.164-.217.326-.426.164-.208.355-.456.574-.74.219-.284.465-.62.74-1.007.273-.388.523-.734.748-1.041.225-.306.424-.584.598-.834.172-.25.295-.443.369-.58.258-.069.443-.143.555-.221.111-.079.172-.143.186-.193.037-.15.055-.332.055-.545 0-.264-.047-.473-.143-.626-.096-.153-.252-.23-.469-.23a.23.23 0 0 0-.072.014c-.031.01-.086.021-.162.033-.076.014-.188-.488-.336-.479-.148.009-.346-.5-.592-.5h-.281c-.104 0-.215.51-.338.504-.16-.006-.316.212-.467.14-.15-.073-.299-.023-.445-.111-.145-.089-.291-.104-.438-.176-.148-.072-.297-.077-.443-.077-.197 0-.412.048-.643.113a1.766 1.766 0 0 0-.666.379c-.213.182-.406.443-.578.776s-.305.768-.398 1.305a2.88 2.88 0 0 0-.037.418c0 .147.021.267.061.355.041.09.109.135.209.135.104 0 .221-.068.35-.203.131-.136.291-.347.482-.635.086-.132.164-.235.234-.307a.743.743 0 0 1 .24-.162.99.99 0 0 1 .33-.062c.129-.006.291-.009.488-.009a.836.836 0 0 1 .422.108l.217.117c.08.044.176.091.287.141l-2.201 3.042c-.189.237-.379.465-.566.67-.129.14-.266.276-.41.407-.146.132-.291.25-.436.354a2.54 2.54 0 0 1-.43.252.984.984 0 0 1-.406.096c-.174 0-.285-.08-.338-.239-.053-.159-.078-.38-.078-.662 0-.331.051-.737.152-1.22l.271-1.289c.08-.377.15-.745.211-1.104.062-.359.094-.687.094-.981 0-.192-.018-.345-.051-.458s-.082-.199-.145-.262c-.061-.062-.133-.103-.213-.122s-.168-.028-.26-.028c-.068 0-.139.001-.211.005-.07.002-.141.004-.209.004-.08 0-.16-.004-.236-.014-.078-.009-.154-.029-.229-.061s-.137-.081-.186-.15a14.498 14.498 0 0 1-.154-.21c-.053-.071-.119-.135-.199-.191s-.191-.084-.336-.084c-.428 0-.848.091-1.26.272a4.995 4.995 0 0 0-1.176.732 6.388 6.388 0 0 0-1.027 1.077 8.407 8.407 0 0 0-.879 1.465 9.053 9.053 0 0 0-.605 1.576 5.695 5.695 0 0 0-.178 1.151c-.094.06-.188.121-.287.18a7.53 7.53 0 0 1-.535.289c-.172.084-.338.151-.492.201s-.291.074-.412.074c-.049 0-.102-.036-.156-.107-.057-.072-.109-.168-.158-.29s-.419-.257-.452-.41c-.033-.152-.376-.309-.376-.471v-.13c0-.125.368-.251.399-.382s.226-.253.257-.368.143-.223.178-.323c.035-.099.107-.18.139-.241.283-.561.615-1.132.953-1.719.336-.585.679-1.181 1.013-1.785.332-.604.659-1.213.968-1.827s.58-1.226.814-1.836c.234-.611.422-1.218.561-1.823a8.027 8.027 0 0 0 .205-1.78c0-.235-.021-.465-.064-.692a1.855 1.855 0 0 0-.223-.607 1.237 1.237 0 0 0-.439-.432c-.186-.109-.422-.163-.707-.163-.393 0-.777.112-1.158.337a4.676 4.676 0 0 0-1.092.927 9.299 9.299 0 0 0-1 1.384 15.883 15.883 0 0 0-.881 1.708 12.7 12.7 0 0 0-.451 1.207 4.666 4.666 0 0 0-.389-1.754 4.606 4.606 0 0 0-1.178-1.6c-.521-.463-1.174-.836-1.959-1.115-.785-.28-1.699-.42-2.74-.42-.791 0-1.537.128-2.238.384a7.042 7.042 0 0 0-1.943 1.085 8.36 8.36 0 0 0-1.607 1.682 10.71 10.71 0 0 0-1.215 2.167 13.09 13.09 0 0 0-.768 2.545c-.18.905-.27 1.844-.27 2.818 0 .566.029 1.17.088 1.81.035.392.09.78.152 1.168-.248.217-.5.429-.758.632a6.663 6.663 0 0 1-.822.56c-.271.154-.518.231-.74.231-.191 0-.316-.082-.379-.245-.061-.164-.092-.383-.092-.661 0-.284.045-.599.133-.945.088-.348.162-.696.221-1.047.057-.352.166-.775.326-1.273.158-.498.277-.905.359-1.222l.215-.847c.064-.248.096-.439.096-.575a.527.527 0 0 0-.137-.383c-.09-.096-.264-.144-.518-.144-.139 0-.295.017-.467.051-.174.035-.34.087-.5.159s-.305.163-.432.275a.766.766 0 0 0-.256.421 28.49 28.49 0 0 1-.432 1.437c-.252.903-.42 1.487-.504 1.75-.045.118-.141.606-.285 1.462-.244.201-.482.391-.713.558-.148.106-.301.21-.457.312-.158.103-.314.194-.469.275s-.299.144-.438.19a1.22 1.22 0 0 1-.385.07.43.43 0 0 1-.301-.112.755.755 0 0 1-.193-.304 1.838 1.838 0 0 1-.104-.435 4 4 0 0 1-.004-.958 6.866 6.866 0 0 1 .164-.856c.031-.124.064-.229.096-.317.148-.399.49-1.156 1.029-2.272a18.99 18.99 0 0 0 .902-2.21l.758-2.262a8.21 8.21 0 0 0 .41-2.471c.004-.232.006-.458.006-.678 0-.352-.029-.693-.084-1.023a3.072 3.072 0 0 0-.271-.871 1.677 1.677 0 0 0-.496-.602 1.204 1.204 0 0 0-.74-.227c-.396 0-.779.122-1.152.365a4.333 4.333 0 0 0-1.051 1.012 8.346 8.346 0 0 0-.906 1.535 10.705 10.705 0 0 0-.676 1.942c-.176.703-.338 1.359-.488 1.969-.152.61-.238 1.316-.256 2.116-.469.045-.91.154-1.322.329a4.5 4.5 0 0 0-1.207.779 4.44 4.44 0 0 0-.943 1.146c-.236.419-.451.821-.646 1.206a5.695 5.695 0 0 0-.443 1.192 5.025 5.025 0 0 0-.117.631c-.34.253-.701.487-1.084.701a7.756 7.756 0 0 1-1.197.542c-.41.145-.801.217-1.17.217-.117 0-.229-.012-.33-.036a.96.96 0 0 1-.291-.126 1.235 1.235 0 0 1-.275-.254 2.835 2.835 0 0 1-.273-.407 6.414 6.414 0 0 0 1.496-.605 5.487 5.487 0 0 0 1.191-.886c.334-.332.625-.729.875-1.193.25-.464.375-.883.375-1.256a2.37 2.37 0 0 0-.184-.952 2.122 2.122 0 0 0-.516-.725 2.374 2.374 0 0 0-.771-.466 2.725 2.725 0 0 0-.963-.166 2.9 2.9 0 0 0-1.154.223c-.346.149-.658.35-.938.602a4.181 4.181 0 0 0-.732.876 6.05 6.05 0 0 0-.52 1.044c-.137.366-.27.784-.4 1.255-.127.471-.191.877-.191 1.218 0 .137.018.269.029.402-.025.029-.049.063-.072.092a9.174 9.174 0 0 1-.443.504 4.761 4.761 0 0 1-.467.434 2.543 2.543 0 0 1-.473.306 1.016 1.016 0 0 1-.447.115c-.252 0-.443-.061-.574-.181-.133-.121-.197-.315-.197-.585 0-.214.035-.53.109-.947.072-.417.154-.875.244-1.371.088-.497.182-1.022.283-1.576.098-.554.199-1.117.303-1.69s.205-1.149.309-1.729c.105-.58.156-1.134.156-1.665a7.96 7.96 0 0 0-.156-1.613 5.18 5.18 0 0 0-.449-1.332 2.62 2.62 0 0 0-.729-.901 1.598 1.598 0 0 0-.996-.333c-.541 0-1.064.136-1.568.406-.504.271-.975.662-1.412 1.169-.438.509-.83 1.127-1.182 1.854-.35.727-.646 1.547-.885 2.458l-.195.009.158-1.201c.018-.154.037-.31.059-.468.021-.157.041-.303.057-.438s.027-.256.037-.36c.01-.105.014-.182.014-.231 0-.542-.049-1.01-.143-1.406a3.07 3.07 0 0 0-.402-.979 1.655 1.655 0 0 0-.621-.573 1.686 1.686 0 0 0-.785-.186c-.387 0-.775.105-1.17.314a4.99 4.99 0 0 0-1.164.888 9.167 9.167 0 0 0-1.119 1.372 14.337 14.337 0 0 0-1.025 1.785 20.838 20.838 0 0 0-.889 2.118 22.646 22.646 0 0 0-.707 2.362c.107-.439.221-.912.336-1.417.115-.505.209-1.016.283-1.53l.213-1.468a7.843 7.843 0 0 0 .014-2.445 2.792 2.792 0 0 0-.311-.947 1.578 1.578 0 0 0-.6-.61c-.254-.144-.57-.217-.953-.217-.295 0-.605.061-.93.186a2.92 2.92 0 0 0-.951.624c-.311.292-.607.684-.889 1.174-.279.49-.531 1.099-.752 1.826a.124.124 0 0 0-.037.092c0 .068.008.144.025.227.018.083.039.161.066.235a.885.885 0 0 0 .088.19c.031.052.062.078.092.078a.547.547 0 0 0 .254-.06.365.365 0 0 0 .168-.199 6.36 6.36 0 0 1 1.279-1.349 4.01 4.01 0 0 1 .637-.411c.201-.102.373-.153.514-.153.088 0 .154.028.197.083.043.056-.04.122-.024.199.02.078-.089.159-.089.247v.215c0 .649.138 1.256.147 1.824.01.567.044 1.112-.017 1.637s-.094 1.048-.152 1.572a8.106 8.106 0 0 1-.342 1.601 17.687 17.687 0 0 0-.461 1.743l-.437 2.012c-.051.215-.083.43-.108.643a6.486 6.486 0 0 0-.037.698c0 .129.035.245.104.347.068.102.16.188.277.259.117.071.25.124.4.158.152.034.307.05.467.05.135 0 .277-.014.426-.041.146-.028.285-.076.414-.144s.24-.161.332-.278a.89.89 0 0 0 .176-.453l.457-1.867.51-2.087c.176-.717.393-1.428.65-2.134.26-.706.527-1.382.805-2.029s.557-1.25.838-1.808a16.22 16.22 0 0 1 .82-1.456c.264-.413.512-.737.74-.97.23-.235.436-.352.613-.352.217 0 .391.055.523.166.129.111.23.271.301.48.07.21.115.466.135.768.018.302.027.644.027 1.026 0 .555-.064 1.162-.195 1.821a96.02 96.02 0 0 0-.371 1.983c-.113.662-.242 1.327-.383 1.993s-.264 1.269-.369 1.81c-.105.541-.197 1.008-.271 1.4-.074.393-.051.669.066.83 0 .241.029.444.09.61.057.167.135.304.23.411a.848.848 0 0 0 .332.237c.125.049.254.074.383.074s.258-.017.387-.051c.129-.034.252-.088.367-.162a1.176 1.176 0 0 0 .504-.731c.119-.614.227-1.253.322-1.919.096-.665.232-1.37.412-2.115.178-.744.342-1.465.492-2.161.148-.696.33-1.362.545-1.998.215-.635.441-1.226.682-1.773.24-.546.5-1.02.775-1.418.277-.399.57-.713.881-.94.309-.227.639-.341.988-.341.174 0 .312.043.418.129s.186.208.242.365c.055.157.094.348.111.573a7.493 7.493 0 0 1-.106 2.062l-.271 1.527-.279 1.559c-.093.522-.186 1.035-.275 1.54-.092.506-.178.995-.264 1.466a11.65 11.65 0 0 0-.164 1.328c-.006.055-.01.111-.014.166-.002.056-.004.108-.004.157 0 .444.074.837.223 1.179.146.342.344.629.59.86.246.231.529.405.846.522s.643.176.975.176c.344 0 .689-.052 1.037-.157a3.601 3.601 0 0 0 1.031-.514c.32-.224.635-.516.943-.863.074.119.143.244.23.353.287.36.646.647 1.078.861.432.214.936.32 1.512.32.369 0 .736-.042 1.096-.129.361-.085.709-.2 1.045-.343.336-.143.656-.306.961-.49.268-.161.514-.326.75-.492.082.191.174.374.291.539.193.277.438.499.73.666.291.167.639.25 1.039.25.285 0 .566-.048.848-.143s.561-.221.836-.378c.275-.157.541-.342.797-.555.256-.212.5-.437.729-.672.15.379.33.684.535.913.205.229.41.403.615.525s.395.201.568.24c.174.04.303.06.393.06.148 0 .314-.028.494-.083a4.27 4.27 0 0 0 .557-.216c.191-.088.387-.189.584-.304a11.135 11.135 0 0 0 1.087-.717c.014.079.023.16.043.234.059.231.154.426.291.587s.312.285.531.375c.219.089.488.134.811.134.355 0 .734-.065 1.131-.194a8.14 8.14 0 0 0 1.17-.485 8.89 8.89 0 0 0 1.468-.935c.09.331.189.656.303.971.205.579.459 1.09.758 1.533s.646.796 1.043 1.057c.398.262.85.393 1.355.393.477 0 .916-.087 1.318-.263a3.985 3.985 0 0 0 1.092-.71c.324-.298.609-.646.854-1.042a7.88 7.88 0 0 0 1.012-2.619c.09-.464.141-.912.154-1.345 0-.037 0-.105.004-.203.004-.099.006-.215.01-.348.002-.133.008-.279.014-.439l.018-.482.047-1.24c.975-.148 1.822-.404 2.545-.768s1.322-.796 1.797-1.295a5.5 5.5 0 0 0 .654-.84l-.006.021s-.09.505-.266 1.515c-.178 1.011-.268 1.818-.268 2.422 0 .704.061 1.376.18 2.016.119.64.285 1.203.496 1.688.213.485.461.873.748 1.16.285.288.594.433.926.433.215 0 .447-.028.695-.084.246-.055.5-.13.76-.224.262-.094.52-.201.777-.321.213-.099.416-.2.619-.302.061.084.119.171.189.245.215.227.463.401.744.521.279.122.568.183.863.183.279 0 .559-.045.84-.138.279-.091.549-.209.805-.352.258-.144.496-.304.713-.48.219-.177.402-.352.551-.522.199.495.436.871.709 1.13.273.26.613.389 1.023.389.34 0 .678-.084 1.018-.253.211-.104.41-.229.604-.362a1.2 1.2 0 0 0 .369.058c.172 0 .377-.036.611-.106.27.136.52.249.748.337s.428.161.6.217c.174.057.312.097.418.12.104.023.168.035.193.035.303 0 .625-.035.967-.107s.678-.169 1.008-.293c.33-.123.645-.266.947-.427.102-.054.191-.111.285-.167.055.073.105.152.168.218.215.227.463.401.744.521.279.122.568.183.865.183.279 0 .559-.045.838-.138a4.62 4.62 0 0 0 .807-.352c.258-.144.494-.304.713-.48.217-.177.4-.352.551-.522.197.495.434.871.707 1.13.273.26.615.389 1.025.389.338 0 .678-.084 1.016-.253.34-.167.656-.374.953-.617.295-.243.562-.499.799-.767.238-.269.428-.502.57-.701l-.445-2.032zm-61.771-.558c.014-.187.07-.424.172-.714.104-.288.191-.531.27-.727s.18-.371.307-.525a1.5 1.5 0 0 1 .473-.375 1.48 1.48 0 0 1 .684-.145c.146 0 .273.087.375.262.102.175.152.398.152.668 0 .193-.107.438-.324.732-.217.295-.438.53-.664.706a3.238 3.238 0 0 1-.732.429 1.875 1.875 0 0 1-.729.167 6.245 6.245 0 0 1 .016-.478zm9.201 1.959c-.074.11-.156.215-.246.316a2.104 2.104 0 0 1-.281.271c-.1.079-.203.143-.311.192s-.217.074-.328.074c-.217 0-.391-.024-.527-.072-.135-.048-.24-.111-.314-.188s-.125-.165-.152-.261-.041-.192-.041-.289c0-.311.055-.66.166-1.044.111-.385.273-.845.486-1.38s.477-.965.795-1.291c.316-.327.68-.589 1.086-.788.006-.006.012.055.018.186.006.13.012.299.014.504.004.205.008.432.016.681.006.248.012.566.018.956.006.388.016.677.029.867.012.189.027.328.047.414a5.696 5.696 0 0 1-.475.852zm2.68-3.965v-.496c0-.175-.048-.38-.04-.614.006-.234-.007-.493.011-.777.016-.285.025-.58.051-.885.014-.15.029-.404.062-.759.033-.356.074-.756.127-1.199.055-.444.138-.897.253-1.359l.323-1.286c.1-.394.229-.716.391-.966.164-.25.348-.375.547-.375.113 0 .199.065.258.194s.09.36.09.693c0 .253-.02.596-.059 1.028a8.682 8.682 0 0 1-.168 1.036c-.08.364-.178.731-.293 1.103l-.35 1.122c-.117.377-.187.74-.306 1.087-.289.813-.897 1.631-.897 2.453zm20.05-3.705a2.814 2.814 0 0 1-.637.928 3.874 3.874 0 0 1-1.084.73c-.436.206-.955.356-1.559.45l.084-.74.562-2.406c0-.025 0-.045.004-.061s.004-.045.004-.089a.678.678 0 0 0-.096-.38.774.774 0 0 0-.24-.237.916.916 0 0 0-.32-.121 1.825 1.825 0 0 0-.342-.033c-.365 0-.674.092-.922.275a2.156 2.156 0 0 0-.605.697c-.156.28-.273.589-.354.925a7.808 7.808 0 0 0-.174.968 8.543 8.543 0 0 0-.055.822c-.004.24-.006.399-.006.48a2.627 2.627 0 0 1-.365-.115 8.206 8.206 0 0 1-.422-.178 5.996 5.996 0 0 1-.551-.284 3.79 3.79 0 0 0-.197-.106.386.386 0 0 0-.17-.039.282.282 0 0 0-.215.081.508.508 0 0 0-.119.209 1.19 1.19 0 0 0-.051.294c-.006.111-.01.223-.01.337 0 .206.021.386.061.541a.934.934 0 0 0 .279.44c.146.14.163.285.454.437.289.151.993.328.993.527v.435c0 .285.196.628.185 1.033-.012.405.062.829.019 1.273-.043.444-.059.887-.145 1.328-.088.441-.18.836-.326 1.185-.148.349-.318.633-.539.852a1.1 1.1 0 0 1-.802.329c-.303 0-.55-.128-.749-.384-.201-.256-.365-.586-.498-.99a7.77 7.77 0 0 1-.299-1.356 20.707 20.707 0 0 1-.148-1.48 25.43 25.43 0 0 1-.051-1.375l-.004-1.022c0-.618.045-1.253.135-1.905.09-.651.229-1.286.416-1.9a9.735 9.735 0 0 1 .719-1.738 6.238 6.238 0 0 1 1.029-1.428 4.6 4.6 0 0 1 1.352-.968 3.946 3.946 0 0 1 1.697-.357c.83 0 1.521.097 2.068.289.549.192.986.436 1.312.734.326.297.557.626.688.99.133.362.199.717.199 1.063.002.356-.066.702-.205 1.04zm3.778 1.065l.248-1.253.408-1.351c.271-.9.506-1.55.701-1.95.195-.399.391-.716.588-.95.193-.234.377-.352.547-.352.047 0 .074.064.082.191.01.127.014.281.014.462a9.291 9.291 0 0 1-.389 1.832 21.226 21.226 0 0 1-.725 1.972 30.663 30.663 0 0 1-.885 1.92 39.236 39.236 0 0 1-.887 1.679 15.52 15.52 0 0 1 .298-2.2zm6.705 5.148a5.154 5.154 0 0 1-.16.744 5.129 5.129 0 0 1-.33.866 2.902 2.902 0 0 1-.482.717c-.184.198-.391.298-.619.298a.548.548 0 0 1-.352-.11.76.76 0 0 1-.223-.286 1.336 1.336 0 0 1-.117-.4 3.334 3.334 0 0 1-.031-.463c0-.269.035-.557.107-.862.07-.305.191-.659.363-1.062.174-.404.35-.742.527-1.018.18-.274.375-.52.588-.733s.439-.383.68-.509.486-.188.738-.188l-.689 3.006zm14.185 0a5.49 5.49 0 0 1-.162.744 5.129 5.129 0 0 1-.33.866 2.897 2.897 0 0 1-.48.717c-.186.198-.393.298-.621.298a.552.552 0 0 1-.352-.11c-.094-.073-.166-.168-.223-.286s-.094-.25-.115-.4a3.33 3.33 0 0 1-.033-.463c0-.269.035-.557.107-.862.07-.305.191-.659.365-1.062.172-.404.348-.742.525-1.018.18-.274.375-.52.588-.733s.439-.383.68-.509.486-.188.74-.188l-.689 3.006z"/></g><g fill="#7EA65F"><path d="M21.027 70.399c.004-.004.246.194.246.194s-7.576-4.746 12.402-10.935c-.045.106-.223.085-.307.157l2.531-2.171c-.004.002.16.235.092.179-3.859-3.312-4.445-7.581.291-11.655l-2.137-1.833c-.725.735.115.118.15.202-19.975-6.191-12.6-10.766-12.6-10.766s-.729.62.057-.064l-5.496-4.712c-.797.672-.219.149-.344.256-4.014 3.441-3.207 9.886-1.631 15.126-.809.395-1.557.875-2.25 1.469-4.123 3.535-4.156 9.226-.084 12.717.791.677 1.328.917 2.273 1.33-1.824 5.38-3.166 12.277.762 15.692l6.045-5.186zM19.32 45.705s-1.131-6.066 13.941 0c-15.072 6.066-13.941 0-13.941 0zm.305 13.059s-1.131-6.07 13.945-.003c-15.076 6.067-13.945.003-13.945.003z"/><path d="M14.984 75.583c3.98 3.367 12.559 2.671 18.832 1.106.48.812 1.162 1.612 1.951 2.29 4.072 3.491 10.779 3.515 14.902-.02.691-.594 1.297-1.218 1.758-1.91 6.111 1.352 13.619 2.079 17.631-1.363.125-.106-.469.403.314-.282l-5.494-4.713c-.795.675-.049.029-.049.029s-5.383 6.364-12.6-10.765c.098.029-.602.73.256.109l-2.137-1.833c-4.752 4.064-10.266 3.101-14.125-.209a4.88 4.88 0 0 1-.324-.377l-2.531 2.171c.084-.072.459.119.584.082-7.217 17.131-12.754 10.631-12.754 10.631s-.168-.133-.172-.129l-6.042 5.183zm35.905-14.762c7.074 12.928.002 11.958.002 11.958s-7.077.97-.002-11.958zm-15.225-.262c7.076 12.93 0 11.959 0 11.959s-7.072.97 0-11.959zm30.002-27.085c-.004.003-.115-.08-.115-.08s7.51 4.689-12.467 10.877c.045-.106.154-.141.24-.214l-2.533 2.171c.004-.002-.193.024-.129.082 3.863 3.31 3.629 8.517-.32 11.914l2.137 1.833c-.066-.057.053-.262.016-.342C72.471 65.903 65.01 70.55 65.01 70.55s-.143.132-.137.136l5.492 4.71c.008.007.391-.293.514-.399 4.014-3.44 3.291-9.955 1.715-15.197.809-.396 1.6-.91 2.289-1.503 4.125-3.536 4.18-9.245.107-12.737-.789-.677-1.453-1.043-2.398-1.455 1.824-5.378 3.043-12.4-.883-15.815l-6.043 5.184zm1.977 24.925s1.129 6.066-13.943 0c15.071-6.066 13.943 0 13.943 0zm-.307-13.058s1.131 6.07-13.945.003c15.076-6.069 13.945-.003 13.945-.003z"/><path d="M71.709 28.29c-4.773-4.045-12.426-2.555-18.699-.99a8.817 8.817 0 0 0-1.885-2.232c-4.072-3.493-10.746-3.486-14.867.049a9.543 9.543 0 0 0-1.744 1.926c-6.107-1.352-13.775-1.929-17.789 1.513a9.32 9.32 0 0 0-.473.434l5.494 4.71c.004.006.217-.168.217-.168s5.299-6.294 12.518 10.836c-.1-.03-.275.019-.342-.038l2.139 1.833c3.961-3.386 10.295-3.361 14.156-.049.066.056.361.115.357.117l2.533-2.171c-.086.073-.326-.004-.451.034 7.217-17.133 12.689-10.69 12.689-10.69s.1.075.104.072l6.043-5.186zM36.074 43.283c-7.076-12.928-.002-11.958-.002-11.958s7.073-.969.002 11.958zm15.223.263c-7.076-12.93.002-11.959.002-11.959s7.07-.971-.002 11.959z"/></g><path fill="gray" d="M78.814 44.316c-1.137-.875-2.191-.921-1.727-2.434.369-1.206.645-2.437.896-3.671.439-2.168.57-4.382.367-6.582-.912-9.841-12.164-10.046-19.605-8.73-2.24.396-3.809 1.504-5.4-.39-1.334-1.584-3.334-2.541-5.232-3.235-4.068-1.488-8.785-.535-12.305 1.8-2.385 1.581-2.002 2.588-5.033 2.058a42.763 42.763 0 0 0-7.451-.618c-3.766.008-7.807.882-10.594 3.564-.014.014-.023.029-.035.043-.055.043-.107.087-.16.13-.061.034-.125.064-.18.118-.033.03-.059.062-.09.093-2.168 2.121-3.062 4.657-3.354 7.65-.162 1.679.07 3.38.305 5.04.311 2.196 1.504 3.521-.375 4.99-5.357 4.189-5.891 11.164-.879 15.869 1.703 1.601 2.162.973 1.451 3.452-.469 1.637-.842 3.35-1.002 5.046-.289 3.021-.244 6.621 1.775 9.117 4.344 5.362 12.953 4.442 18.984 3.48 2.123-.338 2.902-.964 4.354.737 1.096 1.284 2.674 2.166 4.182 2.851 3.094 1.407 6.66 1.321 9.865.405a11.198 11.198 0 0 0 3.713-1.9c1.457-1.146 1.92-2.472 3.857-2.088 3.709.735 7.715 1.231 11.479.657 6.082-.928 10.438-4.692 11.25-10.903.156-1.188-1.178-9.646-.828-9.835 2.965-1.609 4.928-4.621 5.445-7.899.511-3.241-1.098-6.837-3.673-8.815zM75.33 60.097c-.32.172-.477.582-.377.926 1.645 5.699 2.662 12.423-2.42 16.653-5.045 4.202-13.068 2.703-18.916 1.453-.398-.085-.691.064-.926.377-4.75 6.277-14.779 6.134-19.213-.4-.213-.314-.547-.467-.926-.376-5.758 1.379-12.619 2.48-18.266.095-6.82-2.881-4.174-12.427-2.436-17.699.105-.32-.059-.782-.377-.926-7.453-3.376-6.637-12.17.07-15.78.318-.171.477-.582.377-.926-1.494-5.166-2.76-11.661 1.492-15.854.17-.126.338-.271.484-.393.033-.026.057-.054.082-.082 4.879-4.584 13.469-3.121 19.352-1.872.395.084.691-.063.926-.376 4.641-6.231 14.709-6.249 19.08.285.211.315.551.469.926.377 5.963-1.466 12.834-3.112 18.568-.06 6.252 3.328 3.855 12.399 2.121 17.674-.105.325.059.776.377.926 7.475 3.534 6.899 12.234.002 15.978z"/><path d="M32.42.262h3.297c1.189 0 2.146.273 2.869.819.723.546 1.084 1.378 1.084 2.497 0 .843-.227 1.574-.682 2.192-.455.618-1.162 1.083-2.123 1.398.66.17 1.148.462 1.465.877.318.416.559 1.026.723 1.83l.803 4.071h-1.422l-.541-3.296c-.176-1.047-.473-1.802-.887-2.266-.416-.464-1.016-.696-1.799-.696h-1.482v6.259H32.42V.262zm1.305 1.196v5.121h1.363c.969 0 1.75-.257 2.346-.77.596-.514.893-1.208.893-2.084 0-.759-.213-1.326-.637-1.702-.426-.376-1.064-.564-1.914-.564h-2.051zm13.568 11.507c-.996.799-1.969 1.197-2.918 1.197-1.113 0-2.014-.446-2.701-1.339-.689-.893-1.033-2.055-1.033-3.488 0-1.478.355-2.673 1.064-3.585.711-.913 1.607-1.369 2.693-1.369.961 0 1.732.368 2.314 1.104s.873 1.666.873 2.791v.608h-5.67v.48c0 1.216.254 2.136.76 2.756.508.622 1.102.933 1.781.933.941 0 1.887-.521 2.836-1.56v1.472zm-1.022-5.131c-.025-.775-.225-1.356-.596-1.743-.373-.388-.807-.582-1.303-.582-.502 0-.971.193-1.404.582-.434.387-.742.968-.924 1.743h4.227zm2.59 4.082c.916.746 1.789 1.119 2.619 1.119.643 0 1.172-.163 1.59-.487.418-.325.627-.736.627-1.235 0-.361-.139-.663-.416-.905-.277-.243-.816-.482-1.613-.718-.982-.294-1.697-.63-2.148-1.01s-.678-.906-.678-1.58c0-.771.305-1.418.912-1.938.609-.52 1.361-.78 2.258-.78.719 0 1.537.254 2.451.761V6.53c-.777-.68-1.576-1.02-2.393-1.02-.562 0-1.025.151-1.389.453s-.545.666-.545 1.093c0 .361.164.656.49.886.32.236.854.459 1.6.669 1.832.51 2.746 1.379 2.746 2.609 0 .831-.334 1.529-1.004 2.094-.672.565-1.484.849-2.438.849-.885 0-1.773-.284-2.67-.854v-1.393zm8.172-10.104h1.109v2.786h1.775v1.069h-1.775V12.2c0 .274.072.482.215.623.145.141.359.211.648.211.262 0 .564-.104.912-.314v1.226a3.99 3.99 0 0 1-1.266.216c-.504 0-.916-.147-1.236-.442-.32-.295-.48-.74-.48-1.335V5.667H55.65V4.598h1.285l.098-2.786zm-35.699 107.31h.631v5.912h2.402v.546h-3.033v-6.458zm5.168 1.944c.484 0 .889.211 1.213.632.324.422.486.979.486 1.674 0 .401-.064.78-.193 1.136-.127.356-.326.642-.594.855s-.58.319-.936.319c-.527 0-.943-.217-1.248-.653-.303-.435-.457-.98-.457-1.634 0-.522.098-.973.289-1.352.191-.38.424-.638.701-.774.276-.134.522-.203.739-.203zm.039.547a.953.953 0 0 0-.873.491c-.193.327-.291.773-.291 1.338 0 .484.096.891.287 1.218s.461.491.809.491c.326 0 .596-.152.809-.457.211-.304.318-.748.318-1.331 0-.556-.104-.986-.312-1.292-.208-.305-.456-.458-.747-.458zm2.293 3.009c.432.352.846.528 1.236.528.303 0 .553-.077.75-.23a.705.705 0 0 0 .297-.583.548.548 0 0 0-.197-.428c-.131-.114-.385-.227-.762-.338-.463-.139-.801-.298-1.014-.477-.213-.179-.32-.427-.32-.745 0-.364.145-.669.432-.915s.643-.368 1.064-.368c.34 0 .727.12 1.158.359v.654c-.369-.32-.744-.481-1.129-.481-.268 0-.486.071-.656.213a.65.65 0 0 0-.258.516c0 .171.078.311.232.419.15.111.402.216.754.315.865.241 1.297.65 1.297 1.231 0 .392-.158.722-.475.989-.316.267-.699.4-1.15.4-.416 0-.836-.134-1.26-.403v-.656zm7.066-5.5h.617l1.803 6.458h-.703l-.549-2.232h-1.715l-.547 2.232h-.688l1.782-6.458zm.297.787l-.715 2.917h1.445l-.73-2.917zm2.6-.787h.584v6.458h-.584v-6.458zm4.176 2.046h.432v4.667c0 .596-.162 1.062-.486 1.398a1.562 1.562 0 0 1-1.168.505c-.396 0-.826-.158-1.285-.472v-.689c.447.429.867.643 1.262.643a.96.96 0 0 0 .793-.384c.201-.257.301-.59.301-1v-.949a1.75 1.75 0 0 1-.504.521 1.083 1.083 0 0 1-.59.174c-.445 0-.818-.216-1.115-.648-.295-.432-.443-.949-.443-1.551 0-.648.164-1.196.496-1.643.33-.448.721-.672 1.176-.672.193 0 .371.043.537.127.162.086.311.213.443.382l.151-.409zm-.153.945a1.48 1.48 0 0 0-.416-.366.94.94 0 0 0-.459-.121c-.34 0-.619.166-.838.496s-.328.751-.328 1.264c0 .469.096.866.285 1.192.193.326.449.488.775.488.281 0 .514-.128.701-.384.188-.256.279-.587.279-.995v-1.574zm3.047-1.047c.484 0 .887.211 1.213.632.324.422.486.979.486 1.674 0 .401-.064.78-.193 1.136a1.855 1.855 0 0 1-.596.855 1.455 1.455 0 0 1-.934.319c-.527 0-.945-.217-1.248-.653-.305-.435-.457-.98-.457-1.634 0-.522.098-.973.287-1.352.193-.38.426-.638.701-.774.278-.134.524-.203.741-.203zm.039.547a.953.953 0 0 0-.873.491c-.193.327-.293.773-.293 1.338 0 .484.098.891.289 1.218s.461.491.807.491c.328 0 .598-.152.811-.457.211-.304.316-.748.316-1.331 0-.556-.102-.986-.311-1.292-.207-.305-.455-.458-.746-.458zm4.928-2.491h.584v6.458h-.584v-.621a1.638 1.638 0 0 1-.494.542 1.076 1.076 0 0 1-.604.181c-.465 0-.84-.228-1.129-.683-.287-.455-.432-.985-.432-1.59 0-.648.158-1.2.477-1.657.316-.457.719-.686 1.207-.686.158 0 .318.036.48.107s.326.179.494.324v-2.375zm0 2.936a1.228 1.228 0 0 0-.393-.331 1.005 1.005 0 0 0-.465-.109c-.342 0-.627.164-.855.491s-.342.759-.342 1.296c0 .503.1.92.301 1.25.199.33.455.496.768.496.275 0 .508-.122.699-.366.191-.244.287-.553.287-.926v-1.801zm3.135-.992c.484 0 .889.211 1.213.632.322.422.484.979.484 1.674 0 .401-.062.78-.191 1.136a1.866 1.866 0 0 1-.594.855 1.47 1.47 0 0 1-.938.319c-.527 0-.941-.217-1.246-.653-.305-.435-.455-.98-.455-1.634 0-.522.094-.973.287-1.352.189-.38.424-.638.701-.774.276-.134.522-.203.739-.203zm.039.547a.953.953 0 0 0-.873.491c-.195.327-.291.773-.291 1.338 0 .484.096.891.287 1.218s.461.491.807.491c.328 0 .598-.152.811-.457.211-.304.316-.748.316-1.331 0-.556-.104-.986-.311-1.292s-.455-.458-.746-.458zm2.488-.445h.527l.057.63c.154-.244.328-.427.523-.548.195-.122.412-.184.65-.184.375 0 .668.126.877.38s.314.591.314 1.014v3.12h-.584v-3.12c0-.259-.066-.466-.203-.621s-.312-.231-.527-.231c-.295 0-.543.129-.746.386a1.401 1.401 0 0 0-.305.891v2.695h-.584v-4.412zm6.865 3.95c-.469.376-.928.564-1.377.564-.525 0-.951-.21-1.275-.632s-.486-.969-.486-1.646c0-.697.168-1.261.502-1.691.336-.431.76-.646 1.271-.646.453 0 .816.174 1.092.521s.412.787.412 1.317v.287h-2.676v.228c0 .574.121 1.007.359 1.3.238.293.518.44.84.44.445 0 .891-.245 1.338-.736v.694zm-.482-2.422c-.012-.366-.105-.64-.281-.823a.823.823 0 0 0-.613-.274.979.979 0 0 0-.664.274c-.203.183-.35.457-.436.823h1.994zm1.223 1.926c.434.352.846.528 1.236.528.303 0 .553-.077.75-.23a.705.705 0 0 0 .297-.583.552.552 0 0 0-.195-.428c-.133-.114-.387-.227-.764-.338-.461-.139-.801-.298-1.014-.477-.213-.179-.318-.427-.318-.745 0-.364.143-.669.43-.915s.643-.368 1.064-.368c.34 0 .727.12 1.158.359v.654c-.367-.32-.744-.481-1.129-.481-.268 0-.484.071-.656.213a.656.656 0 0 0-.258.516c0 .171.078.311.232.419.15.111.402.216.754.315.865.241 1.297.65 1.297 1.231 0 .392-.158.722-.475.989-.316.267-.699.4-1.15.4-.416 0-.836-.134-1.26-.403v-.656z" fill="#7EA65F"/></svg>