<svg xmlns="http://www.w3.org/2000/svg" width="88" height="118" viewBox="0 0 88 118"><g fill="gray"><path d="M43.057 94.715c.314 0 .584-.048.81-.145.225-.097.411-.222.559-.378.148-.155.256-.333.324-.532.067-.199.102-.404.102-.616 0-.23-.042-.429-.125-.597a1.092 1.092 0 0 0-.337-.406 1.52 1.52 0 0 0-.5-.229 2.404 2.404 0 0 0-.61-.075c-.346 0-.634.055-.864.164a1.669 1.669 0 0 0-.555.401 1.53 1.53 0 0 0-.301.508c-.062.18-.092.342-.092.486 0 .429.129.773.388 1.03.257.26.659.389 1.201.389z"/><path d="M86.327 100.643c-.309.416-.613.788-.915 1.118-.13.141-.267.276-.412.408-.145.132-.289.25-.435.353-.145.104-.288.188-.43.252s-.277.096-.406.096c-.173 0-.286-.08-.338-.239a2.213 2.213 0 0 1-.079-.662c0-.331.051-.737.152-1.22.103-.482.193-.912.272-1.289.079-.376.15-.745.212-1.104.062-.359.093-.687.093-.981 0-.192-.017-.345-.051-.458s-.082-.199-.144-.262a.446.446 0 0 0-.214-.122 1.142 1.142 0 0 0-.261-.028c-.068 0-.139.001-.209.005a4.983 4.983 0 0 1-.209.004c-.081 0-.16-.004-.238-.014-.076-.009-.153-.029-.228-.061s-.137-.081-.187-.149c-.049-.069-.1-.139-.153-.21-.052-.071-.118-.135-.199-.191s-.192-.084-.335-.084c-.428 0-.849.091-1.26.272-.413.181-.805.425-1.177.732s-.715.666-1.028 1.078c-.312.411-.606.9-.879 1.465a9.013 9.013 0 0 0-.604 1.576 5.401 5.401 0 0 0-.188 1.325c-.095.079-.189.156-.288.241a4.704 4.704 0 0 1-.509.379c-.183.119-.379.217-.592.295s-.448.117-.707.117c-.117 0-.254-.022-.412-.066-.157-.043-.307-.092-.448-.145s-.265-.102-.37-.146a1.963 1.963 0 0 0-.166-.065l.047-.188c.055-.074.164-.216.327-.425s.354-.456.573-.741c.219-.284.466-.62.74-1.006.273-.388.523-.735.748-1.041.226-.306.424-.584.598-.834.172-.25.295-.443.369-.58.259-.069.444-.143.555-.221.111-.078.173-.143.186-.193.037-.15.055-.332.055-.544 0-.264-.047-.473-.143-.627-.096-.153-.252-.23-.468-.23a.235.235 0 0 0-.073.014c-.031.01-.085.021-.162.034-.077.012-.189-.49-.338-.481-.147.009-.345-.5-.592-.5h-.281c-.103 0-.215.511-.338.505-.16-.006-.316.211-.467.139-.15-.073-.299-.024-.444-.112-.145-.088-.291-.104-.438-.175-.148-.072-.296-.077-.443-.077-.197 0-.412.048-.643.113a1.774 1.774 0 0 0-.666.379c-.213.182-.406.443-.578.776-.172.332-.305.769-.397 1.305a2.492 2.492 0 0 0-.037.417c0 .147.021.267.06.355.041.09.109.135.209.135.104 0 .222-.068.351-.203.13-.136.29-.347.481-.634.086-.133.164-.235.235-.307s.151-.125.24-.162c.09-.036.198-.057.329-.063.129-.006.292-.009.489-.009a.823.823 0 0 1 .421.108l.217.117c.08.044.176.091.287.141l-2.2 3.042c-.189.238-.379.465-.566.67a6.318 6.318 0 0 1-.411.407c-.146.132-.29.25-.436.354a2.506 2.506 0 0 1-.429.252.992.992 0 0 1-.407.096c-.173 0-.285-.08-.338-.239-.052-.159-.078-.38-.078-.662 0-.331.051-.737.152-1.219l.272-1.289c.079-.377.149-.745.211-1.104s.093-.686.093-.981c0-.192-.017-.345-.051-.458a.604.604 0 0 0-.144-.262.441.441 0 0 0-.214-.122 1.127 1.127 0 0 0-.26-.028c-.068 0-.139.001-.21.005-.071.002-.141.004-.209.004-.081 0-.16-.004-.237-.014s-.153-.03-.229-.061a.44.44 0 0 1-.186-.149l-.153-.21a.85.85 0 0 0-.2-.191.576.576 0 0 0-.335-.084c-.428 0-.848.091-1.26.272a5 5 0 0 0-1.177.732 6.428 6.428 0 0 0-1.027 1.077 8.57 8.57 0 0 0-.879 1.465 9.053 9.053 0 0 0-.605 1.576 5.633 5.633 0 0 0-.177 1.151c-.095.061-.188.121-.287.181a7.323 7.323 0 0 1-.535.288 3.687 3.687 0 0 1-.493.201c-.153.05-.291.075-.411.075-.05 0-.103-.036-.157-.107-.056-.072-.109-.169-.158-.29s.082-.257.049-.41c-.034-.152.123-.309.123-.47v-.131c0-.125-.131-.251-.1-.382s-.025-.253.006-.368.018-.223.053-.323c.035-.099.045-.18.076-.241.284-.561.584-1.132.922-1.719.336-.585.665-1.18.997-1.785.334-.604.651-1.213.96-1.826.309-.614.577-1.227.81-1.836a13.66 13.66 0 0 0 .558-1.823 7.913 7.913 0 0 0 .206-1.78c0-.235-.021-.465-.064-.692-.043-.226-.117-.429-.224-.607s-.253-.322-.438-.432c-.186-.109-.422-.163-.707-.163-.393 0-.778.112-1.158.338a4.608 4.608 0 0 0-1.092.927 9.228 9.228 0 0 0-1 1.384 15.615 15.615 0 0 0-.882 1.708c-.15.338-.301.744-.451 1.207a4.647 4.647 0 0 0-.389-1.754 4.616 4.616 0 0 0-1.177-1.6c-.522-.463-1.175-.835-1.96-1.115-.784-.28-1.698-.42-2.74-.42-.79 0-1.536.128-2.237.384-.7.256-1.35.617-1.944 1.085a8.388 8.388 0 0 0-1.607 1.682 10.758 10.758 0 0 0-1.215 2.167 13.18 13.18 0 0 0-.768 2.545c-.18.905-.269 1.844-.269 2.818 0 .566.028 1.17.087 1.81.036.392.09.78.152 1.168-.247.216-.499.429-.757.632-.278.219-.552.406-.823.56s-.518.231-.739.231c-.191 0-.317-.082-.38-.245-.061-.164-.092-.383-.092-.661 0-.284.045-.599.133-.945.089-.347.162-.696.221-1.047a9.16 9.16 0 0 1 .326-1.273c.158-.499.277-.906.359-1.222.08-.317.152-.6.216-.846.063-.249.095-.439.095-.576a.53.53 0 0 0-.136-.383c-.091-.096-.264-.144-.518-.144-.14 0-.296.017-.468.051-.173.035-.34.087-.5.159s-.305.163-.432.275a.767.767 0 0 0-.255.421c-.055.222-.198.701-.433 1.437-.252.903-.42 1.487-.504 1.75-.045.117-.141.605-.285 1.461-.244.201-.482.391-.713.558-.147.106-.301.21-.457.312-.157.103-.313.194-.468.275s-.3.145-.438.19c-.14.047-.268.071-.384.071a.432.432 0 0 1-.302-.112.765.765 0 0 1-.193-.304 1.888 1.888 0 0 1-.104-.435 4 4 0 0 1-.003-.958 6.901 6.901 0 0 1 .163-.857c.032-.124.064-.229.096-.317.148-.4.49-1.156 1.029-2.272.353-.729.653-1.467.903-2.211l.757-2.262a8.21 8.21 0 0 0 .41-2.471c.004-.232.006-.458.006-.678 0-.352-.028-.693-.084-1.023a3.082 3.082 0 0 0-.271-.871 1.694 1.694 0 0 0-.495-.602 1.206 1.206 0 0 0-.74-.227c-.396 0-.78.122-1.152.365a4.322 4.322 0 0 0-1.052 1.013c-.328.431-.631.943-.906 1.535s-.501 1.239-.676 1.942c-.175.703-.338 1.359-.488 1.969-.152.61-.237 1.316-.256 2.117a4.423 4.423 0 0 0-1.322.328 4.511 4.511 0 0 0-1.206.779c-.392.344-.706.727-.943 1.146s-.452.821-.647 1.206a5.687 5.687 0 0 0-.443 1.191 5.053 5.053 0 0 0-.116.631c-.341.252-.702.486-1.085.701a7.808 7.808 0 0 1-1.197.542c-.41.145-.8.217-1.17.217a1.43 1.43 0 0 1-.329-.036.954.954 0 0 1-.292-.126c-.094-.061-.185-.145-.274-.253s-.181-.244-.274-.408c.538-.144 1.037-.346 1.497-.605s.857-.554 1.19-.886a5.03 5.03 0 0 0 .876-1.193c.25-.463.375-.883.375-1.256 0-.352-.062-.669-.185-.952a2.12 2.12 0 0 0-.515-.725c-.219-.2-.477-.355-.772-.466s-.617-.166-.963-.166a2.89 2.89 0 0 0-1.154.223c-.346.149-.658.35-.938.602a4.152 4.152 0 0 0-.731.876c-.208.332-.382.68-.52 1.045-.138.365-.271.783-.4 1.255-.128.471-.192.877-.192 1.218 0 .137.019.269.029.402-.024.029-.048.063-.071.092-.142.173-.29.341-.444.504a4.65 4.65 0 0 1-.467.434c-.157.127-.314.229-.472.306s-.307.115-.448.115c-.251 0-.442-.061-.574-.181s-.197-.315-.197-.585c0-.214.036-.53.109-.948s.154-.875.244-1.371l.283-1.576.303-1.691c.104-.573.206-1.149.31-1.729a9.43 9.43 0 0 0 .156-1.665 8.04 8.04 0 0 0-.156-1.613 5.18 5.18 0 0 0-.449-1.332 2.61 2.61 0 0 0-.729-.901 1.596 1.596 0 0 0-.995-.333c-.542 0-1.064.136-1.569.406-.504.271-.975.662-1.412 1.17-.437.508-.83 1.127-1.181 1.854s-.646 1.547-.886 2.458l-.194.009.157-1.201c.019-.154.038-.31.06-.467.021-.157.04-.303.056-.439s.028-.256.037-.36c.01-.105.014-.182.014-.231 0-.543-.048-1.011-.143-1.406a3.066 3.066 0 0 0-.402-.98 1.652 1.652 0 0 0-.62-.573 1.686 1.686 0 0 0-.785-.186 2.48 2.48 0 0 0-1.17.314 5 5 0 0 0-1.165.888 9.127 9.127 0 0 0-1.119 1.373c-.362.534-.704 1.128-1.025 1.785s-.617 1.362-.889 2.118a23.14 23.14 0 0 0-.707 2.362c.108-.439.221-.912.336-1.418.115-.505.21-1.016.284-1.53.074-.513.146-1.003.212-1.468a7.843 7.843 0 0 0 .014-2.445 2.798 2.798 0 0 0-.31-.948 1.58 1.58 0 0 0-.601-.61c-.253-.144-.57-.217-.953-.217-.295 0-.604.062-.929.186a2.912 2.912 0 0 0-.952.624c-.311.292-.607.684-.888 1.174-.28.489-.531 1.099-.753 1.826a.124.124 0 0 0-.037.092c0 .068.009.144.025.227.018.083.04.162.066.235a.994.994 0 0 0 .088.19c.032.052.062.078.092.078a.551.551 0 0 0 .255-.06.363.363 0 0 0 .167-.199c.187-.264.392-.513.613-.744.223-.231.444-.432.667-.605.222-.173.435-.311.636-.412.202-.102.373-.153.514-.153.088 0 .154.028.197.083.044.056.46.122.476.199.02.078.411.159.411.247v.215c0 .649-.362 1.256-.353 1.824.01.567-.206 1.113-.267 1.637-.061.524-.217 1.048-.277 1.572-.061.524-.227 1.058-.404 1.601s-.357 1.124-.492 1.743-.294 1.29-.452 2.013a6.15 6.15 0 0 0-.116.642c-.023.213-.04.445-.04.698 0 .13.032.245.101.347a.837.837 0 0 0 .275.259c.117.071.25.124.401.158.151.034.306.05.466.05.136 0 .277-.014.426-.041a1.46 1.46 0 0 0 .415-.144c.129-.068.24-.16.332-.278a.908.908 0 0 0 .176-.453l.456-1.868.51-2.087c.176-.717.393-1.428.651-2.134s.526-1.382.805-2.029c.277-.647.557-1.25.838-1.808.28-.558.554-1.043.819-1.456.264-.413.512-.736.741-.97.229-.234.435-.351.613-.351.217 0 .391.055.522.166.13.111.23.272.301.48.07.21.115.466.135.768.019.302.028.644.028 1.026 0 .555-.065 1.162-.196 1.821-.131.66-.254 1.321-.37 1.983a53.32 53.32 0 0 1-.384 1.993c-.141.666-.264 1.269-.369 1.81l-.271 1.4c-.074.393-.052.669.066.83 0 .24.029.444.089.609.058.167.135.305.23.412a.85.85 0 0 0 .332.236c.126.049.254.074.383.074s.258-.017.388-.051c.128-.034.251-.088.366-.162.116-.074.218-.171.307-.292.089-.12.154-.266.197-.439.119-.614.227-1.253.322-1.919a23.51 23.51 0 0 1 .412-2.115c.179-.744.343-1.465.492-2.161.149-.696.331-1.362.545-1.998.215-.635.441-1.226.683-1.773.24-.546.499-1.02.775-1.418.277-.399.569-.712.88-.939.31-.228.639-.341.988-.341.174 0 .313.043.418.129.106.086.187.208.242.365s.094.348.112.573a7.571 7.571 0 0 1-.106 2.061l-.272 1.527c-.092.518-.186 1.037-.278 1.559l-.276 1.54-.263 1.466c-.085.473-.14.915-.164 1.328a3.095 3.095 0 0 0-.019.324c0 .444.074.837.223 1.179.147.342.344.628.59.859.247.231.529.405.846.522.317.118.643.176.975.176a3.572 3.572 0 0 0 2.068-.67c.32-.224.635-.516.944-.864.074.119.142.244.229.353.288.36.647.648 1.079.861s.935.32 1.511.32c.37 0 .736-.042 1.097-.129.36-.085.708-.199 1.044-.343.337-.143.657-.306.962-.49.268-.161.514-.326.75-.492.081.191.174.374.29.539.193.277.438.499.73.666.292.167.639.25 1.04.25.284 0 .566-.048.848-.143s.56-.221.835-.378c.275-.156.541-.342.797-.555.257-.212.5-.437.729-.672.151.379.33.684.535.913.205.229.41.404.615.525a2.01 2.01 0 0 0 .961.299c.149 0 .314-.028.495-.083s.366-.127.557-.216c.191-.088.386-.189.583-.305a11.643 11.643 0 0 0 1.088-.717c.013.079.023.16.042.234.059.231.155.427.291.587.137.161.313.285.531.375.219.089.489.134.811.134.356 0 .734-.064 1.132-.194s.787-.292 1.17-.486a8.824 8.824 0 0 0 1.468-.935c.09.331.188.656.302.971.206.578.459 1.089.758 1.533s.646.796 1.044 1.057a2.4 2.4 0 0 0 1.355.393c.477 0 .916-.087 1.317-.262a3.973 3.973 0 0 0 1.092-.711c.324-.298.609-.646.854-1.042s.453-.816.622-1.259c.171-.442.301-.896.39-1.36a8.16 8.16 0 0 0 .158-1.548c.004-.099.007-.215.01-.348.003-.132.008-.279.014-.439l.019-.481c.013-.376.028-.79.046-1.241.975-.147 1.822-.404 2.545-.768.724-.364 1.322-.796 1.797-1.295.253-.267.469-.547.654-.84l-.006.021-.266 1.515c-.178 1.011-.268 1.818-.268 2.422 0 .704.061 1.376.18 2.016.12.64.286 1.203.497 1.688.213.485.461.872.747 1.16.285.288.594.432.926.432.216 0 .447-.028.695-.083.247-.056.501-.13.761-.224.261-.094.52-.201.776-.321.214-.099.417-.2.619-.302.062.084.119.171.189.245.215.227.463.401.744.521.28.122.568.183.864.183.279 0 .559-.046.839-.138.279-.091.549-.208.806-.352a4.989 4.989 0 0 0 1.264-1.001c.198.494.435.871.708 1.13.273.26.614.389 1.024.389.339 0 .678-.084 1.017-.252.211-.104.41-.229.604-.362.111.034.23.057.368.057.173 0 .377-.035.611-.106.271.136.521.249.748.337.229.089.429.161.601.217.173.057.312.097.417.12.104.023.169.035.193.035.303 0 .625-.035.967-.107.342-.072.678-.169 1.008-.292s.646-.266.947-.428c.102-.054.192-.111.285-.167.056.073.105.152.168.217a2.234 2.234 0 0 0 1.609.704c.279 0 .559-.046.839-.138.279-.091.548-.208.806-.352s.495-.304.713-.48c.217-.177.4-.352.551-.521.198.494.435.871.708 1.13.272.26.614.389 1.024.389.339 0 .678-.084 1.017-.252s.656-.375.952-.617c.296-.243.562-.499.8-.767a9.09 9.09 0 0 0 .569-.701l-.445-2.03zm-61.771-.557c.013-.187.069-.425.172-.714.103-.289.191-.532.269-.728.078-.196.18-.371.307-.525.127-.153.285-.278.474-.375.188-.096.416-.145.683-.145.147 0 .273.087.375.262.103.175.153.398.153.668 0 .193-.108.438-.325.733a3.52 3.52 0 0 1-.663.705 3.27 3.27 0 0 1-.733.43 1.875 1.875 0 0 1-.729.167 5.822 5.822 0 0 1 .017-.478zm9.2 1.959c-.074.11-.155.215-.245.316a2.172 2.172 0 0 1-.282.271 1.518 1.518 0 0 1-.31.193.789.789 0 0 1-.328.073c-.217 0-.392-.024-.528-.072a.789.789 0 0 1-.313-.188.63.63 0 0 1-.153-.26 1.074 1.074 0 0 1-.041-.29c0-.311.055-.659.166-1.044s.273-.845.486-1.38c.213-.534.477-.965.795-1.291a3.88 3.88 0 0 1 1.086-.788c.006-.006.013.055.019.186s.011.299.014.504.008.432.015.681c.006.248.012.566.018.956.007.388.016.677.029.867.013.189.028.328.047.414a5.657 5.657 0 0 1-.475.852zm3.68-3.966v-.497c0-.175-.547-.379-.54-.614s-.257-.494-.239-.778c.016-.285-.1-.58-.072-.885.012-.15-.034-.403-.001-.759.032-.356.042-.756.095-1.199.055-.444.122-.897.237-1.359.117-.464.216-.892.315-1.286s.226-.716.388-.965c.164-.25.343-.375.544-.375.113 0 .197.065.257.194.059.129.089.36.089.693 0 .253-.02.596-.058 1.028a8.855 8.855 0 0 1-.168 1.036c-.08.364-.178.731-.294 1.103l-.349 1.122c-.118.378.313.74.193 1.087-.289.815-.397 1.633-.397 2.454zm19.05-3.705a2.8 2.8 0 0 1-.637.928 3.874 3.874 0 0 1-1.084.73c-.436.206-.955.356-1.559.45l.084-.74.562-2.406c0-.025.001-.044.004-.061a.451.451 0 0 0 .005-.089.682.682 0 0 0-.337-.618.923.923 0 0 0-.319-.121 1.84 1.84 0 0 0-.342-.033c-.366 0-.674.092-.923.275-.248.185-.45.417-.605.697-.155.28-.273.589-.354.925a7.617 7.617 0 0 0-.173.968 8.572 8.572 0 0 0-.056.822c-.004.24-.005.4-.005.48a2.508 2.508 0 0 1-.366-.115 6.862 6.862 0 0 1-.973-.461 4.816 4.816 0 0 0-.196-.106.39.39 0 0 0-.17-.039c-.092 0-.164.027-.216.081s-.092.123-.119.209a1.192 1.192 0 0 0-.05.294c-.006.111-.01.223-.01.337 0 .206.021.386.06.542.04.154.133.301.28.44.146.14.662.285.953.436.289.151 1.493.328 1.493.527v.435c0 .285-.304.628-.315 1.033-.012.405-.188.829-.231 1.273-.043.444-.184.887-.27 1.328-.086.441-.241.837-.389 1.186s-.35.633-.57.852a1.132 1.132 0 0 1-.817.329.926.926 0 0 1-.757-.384 3.184 3.184 0 0 1-.501-.99 7.564 7.564 0 0 1-.302-1.356 20.153 20.153 0 0 1-.149-1.48c-.031-.488-.048-.946-.051-1.375s-.005-.77-.005-1.022c0-.619.045-1.254.135-1.905.09-.652.229-1.286.416-1.9.189-.615.429-1.194.719-1.738s.634-1.02 1.029-1.428c.396-.408.846-.73 1.353-.969s1.072-.357 1.696-.357c.831 0 1.521.097 2.069.289s.985.436 1.312.734c.325.297.556.626.688.99.132.362.199.717.199 1.063.002.356-.067.703-.206 1.04zm3.778 1.066l.249-1.253.407-1.351c.271-.9.506-1.551.701-1.95.195-.4.392-.716.588-.951.194-.234.377-.352.547-.352.047 0 .074.064.083.191.009.127.014.281.014.462a9.298 9.298 0 0 1-.39 1.832c-.204.656-.445 1.313-.724 1.972s-.573 1.299-.886 1.92a41.113 41.113 0 0 1-.886 1.679c.032-.631.131-1.364.297-2.199zm6.706 5.147a5.357 5.357 0 0 1-.161.745 5.161 5.161 0 0 1-.33.866 2.88 2.88 0 0 1-.481.717c-.185.198-.392.298-.62.298a.55.55 0 0 1-.352-.11.781.781 0 0 1-.223-.286c-.056-.118-.095-.251-.116-.4s-.032-.304-.032-.463c0-.269.036-.557.107-.862.07-.305.191-.66.364-1.063s.349-.742.527-1.018c.179-.274.374-.52.587-.733s.439-.383.68-.508c.24-.125.486-.188.739-.188l-.689 3.005zm14.184 0a5.38 5.38 0 0 1-.162.745c-.084.297-.193.586-.329.866s-.296.519-.481.717-.393.298-.621.298a.554.554 0 0 1-.352-.11.78.78 0 0 1-.222-.286c-.057-.118-.095-.251-.116-.4s-.032-.304-.032-.463c0-.269.035-.557.106-.862.07-.305.192-.66.365-1.063.172-.403.348-.742.526-1.018a4.61 4.61 0 0 1 .587-.733c.213-.213.439-.383.68-.508.24-.125.487-.188.74-.188l-.689 3.005z"/></g><path fill="gray" d="M78.814 45.007c-1.137-.875-2.19-.92-1.727-2.433.37-1.206.645-2.437.896-3.672.439-2.167.57-4.381.367-6.581-.911-9.841-12.164-10.047-19.604-8.729-2.241.396-3.809 1.504-5.401-.39-1.332-1.584-3.333-2.541-5.231-3.235-4.068-1.488-8.785-.535-12.306 1.799-2.385 1.582-2.002 2.589-5.032 2.059a42.585 42.585 0 0 0-7.451-.618c-3.77.008-7.803.884-10.594 3.563-.015.015-.023.03-.037.043l-.16.131c-.062.034-.123.063-.179.117-.032.03-.058.062-.089.093-2.169 2.121-3.062 4.657-3.354 7.65-.162 1.679.069 3.38.305 5.04.311 2.195 1.503 3.52-.375 4.988-5.357 4.19-5.891 11.165-.88 15.87 1.704 1.601 2.162.973 1.452 3.453-.47 1.637-.842 3.35-1.003 5.047-.288 3.021-.244 6.619 1.776 9.115 4.343 5.364 12.953 4.443 18.983 3.481 2.123-.339 2.902-.964 4.354.737 1.095 1.284 2.672 2.166 4.181 2.852 3.094 1.406 6.661 1.32 9.865.404a11.19 11.19 0 0 0 3.714-1.899c1.456-1.146 1.919-2.472 3.856-2.088 3.71.735 7.716 1.231 11.479.656 6.083-.928 10.437-4.691 11.249-10.903.156-1.187-1.177-9.645-.828-9.835 2.965-1.61 4.928-4.621 5.445-7.899.514-3.241-1.096-6.839-3.671-8.816zM75.33 60.788a.821.821 0 0 0-.377.926c1.645 5.699 2.661 12.422-2.419 16.652-5.046 4.201-13.069 2.704-18.917 1.453-.397-.084-.69.065-.926.377-4.749 6.277-14.78 6.135-19.213-.4-.213-.314-.547-.467-.926-.376-5.758 1.379-12.619 2.481-18.266.095-6.82-2.881-4.172-12.428-2.436-17.7.105-.319-.058-.782-.376-.926-7.452-3.372-6.643-12.17.067-15.777.318-.171.477-.583.377-.926-1.494-5.167-2.759-11.664 1.494-15.855.17-.126.336-.271.483-.393.031-.026.054-.054.079-.081 4.889-4.582 13.465-3.123 19.354-1.872.395.084.693-.063.926-.377 4.641-6.23 14.71-6.25 19.08.286.211.314.551.469.926.376 5.963-1.466 12.834-3.113 18.568-.06 6.253 3.329 3.855 12.4 2.121 17.675-.105.324.06.776.377.926 7.48 3.535 6.9 12.232.004 15.977z"/><g fill="#F69700"><path d="M21.027 71.091c.004-.004.246.193.246.193s-7.576-4.746 12.402-10.935c-.045.106-.223.085-.307.157l2.531-2.171c-.003.002.16.236.092.178-3.859-3.311-4.445-7.58.292-11.655l-2.137-1.833c-.725.734.115.117.15.201-19.975-6.191-12.6-10.766-12.6-10.766s-.729.619.056-.064l-5.496-4.712c-.796.672-.219.149-.343.255-4.015 3.442-3.207 9.886-1.631 15.125-.809.396-1.558.876-2.251 1.47-4.123 3.535-4.155 9.226-.083 12.717.79.677 1.327.917 2.272 1.329-1.823 5.38-3.165 12.277.762 15.692l6.045-5.181zM19.32 46.396s-1.131-6.065 13.942 0c-15.073 6.066-13.942 0-13.942 0zm.306 13.059s-1.132-6.07 13.944-.003c-15.076 6.068-13.944.003-13.944.003z"/><path d="M14.984 76.274c3.98 3.366 12.559 2.67 18.832 1.105.48.812 1.163 1.612 1.951 2.291 4.072 3.49 10.779 3.515 14.903-.021.69-.594 1.297-1.218 1.758-1.911 6.11 1.353 13.618 2.079 17.63-1.362.125-.106-.468.403.315-.282l-5.495-4.712c-.795.675-.049.028-.049.028s-5.382 6.365-12.6-10.766c.098.03-.601.732.257.11l-2.138-1.832c-4.752 4.064-10.265 3.101-14.125-.209a5.116 5.116 0 0 1-.324-.377l-2.531 2.171c.084-.072.46.119.584.082C26.736 77.72 21.199 71.22 21.199 71.22s-.168-.133-.172-.129l-6.043 5.183zm35.905-14.761c7.074 12.926.002 11.958.002 11.958s-7.076.968-.002-11.958zm-15.224-.264c7.075 12.93-.001 11.961-.001 11.961s-7.072.969.001-11.961z"/><path d="M65.667 34.164c-.004.004-.115-.079-.115-.079s7.509 4.688-12.468 10.876c.046-.107.155-.14.24-.213l-2.533 2.171c.004-.002-.193.024-.128.081 3.862 3.311 3.628 8.518-.321 11.915l2.137 1.833c-.065-.057.054-.262.016-.342C72.471 66.594 65.01 71.241 65.01 71.241s-.143.131-.137.137l5.493 4.71c.008.006.39-.293.514-.4 4.014-3.441 3.29-9.955 1.714-15.197.809-.396 1.6-.909 2.289-1.503 4.125-3.536 4.18-9.245.107-12.737-.789-.676-1.452-1.042-2.397-1.454 1.824-5.378 3.042-12.399-.884-15.815l-6.042 5.182zm1.977 24.927s1.128 6.066-13.944 0c15.071-6.068 13.944 0 13.944 0zm-.307-13.059s1.131 6.071-13.946.004c15.077-6.069 13.946-.004 13.946-.004z"/><path d="M71.709 28.982c-4.773-4.046-12.426-2.556-18.698-.991a8.842 8.842 0 0 0-1.886-2.232c-4.071-3.493-10.746-3.486-14.867.047a9.618 9.618 0 0 0-1.743 1.926c-6.108-1.351-13.776-1.928-17.789 1.513a9.019 9.019 0 0 0-.474.434l5.494 4.711c.004.005.217-.168.217-.168s5.299-6.295 12.518 10.835c-.1-.029-.275.02-.341-.038l2.138 1.833c3.961-3.387 10.295-3.362 14.156-.05.066.056.361.114.357.117l2.533-2.171c-.085.073-.325-.004-.45.034 7.217-17.132 12.688-10.69 12.688-10.69s.101.076.104.071l6.043-5.181zM36.074 43.975c-7.075-12.928-.002-11.959-.002-11.959s7.074-.969.002 11.959zm15.223.262c-7.075-12.93.002-11.959.002-11.959s7.071-.97-.002 11.959z"/></g><path d="M28.274.261h3.158c1.596 0 2.786.594 3.571 1.781.784 1.187 1.177 2.912 1.177 5.175 0 1.269-.179 2.439-.534 3.512-.357 1.072-.906 1.877-1.648 2.413-.742.536-1.597.804-2.565.804h-3.158V.261zm1.334 1.197v11.33h1.828c1.192 0 2.051-.501 2.575-1.502.523-1.001.786-2.497.786-4.487 0-1.734-.272-3.059-.816-3.971-.544-.914-1.392-1.37-2.545-1.37h-1.828zm9.001-1c.486 0 .73.368.73 1.104 0 .775-.25 1.162-.75 1.162-.481 0-.722-.374-.722-1.123.001-.763.247-1.143.742-1.143zm-.632 4.139h1.235v9.349h-1.235V4.597zm3.344 0h1.117l.118 1.335c.326-.518.697-.904 1.111-1.163s.873-.387 1.376-.387c.796 0 1.417.268 1.86.804.444.536.666 1.252.666 2.148v6.612h-1.235V7.334c0-.549-.145-.987-.433-1.314-.287-.327-.66-.491-1.117-.491-.622 0-1.148.274-1.58.819a2.96 2.96 0 0 0-.647 1.889v5.709h-1.236V4.597zm14.548 8.367c-.995.798-1.968 1.198-2.918 1.198-1.113 0-2.014-.447-2.701-1.339-.688-.893-1.031-2.055-1.031-3.488 0-1.478.354-2.673 1.064-3.585.709-.913 1.606-1.369 2.691-1.369.962 0 1.733.368 2.315 1.104s.873 1.666.873 2.791v.608h-5.67v.48c0 1.216.254 2.136.761 2.757.506.621 1.1.932 1.78.932.942 0 1.887-.521 2.835-1.56v1.471zm-1.02-5.13c-.025-.775-.225-1.356-.597-1.743-.372-.388-.806-.582-1.302-.582-.503 0-.971.194-1.404.582-.435.387-.742.968-.925 1.743h4.228zM21.335 109.122h.63v5.912h2.402v.547h-3.032v-6.459zm5.167 1.944c.484 0 .889.211 1.213.632.324.422.486.979.486 1.674 0 .4-.064.779-.192 1.136s-.326.642-.595.854a1.46 1.46 0 0 1-.936.319 1.44 1.44 0 0 1-1.247-.653c-.304-.435-.457-.98-.457-1.634 0-.521.097-.972.288-1.352s.425-.637.701-.773c.277-.134.522-.203.739-.203zm.039.547c-.386 0-.678.164-.872.491s-.292.773-.292 1.338c0 .484.097.89.287 1.217.191.327.461.491.809.491.327 0 .597-.152.809-.456.212-.304.318-.748.318-1.331 0-.556-.104-.987-.312-1.292-.207-.305-.456-.458-.747-.458zm2.293 3.009c.433.352.846.528 1.237.528.303 0 .552-.077.749-.23a.702.702 0 0 0 .297-.582.548.548 0 0 0-.196-.428c-.132-.114-.385-.227-.763-.338-.462-.14-.801-.299-1.013-.478-.213-.179-.32-.427-.32-.745 0-.364.144-.669.431-.915s.643-.368 1.064-.368c.34 0 .727.12 1.158.36v.654c-.368-.321-.744-.481-1.129-.481-.267 0-.485.071-.656.213a.652.652 0 0 0-.257.516c0 .17.077.31.232.418.149.111.402.216.753.315.865.241 1.297.651 1.297 1.231 0 .392-.158.722-.474.989-.317.267-.7.4-1.15.4-.417 0-.837-.134-1.261-.402v-.657zm7.066-5.5h.618l1.803 6.458h-.704l-.549-2.231h-1.714l-.548 2.231h-.686l1.78-6.458zm.297.788l-.715 2.916h1.445l-.73-2.916zm2.601-.788h.583v6.458h-.583v-6.458zm4.176 2.046h.431v4.667c0 .596-.162 1.062-.485 1.398a1.563 1.563 0 0 1-1.168.505c-.397 0-.826-.157-1.286-.472v-.689c.447.429.868.643 1.263.643a.96.96 0 0 0 .793-.384c.2-.257.3-.59.3-1v-.949a1.726 1.726 0 0 1-.504.521 1.08 1.08 0 0 1-.589.174c-.446 0-.818-.216-1.115-.648-.296-.432-.443-.949-.443-1.551 0-.648.164-1.196.495-1.643.33-.448.722-.672 1.176-.672.193 0 .372.043.537.127.163.085.312.213.443.382l.152-.409zm-.154.945a1.447 1.447 0 0 0-.416-.365.927.927 0 0 0-.459-.121c-.339 0-.618.165-.838.496-.218.331-.328.751-.328 1.264 0 .469.096.866.286 1.192.192.325.449.488.774.488.281 0 .515-.128.701-.385.188-.256.279-.588.279-.995v-1.574zm3.047-1.047c.484 0 .888.211 1.213.632.324.422.486.979.486 1.674 0 .4-.064.779-.192 1.136s-.326.642-.596.854a1.457 1.457 0 0 1-.935.319 1.44 1.44 0 0 1-1.247-.653c-.305-.435-.457-.98-.457-1.634 0-.521.097-.972.287-1.352.192-.38.426-.637.701-.773.277-.134.523-.203.74-.203zm.039.547c-.387 0-.678.164-.872.491s-.293.773-.293 1.338c0 .484.097.89.288 1.217s.461.491.808.491c.328 0 .597-.152.81-.456.212-.304.317-.748.317-1.331 0-.556-.103-.987-.311-1.292-.208-.305-.456-.458-.747-.458zm4.928-2.491h.584v6.458h-.584v-.62a1.633 1.633 0 0 1-.493.541 1.08 1.08 0 0 1-.604.181c-.465 0-.84-.228-1.129-.683-.287-.455-.431-.985-.431-1.591 0-.647.158-1.2.476-1.657s.72-.686 1.208-.686c.158 0 .318.036.48.107.162.07.326.179.493.324v-2.374zm0 2.935a1.23 1.23 0 0 0-.393-.331 1.003 1.003 0 0 0-.464-.109c-.342 0-.628.164-.856.491s-.342.759-.342 1.296c0 .503.101.92.301 1.25.2.33.456.495.769.495.274 0 .508-.122.698-.366.192-.243.287-.552.287-.926v-1.8zm3.135-.991c.484 0 .889.211 1.213.632.323.422.485.979.485 1.674 0 .4-.063.779-.192 1.136a1.858 1.858 0 0 1-.594.854 1.465 1.465 0 0 1-.937.319c-.527 0-.942-.217-1.247-.653-.304-.435-.455-.98-.455-1.634 0-.521.095-.972.287-1.352.19-.38.424-.637.701-.773.276-.134.523-.203.739-.203zm.039.547a.954.954 0 0 0-.873.491c-.194.327-.291.773-.291 1.338 0 .484.096.89.287 1.217.192.327.461.491.808.491.327 0 .598-.152.81-.456.211-.304.317-.748.317-1.331 0-.556-.104-.987-.312-1.292-.206-.305-.455-.458-.746-.458zm2.488-.445h.527l.057.63a1.7 1.7 0 0 1 .523-.549c.196-.122.412-.183.65-.183.375 0 .668.126.877.38s.315.591.315 1.014v3.12h-.584v-3.12c0-.259-.067-.466-.204-.62a.669.669 0 0 0-.527-.232c-.294 0-.542.129-.745.386a1.397 1.397 0 0 0-.306.892v2.694h-.584v-4.412zm6.866 3.95c-.47.377-.929.564-1.378.564-.525 0-.95-.211-1.274-.632-.325-.421-.487-.97-.487-1.646 0-.697.168-1.261.503-1.692s.759-.646 1.271-.646c.453 0 .817.173 1.093.521.274.347.411.787.411 1.317v.287h-2.675v.227c0 .574.12 1.008.358 1.301.239.293.519.44.84.44.445 0 .891-.246 1.339-.737v.696zm-.482-2.422c-.012-.365-.105-.64-.282-.822a.822.822 0 0 0-.613-.274c-.237 0-.458.091-.663.274-.204.183-.351.457-.437.822h1.995zm1.223 1.926c.433.352.845.528 1.236.528.303 0 .553-.077.75-.23a.704.704 0 0 0 .296-.582.55.55 0 0 0-.195-.428c-.132-.114-.386-.227-.763-.338-.462-.14-.801-.299-1.014-.478s-.319-.427-.319-.745c0-.364.144-.669.431-.915s.643-.368 1.063-.368c.34 0 .727.12 1.159.36v.654c-.368-.321-.745-.481-1.13-.481-.267 0-.484.071-.655.213a.653.653 0 0 0-.258.516c0 .17.077.31.232.418.15.111.402.216.754.315.864.241 1.297.651 1.297 1.231 0 .392-.158.722-.475.989-.317.267-.7.4-1.15.4-.416 0-.837-.134-1.26-.402v-.657z" fill="#F69700"/></svg>