<svg xmlns="http://www.w3.org/2000/svg" width="88" height="118" viewBox="0 0 88 118"><g fill="gray"><path d="M43.057 94.76c.314 0 .584-.048.81-.145a1.68 1.68 0 0 0 .559-.378c.148-.155.256-.333.324-.532.067-.199.102-.404.102-.616 0-.23-.042-.429-.125-.597a1.076 1.076 0 0 0-.337-.406 1.5 1.5 0 0 0-.5-.229 2.404 2.404 0 0 0-.61-.075c-.346 0-.634.054-.864.164a1.655 1.655 0 0 0-.555.401 1.53 1.53 0 0 0-.301.508 1.51 1.51 0 0 0-.092.485c0 .429.129.773.388 1.031.257.26.659.389 1.201.389z"/><path d="M86.327 100.688c-.309.416-.613.788-.915 1.118-.13.141-.267.276-.412.408a4.846 4.846 0 0 1-.435.353 2.513 2.513 0 0 1-.43.252.99.99 0 0 1-.406.097c-.173 0-.286-.08-.338-.239s-.079-.38-.079-.662c0-.331.051-.737.152-1.22.103-.482.193-.912.272-1.289.079-.376.15-.745.212-1.104.062-.359.093-.686.093-.98 0-.193-.017-.346-.051-.458a.625.625 0 0 0-.144-.262.446.446 0 0 0-.214-.122 1.142 1.142 0 0 0-.261-.028c-.068 0-.139.001-.209.005a4.983 4.983 0 0 1-.209.004c-.081 0-.16-.004-.238-.014-.076-.009-.153-.029-.228-.061s-.137-.081-.187-.15l-.153-.21a.79.79 0 0 0-.199-.191.58.58 0 0 0-.335-.084c-.428 0-.849.091-1.26.272a5 5 0 0 0-1.177.732 6.474 6.474 0 0 0-1.028 1.077c-.312.412-.606.9-.879 1.465a9.013 9.013 0 0 0-.604 1.576 5.408 5.408 0 0 0-.188 1.325c-.095.079-.189.156-.288.241a4.846 4.846 0 0 1-.509.38c-.183.118-.379.217-.592.295s-.448.117-.707.117c-.117 0-.254-.022-.412-.065a5.119 5.119 0 0 1-.448-.145 10.074 10.074 0 0 1-.37-.146 1.963 1.963 0 0 0-.166-.065l.047-.188c.055-.075.164-.217.327-.426l.573-.74c.219-.284.466-.62.74-1.007.273-.387.523-.734.748-1.04.226-.306.424-.584.598-.834.172-.25.295-.443.369-.581.259-.069.444-.143.555-.221.111-.079.173-.143.186-.193.037-.15.055-.332.055-.545 0-.264-.047-.473-.143-.626s-.252-.23-.468-.23a.235.235 0 0 0-.073.014 1.21 1.21 0 0 1-.162.033c-.077.012-.189-.013-.338-.003-.147.009-.345-.022-.592-.022h-.281c-.103 0-.215.033-.338.027a1.156 1.156 0 0 1-.467-.099c-.15-.073-.299-.144-.444-.232a5.477 5.477 0 0 0-.438-.235 1.003 1.003 0 0 0-.443-.106c-.197 0-.412.033-.643.099a1.737 1.737 0 0 0-.666.371c-.213.181-.406.438-.578.771s-.305.768-.397 1.304a2.401 2.401 0 0 0-.027.218c-.007.07-.01.137-.01.198a.9.9 0 0 0 .06.356.212.212 0 0 0 .209.134c.104 0 .222-.067.351-.203.13-.135.29-.347.481-.635.086-.132.164-.234.235-.306s.151-.126.24-.162c.09-.036.198-.057.329-.063.129-.006.292-.009.489-.009a.823.823 0 0 1 .421.108l.217.117c.08.044.176.09.287.141l-2.203 3.046c-.188.236-.377.462-.563.666a6.597 6.597 0 0 1-.411.408 5 5 0 0 1-.436.353 2.506 2.506 0 0 1-.429.252.994.994 0 0 1-.407.097c-.173 0-.285-.08-.338-.239-.052-.159-.078-.38-.078-.662 0-.331.051-.737.152-1.22l.272-1.289c.079-.376.149-.745.211-1.104.062-.359.093-.686.093-.98 0-.193-.017-.346-.051-.458a.604.604 0 0 0-.144-.262.441.441 0 0 0-.214-.122 1.127 1.127 0 0 0-.26-.028c-.068 0-.139.001-.21.005s-.141.004-.209.004c-.081 0-.16-.004-.237-.014s-.153-.029-.229-.061a.435.435 0 0 1-.186-.15l-.153-.21a.794.794 0 0 0-.2-.191.576.576 0 0 0-.335-.084c-.428 0-.848.091-1.26.272a5 5 0 0 0-1.177.732 6.428 6.428 0 0 0-1.027 1.077 8.61 8.61 0 0 0-.879 1.465 9.023 9.023 0 0 0-.605 1.576 5.633 5.633 0 0 0-.177 1.151c-.095.06-.188.12-.287.179a6.982 6.982 0 0 1-.535.289 3.825 3.825 0 0 1-.493.201c-.153.05-.291.074-.411.074-.05 0-.103-.035-.157-.107a1.177 1.177 0 0 1-.158-.289c-.049-.121-.251-.258-.284-.411-.034-.152-.21-.309-.21-.471v-.13c0-.125.202-.251.233-.382.031-.13.142-.253.173-.368.03-.115.102-.222.137-.322.035-.099.086-.18.117-.242.284-.56.604-1.132.941-1.718s.676-1.181 1.009-1.785c.333-.604.655-1.213.964-1.827s.58-1.226.813-1.836c.234-.61.421-1.218.56-1.822a8.03 8.03 0 0 0 .206-1.78c0-.234-.021-.465-.064-.691-.043-.226-.117-.429-.224-.607s-.253-.322-.438-.432c-.186-.108-.422-.163-.707-.163-.393 0-.778.112-1.158.337a4.656 4.656 0 0 0-1.092.927 9.332 9.332 0 0 0-1 1.384 15.706 15.706 0 0 0-.882 1.708 12.7 12.7 0 0 0-.451 1.207 4.642 4.642 0 0 0-.389-1.753 4.598 4.598 0 0 0-1.177-1.6c-.522-.464-1.175-.836-1.96-1.115-.784-.28-1.698-.42-2.74-.42-.79 0-1.536.128-2.237.383-.7.256-1.35.618-1.944 1.085a8.362 8.362 0 0 0-1.607 1.682 10.73 10.73 0 0 0-1.215 2.167c-.332.791-.589 1.64-.768 2.545a14.41 14.41 0 0 0-.269 2.817c0 .566.028 1.17.087 1.81.036.392.09.781.152 1.168-.247.217-.499.428-.757.632a6.747 6.747 0 0 1-.823.56c-.271.154-.518.231-.739.231-.191 0-.317-.082-.38-.245-.061-.164-.092-.384-.092-.661 0-.284.045-.599.133-.945.089-.347.162-.696.221-1.047.058-.352.166-.775.326-1.273.158-.498.277-.905.359-1.222l.216-.847c.063-.248.095-.439.095-.575 0-.16-.045-.288-.136-.383s-.264-.143-.518-.143c-.14 0-.296.017-.468.051-.173.035-.34.088-.5.159-.16.072-.305.164-.432.276a.764.764 0 0 0-.255.421c-.055.222-.198.701-.433 1.437-.252.903-.42 1.487-.504 1.75-.045.117-.141.606-.285 1.462-.244.2-.482.39-.713.558-.147.106-.301.21-.457.312a5.472 5.472 0 0 1-.468.275c-.154.081-.3.145-.438.191-.14.046-.268.07-.384.07a.428.428 0 0 1-.302-.112.765.765 0 0 1-.193-.304 1.888 1.888 0 0 1-.104-.435 4.005 4.005 0 0 1-.003-.958 6.901 6.901 0 0 1 .163-.856 3.42 3.42 0 0 1 .096-.318c.148-.399.49-1.156 1.029-2.272.353-.729.653-1.466.903-2.211l.757-2.261a8.215 8.215 0 0 0 .41-2.471c.004-.232.006-.458.006-.678 0-.352-.028-.693-.084-1.023a3.082 3.082 0 0 0-.271-.871 1.677 1.677 0 0 0-.495-.602 1.206 1.206 0 0 0-.74-.227c-.396 0-.78.122-1.152.365s-.723.581-1.052 1.012a8.346 8.346 0 0 0-.906 1.535 10.798 10.798 0 0 0-.676 1.941c-.175.703-.338 1.36-.488 1.97-.152.61-.237 1.315-.256 2.116a4.424 4.424 0 0 0-1.322.329 4.487 4.487 0 0 0-1.206.779 4.4 4.4 0 0 0-.943 1.146c-.237.419-.452.821-.647 1.206a5.695 5.695 0 0 0-.443 1.192 5.087 5.087 0 0 0-.116.631c-.341.252-.702.487-1.085.701a7.713 7.713 0 0 1-1.197.542c-.41.145-.8.217-1.17.217a1.43 1.43 0 0 1-.329-.036.908.908 0 0 1-.292-.126 1.203 1.203 0 0 1-.274-.253 2.89 2.89 0 0 1-.274-.407c.538-.145 1.037-.346 1.497-.605s.857-.555 1.19-.886a5.03 5.03 0 0 0 .876-1.193c.25-.464.375-.883.375-1.256a2.37 2.37 0 0 0-.185-.952 2.12 2.12 0 0 0-.515-.725c-.219-.2-.477-.355-.772-.466s-.617-.167-.963-.167a2.89 2.89 0 0 0-1.154.224c-.346.149-.658.35-.938.603a4.152 4.152 0 0 0-.731.876c-.208.332-.382.68-.52 1.045-.138.365-.271.783-.4 1.255-.128.471-.192.877-.192 1.218 0 .137.019.268.029.402-.024.03-.048.064-.071.092-.142.173-.29.341-.444.504a4.65 4.65 0 0 1-.467.434c-.157.126-.314.229-.472.306s-.307.115-.448.115c-.251 0-.442-.06-.574-.181s-.197-.316-.197-.585c0-.214.036-.53.109-.947s.154-.875.244-1.371l.283-1.576.303-1.69c.104-.573.206-1.149.31-1.729a9.43 9.43 0 0 0 .156-1.665c0-.567-.052-1.105-.156-1.613-.104-.509-.254-.952-.449-1.332s-.438-.68-.729-.901a1.596 1.596 0 0 0-.995-.333c-.542 0-1.064.136-1.569.407-.504.271-.975.661-1.412 1.169-.437.509-.83 1.126-1.181 1.854s-.646 1.547-.886 2.459l-.194.009.157-1.202c.019-.154.038-.31.06-.467a20.579 20.579 0 0 0 .093-.8c.01-.104.014-.182.014-.231 0-.542-.048-1.011-.143-1.406a3.07 3.07 0 0 0-.402-.979 1.652 1.652 0 0 0-.62-.573 1.686 1.686 0 0 0-.785-.186 2.48 2.48 0 0 0-1.17.314 5 5 0 0 0-1.165.888c-.385.382-.758.84-1.119 1.373-.362.533-.704 1.128-1.025 1.785s-.617 1.362-.889 2.118a23.14 23.14 0 0 0-.707 2.362c.108-.439.221-.912.336-1.417.115-.506.21-1.016.284-1.53s.146-1.003.212-1.468a7.847 7.847 0 0 0 .014-2.445 2.792 2.792 0 0 0-.31-.947 1.58 1.58 0 0 0-.601-.61c-.253-.145-.57-.217-.953-.217-.295 0-.604.062-.929.185-.323.124-.642.331-.952.624s-.607.685-.888 1.174c-.28.49-.531 1.099-.753 1.826a.122.122 0 0 0-.037.092c0 .068.009.144.025.227.018.083.04.162.066.236.026.074.056.137.088.19.032.052.062.078.092.078.094 0 .179-.02.255-.06a.363.363 0 0 0 .167-.199 6.58 6.58 0 0 1 .613-.745c.223-.231.444-.433.667-.605a3.96 3.96 0 0 1 .636-.411c.202-.102.373-.153.514-.153.088 0 .154.028.197.083.044.056.127.122.143.199.02.077.078.159.078.247v.215c0 .648-.029 1.256-.02 1.824.01.568-.04 1.113-.101 1.637-.06.524-.134 1.048-.192 1.572a8.264 8.264 0 0 1-.363 1.601 17.636 17.636 0 0 0-.472 1.743c-.136.619-.284 1.29-.441 2.012-.05.216-.087.43-.112.643a6.471 6.471 0 0 0-.037.698c0 .129.033.245.102.347.068.102.16.188.277.259.117.071.25.124.401.158.151.034.306.05.466.05.136 0 .277-.014.426-.041.147-.028.285-.076.415-.144a1.03 1.03 0 0 0 .332-.278.908.908 0 0 0 .176-.454l.456-1.867.51-2.087c.176-.717.393-1.429.651-2.134.259-.706.526-1.382.805-2.029.277-.647.557-1.25.838-1.808.28-.558.554-1.043.819-1.456.264-.413.512-.737.741-.971s.435-.352.613-.352c.217 0 .391.056.522.167.13.11.23.271.301.48s.115.465.135.768c.019.302.028.644.028 1.026 0 .555-.065 1.162-.196 1.822s-.254 1.321-.37 1.983a52.881 52.881 0 0 1-.384 1.992c-.141.666-.264 1.27-.369 1.811l-.271 1.4c-.074.393-.052.669.066.83 0 .241.029.444.089.61.058.167.135.304.23.411a.85.85 0 0 0 .332.236c.126.05.254.074.383.074s.258-.017.388-.051c.128-.034.251-.088.366-.162.116-.074.218-.171.307-.292s.154-.267.197-.44c.119-.614.227-1.253.322-1.918.096-.666.233-1.371.412-2.115.179-.745.343-1.465.492-2.162.149-.696.331-1.362.545-1.998.215-.635.441-1.227.683-1.773.24-.546.499-1.02.775-1.418.277-.399.569-.713.88-.94.31-.227.639-.341.988-.341.174 0 .313.043.418.129.106.086.187.208.242.366s.094.348.112.573.027.476.027.753c0 .373-.044.809-.133 1.309l-.272 1.527-.278 1.559-.276 1.54-.263 1.467c-.085.472-.14.914-.164 1.327a3.132 3.132 0 0 0-.019.324c0 .444.074.837.223 1.179.147.342.344.629.59.86.247.231.529.405.846.522a2.8 2.8 0 0 0 .975.176c.344 0 .689-.052 1.037-.157a3.598 3.598 0 0 0 1.031-.513c.32-.224.635-.516.944-.864.074.12.142.244.229.354a3.13 3.13 0 0 0 1.079.861c.432.213.935.32 1.511.32.37 0 .736-.043 1.097-.129.36-.085.708-.2 1.044-.343.337-.143.657-.306.962-.49.268-.161.514-.326.75-.493.081.191.174.375.29.539.193.277.438.499.73.666.292.167.639.25 1.04.25.284 0 .566-.047.848-.143.281-.095.56-.221.835-.378s.541-.342.797-.555c.257-.212.5-.437.729-.672.151.379.33.684.535.913.205.229.41.404.615.525s.395.202.568.241.304.059.393.059c.149 0 .314-.028.495-.083s.366-.127.557-.216c.191-.088.386-.19.583-.305.197-.114.385-.23.563-.349.174-.115.349-.24.525-.369.013.08.023.161.042.235.059.231.155.427.291.587.137.16.313.285.531.375.219.089.489.134.811.134a3.65 3.65 0 0 0 1.132-.194 8.187 8.187 0 0 0 1.17-.485 8.824 8.824 0 0 0 1.468-.935c.09.331.188.656.302.971.206.579.459 1.09.758 1.533s.646.795 1.044 1.057.85.393 1.355.393c.477 0 .916-.088 1.317-.263a3.925 3.925 0 0 0 1.092-.71c.324-.298.609-.646.854-1.042s.453-.816.622-1.259c.171-.443.301-.896.39-1.36a8.16 8.16 0 0 0 .158-1.548c.004-.099.007-.215.01-.348s.008-.279.014-.439l.019-.481c.013-.377.028-.79.046-1.241.975-.148 1.822-.404 2.545-.768.724-.364 1.322-.796 1.797-1.295.253-.267.469-.547.654-.839l-.006.021-.266 1.515c-.178 1.01-.268 1.817-.268 2.422 0 .704.061 1.376.18 2.016.12.64.286 1.203.497 1.688.213.485.461.872.747 1.16.285.289.594.433.926.433.216 0 .447-.028.695-.084a6.22 6.22 0 0 0 .761-.224c.261-.093.52-.2.776-.321.214-.1.417-.2.619-.302.061.084.119.171.189.245a2.232 2.232 0 0 0 1.608.704c.279 0 .559-.046.839-.138a4.828 4.828 0 0 0 1.519-.832c.218-.177.401-.351.551-.521.198.495.435.871.708 1.13s.614.389 1.024.389c.339 0 .678-.084 1.017-.253.211-.104.41-.229.604-.362.111.034.23.058.368.058.173 0 .377-.036.611-.106.271.136.521.249.748.337.229.088.429.161.601.217.173.056.312.096.417.12.104.024.169.036.193.036.303 0 .625-.036.967-.108s.678-.169 1.008-.292c.33-.124.646-.266.947-.428.102-.054.192-.111.285-.167.056.074.105.153.168.218.216.227.464.401.744.522.28.122.569.182.865.182.279 0 .559-.046.839-.138a4.881 4.881 0 0 0 2.07-1.353c.198.495.435.871.708 1.13.272.259.614.389 1.024.389.339 0 .678-.084 1.017-.253.339-.168.656-.374.952-.617s.562-.499.8-.767c.237-.268.427-.501.569-.701l-.444-2.044zm-61.771-.558c.013-.187.069-.424.172-.714.103-.289.191-.532.269-.728.078-.196.18-.37.307-.524.127-.153.285-.278.474-.375s.416-.145.683-.145c.147 0 .273.087.375.262.103.175.153.398.153.669 0 .193-.108.437-.325.732-.216.295-.438.53-.663.705s-.47.318-.733.429a1.875 1.875 0 0 1-.729.167c-.002-.13.004-.291.017-.478zm9.2 1.96a3.03 3.03 0 0 1-.245.315 2.24 2.24 0 0 1-.282.271 1.47 1.47 0 0 1-.31.192.79.79 0 0 1-.328.074c-.217 0-.392-.024-.528-.072a.789.789 0 0 1-.313-.188.634.634 0 0 1-.153-.261 1.069 1.069 0 0 1-.041-.29c0-.311.055-.659.166-1.044s.273-.845.486-1.38c.213-.534.477-.965.795-1.291a3.9 3.9 0 0 1 1.086-.788c.006-.006.013.056.019.186.006.131.011.299.014.504.003.205.008.432.015.681.006.248.012.567.018.955.007.389.016.678.029.867.013.189.028.328.047.415a5.633 5.633 0 0 1-.475.854zm3.014-3.967v-.496c0-.175-.214-.38-.207-.614s-.091-.493-.073-.777c.016-.284-.015-.58.011-.886.014-.15.009-.403.042-.759.032-.356.062-.756.115-1.199.054-.444.133-.897.248-1.36.117-.463.222-.891.321-1.285.098-.394.227-.716.389-.966.164-.25.346-.375.545-.375.113 0 .199.065.259.194.059.13.089.361.089.694 0 .253-.02.595-.058 1.027a8.822 8.822 0 0 1-.168 1.036c-.08.364-.178.731-.294 1.103l-.349 1.123c-.118.377-.02.74-.14 1.087-.289.814-.73 1.632-.73 2.453zm19.716-3.705a2.786 2.786 0 0 1-.637.927 3.874 3.874 0 0 1-1.084.73c-.436.206-.955.356-1.559.45l.084-.74.562-2.406c0-.025.001-.045.004-.061a.451.451 0 0 0 .005-.089.682.682 0 0 0-.097-.381c-.065-.099-.145-.178-.24-.237s-.202-.099-.319-.121a1.84 1.84 0 0 0-.342-.033c-.366 0-.674.092-.923.276-.248.184-.45.416-.605.696s-.273.589-.354.925c-.082.336-.139.659-.173.967s-.053.583-.056.823c-.004.24-.005.4-.005.481a2.78 2.78 0 0 1-.366-.115 8.6 8.6 0 0 1-.422-.178 6.231 6.231 0 0 1-.551-.283 3.824 3.824 0 0 0-.196-.106.376.376 0 0 0-.17-.039.286.286 0 0 0-.216.081c-.052.054-.092.124-.119.209s-.044.184-.05.294c-.006.111-.01.224-.01.337 0 .206.021.386.06.541.04.154.133.301.28.44.146.14.329.285.62.436.289.151 1.16.328 1.16.527v.435c0 .284.029.628.018 1.033s-.021.829-.065 1.273c-.043.444-.099.887-.185 1.328-.088.441-.2.836-.348 1.185-.147.349-.33.633-.551.852-.223.219-.49.329-.806.329-.302 0-.552-.128-.753-.384-.201-.256-.366-.586-.498-.99a7.634 7.634 0 0 1-.301-1.356 20.19 20.19 0 0 1-.147-1.48c-.031-.487-.048-.946-.051-1.375s-.005-.77-.005-1.023c0-.618.045-1.253.135-1.904.09-.652.229-1.286.416-1.9.189-.615.429-1.194.719-1.738s.634-1.02 1.029-1.428c.396-.408.846-.73 1.353-.969a3.941 3.941 0 0 1 1.696-.357c.831 0 1.521.096 2.069.288s.985.437 1.312.734c.325.297.556.627.688.99s.199.717.199 1.064c.003.359-.066.705-.205 1.042zm3.778 1.066l.249-1.253.407-1.352c.271-.9.506-1.55.701-1.95a4.76 4.76 0 0 1 .588-.951c.194-.234.377-.351.547-.351.047 0 .074.063.083.191.009.128.014.281.014.462-.056.565-.186 1.176-.39 1.832s-.445 1.313-.724 1.972a31.253 31.253 0 0 1-.886 1.92 41.031 41.031 0 0 1-.886 1.678c.032-.629.131-1.363.297-2.198zm6.706 5.148a5.357 5.357 0 0 1-.161.745 5.129 5.129 0 0 1-.33.866 2.9 2.9 0 0 1-.481.717c-.185.199-.392.298-.62.298a.556.556 0 0 1-.352-.109.79.79 0 0 1-.223-.286 1.375 1.375 0 0 1-.116-.4 3.332 3.332 0 0 1-.032-.463c0-.269.036-.556.107-.862.07-.305.191-.66.364-1.063s.349-.742.527-1.018c.179-.274.374-.519.587-.733s.439-.384.68-.509c.24-.125.486-.188.739-.188l-.689 3.005zm14.184 0a5.38 5.38 0 0 1-.162.745c-.084.298-.193.586-.329.866s-.296.518-.481.717-.393.298-.621.298a.56.56 0 0 1-.352-.109.787.787 0 0 1-.222-.286 1.345 1.345 0 0 1-.116-.4 3.332 3.332 0 0 1-.032-.463c0-.269.035-.556.106-.862.07-.305.192-.66.365-1.063.172-.403.348-.742.526-1.018.179-.274.375-.519.587-.733.213-.214.439-.384.68-.509.24-.125.487-.188.74-.188l-.689 3.005z"/></g><g fill="#B70050"><path d="M21.698 33.551s-.03.019-.08.055c-.529.462.08-.055.08-.055zm43.075 37.011l.057-.062s-.646.561-.057.062zm5.286 4.904c-.013.011-.027.019-.039.03-.181.16.133-.11.039-.03z"/><path d="M74.99 45.341c-.789-.677-1.452-1.042-2.397-1.455 1.824-5.378 3.042-12.399-.884-15.814-4.773-4.046-12.426-2.556-18.698-.991a8.86 8.86 0 0 0-1.886-2.232c-4.071-3.492-10.746-3.486-14.867.048a9.59 9.59 0 0 0-1.743 1.926c-6.108-1.352-13.776-1.929-17.789 1.513a9.491 9.491 0 0 0-.474.434l5.494 4.711c.004.005.217-.168.217-.168s5.299-6.295 12.518 10.835c-.1-.029-.275.019-.341-.038l2.138 1.833c3.961-3.386 10.295-3.361 14.156-.049.066.056.361.115.357.117.004-.002-.193.023-.128.08 3.862 3.312 3.628 8.519-.321 11.915l.008.006c-4.752 4.065-10.265 3.102-14.125-.208a5.334 5.334 0 0 1-.324-.377l-.053.045c-3.723-3.292-4.238-7.501.437-11.522l-2.137-1.833c-.05.05-.075.08-.11.117-18.39-5.758-13.159-10.1-12.419-10.628l.136-.119-5.496-4.711c-.796.672-.219.149-.343.256-4.015 3.441-3.207 9.886-1.631 15.125a10.55 10.55 0 0 0-2.251 1.469c-4.123 3.535-4.155 9.226-.083 12.717.79.677 1.327.917 2.272 1.329-1.823 5.38-3.165 12.276.762 15.691 3.98 3.367 12.559 2.671 18.832 1.106.48.812 1.163 1.613 1.951 2.29 4.072 3.491 10.779 3.516 14.903-.02.69-.594 1.297-1.219 1.758-1.911 6.091 1.348 13.569 2.071 17.591-1.333l.354-.312-5.495-4.712-.105.089c-.582.605-5.701 5.243-12.447-10.606.05-.033.093-.062.161-.111l-.009-.008c-.063-.059.054-.261.016-.341 19.976 6.19 12.515 10.837 12.515 10.837s-.143.131-.137.136l5.493 4.711c.008.007.39-.293.514-.4 4.014-3.441 3.29-9.956 1.714-15.197.809-.396 1.6-.91 2.289-1.503 4.125-3.536 4.179-9.245.107-12.737zm-38.916-2.277c-7.075-12.928-.002-11.959-.002-11.959s7.074-.969.002 11.959zm-2.811 2.422c-15.073 6.066-13.942 0-13.942 0s-1.132-6.067 13.942 0zm.307 13.056c-15.076 6.068-13.944.003-13.944.003s-1.132-6.07 13.944-.003zM21.235 70.349l.038.025-.06-.048-.015-.017s-.168-.133-.172-.128l-.006.005c-1.13-.929-4.975-5.24 12.454-10.682l-.106.092c.084-.072.46.12.584.083-6.895 16.371-12.255 11.164-12.717 10.67zm14.429 1.95s-7.072.97.001-11.959c7.075 12.929-.001 11.959-.001 11.959zm15.227.261s-7.075.97-.002-11.958c7.074 12.928.002 11.958.002 11.958zm.406-29.233c-7.075-12.93.002-11.959.002-11.959s7.071-.971-.002 11.959zm1.577.545c7.207-17.108 12.673-10.708 12.688-10.69l-.01-.006a2.66 2.66 0 0 0 .095.065c.799.579 6.061 5.042-12.562 10.811.006-.013.019-.018.025-.029l.215-.184c-.086.072-.326-.005-.451.033zm.517 1.253c15.077-6.068 13.946-.003 13.946-.003s1.131 6.069-13.946.003zm.308 13.055c15.072-6.067 13.944 0 13.944 0s1.128 6.067-13.944 0z"/></g><path fill="gray" d="M78.814 44.097c-1.137-.874-2.19-.92-1.727-2.433.37-1.206.645-2.437.896-3.672.439-2.167.57-4.381.367-6.581-.911-9.841-12.164-10.047-19.604-8.73-2.241.397-3.809 1.504-5.401-.389-1.333-1.584-3.333-2.542-5.231-3.235-4.068-1.488-8.785-.534-12.306 1.799-2.385 1.581-2.002 2.589-5.032 2.059a42.682 42.682 0 0 0-7.451-.618c-3.765.008-7.809.881-10.594 3.564-.014.013-.022.027-.034.041l-.166.134c-.06.034.021.09-.033.143-.031.031.051.121.053.121h-.143c-2.169 2-3.133 4.63-3.423 7.623-.163 1.678.033 3.367.269 5.026.311 2.196 1.484 3.514-.393 4.982-5.357 4.19-5.9 11.162-.89 15.866 1.704 1.601 2.153.972 1.443 3.451-.47 1.637-.842 3.349-1.003 5.045-.288 3.021-.244 6.62 1.776 9.116 4.343 5.363 12.953 4.442 18.983 3.48 2.123-.338 2.902-.964 4.354.738 1.095 1.283 2.673 2.165 4.181 2.851 3.094 1.406 6.661 1.321 9.865.404a11.174 11.174 0 0 0 3.714-1.9c1.456-1.146 1.919-2.472 3.856-2.088 3.71.735 7.716 1.231 11.479.657 6.083-.928 10.437-4.691 11.249-10.903.156-1.187-1.177-9.645-.828-9.835 2.965-1.61 4.928-4.621 5.445-7.899.514-3.244-1.096-6.839-3.671-8.817zm-3.484 15.78a.821.821 0 0 0-.377.926c1.645 5.698 2.661 12.423-2.419 16.652-5.046 4.201-13.07 2.703-18.917 1.452-.397-.085-.69.065-.926.377-4.748 6.278-14.78 6.136-19.213-.399-.213-.315-.547-.467-.926-.376-5.758 1.378-12.619 2.481-18.266.095-6.82-2.881-4.173-12.429-2.436-17.7.105-.32-.058-.782-.376-.926-7.454-3.373-6.64-12.168.067-15.777.318-.172.477-.583.377-.926-1.494-5.166-2.759-11.663 1.493-15.855.17-.125.337-.271.484-.392.03-.025.053-.052.077-.079 4.876-4.59 13.475-3.123 19.355-1.874.395.084.693-.063.926-.376 4.639-6.233 14.711-6.249 19.08.285.211.315.551.469.926.377 5.963-1.466 12.834-3.113 18.568-.06 6.252 3.329 3.855 12.399 2.121 17.674-.105.325.06.776.377.926 7.479 3.535 6.902 12.232.005 15.976z"/><path d="M26.938 11.763c.699.569 1.267.96 1.701 1.172.436.212.879.319 1.33.319.713 0 1.349-.255 1.908-.766.559-.51.838-1.173.838-1.991 0-.615-.183-1.128-.549-1.54-.373-.405-1.082-.805-2.129-1.197-2.073-.785-3.109-1.975-3.109-3.571 0-1.026.367-1.901 1.104-2.624S29.649.481 30.676.481c.844 0 1.713.314 2.609.942v1.775c-.569-.53-1.038-.893-1.407-1.089a2.468 2.468 0 0 0-1.173-.294c-.687 0-1.257.235-1.712.706-.454.471-.682 1.018-.682 1.639 0 .628.205 1.123.613 1.486.408.363 1.149.764 2.222 1.203.647.262 1.169.527 1.564.795s.726.647.991 1.138c.265.49.397 1.049.397 1.677 0 1.171-.405 2.155-1.216 2.953-.812.797-1.773 1.196-2.885 1.196-.968 0-1.988-.376-3.061-1.128v-1.717zM35.806.707h1.235v5.611c.308-.497.664-.87 1.069-1.118a2.569 2.569 0 0 1 1.373-.373c.766 0 1.379.269 1.84.804.461.537.691 1.22.691 2.05v6.71h-1.236v-6.71c0-.517-.148-.93-.445-1.241a1.473 1.473 0 0 0-1.109-.466c-.613 0-1.131.265-1.552.795a2.885 2.885 0 0 0-.631 1.844v5.778h-1.235V.707zM47.4 4.827c1.026 0 1.883.446 2.57 1.339.686.893 1.03 2.075 1.03 3.546a7.1 7.1 0 0 1-.406 2.408c-.271.755-.692 1.359-1.261 1.81a3.097 3.097 0 0 1-1.981.677c-1.119 0-2-.461-2.645-1.383-.644-.922-.966-2.077-.966-3.463 0-1.105.202-2.06.608-2.864.405-.804.9-1.35 1.486-1.638.586-.288 1.107-.432 1.565-.432zm.083 1.157c-.819 0-1.435.347-1.849 1.04-.412.693-.618 1.639-.618 2.835 0 1.027.203 1.887.608 2.58.407.693.978 1.04 1.711 1.04.695 0 1.267-.322 1.716-.967.448-.644.673-1.584.673-2.82 0-1.177-.219-2.09-.658-2.737-.438-.646-.966-.971-1.583-.971zm6.47 12.763h-1.217V5.043h1.1l.117 1.354c.334-.523.699-.915 1.096-1.177s.82-.393 1.272-.393c1.002 0 1.797.463 2.383 1.388.587.926.88 2.062.88 3.409 0 1.635-.378 2.874-1.135 3.718-.757.843-1.588 1.265-2.492 1.265-.353 0-.697-.075-1.031-.226s-.658-.376-.973-.677v5.043zm0-6.199c.268.307.555.539.858.696.304.157.626.235.967.235.738 0 1.345-.35 1.819-1.05.474-.7.711-1.612.711-2.737 0-1.033-.207-1.912-.623-2.634-.415-.723-.966-1.084-1.652-1.084-.603 0-1.1.287-1.492.858-.392.573-.588 1.231-.588 1.977v3.739zm-32.618 96.355h.63v5.912h2.402v.546h-3.032v-6.458zm5.167 1.945c.484 0 .889.21 1.213.632.324.421.486.979.486 1.673 0 .402-.064.78-.192 1.137s-.326.641-.595.854a1.46 1.46 0 0 1-.936.319c-.527 0-.943-.218-1.247-.653s-.457-.979-.457-1.634c0-.521.097-.972.288-1.352s.425-.637.701-.773.522-.203.739-.203zm.039.546c-.386 0-.678.164-.872.491s-.292.773-.292 1.338c0 .484.097.89.287 1.217.191.327.461.491.809.491.327 0 .597-.152.809-.456.212-.304.318-.748.318-1.331 0-.556-.104-.986-.312-1.292-.207-.306-.456-.458-.747-.458zm2.293 3.009c.433.352.846.528 1.237.528.303 0 .552-.077.749-.229a.706.706 0 0 0 .297-.583.545.545 0 0 0-.196-.427c-.132-.114-.385-.227-.763-.338-.462-.139-.801-.298-1.013-.477-.213-.179-.32-.428-.32-.746 0-.364.144-.669.431-.915.287-.245.643-.368 1.064-.368.34 0 .727.12 1.158.359v.654c-.368-.321-.744-.481-1.129-.481-.267 0-.485.071-.656.214s-.257.314-.257.516c0 .17.077.31.232.418.149.112.402.217.753.315.865.241 1.297.651 1.297 1.231 0 .392-.158.722-.474.989-.317.267-.7.4-1.15.4-.417 0-.837-.134-1.261-.402v-.658zm7.066-5.5h.618l1.803 6.458h-.704l-.549-2.231h-1.714l-.548 2.231h-.686l1.78-6.458zm.297.787l-.715 2.916h1.445l-.73-2.916zm2.601-.787h.583v6.458h-.583v-6.458zm4.176 2.046h.431v4.667c0 .596-.162 1.062-.485 1.398a1.566 1.566 0 0 1-1.168.504c-.397 0-.826-.157-1.286-.472v-.69c.447.429.868.644 1.263.644a.96.96 0 0 0 .793-.384c.2-.256.3-.589.3-1v-.949a1.75 1.75 0 0 1-.504.521 1.08 1.08 0 0 1-.589.174c-.446 0-.818-.216-1.115-.648-.296-.432-.443-.95-.443-1.551 0-.648.164-1.196.495-1.644.33-.447.722-.671 1.176-.671.193 0 .372.042.537.127.163.085.312.212.443.382l.152-.408zm-.154.945a1.447 1.447 0 0 0-.416-.365.927.927 0 0 0-.459-.121c-.339 0-.618.165-.838.495-.218.331-.328.752-.328 1.264 0 .469.096.866.286 1.192.192.325.449.488.774.488.281 0 .515-.128.701-.384.188-.256.279-.588.279-.996v-1.573zm3.047-1.046c.484 0 .888.21 1.213.632.324.421.486.979.486 1.673 0 .402-.064.78-.192 1.137s-.326.641-.596.854a1.457 1.457 0 0 1-.935.319c-.527 0-.944-.218-1.247-.653-.305-.435-.457-.979-.457-1.634 0-.521.097-.972.287-1.352.192-.38.426-.637.701-.773.277-.135.523-.203.74-.203zm.039.546c-.387 0-.678.164-.872.491s-.293.773-.293 1.338c0 .484.097.89.288 1.217s.461.491.808.491c.328 0 .597-.152.81-.456.212-.304.317-.748.317-1.331 0-.556-.103-.986-.311-1.292-.208-.306-.456-.458-.747-.458zm4.928-2.491h.584v6.458h-.584v-.62c-.145.24-.309.421-.493.542s-.386.18-.604.18c-.465 0-.84-.228-1.129-.683-.287-.455-.431-.985-.431-1.59 0-.648.158-1.201.476-1.657s.72-.685 1.208-.685c.158 0 .318.035.48.106.162.071.326.179.493.324v-2.375zm0 2.935a1.218 1.218 0 0 0-.393-.331 1.003 1.003 0 0 0-.464-.109c-.342 0-.628.164-.856.491s-.342.759-.342 1.296c0 .503.101.919.301 1.25.2.33.456.495.769.495.274 0 .508-.122.698-.366.192-.244.287-.552.287-.926v-1.8zm3.135-.99c.484 0 .889.21 1.213.632.323.421.485.979.485 1.673 0 .402-.063.78-.192 1.137a1.863 1.863 0 0 1-.594.854 1.465 1.465 0 0 1-.937.319c-.527 0-.942-.218-1.247-.653-.304-.435-.455-.979-.455-1.634 0-.521.095-.972.287-1.352.19-.38.424-.637.701-.773.276-.135.523-.203.739-.203zm.039.546a.954.954 0 0 0-.873.491c-.194.327-.291.773-.291 1.338 0 .484.096.89.287 1.217.192.327.461.491.808.491.327 0 .598-.152.81-.456.211-.304.317-.748.317-1.331 0-.556-.104-.986-.312-1.292-.206-.306-.455-.458-.746-.458zm2.488-.445h.527l.057.63a1.7 1.7 0 0 1 .523-.549c.196-.122.412-.183.65-.183.375 0 .668.126.877.379s.315.591.315 1.014v3.12h-.584v-3.12c0-.26-.067-.466-.204-.621a.671.671 0 0 0-.527-.231c-.294 0-.542.129-.745.386a1.397 1.397 0 0 0-.306.892v2.694h-.584v-4.411zm6.866 3.949c-.47.376-.929.564-1.378.564-.525 0-.95-.21-1.274-.632-.325-.421-.487-.97-.487-1.646 0-.698.168-1.262.503-1.692s.759-.646 1.271-.646c.453 0 .817.173 1.093.521.274.347.411.786.411 1.317v.287h-2.675v.227c0 .574.12 1.008.358 1.301.239.293.519.44.84.44.445 0 .891-.245 1.339-.736v.695zm-.482-2.421c-.012-.366-.105-.64-.282-.823a.822.822 0 0 0-.613-.274c-.237 0-.458.091-.663.274-.204.183-.351.457-.437.823h1.995zm1.223 1.926c.433.352.845.528 1.236.528.303 0 .553-.077.75-.229a.708.708 0 0 0 .296-.583.547.547 0 0 0-.195-.427c-.132-.114-.386-.227-.763-.338-.462-.139-.801-.298-1.014-.477-.213-.179-.319-.428-.319-.746 0-.364.144-.669.431-.915.287-.245.643-.368 1.063-.368.34 0 .727.12 1.159.359v.654c-.368-.321-.745-.481-1.13-.481-.267 0-.484.071-.655.214s-.258.314-.258.516c0 .17.077.31.232.418.15.112.402.217.754.315.864.241 1.297.651 1.297 1.231 0 .392-.158.722-.475.989-.317.267-.7.4-1.15.4-.416 0-.837-.134-1.26-.402v-.658z" fill="#B70050"/></svg>