<svg xmlns="http://www.w3.org/2000/svg" width="325" height="385" viewBox="0 0 325 385"><g fill="#FFF"><path d="M159.427 306.971c1.021 0 1.898-.157 2.632-.471.731-.314 1.338-.724 1.819-1.23a4.671 4.671 0 0 0 1.053-1.731 6.157 6.157 0 0 0 .331-2.004c0-.749-.136-1.396-.406-1.943a3.536 3.536 0 0 0-1.098-1.321 4.835 4.835 0 0 0-1.624-.744 7.854 7.854 0 0 0-1.986-.243c-1.123 0-2.061.177-2.812.532-.752.354-1.354.79-1.805 1.306a4.94 4.94 0 0 0-.978 1.654c-.201.587-.301 1.113-.301 1.579 0 1.397.421 2.515 1.264 3.355.841.841 2.145 1.261 3.911 1.261z"/><path d="M300.208 326.257a46.063 46.063 0 0 1-2.978 3.638c-.421.457-.868.899-1.339 1.327-.472.428-.943.811-1.414 1.148a8.361 8.361 0 0 1-1.398.82c-.462.208-.902.313-1.324.313-.562 0-.928-.259-1.098-.777-.171-.518-.256-1.236-.256-2.156 0-1.075.166-2.397.496-3.967l.886-4.193c.259-1.226.488-2.424.688-3.592.201-1.168.301-2.231.301-3.19 0-.627-.055-1.125-.165-1.489-.11-.365-.267-.648-.467-.851a1.434 1.434 0 0 0-.695-.396 3.744 3.744 0 0 0-.848-.091c-.222 0-.449.005-.682.016-.231.01-.458.015-.68.015a6.51 6.51 0 0 1-.772-.045c-.252-.03-.5-.096-.741-.197a1.413 1.413 0 0 1-.605-.487 79.827 79.827 0 0 0-.499-.684 2.767 2.767 0 0 0-.65-.624c-.263-.182-.625-.273-1.09-.273-1.392 0-2.759.295-4.1.884a16.294 16.294 0 0 0-3.828 2.383 21.054 21.054 0 0 0-3.344 3.507c-1.02 1.339-1.973 2.928-2.859 4.767-.889 1.838-1.545 3.547-1.968 5.125a17.827 17.827 0 0 0-.625 4.311c-.303.252-.609.511-.928.783-.512.437-1.063.848-1.655 1.234a9.378 9.378 0 0 1-1.925.96c-.692.254-1.459.381-2.301.381-.382 0-.827-.071-1.339-.214a16.989 16.989 0 0 1-1.459-.472 35.923 35.923 0 0 1-1.203-.473c-.342-.142-.522-.213-.542-.213l.15-.609a89.96 89.96 0 0 1 1.068-1.387c.53-.681 1.152-1.483 1.865-2.408.711-.925 1.514-2.017 2.406-3.277s1.704-2.388 2.437-3.384 1.379-1.9 1.94-2.714c.562-.812.962-1.442 1.203-1.89.843-.224 1.444-.463 1.805-.718.361-.254.562-.463.602-.627.12-.489.181-1.08.181-1.773 0-.857-.155-1.536-.466-2.037-.312-.5-.817-.75-1.52-.75a.9.9 0 0 0-.241.046c-.1.03-.275.066-.525.106-.251.041-.617.284-1.099.314-.481.032-1.123.254-1.925.254h-.918c-.33 0-.697-.218-1.098-.239-.521-.02-1.028-.251-1.52-.486-.491-.234-.973-.546-1.443-.832a17.75 17.75 0 0 0-1.43-.808c-.48-.234-.962-.365-1.443-.365-.642 0-1.339.099-2.091.31s-1.474.609-2.166 1.2c-.691.592-1.318 1.428-1.88 2.511s-.993 2.496-1.294 4.24c-.04.241-.069.477-.09.707s-.03.446-.03.646c0 .481.064.868.195 1.158.131.291.356.436.677.436.341 0 .723-.22 1.144-.659s.942-1.128 1.564-2.065c.28-.429.536-.761.767-.996.23-.234.491-.41.782-.527s.646-.185 1.068-.205c.421-.02.952-.029 1.594-.029.261 0 .501.03.723.091.221.061.436.147.646.259.21.112.446.239.707.381.261.143.571.295.933.457l-7.271 10.053a41.922 41.922 0 0 1-1.729 2.025c-.421.458-.867.9-1.338 1.327-.472.428-.943.811-1.414 1.148a8.3 8.3 0 0 1-1.399.82c-.461.209-.902.313-1.323.313-.562 0-.928-.26-1.098-.777-.171-.518-.256-1.236-.256-2.156 0-1.075.166-2.397.496-3.967l.885-4.193c.259-1.227.488-2.424.689-3.592.2-1.169.301-2.231.301-3.191 0-.627-.056-1.125-.165-1.489-.111-.365-.267-.648-.467-.851a1.442 1.442 0 0 0-.695-.396 3.75 3.75 0 0 0-.848-.091 15.9 15.9 0 0 0-.682.015 14.31 14.31 0 0 1-.68.015c-.264 0-.521-.015-.772-.045s-.5-.096-.741-.198a1.418 1.418 0 0 1-.605-.486l-.499-.684a2.786 2.786 0 0 0-.65-.624c-.263-.183-.626-.273-1.09-.273-1.392 0-2.759.295-4.101.884a16.335 16.335 0 0 0-3.828 2.383c-1.21 1-2.325 2.168-3.344 3.507-1.019 1.339-1.972 2.928-2.859 4.767s-1.544 3.547-1.967 5.125a18.041 18.041 0 0 0-.605 3.764c-.303.188-.595.38-.909.567-.595.354-1.175.667-1.739.94-.565.273-1.099.491-1.602.653-.504.162-.95.243-1.34.243-.162 0-.333-.116-.514-.35-.181-.231-.352-.545-.513-.94-.161-.394-.465-.839-.576-1.334-.109-.496-.334-1.005-.334-1.532v-.425c0-.404.309-.819.41-1.244.1-.424.286-.824.386-1.198.102-.374.248-.723.359-1.047.109-.323.236-.586.337-.789.926-1.82 1.947-3.683 3.042-5.589 1.095-1.905 2.189-3.841 3.273-5.808s2.129-3.947 3.13-5.944a66.382 66.382 0 0 0 2.645-5.975 43.414 43.414 0 0 0 1.813-5.928 25.97 25.97 0 0 0 .675-5.793c0-.764-.071-1.513-.212-2.25a6.053 6.053 0 0 0-.729-1.977 3.948 3.948 0 0 0-1.426-1.403c-.604-.355-1.371-.532-2.3-.532-1.275 0-2.532.366-3.768 1.097-1.235.731-2.421 1.738-3.555 3.017-1.135 1.28-2.218 2.782-3.251 4.504a51.201 51.201 0 0 0-2.871 5.557c-.486 1.093-.971 2.39-1.455 3.878a15.03 15.03 0 0 0-1.276-5.656c-.857-1.96-2.134-3.695-3.829-5.205-1.695-1.51-3.82-2.72-6.374-3.63-2.553-.91-5.525-1.365-8.916-1.365-2.572 0-4.997.416-7.278 1.248s-4.391 2.008-6.33 3.531c-1.938 1.523-3.682 3.346-5.228 5.471-1.548 2.124-2.863 4.474-3.949 7.048-1.084 2.575-1.918 5.335-2.501 8.281s-.874 6.001-.874 9.167c0 1.843.096 3.807.286 5.89.117 1.276.281 2.545.485 3.81a61.305 61.305 0 0 1-2.456 2.046 21.34 21.34 0 0 1-2.678 1.82c-.882.501-1.684.752-2.406.752-.621 0-1.032-.265-1.232-.797-.201-.531-.301-1.248-.301-2.15 0-.922.144-1.947.433-3.075.288-1.128.526-2.263.716-3.406.189-1.143.543-2.524 1.06-4.144s.907-2.945 1.171-3.975l.703-2.754c.206-.806.309-1.429.309-1.871 0-.521-.147-.937-.442-1.248-.296-.311-.857-.466-1.685-.466-.453 0-.961.056-1.521.167a7.665 7.665 0 0 0-1.627.517 5.51 5.51 0 0 0-1.402.897c-.454.406-.73.862-.828 1.369-.179.723-.649 2.282-1.41 4.677-.82 2.938-1.367 4.836-1.641 5.692-.146.383-.456 1.974-.93 4.768a54.756 54.756 0 0 1-2.314 1.803c-.481.344-.979.683-1.49 1.017-.511.334-1.018.632-1.519.895-.501.263-.978.47-1.429.622a3.936 3.936 0 0 1-1.248.228c-.392 0-.719-.121-.982-.365s-.474-.573-.629-.988a6.222 6.222 0 0 1-.337-1.415 12.89 12.89 0 0 1-.103-1.673c0-.466.03-.947.094-1.444.062-.498.14-.984.234-1.46.094-.477.193-.917.297-1.324.104-.405.208-.75.312-1.034.479-1.297 1.596-3.761 3.347-7.391a61.232 61.232 0 0 0 2.938-7.194l2.464-7.355c.832-2.48 1.276-5.16 1.333-8.04.014-.755.02-1.491.02-2.206 0-1.145-.09-2.254-.271-3.33-.181-1.074-.477-2.019-.888-2.833-.41-.814-.947-1.466-1.609-1.958-.661-.493-1.464-.739-2.406-.739-1.291 0-2.541.396-3.752 1.188-1.21.792-2.35 1.89-3.419 3.294-1.068 1.404-2.052 3.068-2.949 4.993-.898 1.925-1.631 4.031-2.199 6.318-.567 2.287-1.099 4.422-1.591 6.408-.493 1.986-.77 4.281-.83 6.886a14.377 14.377 0 0 0-4.301 1.069c-1.344.569-2.652 1.414-3.926 2.534s-2.297 2.362-3.068 3.726a92.092 92.092 0 0 0-2.105 3.923 18.332 18.332 0 0 0-1.444 3.877c-.171.69-.297 1.377-.379 2.059a33.048 33.048 0 0 1-3.529 2.273 25.103 25.103 0 0 1-3.896 1.765c-1.334.471-2.603.706-3.806.706-.383 0-.74-.039-1.071-.117a3.014 3.014 0 0 1-.951-.412 3.98 3.98 0 0 1-.891-.823 9.263 9.263 0 0 1-.891-1.324 20.934 20.934 0 0 0 4.868-1.971c1.497-.843 2.788-1.804 3.873-2.882 1.086-1.078 2.035-2.373 2.849-3.883.814-1.51 1.222-2.873 1.222-4.089 0-1.141-.201-2.172-.603-3.094a6.845 6.845 0 0 0-1.672-2.358 7.665 7.665 0 0 0-2.514-1.517c-.964-.36-2.008-.541-3.132-.541-1.377 0-2.628.242-3.756.728a11.007 11.007 0 0 0-3.052 1.959 13.54 13.54 0 0 0-2.379 2.851 18.918 18.918 0 0 0-1.689 3.399 45.642 45.642 0 0 0-1.302 4.082c-.419 1.534-.628 2.855-.628 3.963 0 .461.021.917.055 1.367-.064.079-.128.164-.191.241a31.975 31.975 0 0 1-1.444 1.639 15.087 15.087 0 0 1-1.52 1.415 8.21 8.21 0 0 1-1.534.992c-.511.251-.998.376-1.459.376-.816 0-1.439-.196-1.868-.59-.429-.393-.642-1.027-.642-1.903 0-.697.119-1.725.356-3.084.238-1.358.501-2.845.792-4.46l.921-5.127.987-5.5 1.009-5.625c.338-1.886.507-3.69.507-5.415 0-1.845-.169-3.595-.508-5.25-.338-1.654-.826-3.098-1.463-4.332s-1.428-2.211-2.373-2.933c-.945-.723-2.024-1.083-3.238-1.083-1.762 0-3.463.442-5.104 1.324s-3.173 2.15-4.593 3.805c-1.422 1.654-2.703 3.665-3.844 6.031-1.142 2.367-2.103 5.034-2.883 8.002l-.632.03c.181-1.404.351-2.708.512-3.911.06-.501.125-1.007.195-1.52.07-.511.131-.987.181-1.429.05-.44.09-.832.12-1.173.03-.341.045-.592.045-.752 0-1.765-.155-3.289-.466-4.572-.312-1.284-.747-2.347-1.309-3.189-.561-.842-1.232-1.464-2.015-1.865a5.52 5.52 0 0 0-2.557-.602c-1.259 0-2.528.341-3.807 1.022-1.279.682-2.543 1.645-3.792 2.888-1.249 1.244-2.462 2.733-3.64 4.468-1.178 1.734-2.289 3.669-3.335 5.805a68.247 68.247 0 0 0-2.894 6.889 75.996 75.996 0 0 0-2.299 7.686c.353-1.428.716-2.965 1.092-4.611s.685-3.306.926-4.979l.692-4.777c.219-1.512.329-2.83.329-3.953 0-1.464-.096-2.798-.285-4.001-.191-1.203-.526-2.231-1.009-3.083a5.159 5.159 0 0 0-1.955-1.985c-.822-.472-1.855-.708-3.099-.708-.962 0-1.97.201-3.022.602s-2.086 1.078-3.099 2.03c-1.014.953-1.976 2.226-2.888 3.82s-1.729 3.575-2.451 5.941a.412.412 0 0 0-.121.301c0 .221.028.467.086.738.058.271.129.526.213.767.087.241.182.447.287.617.104.171.204.256.299.256.305 0 .58-.065.828-.196.248-.13.428-.346.542-.646a20.927 20.927 0 0 1 1.999-2.422c.723-.752 1.445-1.409 2.169-1.97s1.413-1.007 2.069-1.339c.657-.33 1.214-.496 1.671-.496.285 0 .499.091.643.271.142.181.229.396.285.647s.072.518.072.802v.699c0 2.11.084 4.088.117 5.935a40.835 40.835 0 0 1-.239 5.326l-.584 5.114a26.456 26.456 0 0 1-1.157 5.207 58.048 58.048 0 0 0-1.524 5.673l-1.429 6.546c-.16.702-.281 1.398-.361 2.091-.08.692-.119 1.449-.119 2.271 0 .421.109.797.33 1.128.222.331.52.612.902.842.379.231.815.401 1.307.512s.996.166 1.517.166c.441 0 .901-.045 1.383-.136.48-.089.931-.246 1.352-.466.42-.222.781-.522 1.081-.903.301-.381.491-.873.571-1.476l1.484-6.075 1.659-6.792a65.076 65.076 0 0 1 2.117-6.942 133.085 133.085 0 0 1 2.617-6.603 106.025 106.025 0 0 1 2.727-5.88c.914-1.814 1.802-3.394 2.664-4.737.862-1.343 1.667-2.396 2.415-3.158s1.412-1.144 1.994-1.144c.706 0 1.272.181 1.698.542s.753.883.981 1.564.374 1.515.437 2.497c.062.983.094 2.096.094 3.339 0 1.805-.214 3.781-.639 5.927a278.263 278.263 0 0 0-1.203 6.452c-.375 2.155-.792 4.315-1.25 6.482s-.858 4.129-1.202 5.889c-.345 1.76-.638 3.279-.88 4.557-.241 1.279-.169 2.178.218 2.7 0 .782.096 1.443.286 1.985.189.542.44.988.75 1.338a2.79 2.79 0 0 0 1.081.768 3.39 3.39 0 0 0 1.247.241 4.9 4.9 0 0 0 1.259-.166c.42-.111.817-.287 1.193-.527.376-.24.709-.557.998-.948.288-.391.502-.868.643-1.431.388-1.998.738-4.078 1.049-6.242s.757-4.458 1.339-6.883a298.672 298.672 0 0 0 1.603-7.032 59.383 59.383 0 0 1 1.773-6.499c.697-2.068 1.437-3.992 2.219-5.771s1.623-3.317 2.524-4.616c.9-1.299 1.853-2.318 2.861-3.058 1.007-.739 2.078-1.109 3.216-1.109.564 0 1.019.141 1.362.421.343.281.605.677.787 1.188.181.511.302 1.133.363 1.865s.091 1.549.091 2.451c0 1.212-.145 2.631-.433 4.257-.289 1.626-.584 3.282-.886 4.967l-.908 5.072c-.303 1.696-.603 3.366-.896 5.012l-.856 4.771a36.868 36.868 0 0 0-.532 4.318 9 9 0 0 0-.061 1.053c0 1.444.24 2.723.722 3.835.48 1.114 1.122 2.046 1.924 2.798s1.718 1.319 2.75 1.7a9.094 9.094 0 0 0 3.172.572c1.116 0 2.24-.17 3.374-.511 1.133-.341 2.25-.897 3.354-1.67 1.033-.723 2.048-1.652 3.047-2.772.238.385.49.759.771 1.11.936 1.174 2.106 2.108 3.511 2.801 1.404.694 3.043 1.042 4.916 1.042 1.204 0 2.394-.139 3.566-.418a21.188 21.188 0 0 0 3.399-1.115 24.913 24.913 0 0 0 3.129-1.595 42.33 42.33 0 0 0 2.432-1.588 9.39 9.39 0 0 0 .948 1.738 7.256 7.256 0 0 0 2.377 2.165c.952.543 2.081.813 3.385.813.925 0 1.845-.155 2.761-.463.915-.308 1.82-.718 2.715-1.229a18.126 18.126 0 0 0 2.595-1.804 29.864 29.864 0 0 0 2.369-2.188c.492 1.235 1.072 2.226 1.739 2.971.668.746 1.335 1.315 2.002 1.709s1.283.655 1.848.783c.564.127.991.191 1.279.191.487 0 1.024-.089 1.611-.271.586-.181 1.19-.415 1.812-.703.621-.287 1.253-.617 1.895-.99s1.253-.751 1.836-1.134c.561-.372 1.126-.77 1.694-1.183.041.256.089.507.149.747.191.752.506 1.389.948 1.91.44.522 1.018.928 1.729 1.219.712.291 1.589.436 2.632.436 1.163 0 2.392-.21 3.686-.632a26.48 26.48 0 0 0 3.806-1.579 28.752 28.752 0 0 0 3.474-2.075c.471-.33.901-.649 1.304-.961.291 1.075.617 2.128.982 3.153.672 1.883 1.494 3.546 2.467 4.988.973 1.441 2.105 2.589 3.399 3.44 1.293.851 2.763 1.277 4.407 1.277 1.551 0 2.98-.285 4.289-.855 1.31-.57 2.492-1.34 3.55-2.31a15.893 15.893 0 0 0 2.779-3.39 24.716 24.716 0 0 0 2.023-4.096c.554-1.44.977-2.915 1.269-4.425s.458-2.968.499-4.374c0-.12.005-.341.015-.663.011-.322.02-.698.03-1.13.01-.432.025-.909.045-1.431l.061-1.566c.04-1.225.09-2.57.15-4.037 3.169-.481 5.929-1.314 8.28-2.499 2.351-1.184 4.299-2.589 5.844-4.215a17.867 17.867 0 0 0 2.124-2.712l-.014.05-.867 4.928c-.579 3.286-.867 5.913-.867 7.881 0 2.29.193 4.476.584 6.558.39 2.083.929 3.914 1.618 5.493.688 1.58 1.498 2.838 2.428 3.775.929.938 1.933 1.407 3.012 1.407.702 0 1.455-.09 2.262-.272a20.775 20.775 0 0 0 2.478-.729 29.41 29.41 0 0 0 2.524-1.044 75.868 75.868 0 0 0 1.994-.969c.199.276.408.542.638.783a7.319 7.319 0 0 0 2.422 1.699 7.01 7.01 0 0 0 2.812.592 8.73 8.73 0 0 0 2.729-.446c.909-.298 1.783-.68 2.623-1.146a16.017 16.017 0 0 0 2.319-1.563 14.643 14.643 0 0 0 1.789-1.697c.647 1.608 1.415 2.833 2.305 3.677.89.844 2 1.266 3.333 1.266 1.102 0 2.205-.273 3.309-.821a16.209 16.209 0 0 0 1.959-1.159c.357.11.759.167 1.204.167.562 0 1.224-.115 1.985-.346.883.443 1.694.809 2.438 1.097.741.289 1.393.525 1.955.708.561.183 1.013.312 1.354.39s.551.116.631.116c.983 0 2.031-.118 3.145-.352a22.802 22.802 0 0 0 3.278-.952 25.006 25.006 0 0 0 3.084-1.392c.315-.169.614-.343.905-.519a7.319 7.319 0 0 0 2.99 2.382 7.01 7.01 0 0 0 2.812.592c.91 0 1.818-.148 2.729-.446.909-.298 1.784-.68 2.623-1.146a16.017 16.017 0 0 0 2.319-1.563 14.643 14.643 0 0 0 1.789-1.697c.647 1.608 1.415 2.833 2.305 3.677.89.844 2.001 1.266 3.333 1.266 1.103 0 2.206-.273 3.309-.821s2.136-1.217 3.099-2.008 1.83-1.622 2.602-2.495c.772-.872 1.389-1.632 1.851-2.282l-1.44-6.621zm-200.975-1.812c.04-.608.227-1.382.559-2.324.332-.94.624-1.73.876-2.368a6.288 6.288 0 0 1 .996-1.706c.413-.5.926-.907 1.54-1.221s1.354-.471 2.22-.471c.483 0 .891.285 1.223.853.332.569.499 1.295.499 2.177 0 .628-.354 1.422-1.058 2.383-.704.96-1.425 1.726-2.159 2.294a10.644 10.644 0 0 1-2.385 1.397c-.855.363-1.646.544-2.371.544 0-.43.02-.949.06-1.558zm29.934 6.374a9.94 9.94 0 0 1-.799 1.027c-.29.33-.596.623-.917.88a4.765 4.765 0 0 1-1.009.627c-.352.16-.708.24-1.068.24-.703 0-1.274-.078-1.716-.235-.44-.157-.781-.361-1.022-.612-.24-.25-.406-.533-.496-.847s-.136-.627-.136-.942c0-1.011.181-2.143.542-3.397.36-1.253.887-2.75 1.579-4.489.691-1.739 1.554-3.139 2.587-4.2a12.635 12.635 0 0 1 3.535-2.563c.02-.021.039.182.06.606.021.425.035.97.045 1.638.011.667.026 1.405.046 2.214.021.81.041 1.846.062 3.109s.05 2.204.091 2.821.092 1.067.153 1.35a17.666 17.666 0 0 1-1.537 2.773zm8.333-12.904v-1.617c0-.569.039-1.234.061-1.997.021-.763.075-1.605.129-2.531a108.8 108.8 0 0 1 .221-2.88c.044-.488.122-1.311.228-2.47.104-1.158.246-2.458.421-3.902.175-1.442.452-2.917.831-4.423l1.052-4.182c.323-1.283.748-2.33 1.279-3.142.529-.812 1.12-1.218 1.773-1.218.366 0 .646.211.84.632.193.421.292 1.173.292 2.257 0 .823-.063 1.936-.188 3.341a28.866 28.866 0 0 1-.546 3.371 43.562 43.562 0 0 1-.955 3.587l-1.138 3.652c-.382 1.227-.798 2.406-1.188 3.536-.942 2.653-2.112 5.314-3.112 7.986zm65.621-12.055c-.45 1.097-1.141 2.103-2.07 3.017-.931.914-2.105 1.707-3.526 2.377-1.42.67-3.11 1.158-5.07 1.462l.271-2.406 1.83-7.829c0-.081.005-.147.016-.198.01-.05.015-.147.015-.289 0-.504-.105-.917-.315-1.24a2.51 2.51 0 0 0-.782-.771 3.026 3.026 0 0 0-1.037-.394 6.146 6.146 0 0 0-1.113-.105c-1.192 0-2.193.299-3.002.897a6.975 6.975 0 0 0-1.971 2.266 11.87 11.87 0 0 0-1.152 3.01 25.52 25.52 0 0 0-.561 3.147 27.583 27.583 0 0 0-.182 2.676c-.011.781-.016 1.303-.016 1.566a9.202 9.202 0 0 1-1.192-.375 28.095 28.095 0 0 1-1.372-.579 19.903 19.903 0 0 1-1.789-.923 13.956 13.956 0 0 0-.641-.344 1.243 1.243 0 0 0-.553-.125c-.299 0-.531.087-.7.263a1.713 1.713 0 0 0-.389.68 3.8 3.8 0 0 0-.163.958c-.021.36-.029.726-.029 1.096 0 .671.063 1.257.192 1.76.13.503.433.981.911 1.434.477.454 1.06.927 2.005 1.419.943.493 1.766 1.065 3.766 1.715v1.416c0 .924.105 2.044.066 3.359-.041 1.315-.066 2.697-.206 4.142-.141 1.446-.319 2.887-.601 4.323-.281 1.436-.646 2.721-1.128 3.855-.48 1.135-1.074 2.059-1.796 2.772s-1.591 1.07-2.613 1.07c-.982 0-1.799-.417-2.449-1.25-.652-.833-1.193-1.907-1.625-3.223-.43-1.314-.755-2.785-.976-4.411a67.055 67.055 0 0 1-.481-4.817 80.457 80.457 0 0 1-.165-4.471 489.18 489.18 0 0 1-.015-3.328c0-2.011.146-4.077.437-6.198a39.408 39.408 0 0 1 1.357-6.183 31.63 31.63 0 0 1 2.337-5.655c.944-1.77 2.061-3.317 3.348-4.645 1.286-1.327 2.754-2.377 4.402-3.151s3.488-1.161 5.519-1.161c2.705 0 4.949.312 6.732.937 1.783.625 3.205 1.42 4.269 2.388 1.062.967 1.808 2.041 2.238 3.22.431 1.178.646 2.332.646 3.461a8.857 8.857 0 0 1-.677 3.385zm12.288 3.468l.811-4.077 1.326-4.395c.884-2.929 1.644-5.044 2.28-6.344.637-1.3 1.273-2.331 1.91-3.093.636-.762 1.229-1.143 1.781-1.143.151 0 .242.207.271.622.028.415.043.915.043 1.502-.182 1.84-.604 3.827-1.268 5.961s-1.449 4.272-2.354 6.417a103.339 103.339 0 0 1-2.883 6.249 140.904 140.904 0 0 1-2.881 5.46c.104-2.056.425-4.442.964-7.159zm21.821 16.748c-.08.646-.257 1.454-.527 2.423a16.699 16.699 0 0 1-1.07 2.816c-.441.909-.965 1.686-1.566 2.332-.603.646-1.276.969-2.019.969-.463 0-.845-.119-1.146-.357a2.56 2.56 0 0 1-.724-.93 4.553 4.553 0 0 1-.376-1.303 10.407 10.407 0 0 1-.105-1.505c0-.875.114-1.809.346-2.803.23-.994.627-2.146 1.188-3.458.562-1.313 1.133-2.416 1.715-3.311a14.736 14.736 0 0 1 1.91-2.385 8.94 8.94 0 0 1 2.211-1.655c.782-.408 1.584-.612 2.406-.612l-2.243 9.779zm46.148 0c-.08.646-.257 1.454-.527 2.423a16.699 16.699 0 0 1-1.07 2.816c-.441.909-.964 1.686-1.566 2.332-.603.646-1.275.969-2.019.969-.463 0-.845-.119-1.146-.357a2.559 2.559 0 0 1-.723-.93 4.554 4.554 0 0 1-.377-1.303 10.55 10.55 0 0 1-.105-1.505c0-.875.115-1.809.346-2.803.23-.994.627-2.146 1.188-3.458.562-1.313 1.133-2.416 1.715-3.311a14.736 14.736 0 0 1 1.91-2.385 8.94 8.94 0 0 1 2.211-1.655c.782-.408 1.584-.612 2.406-.612l-2.243 9.779z"/></g><path fill="#FFF" d="M324.177 138.4c.143-16.055-10.194-30.044-24.069-37.156 3.992-12.359 6.914-25.229 7.104-38.248.183-12.501-2.951-25.565-12.358-34.362-10.133-9.478-24.545-12.843-38.016-13.357-14.759-.563-29.598 2.299-43.906 5.618-1.725.4-3.445.818-5.165 1.24-19.815-28.853-66.724-28.372-87.694-1.081-15.059-3.176-30.557-5.168-45.948-4.242-7.579.457-15.192 1.726-22.333 4.354-5.792 2.132-12.251 5.429-16.37 10.175-.039.045-.072.092-.108.138l-.789.61a3.525 3.525 0 0 0-.575.389c-.067.056-.131.113-.196.169.17-.268.076-.133-.071.06-19.771 16.698-15.25 47.527-8.905 69.847-13.863 7.82-23.85 21.662-23.953 38.001-.05 7.71 2.489 15.336 6.663 21.764 4.261 6.563 10.026 11.372 16.878 14.794-4.072 12.528-7.196 25.554-7.395 38.767-.187 12.465 3.158 25.901 13.135 34.161 9.638 7.978 22.678 10.467 34.825 11.333 14.331 1.022 28.875-.641 42.945-3.313a201.975 201.975 0 0 0 8.886-1.907c19.874 28.902 67.037 29.061 88.232 1.562 13.904 2.955 28.12 5.02 42.355 4.739 13.219-.26 27.347-2.822 37.969-11.202 4.041-3.188 7.837-6.499 10.975-10.607 3.858-5.054 6.179-11.267 7.484-17.44 2.865-13.555.886-27.876-2.347-41.176a145.211 145.211 0 0 0-1.44-5.423c13.942-7.889 24.042-21.754 24.187-38.207zm-29.922 33.59c-1.325.667-1.971 2.445-1.559 3.829 3.805 12.759 6.404 26.061 5.403 39.425-.454 6.072-1.981 12.14-4.832 17.535-2.659 5.036-6.646 8.621-10.948 12.206-9.515 7.932-22.027 10.236-34.096 10.664-14.702.521-29.434-1.825-43.748-4.972-1.584-.348-2.922.243-3.828 1.558-17.996 26.094-62.797 25.562-79.433-1.648-.811-1.326-2.324-1.93-3.829-1.558-13.581 3.359-27.473 5.495-41.473 5.806-12.558.28-26.235-.783-37.362-7.139-10.899-6.227-14.573-18.317-14.798-30.198-.266-14.045 3.587-28.064 8.037-41.262.439-1.306-.242-3.254-1.559-3.829-6.695-2.923-12.174-6.822-16.443-12.85A33.64 33.64 0 0 1 7.613 141.3c-.539-15.153 9.933-27.633 22.896-34.126 1.326-.664 1.972-2.448 1.559-3.829-5.912-19.805-11.938-49.091 5.466-65.013.021-.014.042-.023.062-.037.933-.625 1.79-1.408 2.648-2.128.332-.278.58-.576.762-.883 3.555-3.633 8.664-6.135 13.306-7.843 6.613-2.435 13.663-3.477 20.669-3.899 15.287-.921 30.711 1.279 45.612 4.548 1.583.348 2.924-.241 3.829-1.558 17.768-25.85 62.304-26.03 78.894 1.18.808 1.325 2.326 1.932 3.828 1.559 13.757-3.422 27.684-6.508 41.888-7.167 13.219-.612 26.8 1.233 37.921 8.865 10.312 7.075 13.403 19.345 13.481 31.22.088 13.587-3.435 27.126-7.744 39.914-.44 1.311.244 3.248 1.559 3.829 12.92 5.709 22.658 17.189 23.138 31.723.504 15.261-10.102 27.772-23.132 34.335z"/><path fill="#00A0AE" d="M69.724 214.591c.018-.02 1.025.798 1.025.798s-31.327-19.621 51.274-45.209c-.186.438-.921.348-1.265.643l10.464-8.973c-.014.007.664.976.384.739-15.959-13.691-18.389-31.344 1.201-48.191l-8.833-7.579c-2.999 3.037.479.484.623.833C42.004 82.052 72.5 63.136 72.5 63.136s-3.017 2.56.23-.263L50.01 43.392c-3.297 2.777-.912.615-1.427 1.057-16.592 14.226-13.26 40.875-6.738 62.541-3.342 1.634-6.445 3.617-9.308 6.072-17.048 14.617-17.184 38.146-.348 52.583 3.27 2.8 5.492 3.792 9.402 5.496-7.541 22.243-13.092 50.76 3.144 64.88l24.989-21.43zM62.666 112.48s-4.675-25.082 57.65.004c-62.32 25.082-57.65-.004-57.65-.004zm1.264 53.997s-4.679-25.096 57.66-.011c-62.339 25.088-57.66.011-57.66.011z"/><path fill="#F69700" d="M44.737 236.02c16.465 13.923 51.933 11.042 77.864 4.574 1.992 3.357 4.814 6.67 8.074 9.469 16.836 14.435 44.573 14.535 61.621-.081 2.859-2.456 5.36-5.039 7.27-7.901 25.259 5.593 56.306 8.594 72.894-5.636.516-.439-1.932 1.666 1.307-1.165l-22.72-19.485c-3.29 2.79-.208.116-.208.116s-22.246 26.317-52.098-44.513c.407.12-2.479 3.021 1.065.453l-8.837-7.579c-19.649 16.805-42.441 12.823-58.406-.864-.274-.236-1.354-1.553-1.341-1.56l-10.464 8.973c.344-.294 1.897.496 2.412.341-29.841 70.838-52.732 43.96-52.732 43.96s-.696-.55-.714-.53L44.737 236.02zm148.458-61.033c29.251 53.45.009 49.442.009 49.442s-29.254 4.008-.009-49.442zm-62.943-1.089c29.249 53.462-.009 49.451-.009 49.451s-29.241 4.011.009-49.451z"/><path fill="#B70050" d="M254.297 61.907c-.017.015-.469-.326-.469-.326s31.042 19.385-51.555 44.973c.189-.44.645-.584.992-.882l-10.468 8.978c.01-.008-.803.097-.532.333 15.969 13.691 14.993 35.221-1.328 49.264l8.833 7.58c-.271-.236.218-1.081.063-1.417 82.603 25.587 51.752 44.802 51.752 44.802s-.591.542-.568.563l22.718 19.479c.031.028 1.605-1.212 2.12-1.653 16.594-14.227 13.603-41.166 7.087-62.834a45.505 45.505 0 0 0 9.471-6.217c17.049-14.621 17.276-38.226.443-52.665-3.266-2.799-6.008-4.31-9.918-6.014 7.54-22.239 12.581-51.271-3.657-65.392l-24.984 21.428zm8.175 103.064s4.669 25.084-57.656 0c62.325-25.085 57.656 0 57.656 0zm-1.266-53.993s4.68 25.097-57.66.012c62.34-25.09 57.66-.012 57.66-.012z"/><path fill="#7EA65F" d="M279.281 40.478c-19.732-16.727-51.376-10.565-77.307-4.097-1.995-3.358-4.534-6.425-7.799-9.229-16.835-14.438-44.433-14.415-61.476.202-2.863 2.456-5.289 5.097-7.204 7.963-25.258-5.589-56.969-7.974-73.552 6.255-.515.442-1.996 1.766-1.96 1.793L72.7 62.844c.019.02.894-.701.894-.701s21.911-26.026 51.763 44.807c-.41-.121-1.138.077-1.414-.159l8.839 7.579c16.375-14 42.567-13.896 58.536-.205.271.232 1.49.476 1.48.484l10.468-8.978c-.348.298-1.341-.02-1.86.139 29.842-70.837 52.459-44.198 52.459-44.198s.416.309.433.294l24.983-21.428zm-147.341 61.99c-29.254-53.454-.009-49.446-.009-49.446s29.256-4.004.009 49.446zm62.944 1.089c-29.254-53.462.011-49.451.011-49.451s29.236-4.011-.011 49.451z"/><path d="M68.065 348.836h2.604v24.444h9.936v2.259h-12.54v-26.703zm21.364 8.04c2.003 0 3.676.871 5.016 2.613 1.339 1.742 2.01 4.048 2.01 6.92 0 1.659-.266 3.225-.795 4.699-.529 1.474-1.35 2.651-2.459 3.532-1.11.88-2.399 1.32-3.867 1.32-2.182 0-3.901-.899-5.159-2.699-1.257-1.799-1.886-4.051-1.886-6.757 0-2.156.396-4.02 1.188-5.589.791-1.57 1.758-2.635 2.899-3.197 1.142-.561 2.159-.842 3.053-.842zm.163 2.259c-1.598 0-2.8.676-3.606 2.029-.806 1.353-1.209 3.197-1.209 5.532 0 2.004.397 3.682 1.19 5.035.792 1.353 1.905 2.029 3.337 2.029 1.355 0 2.472-.628 3.348-1.886.876-1.256 1.313-3.091 1.313-5.503 0-2.297-.429-4.078-1.285-5.341s-1.886-1.895-3.088-1.895zm9.484 12.443c1.786 1.455 3.49 2.182 5.111 2.182 1.25 0 2.284-.316 3.101-.951.816-.633 1.225-1.437 1.225-2.41 0-.704-.271-1.292-.813-1.767-.542-.474-1.591-.94-3.148-1.399-1.914-.574-3.312-1.231-4.192-1.972-.881-.74-1.32-1.767-1.32-3.082 0-1.506.594-2.766 1.779-3.781 1.188-1.015 2.655-1.522 4.403-1.522 1.403 0 2.998.496 4.785 1.486v2.706c-1.519-1.327-3.075-1.991-4.67-1.991-1.099 0-2.001.295-2.709.884-.708.589-1.062 1.3-1.062 2.132 0 .705.319 1.281.957 1.729.625.461 1.666.896 3.12 1.304 3.573.996 5.36 2.693 5.36 5.092 0 1.621-.654 2.983-1.962 4.087-1.309 1.103-2.895 1.655-4.758 1.655-1.723 0-3.458-.555-5.206-1.665v-2.717zm29.214-22.742h2.557l7.452 26.703h-2.909l-2.27-9.227h-7.087l-2.264 9.227h-2.838l7.359-26.703zm1.232 3.254l-2.959 12.06h5.976l-3.017-12.06zm10.748-3.254h2.412v26.703h-2.412v-26.703zm17.266 8.461h1.78v19.295c0 2.463-.67 4.39-2.011 5.781-1.34 1.391-2.947 2.086-4.823 2.086-1.646 0-3.42-.65-5.321-1.952v-2.852c1.85 1.773 3.592 2.661 5.225 2.661 1.354 0 2.444-.53 3.274-1.589.829-1.059 1.244-2.438 1.244-4.135v-3.924c-.639.957-1.334 1.675-2.087 2.153s-1.563.718-2.432.718c-1.85 0-3.387-.893-4.613-2.68-1.224-1.786-1.837-3.924-1.837-6.413 0-2.68.683-4.945 2.049-6.795 1.365-1.85 2.985-2.776 4.862-2.776.804 0 1.543.176 2.22.527.676.351 1.289.877 1.838 1.579l.632-1.684zm-.632 3.905c-.549-.676-1.123-1.18-1.724-1.512a3.85 3.85 0 0 0-1.895-.498c-1.404 0-2.559.683-3.465 2.048-.905 1.365-1.359 3.107-1.359 5.226 0 1.94.396 3.583 1.188 4.929s1.857 2.019 3.197 2.019c1.16 0 2.127-.529 2.899-1.588.772-1.059 1.158-2.431 1.158-4.116v-6.508zm12.596-4.326c2.003 0 3.675.871 5.016 2.613 1.339 1.742 2.01 4.048 2.01 6.92 0 1.659-.266 3.225-.794 4.699-.53 1.474-1.351 2.651-2.461 3.532-1.11.88-2.398 1.32-3.866 1.32-2.183 0-3.902-.899-5.159-2.699s-1.885-4.051-1.885-6.757c0-2.156.395-4.02 1.187-5.589.791-1.57 1.758-2.635 2.899-3.197 1.142-.561 2.159-.842 3.053-.842zm.163 2.259c-1.599 0-2.801.676-3.606 2.029-.806 1.353-1.208 3.197-1.208 5.532 0 2.004.396 3.682 1.188 5.035.794 1.353 1.906 2.029 3.339 2.029 1.355 0 2.471-.628 3.347-1.886.876-1.256 1.313-3.091 1.313-5.503 0-2.297-.429-4.078-1.285-5.341s-1.886-1.895-3.088-1.895zm20.376-10.299h2.412v26.703h-2.412v-2.564c-.601.995-1.281 1.741-2.042 2.239a4.476 4.476 0 0 1-2.502.746c-1.918 0-3.472-.94-4.66-2.823-1.189-1.882-1.783-4.074-1.783-6.575 0-2.68.654-4.964 1.965-6.853 1.311-1.889 2.976-2.833 4.996-2.833.651 0 1.313.147 1.984.44.671.294 1.352.74 2.042 1.34v-9.82zm0 12.137c-.497-.612-1.04-1.069-1.627-1.369a4.16 4.16 0 0 0-1.914-.449c-1.417 0-2.597.676-3.541 2.029-.944 1.353-1.417 3.139-1.417 5.359 0 2.081.415 3.804 1.244 5.168.83 1.366 1.889 2.048 3.178 2.048 1.136 0 2.1-.504 2.891-1.512s1.187-2.284 1.187-3.828v-7.446zm12.959-4.097c2.003 0 3.675.871 5.016 2.613 1.34 1.742 2.01 4.048 2.01 6.92 0 1.659-.265 3.225-.795 4.699-.529 1.474-1.349 2.651-2.459 3.532-1.11.88-2.4 1.32-3.867 1.32-2.182 0-3.902-.899-5.158-2.699-1.258-1.799-1.886-4.051-1.886-6.757 0-2.156.396-4.02 1.187-5.589.792-1.57 1.758-2.635 2.899-3.197 1.142-.561 2.159-.842 3.053-.842zm.163 2.259c-1.599 0-2.801.676-3.606 2.029-.806 1.353-1.208 3.197-1.208 5.532 0 2.004.396 3.682 1.189 5.035s1.905 2.029 3.338 2.029c1.355 0 2.471-.628 3.347-1.886.876-1.256 1.314-3.091 1.314-5.503 0-2.297-.429-4.078-1.285-5.341-.857-1.263-1.887-1.895-3.089-1.895zm10.288-1.838h2.181l.229 2.604c.637-1.008 1.36-1.764 2.169-2.268a4.974 4.974 0 0 1 2.685-.756c1.554 0 2.765.524 3.631 1.57.866 1.047 1.3 2.444 1.3 4.192v12.902h-2.412v-12.902c0-1.072-.281-1.927-.843-2.565-.562-.638-1.289-.957-2.182-.957-1.213 0-2.24.533-3.082 1.599-.843 1.065-1.264 2.294-1.264 3.685v11.141h-2.412v-18.245zm28.388 16.328c-1.942 1.557-3.84 2.335-5.693 2.335-2.172 0-3.93-.871-5.271-2.612-1.342-1.742-2.013-4.011-2.013-6.806 0-2.883.691-5.216 2.076-6.996s3.136-2.67 5.255-2.67c1.876 0 3.381.718 4.518 2.154 1.136 1.436 1.703 3.251 1.703 5.446v1.187h-11.063v.938c0 2.374.494 4.167 1.483 5.378.988 1.212 2.147 1.818 3.475 1.818 1.837 0 3.682-1.015 5.531-3.043v2.871zm-1.99-10.011c-.051-1.513-.439-2.646-1.165-3.403-.727-.756-1.572-1.134-2.54-1.134-.98 0-1.895.378-2.74 1.134-.848.757-1.449 1.89-1.805 3.403h8.25zm5.053 7.964c1.786 1.455 3.49 2.182 5.11 2.182 1.251 0 2.284-.316 3.102-.951.816-.633 1.226-1.437 1.226-2.41 0-.704-.272-1.292-.814-1.767-.542-.474-1.592-.94-3.148-1.399-1.915-.574-3.312-1.231-4.192-1.972-.88-.74-1.32-1.767-1.32-3.082 0-1.506.594-2.766 1.779-3.781 1.188-1.015 2.654-1.522 4.403-1.522 1.403 0 2.999.496 4.785 1.486v2.706c-1.519-1.327-3.075-1.991-4.67-1.991-1.098 0-2.001.295-2.709.884-.709.589-1.062 1.3-1.062 2.132 0 .705.319 1.281.957 1.729.625.461 1.665.896 3.12 1.304 3.573.996 5.359 2.693 5.36 5.092 0 1.621-.654 2.983-1.963 4.087-1.308 1.103-2.894 1.655-4.756 1.655-1.724 0-3.459-.555-5.207-1.665v-2.717z" fill="#00A0AE"/></svg>