<svg xmlns="http://www.w3.org/2000/svg" width="198" height="232" viewBox="0 0 198 232"><path fill="#333" d="M196.57 84.903c.079-9.157-4.861-18.04-12.865-23.592 2.027-7.107 3.061-13.536 3.149-19.557.102-6.884-1.317-16.53-8.658-23.396-5.862-5.483-14.503-8.594-24.991-8.995a61.114 61.114 0 0 0-2.346-.044c-8.306 0-16.424 1.607-23.973 3.355C120.453 5.261 110.619.925 99.906.925c-10.518 0-20.414 4.161-27.09 11.263-7.31-1.397-13.873-2.079-19.982-2.079a78.16 78.16 0 0 0-4.732.141c-5.346.323-9.996 1.236-14.218 2.794-4.813 1.775-8.548 4.093-11.11 6.892a5.106 5.106 0 0 0-1.052.843c-9.601 8.34-12.065 22.224-7.347 41.312C6.264 67.927 1.492 76.65 1.429 86.063c-.03 5.171 1.61 10.573 4.622 15.21 2.062 3.178 4.717 5.875 7.919 8.053-2.148 7.395-3.203 13.77-3.294 19.816-.15 10.04 3.165 18.381 9.335 23.488 7.101 5.875 16.394 7.164 22.771 7.623 1.736.123 3.537.186 5.355.186 6.154 0 12.867-.707 20.521-2.162.707-.134 1.425-.278 2.149-.431 2.681 3.106 5.954 5.673 9.63 7.632-.227.259-.45.526-.666.809-.824 1.083-1.577 2.352-2.24 3.773a24.814 24.814 0 0 0-1.576 4.518l-.916 3.681c-.1.402-.188.819-.263 1.251-.724.324-1.431.729-2.114 1.208a9.39 9.39 0 0 0-3.518-2.31 10.077 10.077 0 0 0-3.545-.626c-1.465 0-2.854.278-4.115.821-.187.08-.371.164-.553.254.018-.354.027-.705.027-1.051 0-1.393-.132-2.743-.391-4.007-.285-1.396-.722-2.667-1.292-3.769-.704-1.368-1.638-2.5-2.763-3.358a7.972 7.972 0 0 0-4.895-1.651c-1.838 0-3.617.455-5.293 1.355-.602.324-1.184.701-1.744 1.128a7.762 7.762 0 0 0-2.008-1.481 8.12 8.12 0 0 0-3.751-.897c-1.548 0-3.072.394-4.528 1.17a13.614 13.614 0 0 0-2.541 1.77 7.867 7.867 0 0 0-1.885-1.495c-1.235-.707-2.668-1.066-4.258-1.066-1.16 0-2.343.227-3.512.672-1.217.464-2.368 1.203-3.416 2.19-.954.896-1.795 1.993-2.566 3.344-.654 1.14-1.216 2.449-1.713 3.989a5.258 5.258 0 0 0-.423 2.072c0 .484.054.979.159 1.471.078.364.179.722.295 1.051.164.464.369.9.611 1.296.972 1.593 2.632 2.544 4.441 2.544.219 0 .436-.012.649-.034L20 185.273c-.074.637-.225 1.31-.451 2a39.107 39.107 0 0 0-1.006 3.735l-.8 3.674a15.69 15.69 0 0 0-.409 3.636c0 1.242.363 2.435 1.014 3.395a6.507 6.507 0 0 0 2.075 1.994 7.368 7.368 0 0 0 2.244.905 8.888 8.888 0 0 0 1.99.223c.557 0 1.133-.055 1.723-.166a7.755 7.755 0 0 0 2.171-.755 6.934 6.934 0 0 0 2.224-1.855 6.406 6.406 0 0 0 1.002-1.818 7.186 7.186 0 0 0 1.344 2.289 6.574 6.574 0 0 0 2.557 1.804 6.977 6.977 0 0 0 2.152.465v21.167h15.539c.668.16 1.365.241 2.087.241 1.565 0 3.049-.41 4.353-1.18 1.506.77 3.064 1.18 4.657 1.18 2.245 0 4.304-.736 5.95-2.128a8.53 8.53 0 0 0 1.06-1.084v.086l.294-.23.973.852v-.162c.044.05.076.106.121.154a7.773 7.773 0 0 0 5.762 2.512c.712 0 1.416-.1 2.09-.292v.051h.238a6.78 6.78 0 0 0 1.76.241c.627 0 1.244-.087 1.848-.241h.549v1.629l2.179 1.489c1.932 1.319 3.905 1.989 5.868 1.989 2.445 0 4.646-.942 6.367-2.73a8.83 8.83 0 0 0 1.625-2.395 8.939 8.939 0 0 0 2.146.259 8.455 8.455 0 0 0 4.938-1.562c.71.533 1.487.941 2.322 1.203v.118h.418c.633.16 1.295.241 1.98.241.646 0 1.284-.082 1.902-.241h6.428a8.926 8.926 0 0 0 4.124 0h15.813a9.018 9.018 0 0 0 2.08.241c1.411 0 2.793-.334 4.131-.99 1.397.657 2.842.99 4.312.99 2.244 0 4.301-.735 5.948-2.125a8.53 8.53 0 0 0 1.26-1.315l1.069.936V220.9a7.94 7.94 0 0 0 .571-2.981c0-.55-.078-1.621-.571-2.818v-6.918l-2.579-1.427c-1.77-.979-3.506-1.476-5.161-1.476-1.672 0-3.229.42-4.585 1.226a8.22 8.22 0 0 0-4.369-1.226 8.57 8.57 0 0 0-4.77 1.422c-1.282-.921-2.84-1.422-4.541-1.422-.66 0-1.313.082-1.946.241h-6.628a8.523 8.523 0 0 0-2.018-.241c-.488 0-.986.064-1.489.162v-3.431c.152.177.302.357.463.521 1.872 1.889 3.902 2.286 5.276 2.286.772 0 1.579-.093 2.392-.277a16.869 16.869 0 0 0 2.023-.595l.177-.065a9.017 9.017 0 0 0 4.071.971c1.048 0 2.097-.17 3.13-.509.486-.16.963-.348 1.432-.562 1.201.737 2.588 1.121 4.082 1.121 1.409 0 2.795-.333 4.122-.991l.176-.089a7.911 7.911 0 0 0 1.277.028l.252.101c.531.208 1 .376 1.389.501.505.166.911.279 1.191.338.441.104.928.199 1.499.199.899 0 1.849-.103 2.834-.308.865-.183 1.72-.431 2.523-.729a9.012 9.012 0 0 0 3.925.9c1.05 0 2.1-.17 3.128-.508.486-.16.965-.348 1.434-.563 1.201.737 2.588 1.121 4.083 1.121 1.406 0 2.789-.332 4.123-.991a14.48 14.48 0 0 0 2.72-1.764 18.096 18.096 0 0 0 2.053-1.97 20.506 20.506 0 0 0 1.395-1.724l1.286-1.804-3.646-16.712-2.242 3.025a5.933 5.933 0 0 0-1.337-2.12 5.845 5.845 0 0 0-2.876-1.613 7.11 7.11 0 0 0-1.013-.152 6.182 6.182 0 0 0-.378-.282c-.987-.684-2.188-1.046-3.472-1.046-1.491 0-2.958.312-4.355.926a13.95 13.95 0 0 0-1.659.868 6.11 6.11 0 0 0-3.376-.999c-.405 0-.815.048-1.234.147l-.162.012c-.192.013-.451.016-.773.016h-.328a14.775 14.775 0 0 0-1.156-.628 6.84 6.84 0 0 0-3.011-.704c-.822 0-1.678.123-2.55.366-1.129.317-2.184.889-3.132 1.698a6.736 6.736 0 0 0-.157.138 5.94 5.94 0 0 0-1.057-.355 7.218 7.218 0 0 0-1.032-.158 6.061 6.061 0 0 0-.365-.272c-.99-.69-2.195-1.055-3.484-1.055-.311 0-.619.013-.928.041.292-.886.542-1.779.746-2.672.338-1.484.51-2.974.51-4.428 0-.747-.07-1.493-.208-2.223a8.49 8.49 0 0 0-1.033-2.755 7.227 7.227 0 0 0-2.59-2.562c-1.12-.655-2.412-.987-3.839-.987-1.639 0-3.223.447-4.698 1.322-1.157.683-2.247 1.598-3.235 2.714-.25.281-.496.577-.739.887-1.343-1.076-2.938-1.947-4.754-2.595a17.06 17.06 0 0 0-2.024-.563 33.935 33.935 0 0 0 6.405-5.272c7.827 1.525 14.52 2.241 20.863 2.242.534 0 1.067-.005 1.6-.016 10.384-.202 18.708-2.723 24.734-7.485 2.291-1.803 4.934-4.042 7.172-6.969 2.45-3.212 4.2-7.243 5.2-11.982 1.537-7.271 1.125-15.369-1.299-25.469 8.179-5.878 13.005-14.641 13.091-24.074z"/><g fill="#FFF"><path d="M96.194 180.718c.586 0 1.087-.09 1.507-.271.419-.18.766-.414 1.043-.704a2.73 2.73 0 0 0 .603-.99c.125-.37.188-.754.188-1.147 0-.429-.078-.801-.232-1.112a2.043 2.043 0 0 0-.63-.757 2.785 2.785 0 0 0-.929-.427 4.582 4.582 0 0 0-1.137-.138c-.644 0-1.18.102-1.611.304-.43.202-.774.453-1.033.748a2.813 2.813 0 0 0-.56.948 2.819 2.819 0 0 0-.172.903c0 .8.241 1.439.723 1.921.483.481 1.229.722 2.24.722z"/><path d="M178.21 191.758a26.065 26.065 0 0 1-1.706 2.084c-.24.261-.497.515-.765.759a9.208 9.208 0 0 1-.812.659c-.27.192-.536.349-.801.47a1.86 1.86 0 0 1-.757.178c-.322 0-.531-.148-.63-.445-.097-.296-.146-.708-.146-1.234 0-.616.094-1.372.284-2.271.188-.898.358-1.7.507-2.4.148-.703.279-1.388.396-2.058.113-.669.172-1.277.172-1.826 0-.36-.032-.644-.094-.854a1.148 1.148 0 0 0-.27-.486.803.803 0 0 0-.397-.227 2.2 2.2 0 0 0-.486-.053c-.127 0-.257.003-.39.009-.134.006-.262.01-.389.01a4.32 4.32 0 0 1-.443-.025 1.71 1.71 0 0 1-.424-.114.805.805 0 0 1-.346-.278 41.744 41.744 0 0 0-.287-.391 1.51 1.51 0 0 0-.371-.358c-.149-.104-.359-.156-.625-.156-.796 0-1.579.168-2.348.506a9.273 9.273 0 0 0-2.19 1.365 11.98 11.98 0 0 0-1.915 2.008c-.583.765-1.13 1.676-1.638 2.729-.509 1.053-.885 2.031-1.127 2.935a10.317 10.317 0 0 0-.351 2.468 33.9 33.9 0 0 0-.537.45 9.21 9.21 0 0 1-.947.706 5.305 5.305 0 0 1-1.102.551 3.81 3.81 0 0 1-1.317.218c-.218 0-.476-.04-.767-.121a9.397 9.397 0 0 1-.835-.273 17.164 17.164 0 0 1-.69-.27 3.69 3.69 0 0 0-.31-.121l.087-.349c.103-.141.308-.405.611-.794.304-.39.659-.85 1.067-1.38.407-.529.867-1.155 1.378-1.876.511-.722.978-1.368 1.395-1.938.419-.57.789-1.087 1.111-1.554.32-.464.551-.825.689-1.081.482-.13.826-.266 1.032-.412.207-.146.323-.265.346-.357.068-.28.103-.618.103-1.017 0-.491-.088-.879-.266-1.166-.179-.285-.469-.429-.871-.429a.52.52 0 0 0-.138.026 2.43 2.43 0 0 1-.301.061 6.596 6.596 0 0 1-.629.061c-.274.018-.644.027-1.103.027h-.524c-.189 0-.399-.005-.628-.018a2.183 2.183 0 0 1-.872-.218 10.81 10.81 0 0 1-.826-.445 9.817 9.817 0 0 0-.818-.449 1.87 1.87 0 0 0-.826-.201c-.367 0-.767.06-1.198.18-.43.121-.843.351-1.239.689-.397.339-.755.817-1.076 1.437-.322.623-.567 1.431-.742 2.431a6.679 6.679 0 0 0-.05.402 3.797 3.797 0 0 0-.017.372c0 .275.036.498.11.664a.394.394 0 0 0 .389.248c.193 0 .414-.126.653-.376.241-.252.54-.646.896-1.183.161-.245.308-.435.44-.57.132-.134.28-.234.446-.303.168-.066.372-.105.612-.115.241-.013.544-.018.913-.018.149 0 .287.018.413.051.127.036.249.086.37.149l.405.218c.149.082.327.17.535.262l-4.544 6.281-.316-1.449a25.64 25.64 0 0 1-1.707 2.084c-.239.261-.497.515-.765.759-.27.245-.54.465-.811.659-.27.192-.536.349-.8.47a1.872 1.872 0 0 1-.759.178c-.321 0-.531-.148-.629-.445s-.146-.708-.146-1.234c0-.616.096-1.372.285-2.271.188-.898.357-1.7.506-2.4.148-.703.28-1.388.395-2.058.114-.669.173-1.277.173-1.826 0-.36-.032-.644-.095-.854a1.146 1.146 0 0 0-.268-.486.813.813 0 0 0-.399-.227 2.178 2.178 0 0 0-.485-.053 8.69 8.69 0 0 0-.39.009c-.132.006-.262.01-.39.01-.148 0-.298-.01-.441-.025a1.646 1.646 0 0 1-.423-.114.798.798 0 0 1-.348-.278l-.287-.391a1.497 1.497 0 0 0-.372-.358c-.148-.104-.357-.156-.624-.156-.797 0-1.578.168-2.347.506a9.284 9.284 0 0 0-2.192 1.365 12.056 12.056 0 0 0-1.914 2.008c-.583.765-1.131 1.676-1.638 2.729-.509 1.053-.883 2.031-1.126 2.935-.196.73-.292 1.442-.329 2.143-.179.112-.353.226-.537.335-.341.205-.674.383-.996.54a7.313 7.313 0 0 1-.918.372 2.508 2.508 0 0 1-.768.141c-.091 0-.189-.067-.292-.2a2.357 2.357 0 0 1-.295-.538 4.884 4.884 0 0 1-.233-.766 4.096 4.096 0 0 1-.095-.876v-.245a8.44 8.44 0 0 1 .14-.713c.058-.242.114-.471.172-.685.057-.214.119-.415.182-.599.064-.186.123-.337.182-.451a71.805 71.805 0 0 1 1.733-3.201c.628-1.091 1.252-2.2 1.871-3.325a102.51 102.51 0 0 0 1.794-3.402 38.317 38.317 0 0 0 1.512-3.423c.436-1.136.78-2.268 1.038-3.393.257-1.127.385-2.232.385-3.317 0-.438-.04-.866-.12-1.289a3.478 3.478 0 0 0-.417-1.131 2.266 2.266 0 0 0-.817-.804c-.346-.202-.784-.304-1.315-.304-.731 0-1.449.208-2.157.628-.709.418-1.388.994-2.036 1.726a17.2 17.2 0 0 0-1.861 2.58 29.244 29.244 0 0 0-1.643 3.18c-.28.63-.561 1.387-.84 2.246a8.584 8.584 0 0 0-.726-3.263c-.491-1.122-1.222-2.115-2.191-2.981-.971-.864-2.188-1.556-3.649-2.078-1.462-.521-3.164-.781-5.104-.781-1.474 0-2.862.239-4.168.714a13.113 13.113 0 0 0-3.624 2.021 15.803 15.803 0 0 0-2.995 3.134 20.014 20.014 0 0 0-2.259 4.035 24.338 24.338 0 0 0-1.433 4.741 27.11 27.11 0 0 0-.5 5.248c0 1.055.055 2.179.163 3.372.067.729.167 1.454.283 2.176-.462.404-.931.798-1.411 1.178-.517.407-1.026.755-1.532 1.042-.506.288-.966.43-1.379.43-.355 0-.591-.151-.706-.455-.115-.305-.173-.716-.173-1.232 0-.528.083-1.115.249-1.76.166-.647.301-1.297.41-1.95.108-.656.31-1.445.606-2.374.296-.926.519-1.684.67-2.273l.403-1.578c.118-.462.176-.819.176-1.07 0-.3-.084-.536-.253-.715-.17-.179-.491-.268-.964-.268-.26 0-.551.033-.872.095-.32.065-.633.164-.931.299-.3.131-.567.303-.804.512-.26.232-.418.494-.474.783-.103.415-.372 1.308-.808 2.679-.469 1.682-.782 2.77-.938 3.259-.085.218-.262 1.129-.532 2.724-.454.372-.899.725-1.326 1.038-.275.198-.561.393-.853.582-.294.192-.583.362-.869.513-.287.151-.56.271-.819.358a2.3 2.3 0 0 1-.715.129.8.8 0 0 1-.562-.209 1.46 1.46 0 0 1-.36-.566 3.632 3.632 0 0 1-.193-.81 7.308 7.308 0 0 1-.005-1.785 12.642 12.642 0 0 1 .306-1.593 6.03 6.03 0 0 1 .179-.594c.274-.742.913-2.152 1.916-4.231a35.228 35.228 0 0 0 1.682-4.118l1.411-4.212c.475-1.42.73-2.954.763-4.602.008-.434.012-.855.012-1.263 0-.657-.052-1.291-.155-1.907a5.683 5.683 0 0 0-.508-1.621 3.1 3.1 0 0 0-.922-1.121c-.38-.283-.839-.424-1.377-.424-.739 0-1.455.227-2.148.681-.693.453-1.346 1.081-1.959 1.886-.611.804-1.174 1.757-1.688 2.858a19.713 19.713 0 0 0-1.258 3.617c-.327 1.31-.63 2.533-.912 3.669-.281 1.138-.44 2.451-.476 3.942a8.317 8.317 0 0 0-2.462.613c-.77.326-1.519.81-2.248 1.45a8.256 8.256 0 0 0-1.757 2.134 52.108 52.108 0 0 0-1.206 2.247 10.576 10.576 0 0 0-.826 2.219 9.427 9.427 0 0 0-.249 1.689c-.414.276-.838.544-1.282.792-.726.403-1.469.739-2.231 1.01-.765.269-1.49.404-2.179.404-.219 0-.424-.021-.614-.066a1.761 1.761 0 0 1-.544-.235 2.334 2.334 0 0 1-.511-.473 5.557 5.557 0 0 1-.51-.757 12.022 12.022 0 0 0 2.788-1.13 10.322 10.322 0 0 0 2.219-1.649 9.467 9.467 0 0 0 1.631-2.223c.465-.865.698-1.645.698-2.342 0-.652-.114-1.245-.345-1.771a3.9 3.9 0 0 0-.958-1.35 4.404 4.404 0 0 0-1.439-.871 5.082 5.082 0 0 0-1.793-.31c-.788 0-1.505.141-2.149.418-.646.276-1.229.652-1.748 1.122s-.973 1.015-1.361 1.632c-.39.617-.711 1.267-.969 1.947a25.844 25.844 0 0 0-.744 2.335c-.239.879-.359 1.637-.359 2.27 0 .256.034.5.053.75-.044.055-.088.119-.132.172-.264.32-.54.634-.827.938a8.423 8.423 0 0 1-.87.81 4.72 4.72 0 0 1-.878.567 1.882 1.882 0 0 1-.835.216c-.469 0-.825-.112-1.07-.337-.245-.226-.367-.588-.367-1.092 0-.397.068-.987.204-1.764.136-.778.287-1.629.453-2.555l.528-2.936.563-3.149.579-3.221a17.63 17.63 0 0 0 .289-3.101c0-1.057-.096-2.059-.29-3.006-.193-.946-.473-1.775-.838-2.481-.363-.706-.816-1.265-1.358-1.678a2.96 2.96 0 0 0-1.854-.62c-1.008 0-1.983.253-2.923.757-.939.506-1.816 1.232-2.63 2.181-.813.944-1.547 2.098-2.202 3.452-.652 1.354-1.203 2.884-1.648 4.582l-.362.018c.103-.804.201-1.55.292-2.239.036-.288.072-.578.113-.87.039-.293.074-.565.103-.819.028-.252.053-.477.07-.672a5.47 5.47 0 0 0 .025-.43c0-1.011-.089-1.884-.268-2.621-.179-.733-.428-1.341-.749-1.825-.321-.481-.706-.837-1.153-1.066a3.16 3.16 0 0 0-1.464-.344c-.721 0-1.448.194-2.181.584-.732.39-1.456.942-2.171 1.654s-1.409 1.564-2.084 2.558a27.207 27.207 0 0 0-1.908 3.323 38.43 38.43 0 0 0-1.657 3.945 43.03 43.03 0 0 0-1.316 4.402c.201-.819.41-1.699.625-2.641.215-.943.392-1.894.529-2.853.14-.957.271-1.869.396-2.733.126-.866.189-1.621.189-2.264 0-.836-.055-1.601-.163-2.29-.11-.689-.303-1.278-.578-1.766a2.943 2.943 0 0 0-1.12-1.137c-.471-.27-1.062-.405-1.773-.405-.551 0-1.128.115-1.73.345-.604.23-1.194.616-1.773 1.162-.581.546-1.132 1.274-1.653 2.188-.523.913-.991 2.047-1.405 3.401a.237.237 0 0 0-.067.172c0 .127.015.268.048.422s.074.301.123.439c.049.139.104.256.163.354s.118.148.173.148c.174 0 .33-.04.473-.113a.663.663 0 0 0 .31-.372c.351-.492.731-.955 1.146-1.385.414-.432.828-.807 1.243-1.128a7.184 7.184 0 0 1 1.185-.767c.375-.188.693-.284.955-.284.164 0 .287.051.368.155a.93.93 0 0 1 .172.37c.033.144.049.297.049.459v.402c.021 1.21.04 2.341.06 3.398a23.093 23.093 0 0 1-.142 3.049l-.335 2.927c-.112.977-.334 1.97-.665 2.982-.33 1.01-.62 2.093-.873 3.248l-.817 3.749a10.543 10.543 0 0 0-.276 2.495c0 .243.062.457.19.646.126.191.297.351.516.482.218.134.468.23.748.293.28.064.57.096.869.096.252 0 .516-.026.792-.078a2.77 2.77 0 0 0 .772-.267c.241-.127.448-.301.62-.518.171-.218.281-.499.327-.846l.85-3.478.949-3.888c.327-1.336.731-2.66 1.212-3.976a75.206 75.206 0 0 1 1.5-3.78 60.148 60.148 0 0 1 1.561-3.365 30.196 30.196 0 0 1 1.524-2.713c.494-.77.956-1.373 1.382-1.809.43-.438.811-.656 1.145-.656.402 0 .727.104.971.312.244.205.433.505.562.896.131.39.214.867.25 1.429.035.562.053 1.2.053 1.911 0 1.034-.122 2.166-.365 3.395a160.799 160.799 0 0 0-.689 3.692 100.212 100.212 0 0 1-.715 3.714 215.374 215.374 0 0 0-.688 3.37 341.86 341.86 0 0 0-.503 2.608c-.139.732-.096 1.247.125 1.545 0 .45.054.828.163 1.138.108.309.252.565.43.766.177.202.385.348.618.44.235.092.473.138.715.138.24 0 .479-.031.721-.096.24-.063.468-.163.683-.3.216-.138.405-.319.572-.543a2.32 2.32 0 0 0 .366-.82c.224-1.144.423-2.335.602-3.575.177-1.238.434-2.551.768-3.94.332-1.389.638-2.73.916-4.025a34.117 34.117 0 0 1 1.016-3.722 39.006 39.006 0 0 1 1.271-3.303c.448-1.018.931-1.898 1.446-2.644.515-.745 1.061-1.328 1.638-1.75.576-.424 1.19-.637 1.841-.637.323 0 .584.081.78.242.196.16.346.387.451.681.104.294.173.648.208 1.068.034.419.05.886.05 1.405 0 .694-.081 1.504-.246 2.436-.165.932-.334 1.879-.507 2.845l-.52 2.903-.515 2.869-.49 2.733a21.12 21.12 0 0 0-.304 2.472 4.632 4.632 0 0 0-.035.604c0 .827.138 1.557.414 2.197a4.74 4.74 0 0 0 1.1 1.6 4.64 4.64 0 0 0 1.575.974 5.19 5.19 0 0 0 1.817.327c.638 0 1.281-.098 1.931-.292a6.741 6.741 0 0 0 1.92-.956c.599-.418 1.184-.961 1.76-1.61.138.223.264.455.426.659a5.844 5.844 0 0 0 2.012 1.603c.804.398 1.742.597 2.813.597.689 0 1.371-.08 2.043-.24a12.235 12.235 0 0 0 1.946-.637 14.545 14.545 0 0 0 1.79-.915c.301-.181.589-.364.868-.548.111.218.225.435.363.633.362.517.815.932 1.361 1.241.544.31 1.19.465 1.936.465.531 0 1.058-.089 1.582-.266a8.825 8.825 0 0 0 1.555-.703 10.543 10.543 0 0 0 1.486-1.033c.477-.396.929-.814 1.355-1.253.282.707.614 1.274.996 1.701s.765.753 1.146.978c.382.226.734.376 1.059.449.322.073.566.109.731.109.278 0 .586-.052.923-.154a8.33 8.33 0 0 0 1.037-.404 13.19 13.19 0 0 0 1.086-.566 20.616 20.616 0 0 0 2.028-1.335c.023.147.044.297.079.436.108.433.288.797.541 1.095s.583.532.991.697c.407.166.91.25 1.507.25.666 0 1.37-.121 2.11-.362a14.99 14.99 0 0 0 2.178-.903 16.05 16.05 0 0 0 2.738-1.744c.167.618.351 1.223.561 1.811.385 1.078.854 2.029 1.413 2.855.557.825 1.204 1.482 1.945 1.969.74.489 1.581.732 2.525.732a6.1 6.1 0 0 0 2.454-.489 7.352 7.352 0 0 0 2.032-1.324 9.031 9.031 0 0 0 1.591-1.941c.455-.738.843-1.519 1.159-2.345.317-.824.559-1.668.726-2.534a15.237 15.237 0 0 0 .295-2.884c.007-.184.011-.398.017-.646.007-.247.014-.52.027-.819l.034-.897c.022-.7.051-1.472.086-2.312 1.813-.275 3.395-.75 4.741-1.43 1.347-.677 2.461-1.482 3.345-2.413.472-.495.875-1.018 1.22-1.563l-.011.04-.497 2.821c-.331 1.88-.498 3.386-.498 4.512 0 1.312.114 2.563.336 3.756.223 1.192.532 2.241.928 3.146.394.903.857 1.623 1.389 2.161.531.536 1.106.805 1.725.805.402 0 .835-.051 1.296-.155.461-.104.934-.243 1.418-.418.484-.175.967-.374 1.446-.598.396-.185.776-.374 1.153-.562.113.156.222.319.352.455.402.424.865.749 1.387.975.522.225 1.06.338 1.611.338.52 0 1.041-.085 1.562-.256a8.86 8.86 0 0 0 2.828-1.551c.406-.33.747-.654 1.025-.971.371.919.81 1.622 1.32 2.105.51.482 1.145.722 1.907.722.632 0 1.264-.155 1.895-.468a9.458 9.458 0 0 0 1.771-1.147c.154.165.336.305.558.403.252.118.551.174.896.174.319 0 .701-.064 1.138-.197.505.254.97.463 1.395.628.424.166.797.301 1.12.405.319.104.579.18.774.222.194.045.315.067.361.067.563 0 1.163-.067 1.8-.2a12.831 12.831 0 0 0 1.877-.547 14.162 14.162 0 0 0 1.766-.796c.188-.101.357-.207.531-.312.103.137.197.284.312.405.401.424.864.749 1.386.975a4.038 4.038 0 0 0 1.61.338c.521 0 1.042-.085 1.562-.256a8.86 8.86 0 0 0 2.829-1.551c.407-.33.748-.654 1.026-.971.37.919.81 1.622 1.319 2.105.509.482 1.144.722 1.907.722.633 0 1.263-.155 1.896-.468a9.384 9.384 0 0 0 1.772-1.15 13.004 13.004 0 0 0 1.49-1.428c.443-.499.796-.935 1.061-1.306l-.829-3.798zm-115.774-1.036c.023-.349.13-.792.32-1.331.189-.538.358-.99.501-1.354.145-.365.334-.692.571-.976.235-.288.529-.52.881-.701.352-.179.775-.268 1.271-.268.276 0 .51.162.7.487.19.325.285.741.285 1.248 0 .359-.202.813-.604 1.363-.404.551-.817.987-1.236 1.314a6.248 6.248 0 0 1-1.366.801c-.49.208-.942.31-1.357.31a13.08 13.08 0 0 1 .034-.893zm16.433 3.649a6.04 6.04 0 0 1-.457.589 4.498 4.498 0 0 1-.524.504 2.84 2.84 0 0 1-.579.359c-.2.092-.404.137-.611.137-.402 0-.729-.045-.981-.135s-.447-.207-.587-.351a1.168 1.168 0 0 1-.283-.484c-.036-.126-.043-.251-.054-.377.166-.167.34-.316.503-.489l-.46-.467a8.21 8.21 0 0 1 .243-1.152c.207-.718.508-1.575.904-2.569.396-.997.891-1.798 1.48-2.408a7.281 7.281 0 0 1 2.024-1.465c.012-.012.022.105.034.346.012.245.021.557.027.938.005.384.013.805.025 1.268.012.465.022 1.058.034 1.783.011.723.029 1.261.053 1.613.023.353.053.611.087.773-.264.59-.557 1.119-.878 1.587zm4.804-7.389v-.923c0-.327.005-.709.02-1.145.011-.437.033-.918.064-1.449.032-.529.072-1.077.122-1.648.024-.283.068-.753.128-1.416.06-.662.141-1.409.24-2.234.101-.827.259-1.67.476-2.533l.603-2.392c.184-.736.428-1.335.732-1.801.303-.463.642-.696 1.015-.696.21 0 .371.121.481.361.11.242.166.671.166 1.293 0 .472-.036 1.107-.106 1.912-.06.61-.165 1.253-.312 1.931a25.445 25.445 0 0 1-.547 2.054l-.652 2.089a63.661 63.661 0 0 1-.664 2.025 92.176 92.176 0 0 1-1.766 4.572zm37.538-6.902a5.158 5.158 0 0 1-1.185 1.729c-.532.521-1.205.977-2.018 1.36-.814.385-1.782.662-2.905.837l.154-1.378 1.048-4.481c0-.046.005-.084.009-.115a.84.84 0 0 0 .009-.163c0-.29-.06-.526-.179-.71a1.444 1.444 0 0 0-.449-.442 1.745 1.745 0 0 0-.594-.226 3.605 3.605 0 0 0-.636-.06c-.684 0-1.257.171-1.72.515-.464.342-.84.774-1.128 1.296a6.772 6.772 0 0 0-.66 1.723 14.23 14.23 0 0 0-.321 1.802c-.064.575-.1 1.085-.104 1.532-.007.447-.01.746-.01.897a5.41 5.41 0 0 1-.684-.216 16.659 16.659 0 0 1-.785-.331 12.127 12.127 0 0 1-1.024-.528c-.147-.083-.27-.15-.366-.199a.714.714 0 0 0-.316-.071.53.53 0 0 0-.401.151.98.98 0 0 0-.221.389 2.124 2.124 0 0 0-.095.547c-.012.207-.018.415-.018.628 0 .387.037.721.112 1.008.073.288.246.562.521.821.272.26.68.531 1.221.812.542.283 1.283.61 2.229.981V189c0 .528-.013 1.17-.035 1.923a35.596 35.596 0 0 1-.154 2.372 26.17 26.17 0 0 1-.362 2.475 11.077 11.077 0 0 1-.655 2.206c-.274.65-.619 1.18-1.032 1.588a2.054 2.054 0 0 1-1.498.613c-.563 0-1.031-.24-1.404-.716-.373-.477-.685-1.093-.932-1.845a14.409 14.409 0 0 1-.559-2.526 37.466 37.466 0 0 1-.275-2.758 46.58 46.58 0 0 1-.095-2.56 267.27 267.27 0 0 1-.009-1.906c0-1.15.082-2.333.251-3.548.167-1.215.426-2.394.777-3.54.35-1.146.796-2.225 1.338-3.237.54-1.014 1.18-1.9 1.915-2.659a8.572 8.572 0 0 1 2.521-1.807c.944-.442 1.998-.663 3.159-.663 1.55 0 2.836.179 3.856.537 1.02.357 1.835.812 2.442 1.366.608.554 1.034 1.168 1.281 1.844.247.675.371 1.336.371 1.982a4.973 4.973 0 0 1-.385 1.939zm7.036 1.986l.464-2.334.761-2.517c.505-1.677.94-2.889 1.305-3.632.363-.743.729-1.335 1.094-1.771.363-.437.704-.656 1.02-.656.087 0 .138.12.154.357.017.237.025.524.025.859-.105 1.053-.347 2.191-.727 3.411a38.587 38.587 0 0 1-1.349 3.676 58.626 58.626 0 0 1-1.648 3.578 80.282 80.282 0 0 1-1.65 3.125c.059-1.174.242-2.54.551-4.096zm12.493 9.59c-.046.37-.146.831-.302 1.387a9.625 9.625 0 0 1-.613 1.613 5.412 5.412 0 0 1-.896 1.334c-.346.37-.73.556-1.155.556-.266 0-.483-.067-.656-.205a1.445 1.445 0 0 1-.414-.532 2.577 2.577 0 0 1-.215-.747 5.898 5.898 0 0 1-.062-.862c0-.5.067-1.036.199-1.604.132-.57.358-1.23.68-1.981s.648-1.383.981-1.895a8.506 8.506 0 0 1 1.094-1.366 5.102 5.102 0 0 1 1.267-.948 2.95 2.95 0 0 1 1.377-.35l-1.285 5.6zm27.833 0c-.046.37-.146.831-.302 1.387a9.708 9.708 0 0 1-.612 1.613 5.468 5.468 0 0 1-.896 1.334c-.347.37-.73.556-1.156.556-.265 0-.484-.067-.656-.205a1.443 1.443 0 0 1-.413-.532 2.641 2.641 0 0 1-.217-.747 6.044 6.044 0 0 1-.06-.862c0-.5.065-1.036.198-1.604.131-.57.358-1.23.68-1.981s.649-1.383.981-1.895a8.456 8.456 0 0 1 1.095-1.366c.396-.398.817-.715 1.266-.948s.906-.35 1.378-.35l-1.286 5.6z"/></g><path fill="#FFF" d="M191.57 84.859c.08-9.192-5.837-17.208-13.783-21.279 2.287-7.072 3.958-14.439 4.068-21.9.105-7.153-1.691-14.636-7.074-19.67-5.805-5.429-14.052-7.355-21.766-7.65-8.45-.321-16.945 1.317-25.142 3.219-.987.23-1.972.465-2.955.711-11.347-16.521-38.204-16.243-50.208-.621-8.619-1.82-17.497-2.962-26.308-2.429-4.341.262-8.699.986-12.788 2.494-3.314 1.223-7.016 3.109-9.377 5.829-.019.02-.034.05-.056.077-.107.077-.288.218-.455.345a2.102 2.102 0 0 0-.327.223c-.04.033-.077.068-.113.095.095-.152.044-.077-.039.038-11.324 9.557-8.735 27.211-5.104 39.988C12.207 68.81 6.491 76.736 6.429 86.093c-.026 4.412 1.426 8.777 3.816 12.459 2.44 3.761 5.742 6.51 9.667 8.469-2.333 7.176-4.123 14.635-4.237 22.197-.106 7.139 1.809 14.832 7.523 19.562 5.514 4.562 12.985 5.987 19.938 6.487 8.205.583 16.53-.369 24.591-1.901 1.702-.323 3.397-.689 5.085-1.093 11.38 16.55 38.381 16.642 50.519.896 7.961 1.692 16.098 2.875 24.246 2.713 7.57-.147 15.663-1.613 21.739-6.415 2.318-1.825 4.49-3.72 6.289-6.073 2.206-2.892 3.537-6.445 4.284-9.983 1.64-7.759.51-15.958-1.344-23.575a87.599 87.599 0 0 0-.825-3.103c7.98-4.52 13.764-12.46 13.85-21.874zm-17.136 19.233c-.755.376-1.123 1.399-.887 2.191 2.174 7.303 3.666 14.923 3.093 22.574-.26 3.472-1.135 6.949-2.767 10.038-1.521 2.885-3.806 4.936-6.271 6.989-5.444 4.54-12.61 5.857-19.517 6.1-8.42.301-16.855-1.044-25.05-2.845-.91-.2-1.673.139-2.195.896-10.301 14.941-35.956 14.633-45.479-.946-.461-.761-1.328-1.104-2.19-.891-7.775 1.921-15.728 3.145-23.746 3.321-7.19.161-15.021-.446-21.39-4.089-6.24-3.563-8.348-10.481-8.472-17.285-.152-8.043 2.052-16.072 4.601-23.623.25-.753-.142-1.866-.894-2.195-3.834-1.675-6.97-3.906-9.414-7.361a19.285 19.285 0 0 1-3.538-10.444C10.013 77.84 16.01 70.7 23.431 66.976c.756-.379 1.129-1.398.893-2.187-3.387-11.341-6.837-28.107 3.127-37.224.012-.012.024-.013.037-.023.534-.357 1.024-.805 1.515-1.22a1.88 1.88 0 0 0 .435-.504c2.034-2.082 4.966-3.511 7.622-4.494 3.789-1.386 7.821-1.988 11.833-2.227 8.754-.53 17.581.733 26.113 2.604.91.198 1.674-.142 2.195-.896 10.175-14.798 35.67-14.906 45.17.679a1.972 1.972 0 0 0 2.189.892c7.881-1.958 15.854-3.728 23.985-4.103 7.568-.353 15.34.699 21.712 5.075 5.902 4.049 7.671 11.076 7.718 17.874.051 7.777-1.968 15.534-4.432 22.854-.253.752.136 1.861.891 2.194 7.396 3.269 12.975 9.843 13.253 18.159.283 8.738-5.791 15.903-13.253 19.663z"/><path d="M42.834 205.678h1.491v13.995h5.689v1.293h-7.181v-15.288zm12.681 4.603c1.147 0 2.104.498 2.872 1.496.768.998 1.15 2.32 1.15 3.962 0 .95-.151 1.847-.454 2.689-.304.845-.773 1.519-1.409 2.023-.635.505-1.373.756-2.214.756-1.249 0-2.233-.514-2.954-1.545-.719-1.03-1.079-2.32-1.079-3.869 0-1.235.226-2.299.679-3.2.454-.897 1.006-1.508 1.661-1.831.654-.32 1.236-.481 1.748-.481zm.092 1.293c-.914 0-1.603.387-2.064 1.162-.461.774-.692 1.832-.692 3.167 0 1.148.229 2.109.682 2.884.453.775 1.091 1.161 1.911 1.161.776 0 1.416-.359 1.916-1.078.502-.721.753-1.771.753-3.151 0-1.316-.245-2.335-.736-3.059-.491-.723-1.081-1.086-1.77-1.086zm5.88 7.124c1.023.833 1.999 1.249 2.927 1.249.717 0 1.308-.18 1.775-.545.468-.361.701-.821.701-1.377 0-.404-.155-.74-.466-1.012-.312-.271-.912-.54-1.804-.801-1.096-.33-1.896-.707-2.399-1.129-.504-.425-.756-1.013-.756-1.766 0-.861.34-1.582 1.019-2.165.68-.581 1.52-.871 2.521-.871.804 0 1.718.284 2.74.851v1.551c-.869-.761-1.762-1.143-2.675-1.143-.629 0-1.146.17-1.551.508-.405.337-.608.744-.608 1.221 0 .403.184.733.549.99.356.264.953.513 1.786.747 2.046.569 3.068 1.542 3.068 2.914 0 .929-.374 1.708-1.123 2.341-.748.632-1.657.947-2.723.947-.987 0-1.981-.317-2.982-.954v-1.556zm14.992-7.475c1.119-.627 2.058-.942 2.817-.942 1.097 0 1.925.317 2.487.955.562.644.845 1.506.845 2.589v5.519c0 .403.189.603.569.603.197 0 .396-.054.592-.164v1.184a2.547 2.547 0 0 1-1.073.241c-.95 0-1.439-.56-1.469-1.678-.358.556-.756.975-1.195 1.255a2.573 2.573 0 0 1-1.424.423 2.742 2.742 0 0 1-2.094-.91c-.562-.605-.844-1.347-.844-2.225 0-.928.348-1.699 1.047-2.312.697-.614 2.2-1.03 4.51-1.249v-.899c0-.592-.192-1.08-.576-1.464-.382-.384-.859-.575-1.43-.575-.812 0-1.732.407-2.763 1.217v-1.568zm4.769 4.352c-1.801.219-2.939.528-3.415.928a1.895 1.895 0 0 0-.718 1.522c0 .556.176 1.016.524 1.378.351.363.792.543 1.323.543.663 0 1.21-.277 1.64-.835.431-.557.646-1.269.646-2.141v-1.395zm4.471-9.897H87.1v15.288h-1.381v-15.288zm10.334 4.844h1.02v11.046c0 1.412-.385 2.514-1.15 3.311-.768.797-1.688 1.194-2.762 1.194-.942 0-1.958-.373-3.047-1.117v-1.634c1.059 1.016 2.057 1.523 2.992 1.523.774 0 1.398-.303 1.873-.909.476-.606.712-1.396.712-2.369v-2.247c-.363.549-.763.959-1.193 1.234a2.544 2.544 0 0 1-1.392.411c-1.061 0-1.939-.511-2.643-1.535-.701-1.022-1.053-2.246-1.053-3.671 0-1.534.393-2.831 1.174-3.89.782-1.06 1.71-1.59 2.784-1.59.46 0 .884.1 1.271.302.389.2.737.502 1.052.904l.362-.963zm-.363 2.235c-.314-.387-.642-.674-.985-.866a2.22 2.22 0 0 0-1.085-.284c-.805 0-1.465.391-1.983 1.17-.52.785-.778 1.781-.778 2.995 0 1.11.227 2.049.68 2.822.453.771 1.062 1.157 1.83 1.157.665 0 1.218-.303 1.66-.909.441-.608.662-1.394.662-2.358v-3.727zm7.661-2.476c1.148 0 2.105.498 2.873 1.496.767.998 1.149 2.32 1.149 3.962 0 .95-.15 1.847-.454 2.689-.304.845-.772 1.519-1.408 2.023-.635.505-1.373.756-2.212.756-1.251 0-2.236-.514-2.955-1.545-.72-1.03-1.08-2.32-1.08-3.869 0-1.235.228-2.299.68-3.2.454-.897 1.007-1.508 1.66-1.831.653-.32 1.236-.481 1.747-.481zm.094 1.293c-.916 0-1.604.387-2.065 1.162-.461.774-.69 1.832-.69 3.167 0 1.148.227 2.109.681 2.884.452.775 1.09 1.161 1.911 1.161.777 0 1.415-.359 1.916-1.078.501-.721.752-1.771.752-3.151 0-1.316-.245-2.335-.736-3.059-.491-.723-1.08-1.086-1.769-1.086zm12.115-5.896h1.38v15.288h-1.38v-1.469c-.345.57-.732.998-1.168 1.283a2.575 2.575 0 0 1-1.434.427c-1.098 0-1.987-.539-2.668-1.616-.68-1.079-1.021-2.333-1.021-3.765 0-1.534.374-2.843 1.124-3.924.753-1.081 1.705-1.622 2.861-1.622.373 0 .752.083 1.137.252.384.166.774.423 1.168.768v-5.622zm0 6.949a2.938 2.938 0 0 0-.931-.785 2.385 2.385 0 0 0-1.096-.259c-.811 0-1.487.389-2.028 1.163-.542.774-.811 1.798-.811 3.071 0 1.19.237 2.177.712 2.957.476.783 1.08 1.173 1.819 1.173.65 0 1.203-.287 1.654-.865.454-.576.68-1.308.68-2.192v-4.263zm7.869-2.346c1.147 0 2.105.498 2.873 1.496.767.998 1.149 2.32 1.149 3.962 0 .95-.152 1.847-.454 2.689-.305.845-.771 1.519-1.409 2.023-.635.505-1.373.756-2.213.756-1.25 0-2.235-.514-2.955-1.545-.719-1.03-1.078-2.32-1.078-3.869 0-1.235.226-2.299.679-3.2.453-.897 1.007-1.508 1.66-1.831.654-.32 1.237-.481 1.748-.481zm.094 1.293c-.916 0-1.604.387-2.065 1.162-.461.774-.691 1.832-.691 3.167 0 1.148.227 2.109.681 2.884.454.775 1.09 1.161 1.91 1.161.777 0 1.416-.359 1.918-1.078.501-.721.751-1.771.751-3.151 0-1.316-.244-2.335-.735-3.059-.492-.723-1.08-1.086-1.769-1.086zm6.338-1.052h1.249l.133 1.491c.363-.578.776-1.01 1.24-1.3a2.857 2.857 0 0 1 1.537-.433c.889 0 1.583.3 2.079.899.496.598.743 1.398.743 2.399v7.387h-1.381v-7.387c0-.614-.16-1.103-.481-1.469-.322-.366-.738-.548-1.249-.548-.694 0-1.283.307-1.765.916a3.306 3.306 0 0 0-.724 2.11v6.378h-1.382v-10.443zm16.704 9.349c-1.114.892-2.2 1.337-3.26 1.337-1.245 0-2.251-.499-3.02-1.496-.768-.996-1.153-2.296-1.153-3.894 0-1.653.397-2.99 1.19-4.008.792-1.019 1.796-1.528 3.008-1.528 1.075 0 1.937.41 2.587 1.233.65.822.976 1.861.976 3.117v.68h-6.336v.536c0 1.36.282 2.387.85 3.081.566.694 1.229 1.042 1.99 1.042 1.053 0 2.107-.58 3.168-1.743v1.643zm-1.141-5.732c-.029-.867-.252-1.517-.666-1.947-.416-.434-.9-.652-1.454-.652-.562 0-1.085.219-1.569.652-.484.431-.83 1.081-1.033 1.947h4.722zm3.344 4.559c1.022.833 1.998 1.249 2.926 1.249.716 0 1.309-.18 1.775-.545.468-.361.702-.821.702-1.377 0-.404-.155-.74-.467-1.012-.31-.271-.912-.54-1.802-.801-1.096-.33-1.896-.707-2.401-1.129-.504-.425-.755-1.013-.755-1.766 0-.861.339-1.582 1.018-2.165.681-.581 1.521-.871 2.521-.871.804 0 1.717.284 2.74.851v1.551c-.869-.761-1.761-1.143-2.674-1.143-.628 0-1.146.17-1.551.508-.406.337-.608.744-.608 1.221 0 .403.182.733.548.99.357.264.953.513 1.787.747 2.044.569 3.069 1.542 3.069 2.914 0 .929-.375 1.708-1.125 2.341-.749.632-1.656.947-2.724.947-.986 0-1.98-.317-2.98-.954v-1.556zM45.865 128.481c.008-.013.58.462.58.462s-17.935-11.239 29.363-25.892c-.106.253-.528.2-.725.37l5.99-5.135c-.008.002.377.558.221.42-9.139-7.838-10.528-17.944.686-27.594l-5.056-4.34c-1.716 1.74.271.279.356.479-47.29-14.658-29.827-25.487-29.827-25.487s-1.727 1.463.131-.153L34.574 30.46c-1.885 1.587-.52.353-.816.604-9.5 8.144-7.59 23.403-3.857 35.812-1.913.937-3.688 2.067-5.328 3.47-9.765 8.374-9.84 21.843-.199 30.111 1.875 1.6 3.145 2.168 5.383 3.142-4.318 12.737-7.494 29.063 1.8 37.153l14.308-12.271zm-4.044-58.466s-2.679-14.357 33.005.006c-35.681 14.358-33.005-.006-33.005-.006zm.722 30.917s-2.676-14.371 33.015-.004c-35.691 14.362-33.015.004-33.015.004z" fill="#09A0AE"/><path fill="#F5971E" d="M31.556 140.752c9.429 7.967 29.734 6.319 44.581 2.612 1.143 1.923 2.76 3.824 4.626 5.426 9.638 8.263 25.52 8.32 35.277-.048 1.638-1.407 3.073-2.882 4.165-4.525 14.459 3.206 32.24 4.92 41.738-3.223.292-.252-1.107.952.747-.668l-13.012-11.155c-1.881 1.599-.116.065-.116.065s-12.738 15.068-29.83-25.484c.233.067-1.42 1.727.613.261l-5.065-4.341c-11.245 9.619-24.299 7.342-33.438-.497-.156-.134-.775-.887-.768-.889l-5.99 5.135c.196-.17 1.084.284 1.38.195-17.085 40.557-30.194 25.166-30.194 25.166s-.396-.314-.404-.302l-14.31 12.272zm84.997-34.947c16.752 30.602.009 28.31.009 28.31s-16.75 2.292-.009-28.31zm-36.035-.623c16.748 30.606-.002 28.311-.002 28.311s-16.745 2.296.002-28.311z"/><path fill="#B61E53" d="M151.542 41.059c-.011.011-.267-.183-.267-.183s17.771 11.1-29.521 25.747c.108-.255.368-.332.567-.505l-5.994 5.139c.008-.009-.457.052-.306.193 9.143 7.838 8.588 20.165-.761 28.205l5.059 4.341c-.15-.136.128-.616.038-.813 47.29 14.651 29.631 25.653 29.631 25.653s-.34.311-.326.323l13.006 11.153c.021.016.922-.692 1.214-.943 9.499-8.148 7.788-23.575 4.059-35.986a25.534 25.534 0 0 0 5.419-3.554c9.764-8.374 9.894-21.887.258-30.154-1.869-1.604-3.438-2.465-5.681-3.442 4.32-12.734 7.207-29.354-2.09-37.443l-14.305 12.269zm4.679 59.011s2.677 14.365-33.011 0c35.687-14.361 33.011 0 33.011 0zm-.722-30.913s2.677 14.371-33.016.006c35.693-14.366 33.016-.006 33.016-.006z"/><path fill="#7FA55E" d="M165.848 28.789c-11.299-9.576-29.418-6.044-44.263-2.341-1.143-1.927-2.599-3.681-4.468-5.288-9.638-8.265-25.44-8.251-35.196.119-1.642 1.404-3.03 2.918-4.124 4.557-14.464-3.202-32.621-4.565-42.115 3.583-.293.254-1.143 1.007-1.123 1.024l13.01 11.158c.008.006.512-.408.512-.408s12.546-14.9 29.635 25.658c-.234-.068-.65.042-.809-.091l5.061 4.341c9.372-8.02 24.371-7.96 33.512-.117.154.129.857.265.85.274l5.994-5.139c-.199.173-.767-.012-1.064.079 17.088-40.556 30.035-25.304 30.035-25.304s.238.178.249.167l14.304-12.272zm-84.36 35.498c-16.752-30.608-.009-28.312-.009-28.312s16.751-2.293.009 28.312zm36.036.619c-16.749-30.605.006-28.312.006-28.312s16.737-2.294-.006 28.312z"/></svg>