<?xml version="1.0" encoding="utf-8"?>
<!-- Generator: Adobe Illustrator 16.0.0, SVG Export Plug-In . SVG Version: 6.00 Build 0)  -->
<!DOCTYPE svg PUBLIC "-//W3C//DTD SVG 1.1//EN" "http://www.w3.org/Graphics/SVG/1.1/DTD/svg11.dtd">
<svg version="1.1" xmlns="http://www.w3.org/2000/svg" xmlns:xlink="http://www.w3.org/1999/xlink" x="0px" y="0px" width="198px"
	 height="232px" viewBox="0 0 198 232" enable-background="new 0 0 198 232" xml:space="preserve">
<g id="guides">
</g>
<g id="Layer_2">
	<g>
		<path fill="#333333" d="M196.57,84.903c0.079-9.157-4.861-18.04-12.865-23.592c2.027-7.107,3.061-13.536,3.149-19.557
			c0.102-6.884-1.317-16.53-8.658-23.396c-5.862-5.483-14.503-8.594-24.991-8.995c-0.781-0.03-1.563-0.044-2.346-0.044
			c-8.306,0-16.424,1.607-23.973,3.355c-6.433-7.413-16.267-11.749-26.98-11.749c-10.518,0-20.414,4.161-27.09,11.263
			c-7.31-1.397-13.873-2.079-19.982-2.079c-1.598,0-3.189,0.047-4.732,0.141c-5.346,0.323-9.996,1.236-14.218,2.794
			c-4.813,1.775-8.548,4.093-11.11,6.892c-0.354,0.213-0.711,0.488-1.052,0.843c-9.601,8.34-12.065,22.224-7.347,41.312
			C6.264,67.927,1.492,76.65,1.429,86.063c-0.03,5.171,1.61,10.573,4.622,15.21c2.062,3.178,4.717,5.875,7.919,8.053
			c-2.148,7.395-3.203,13.77-3.294,19.816c-0.15,10.04,3.165,18.381,9.335,23.488c7.101,5.875,16.394,7.164,22.771,7.623
			c1.736,0.123,3.537,0.186,5.355,0.186c6.154,0,12.867-0.707,20.521-2.162c0.707-0.134,1.425-0.278,2.149-0.431
			c2.681,3.106,5.954,5.673,9.63,7.632c-0.227,0.259-0.45,0.526-0.666,0.809c-0.824,1.083-1.577,2.352-2.24,3.773
			c-0.65,1.397-1.183,2.922-1.576,4.518l-0.916,3.681c-0.1,0.402-0.188,0.819-0.263,1.251c-0.724,0.324-1.431,0.729-2.114,1.208
			c-0.146-0.154-0.299-0.303-0.457-0.447c-0.881-0.805-1.908-1.431-3.061-1.863c-1.111-0.416-2.305-0.626-3.545-0.626
			c-1.465,0-2.854,0.278-4.115,0.821c-0.187,0.08-0.371,0.164-0.553,0.254c0.018-0.354,0.027-0.705,0.027-1.051
			c0-1.393-0.132-2.743-0.391-4.007c-0.285-1.396-0.722-2.667-1.292-3.769c-0.704-1.368-1.638-2.5-2.763-3.358
			c-1.41-1.081-3.102-1.651-4.895-1.651c-1.838,0-3.617,0.455-5.293,1.355c-0.602,0.324-1.184,0.701-1.744,1.128
			c-0.592-0.604-1.265-1.1-2.008-1.481c-1.159-0.596-2.421-0.897-3.751-0.897c-1.548,0-3.072,0.394-4.528,1.17
			c-0.871,0.463-1.723,1.057-2.541,1.77c-0.545-0.589-1.175-1.09-1.885-1.495c-1.235-0.707-2.668-1.066-4.258-1.066
			c-1.16,0-2.343,0.227-3.512,0.672c-1.217,0.464-2.368,1.203-3.416,2.19c-0.954,0.896-1.795,1.993-2.566,3.344
			c-0.654,1.14-1.216,2.449-1.713,3.989c-0.277,0.647-0.423,1.35-0.423,2.072c0,0.484,0.054,0.979,0.159,1.471
			c0.078,0.364,0.179,0.722,0.295,1.051c0.164,0.464,0.369,0.9,0.611,1.296c0.972,1.593,2.632,2.544,4.441,2.544
			c0.219,0,0.436-0.012,0.649-0.034l-0.134,1.173c-0.074,0.637-0.225,1.31-0.451,2c-0.377,1.154-0.715,2.41-1.006,3.735l-0.8,3.674
			c-0.134,0.57-0.236,1.162-0.306,1.76c-0.068,0.587-0.103,1.218-0.103,1.876c0,1.242,0.363,2.435,1.014,3.395
			c0.538,0.817,1.249,1.496,2.075,1.994c0.688,0.422,1.453,0.729,2.244,0.905c0.644,0.148,1.312,0.223,1.99,0.223
			c0.557,0,1.133-0.055,1.723-0.166c0.76-0.144,1.488-0.396,2.171-0.755c0.858-0.452,1.602-1.069,2.224-1.855
			c0.432-0.549,0.766-1.157,1.002-1.818c0.324,0.879,0.783,1.657,1.344,2.289c0.7,0.801,1.553,1.405,2.557,1.804
			c0.695,0.272,1.418,0.423,2.152,0.465v21.167h15.539c0.668,0.16,1.365,0.241,2.087,0.241c1.565,0,3.049-0.41,4.353-1.18
			c1.506,0.77,3.064,1.18,4.657,1.18c2.245,0,4.304-0.736,5.95-2.128c0.394-0.333,0.742-0.7,1.06-1.084v0.086l0.294-0.23
			l0.973,0.852v-0.162c0.044,0.05,0.076,0.106,0.121,0.154c1.502,1.62,3.547,2.512,5.762,2.512c0.712,0,1.416-0.1,2.09-0.292v0.051
			h0.238c0.557,0.149,1.143,0.241,1.76,0.241c0.627,0,1.244-0.087,1.848-0.241h0.549v1.629l2.179,1.489
			c1.932,1.319,3.905,1.989,5.868,1.989c2.445,0,4.646-0.942,6.367-2.73c0.55-0.572,1.146-1.365,1.625-2.395
			c0.685,0.169,1.402,0.259,2.146,0.259c1.807,0,3.502-0.543,4.938-1.562c0.71,0.533,1.487,0.941,2.322,1.203v0.118h0.418
			c0.633,0.16,1.295,0.241,1.98,0.241c0.646,0,1.284-0.082,1.902-0.241h6.428c0.667,0.16,1.364,0.241,2.087,0.241
			c0.698,0,1.38-0.084,2.037-0.241h15.813c0.668,0.158,1.363,0.241,2.08,0.241c1.411,0,2.793-0.334,4.131-0.99
			c1.397,0.657,2.842,0.99,4.312,0.99c2.244,0,4.301-0.735,5.948-2.125c0.475-0.401,0.896-0.842,1.26-1.315l1.069,0.936V220.9
			c0.376-0.932,0.571-1.937,0.571-2.981c0-0.55-0.078-1.621-0.571-2.818v-6.918l-2.579-1.427c-1.77-0.979-3.506-1.476-5.161-1.476
			c-1.672,0-3.229,0.42-4.585,1.226c-1.282-0.795-2.769-1.226-4.369-1.226c-1.742,0-3.369,0.496-4.77,1.422
			c-1.282-0.921-2.84-1.422-4.541-1.422c-0.66,0-1.313,0.082-1.946,0.241h-6.628c-0.65-0.158-1.324-0.241-2.018-0.241
			c-0.488,0-0.986,0.064-1.489,0.162v-3.431c0.152,0.177,0.302,0.357,0.463,0.521c1.872,1.889,3.902,2.286,5.276,2.286
			c0.772,0,1.579-0.093,2.392-0.277c0.659-0.148,1.339-0.348,2.023-0.595c0.06-0.021,0.118-0.043,0.177-0.065
			c0.159,0.08,0.321,0.155,0.485,0.226c1.149,0.495,2.356,0.745,3.586,0.745c1.048,0,2.097-0.17,3.13-0.509
			c0.486-0.16,0.963-0.348,1.432-0.562c1.201,0.737,2.588,1.121,4.082,1.121c1.409,0,2.795-0.333,4.122-0.991
			c0.059-0.029,0.117-0.059,0.176-0.089c0.269,0.028,0.542,0.042,0.82,0.042c0.15,0,0.303-0.004,0.457-0.014
			c0.085,0.035,0.169,0.068,0.252,0.101c0.531,0.208,1,0.376,1.389,0.501c0.505,0.166,0.911,0.279,1.191,0.338
			c0.441,0.104,0.928,0.199,1.499,0.199c0.899,0,1.849-0.103,2.834-0.308c0.865-0.183,1.72-0.431,2.523-0.729
			c0.111,0.054,0.225,0.106,0.34,0.155c1.149,0.495,2.355,0.745,3.585,0.745c1.05,0,2.1-0.17,3.128-0.508
			c0.486-0.16,0.965-0.348,1.434-0.563c1.201,0.737,2.588,1.121,4.083,1.121c1.406,0,2.789-0.332,4.123-0.991
			c0.96-0.478,1.873-1.07,2.72-1.764c0.755-0.621,1.448-1.286,2.053-1.97c0.562-0.631,1.018-1.195,1.395-1.724l1.286-1.804
			l-3.646-16.712l-2.242,3.025c-0.312-0.832-0.771-1.554-1.337-2.12c-0.775-0.795-1.754-1.349-2.876-1.613
			c-0.331-0.074-0.67-0.126-1.013-0.152c-0.122-0.099-0.248-0.192-0.378-0.282c-0.987-0.684-2.188-1.046-3.472-1.046
			c-1.491,0-2.958,0.312-4.355,0.926c-0.566,0.249-1.121,0.539-1.659,0.868c-0.974-0.643-2.141-0.999-3.376-0.999
			c-0.405,0-0.815,0.048-1.234,0.147l-0.162,0.012c-0.192,0.013-0.451,0.016-0.773,0.016h-0.328
			c-0.363-0.219-0.748-0.429-1.156-0.628c-0.961-0.467-1.974-0.704-3.011-0.704c-0.822,0-1.678,0.123-2.55,0.366
			c-1.129,0.317-2.184,0.889-3.132,1.698c-0.053,0.045-0.105,0.091-0.157,0.138c-0.336-0.149-0.689-0.269-1.057-0.355
			c-0.337-0.077-0.682-0.13-1.032-0.158c-0.118-0.095-0.24-0.186-0.365-0.272c-0.99-0.69-2.195-1.055-3.484-1.055
			c-0.311,0-0.619,0.013-0.928,0.041c0.292-0.886,0.542-1.779,0.746-2.672c0.338-1.484,0.51-2.974,0.51-4.428
			c0-0.747-0.07-1.493-0.208-2.223c-0.188-0.989-0.534-1.912-1.033-2.755c-0.634-1.064-1.504-1.926-2.59-2.562
			c-1.12-0.655-2.412-0.987-3.839-0.987c-1.639,0-3.223,0.447-4.698,1.322c-1.157,0.683-2.247,1.598-3.235,2.714
			c-0.25,0.281-0.496,0.577-0.739,0.887c-1.343-1.076-2.938-1.947-4.754-2.595c-0.643-0.229-1.325-0.408-2.024-0.563
			c2.352-1.505,4.512-3.266,6.405-5.272c7.827,1.525,14.52,2.241,20.863,2.242c0.534,0,1.067-0.005,1.6-0.016
			c10.384-0.202,18.708-2.723,24.734-7.485c2.291-1.803,4.934-4.042,7.172-6.969c2.45-3.212,4.2-7.243,5.2-11.982
			c1.537-7.271,1.125-15.369-1.299-25.469C191.658,103.099,196.484,94.336,196.57,84.903z"/>
		<g>
			<path fill="#FFFFFF" d="M96.194,180.718c0.586,0,1.087-0.09,1.507-0.271c0.419-0.18,0.766-0.414,1.043-0.704
				c0.273-0.288,0.475-0.621,0.603-0.99c0.125-0.37,0.188-0.754,0.188-1.147c0-0.429-0.078-0.801-0.232-1.112
				c-0.156-0.312-0.365-0.565-0.63-0.757c-0.263-0.19-0.573-0.333-0.929-0.427c-0.356-0.091-0.736-0.138-1.137-0.138
				c-0.644,0-1.18,0.102-1.611,0.304c-0.43,0.202-0.774,0.453-1.033,0.748c-0.259,0.296-0.444,0.609-0.56,0.948
				c-0.115,0.335-0.172,0.637-0.172,0.903c0,0.8,0.241,1.439,0.723,1.921C94.437,180.477,95.183,180.718,96.194,180.718z"/>
			<path fill="#FFFFFF" d="M178.21,191.758c-0.575,0.776-1.143,1.469-1.706,2.084c-0.24,0.261-0.497,0.515-0.765,0.759
				c-0.271,0.245-0.541,0.465-0.812,0.659c-0.27,0.192-0.536,0.349-0.801,0.47c-0.264,0.118-0.517,0.178-0.757,0.178
				c-0.322,0-0.531-0.148-0.63-0.445c-0.097-0.296-0.146-0.708-0.146-1.234c0-0.616,0.094-1.372,0.284-2.271
				c0.188-0.898,0.358-1.7,0.507-2.4c0.148-0.703,0.279-1.388,0.396-2.058c0.113-0.669,0.172-1.277,0.172-1.826
				c0-0.36-0.032-0.644-0.094-0.854c-0.064-0.208-0.154-0.371-0.27-0.486c-0.114-0.117-0.246-0.191-0.397-0.227
				c-0.151-0.034-0.312-0.053-0.486-0.053c-0.127,0-0.257,0.003-0.39,0.009c-0.134,0.006-0.262,0.01-0.389,0.01
				c-0.149,0-0.298-0.01-0.443-0.025c-0.144-0.019-0.284-0.057-0.424-0.114c-0.139-0.058-0.254-0.151-0.346-0.278
				c-0.093-0.128-0.188-0.258-0.287-0.391c-0.098-0.135-0.22-0.254-0.371-0.358c-0.149-0.104-0.359-0.156-0.625-0.156
				c-0.796,0-1.579,0.168-2.348,0.506c-0.769,0.337-1.497,0.792-2.19,1.365c-0.693,0.571-1.332,1.241-1.915,2.008
				c-0.583,0.765-1.13,1.676-1.638,2.729c-0.509,1.053-0.885,2.031-1.127,2.935c-0.225,0.843-0.335,1.664-0.351,2.468
				c-0.178,0.147-0.351,0.29-0.537,0.45c-0.292,0.25-0.608,0.484-0.947,0.706c-0.338,0.223-0.706,0.406-1.102,0.551
				c-0.396,0.145-0.836,0.218-1.317,0.218c-0.218,0-0.476-0.04-0.767-0.121c-0.293-0.082-0.572-0.172-0.835-0.273
				c-0.265-0.098-0.495-0.188-0.69-0.27c-0.194-0.08-0.299-0.121-0.31-0.121l0.087-0.349c0.103-0.141,0.308-0.405,0.611-0.794
				c0.304-0.39,0.659-0.85,1.067-1.38c0.407-0.529,0.867-1.155,1.378-1.876c0.511-0.722,0.978-1.368,1.395-1.938
				c0.419-0.57,0.789-1.087,1.111-1.554c0.32-0.464,0.551-0.825,0.689-1.081c0.482-0.13,0.826-0.266,1.032-0.412
				c0.207-0.146,0.323-0.265,0.346-0.357c0.068-0.28,0.103-0.618,0.103-1.017c0-0.491-0.088-0.879-0.266-1.166
				c-0.179-0.285-0.469-0.429-0.871-0.429c-0.035,0-0.08,0.009-0.138,0.026c-0.057,0.018-0.157,0.038-0.301,0.061
				c-0.144,0.024-0.353,0.044-0.629,0.061c-0.274,0.018-0.644,0.027-1.103,0.027c-0.161,0-0.335,0-0.524,0s-0.399-0.005-0.628-0.018
				c-0.301-0.01-0.589-0.084-0.872-0.218c-0.28-0.136-0.555-0.283-0.826-0.445c-0.27-0.166-0.543-0.314-0.818-0.449
				c-0.275-0.134-0.55-0.201-0.826-0.201c-0.367,0-0.767,0.06-1.198,0.18c-0.43,0.121-0.843,0.351-1.239,0.689
				c-0.397,0.339-0.755,0.817-1.076,1.437c-0.322,0.623-0.567,1.431-0.742,2.431c-0.021,0.136-0.038,0.272-0.05,0.402
				c-0.013,0.133-0.017,0.257-0.017,0.372c0,0.275,0.036,0.498,0.11,0.664c0.075,0.166,0.205,0.248,0.389,0.248
				c0.193,0,0.414-0.126,0.653-0.376c0.241-0.252,0.54-0.646,0.896-1.183c0.161-0.245,0.308-0.435,0.44-0.57
				c0.132-0.134,0.28-0.234,0.446-0.303c0.168-0.066,0.372-0.105,0.612-0.115c0.241-0.013,0.544-0.018,0.913-0.018
				c0.149,0,0.287,0.018,0.413,0.051c0.127,0.036,0.249,0.086,0.37,0.149c0.122,0.065,0.256,0.137,0.405,0.218
				c0.149,0.082,0.327,0.17,0.535,0.262l-4.544,6.281l-0.316-1.449c-0.574,0.776-1.143,1.469-1.707,2.084
				c-0.239,0.261-0.497,0.515-0.765,0.759c-0.27,0.245-0.54,0.465-0.811,0.659c-0.27,0.192-0.536,0.349-0.8,0.47
				c-0.266,0.118-0.518,0.178-0.759,0.178c-0.321,0-0.531-0.148-0.629-0.445s-0.146-0.708-0.146-1.234
				c0-0.616,0.096-1.372,0.285-2.271c0.188-0.898,0.357-1.7,0.506-2.4c0.148-0.703,0.28-1.388,0.395-2.058
				c0.114-0.669,0.173-1.277,0.173-1.826c0-0.36-0.032-0.644-0.095-0.854c-0.063-0.208-0.153-0.371-0.268-0.486
				c-0.114-0.117-0.249-0.191-0.399-0.227c-0.148-0.034-0.312-0.053-0.485-0.053c-0.127,0-0.256,0.003-0.39,0.009
				c-0.132,0.006-0.262,0.01-0.39,0.01c-0.148,0-0.298-0.01-0.441-0.025c-0.145-0.019-0.287-0.057-0.423-0.114
				c-0.141-0.058-0.256-0.151-0.348-0.278c-0.093-0.128-0.189-0.258-0.287-0.391c-0.097-0.135-0.221-0.254-0.372-0.358
				c-0.148-0.104-0.357-0.156-0.624-0.156c-0.797,0-1.578,0.168-2.347,0.506c-0.769,0.337-1.499,0.792-2.192,1.365
				c-0.691,0.571-1.331,1.241-1.914,2.008c-0.583,0.765-1.131,1.676-1.638,2.729c-0.509,1.053-0.883,2.031-1.126,2.935
				c-0.196,0.73-0.292,1.442-0.329,2.143c-0.179,0.112-0.353,0.226-0.537,0.335c-0.341,0.205-0.674,0.383-0.996,0.54
				c-0.323,0.155-0.629,0.279-0.918,0.372c-0.287,0.094-0.544,0.141-0.768,0.141c-0.091,0-0.189-0.067-0.292-0.2
				c-0.103-0.134-0.202-0.312-0.295-0.538c-0.091-0.228-0.171-0.483-0.233-0.766c-0.062-0.284-0.095-0.576-0.095-0.876v-0.245
				c0.035-0.231,0.081-0.468,0.14-0.713c0.058-0.242,0.114-0.471,0.172-0.685c0.057-0.214,0.119-0.415,0.182-0.599
				c0.064-0.186,0.123-0.337,0.182-0.451c0.529-1.043,1.107-2.108,1.733-3.201c0.628-1.091,1.252-2.2,1.871-3.325
				c0.622-1.127,1.219-2.261,1.794-3.402c0.571-1.143,1.076-2.284,1.512-3.423c0.436-1.136,0.78-2.268,1.038-3.393
				c0.257-1.127,0.385-2.232,0.385-3.317c0-0.438-0.04-0.866-0.12-1.289c-0.08-0.421-0.22-0.798-0.417-1.131
				c-0.198-0.333-0.471-0.601-0.817-0.804c-0.346-0.202-0.784-0.304-1.315-0.304c-0.731,0-1.449,0.208-2.157,0.628
				c-0.709,0.418-1.388,0.994-2.036,1.726c-0.649,0.732-1.27,1.593-1.861,2.58c-0.591,0.985-1.14,2.047-1.643,3.18
				c-0.28,0.63-0.561,1.387-0.84,2.246c-0.028-1.123-0.265-2.211-0.726-3.263c-0.491-1.122-1.222-2.115-2.191-2.981
				c-0.971-0.864-2.188-1.556-3.649-2.078c-1.462-0.521-3.164-0.781-5.104-0.781c-1.474,0-2.862,0.239-4.168,0.714
				c-1.306,0.476-2.514,1.15-3.624,2.021c-1.11,0.873-2.107,1.917-2.995,3.134c-0.885,1.216-1.639,2.561-2.259,4.035
				c-0.622,1.474-1.099,3.056-1.433,4.741c-0.332,1.686-0.5,3.436-0.5,5.248c0,1.055,0.055,2.179,0.163,3.372
				c0.067,0.729,0.167,1.454,0.283,2.176c-0.462,0.404-0.931,0.798-1.411,1.178c-0.517,0.407-1.026,0.755-1.532,1.042
				c-0.506,0.288-0.966,0.43-1.379,0.43c-0.355,0-0.591-0.151-0.706-0.455c-0.115-0.305-0.173-0.716-0.173-1.232
				c0-0.528,0.083-1.115,0.249-1.76c0.166-0.647,0.301-1.297,0.41-1.95c0.108-0.656,0.31-1.445,0.606-2.374
				c0.296-0.926,0.519-1.684,0.67-2.273c0.15-0.591,0.285-1.118,0.403-1.578c0.118-0.462,0.176-0.819,0.176-1.07
				c0-0.3-0.084-0.536-0.253-0.715c-0.17-0.179-0.491-0.268-0.964-0.268c-0.26,0-0.551,0.033-0.872,0.095
				c-0.32,0.065-0.633,0.164-0.931,0.299c-0.3,0.131-0.567,0.303-0.804,0.512c-0.26,0.232-0.418,0.494-0.474,0.783
				c-0.103,0.415-0.372,1.308-0.808,2.679c-0.469,1.682-0.782,2.77-0.938,3.259c-0.085,0.218-0.262,1.129-0.532,2.724
				c-0.454,0.372-0.899,0.725-1.326,1.038c-0.275,0.198-0.561,0.393-0.853,0.582c-0.294,0.192-0.583,0.362-0.869,0.513
				c-0.287,0.151-0.56,0.271-0.819,0.358c-0.258,0.085-0.496,0.129-0.715,0.129c-0.224,0-0.41-0.07-0.562-0.209
				c-0.151-0.141-0.271-0.329-0.36-0.566c-0.09-0.237-0.153-0.508-0.193-0.81c-0.04-0.303-0.058-0.621-0.058-0.956
				c0-0.269,0.017-0.544,0.053-0.829c0.036-0.284,0.081-0.562,0.135-0.836c0.054-0.274,0.11-0.524,0.171-0.757
				c0.059-0.233,0.119-0.431,0.179-0.594c0.274-0.742,0.913-2.152,1.916-4.231c0.656-1.358,1.217-2.732,1.682-4.118
				c0.465-1.389,0.935-2.792,1.411-4.212c0.475-1.42,0.73-2.954,0.763-4.602c0.008-0.434,0.012-0.855,0.012-1.263
				c0-0.657-0.052-1.291-0.155-1.907c-0.104-0.615-0.273-1.156-0.508-1.621c-0.235-0.467-0.542-0.839-0.922-1.121
				c-0.38-0.283-0.839-0.424-1.377-0.424c-0.739,0-1.455,0.227-2.148,0.681c-0.693,0.453-1.346,1.081-1.959,1.886
				c-0.611,0.804-1.174,1.757-1.688,2.858c-0.514,1.102-0.935,2.308-1.258,3.617c-0.327,1.31-0.63,2.533-0.912,3.669
				c-0.281,1.138-0.44,2.451-0.476,3.942c-0.872,0.083-1.692,0.288-2.462,0.613c-0.77,0.326-1.519,0.81-2.248,1.45
				c-0.73,0.641-1.314,1.353-1.757,2.134c-0.442,0.781-0.845,1.529-1.206,2.247c-0.361,0.716-0.637,1.457-0.826,2.219
				c-0.142,0.569-0.213,1.131-0.249,1.689c-0.414,0.276-0.838,0.544-1.282,0.792c-0.726,0.403-1.469,0.739-2.231,1.01
				c-0.765,0.269-1.49,0.404-2.179,0.404c-0.219,0-0.424-0.021-0.614-0.066c-0.189-0.045-0.371-0.124-0.544-0.235
				c-0.174-0.114-0.343-0.27-0.511-0.473c-0.166-0.202-0.336-0.454-0.51-0.757c1.002-0.271,1.931-0.646,2.788-1.13
				c0.857-0.482,1.597-1.033,2.219-1.649c0.62-0.618,1.164-1.359,1.631-2.223c0.465-0.865,0.698-1.645,0.698-2.342
				c0-0.652-0.114-1.245-0.345-1.771c-0.229-0.528-0.55-0.979-0.958-1.35c-0.408-0.373-0.888-0.664-1.439-0.871
				c-0.551-0.206-1.149-0.31-1.793-0.31c-0.788,0-1.505,0.141-2.149,0.418c-0.646,0.276-1.229,0.652-1.748,1.122
				s-0.973,1.015-1.361,1.632c-0.39,0.617-0.711,1.267-0.969,1.947c-0.257,0.679-0.505,1.458-0.744,2.335
				c-0.239,0.879-0.359,1.637-0.359,2.27c0,0.256,0.034,0.5,0.053,0.75c-0.044,0.055-0.088,0.119-0.132,0.172
				c-0.264,0.32-0.54,0.634-0.827,0.938c-0.286,0.305-0.576,0.574-0.87,0.81c-0.292,0.235-0.586,0.424-0.878,0.567
				c-0.293,0.145-0.571,0.216-0.835,0.216c-0.469,0-0.825-0.112-1.07-0.337c-0.245-0.226-0.367-0.588-0.367-1.092
				c0-0.397,0.068-0.987,0.204-1.764c0.136-0.778,0.287-1.629,0.453-2.555c0.167-0.925,0.342-1.902,0.528-2.936
				c0.185-1.033,0.373-2.082,0.563-3.149c0.192-1.068,0.386-2.142,0.579-3.221c0.193-1.08,0.289-2.113,0.289-3.101
				c0-1.057-0.096-2.059-0.29-3.006c-0.193-0.946-0.473-1.775-0.838-2.481c-0.363-0.706-0.816-1.265-1.358-1.678
				c-0.541-0.415-1.158-0.62-1.854-0.62c-1.008,0-1.983,0.253-2.923,0.757c-0.939,0.506-1.816,1.232-2.63,2.181
				c-0.813,0.944-1.547,2.098-2.202,3.452c-0.652,1.354-1.203,2.884-1.648,4.582l-0.362,0.018c0.103-0.804,0.201-1.55,0.292-2.239
				c0.036-0.288,0.072-0.578,0.113-0.87c0.039-0.293,0.074-0.565,0.103-0.819c0.028-0.252,0.053-0.477,0.07-0.672
				c0.017-0.195,0.025-0.339,0.025-0.43c0-1.011-0.089-1.884-0.268-2.621c-0.179-0.733-0.428-1.341-0.749-1.825
				c-0.321-0.481-0.706-0.837-1.153-1.066c-0.448-0.23-0.937-0.344-1.464-0.344c-0.721,0-1.448,0.194-2.181,0.584
				c-0.732,0.39-1.456,0.942-2.171,1.654s-1.409,1.564-2.084,2.558c-0.674,0.993-1.31,2.101-1.908,3.323
				c-0.6,1.224-1.152,2.537-1.657,3.945c-0.506,1.406-0.944,2.873-1.316,4.402c0.201-0.819,0.41-1.699,0.625-2.641
				c0.215-0.943,0.392-1.894,0.529-2.853c0.14-0.957,0.271-1.869,0.396-2.733c0.126-0.866,0.189-1.621,0.189-2.264
				c0-0.836-0.055-1.601-0.163-2.29c-0.11-0.689-0.303-1.278-0.578-1.766c-0.275-0.489-0.649-0.868-1.12-1.137
				c-0.471-0.27-1.062-0.405-1.773-0.405c-0.551,0-1.128,0.115-1.73,0.345c-0.604,0.23-1.194,0.616-1.773,1.162
				c-0.581,0.546-1.132,1.274-1.653,2.188c-0.523,0.913-0.991,2.047-1.405,3.401c-0.045,0.047-0.067,0.103-0.067,0.172
				c0,0.127,0.015,0.268,0.048,0.422s0.074,0.301,0.123,0.439c0.049,0.139,0.104,0.256,0.163,0.354s0.118,0.148,0.173,0.148
				c0.174,0,0.33-0.04,0.473-0.113c0.142-0.075,0.245-0.199,0.31-0.372c0.351-0.492,0.731-0.955,1.146-1.385
				c0.414-0.432,0.828-0.807,1.243-1.128c0.413-0.322,0.809-0.579,1.185-0.767c0.375-0.188,0.693-0.284,0.955-0.284
				c0.164,0,0.287,0.051,0.368,0.155c0.081,0.103,0.139,0.227,0.172,0.37c0.033,0.144,0.049,0.297,0.049,0.459
				c0,0.163,0,0.297,0,0.402c0.021,1.21,0.04,2.341,0.06,3.398c0.018,1.056-0.029,2.073-0.142,3.049
				c-0.111,0.976-0.224,1.953-0.335,2.927c-0.112,0.977-0.334,1.97-0.665,2.982c-0.33,1.01-0.62,2.093-0.873,3.248
				c-0.252,1.155-0.524,2.403-0.817,3.749c-0.094,0.4-0.161,0.8-0.207,1.196c-0.046,0.396-0.069,0.83-0.069,1.299
				c0,0.243,0.062,0.457,0.19,0.646c0.126,0.191,0.297,0.351,0.516,0.482c0.218,0.134,0.468,0.23,0.748,0.293
				c0.28,0.064,0.57,0.096,0.869,0.096c0.252,0,0.516-0.026,0.792-0.078c0.273-0.052,0.532-0.141,0.772-0.267
				c0.241-0.127,0.448-0.301,0.62-0.518c0.171-0.218,0.281-0.499,0.327-0.846c0.26-1.06,0.542-2.221,0.85-3.478
				c0.307-1.257,0.623-2.554,0.949-3.888c0.327-1.336,0.731-2.66,1.212-3.976c0.482-1.314,0.982-2.574,1.5-3.78
				c0.517-1.205,1.037-2.326,1.561-3.365c0.522-1.04,1.032-1.944,1.524-2.713c0.494-0.77,0.956-1.373,1.382-1.809
				c0.43-0.438,0.811-0.656,1.145-0.656c0.402,0,0.727,0.104,0.971,0.312c0.244,0.205,0.433,0.505,0.562,0.896
				c0.131,0.39,0.214,0.867,0.25,1.429c0.035,0.562,0.053,1.2,0.053,1.911c0,1.034-0.122,2.166-0.365,3.395
				c-0.244,1.229-0.474,2.459-0.689,3.692c-0.213,1.234-0.452,2.472-0.715,3.714c-0.263,1.239-0.491,2.363-0.688,3.37
				c-0.197,1.007-0.366,1.876-0.503,2.608c-0.139,0.732-0.096,1.247,0.125,1.545c0,0.45,0.054,0.828,0.163,1.138
				c0.108,0.309,0.252,0.565,0.43,0.766c0.177,0.202,0.385,0.348,0.618,0.44c0.235,0.092,0.473,0.138,0.715,0.138
				c0.24,0,0.479-0.031,0.721-0.096c0.24-0.063,0.468-0.163,0.683-0.3c0.216-0.138,0.405-0.319,0.572-0.543
				c0.164-0.226,0.287-0.498,0.366-0.82c0.224-1.144,0.423-2.335,0.602-3.575c0.177-1.238,0.434-2.551,0.768-3.94
				c0.332-1.389,0.638-2.73,0.916-4.025c0.279-1.297,0.617-2.538,1.016-3.722c0.398-1.185,0.823-2.286,1.271-3.303
				c0.448-1.018,0.931-1.898,1.446-2.644c0.515-0.745,1.061-1.328,1.638-1.75c0.576-0.424,1.19-0.637,1.841-0.637
				c0.323,0,0.584,0.081,0.78,0.242c0.196,0.16,0.346,0.387,0.451,0.681c0.104,0.294,0.173,0.648,0.208,1.068
				c0.034,0.419,0.05,0.886,0.05,1.405c0,0.694-0.081,1.504-0.246,2.436c-0.165,0.932-0.334,1.879-0.507,2.845
				c-0.173,0.965-0.347,1.932-0.52,2.903c-0.175,0.97-0.346,1.927-0.515,2.869c-0.169,0.944-0.332,1.854-0.49,2.733
				c-0.157,0.879-0.259,1.702-0.304,2.472c-0.013,0.104-0.021,0.207-0.027,0.312c-0.006,0.102-0.008,0.2-0.008,0.292
				c0,0.827,0.138,1.557,0.414,2.197c0.274,0.635,0.642,1.17,1.1,1.6c0.459,0.431,0.984,0.754,1.575,0.974
				c0.591,0.219,1.197,0.327,1.817,0.327c0.638,0,1.281-0.098,1.931-0.292c0.648-0.195,1.289-0.514,1.92-0.956
				c0.599-0.418,1.184-0.961,1.76-1.61c0.138,0.223,0.264,0.455,0.426,0.659c0.537,0.671,1.207,1.207,2.012,1.603
				c0.804,0.398,1.742,0.597,2.813,0.597c0.689,0,1.371-0.08,2.043-0.24c0.671-0.159,1.319-0.372,1.946-0.637
				c0.624-0.267,1.223-0.573,1.79-0.915c0.301-0.181,0.589-0.364,0.868-0.548c0.111,0.218,0.225,0.435,0.363,0.633
				c0.362,0.517,0.815,0.932,1.361,1.241c0.544,0.31,1.19,0.465,1.936,0.465c0.531,0,1.058-0.089,1.582-0.266
				c0.523-0.177,1.043-0.41,1.555-0.703c0.513-0.293,1.008-0.638,1.486-1.033c0.477-0.396,0.929-0.814,1.355-1.253
				c0.282,0.707,0.614,1.274,0.996,1.701s0.765,0.753,1.146,0.978c0.382,0.226,0.734,0.376,1.059,0.449
				c0.322,0.073,0.566,0.109,0.731,0.109c0.278,0,0.586-0.052,0.923-0.154c0.335-0.104,0.682-0.239,1.037-0.404
				c0.355-0.164,0.719-0.353,1.086-0.566c0.367-0.212,0.718-0.429,1.051-0.649c0.323-0.213,0.649-0.448,0.977-0.686
				c0.023,0.147,0.044,0.297,0.079,0.436c0.108,0.433,0.288,0.797,0.541,1.095s0.583,0.532,0.991,0.697
				c0.407,0.166,0.91,0.25,1.507,0.25c0.666,0,1.37-0.121,2.11-0.362c0.74-0.24,1.467-0.541,2.178-0.903
				c0.713-0.361,1.376-0.757,1.99-1.189c0.271-0.19,0.516-0.374,0.748-0.555c0.167,0.618,0.351,1.223,0.561,1.811
				c0.385,1.078,0.854,2.029,1.413,2.855c0.557,0.825,1.204,1.482,1.945,1.969c0.74,0.489,1.581,0.732,2.525,0.732
				c0.887,0,1.705-0.164,2.454-0.489c0.75-0.328,1.427-0.77,2.032-1.324c0.606-0.556,1.137-1.202,1.591-1.941
				c0.455-0.738,0.843-1.519,1.159-2.345c0.317-0.824,0.559-1.668,0.726-2.534c0.168-0.866,0.265-1.699,0.286-2.503
				c0-0.07,0.002-0.196,0.009-0.381c0.007-0.184,0.011-0.398,0.017-0.646c0.007-0.247,0.014-0.52,0.027-0.819
				c0.011-0.298,0.022-0.597,0.034-0.897c0.022-0.7,0.051-1.472,0.086-2.312c1.813-0.275,3.395-0.75,4.741-1.43
				c1.347-0.677,2.461-1.482,3.345-2.413c0.472-0.495,0.875-1.018,1.22-1.563c-0.007,0.024-0.011,0.04-0.011,0.04
				c0-0.002-0.165,0.939-0.497,2.821c-0.331,1.88-0.498,3.386-0.498,4.512c0,1.312,0.114,2.563,0.336,3.756
				c0.223,1.192,0.532,2.241,0.928,3.146c0.394,0.903,0.857,1.623,1.389,2.161c0.531,0.536,1.106,0.805,1.725,0.805
				c0.402,0,0.835-0.051,1.296-0.155c0.461-0.104,0.934-0.243,1.418-0.418c0.484-0.175,0.967-0.374,1.446-0.598
				c0.396-0.185,0.776-0.374,1.153-0.562c0.113,0.156,0.222,0.319,0.352,0.455c0.402,0.424,0.865,0.749,1.387,0.975
				c0.522,0.225,1.06,0.338,1.611,0.338c0.52,0,1.041-0.085,1.562-0.256c0.521-0.172,1.021-0.39,1.502-0.655
				c0.48-0.269,0.922-0.566,1.326-0.896c0.406-0.33,0.747-0.654,1.025-0.971c0.371,0.919,0.81,1.622,1.32,2.105
				c0.51,0.482,1.145,0.722,1.907,0.722c0.632,0,1.264-0.155,1.895-0.468c0.629-0.313,1.22-0.697,1.771-1.147
				c0.154,0.165,0.336,0.305,0.558,0.403c0.252,0.118,0.551,0.174,0.896,0.174c0.319,0,0.701-0.064,1.138-0.197
				c0.505,0.254,0.97,0.463,1.395,0.628c0.424,0.166,0.797,0.301,1.12,0.405c0.319,0.104,0.579,0.18,0.774,0.222
				c0.194,0.045,0.315,0.067,0.361,0.067c0.563,0,1.163-0.067,1.8-0.2c0.638-0.135,1.265-0.316,1.877-0.547
				c0.614-0.229,1.203-0.493,1.766-0.796c0.188-0.101,0.357-0.207,0.531-0.312c0.103,0.137,0.197,0.284,0.312,0.405
				c0.401,0.424,0.864,0.749,1.386,0.975c0.522,0.225,1.061,0.338,1.61,0.338c0.521,0,1.042-0.085,1.562-0.256
				c0.521-0.172,1.021-0.39,1.502-0.655c0.481-0.269,0.924-0.566,1.327-0.896c0.407-0.33,0.748-0.654,1.026-0.971
				c0.37,0.919,0.81,1.622,1.319,2.105c0.509,0.482,1.144,0.722,1.907,0.722c0.633,0,1.263-0.155,1.896-0.468
				c0.631-0.314,1.222-0.699,1.772-1.15c0.551-0.453,1.049-0.929,1.49-1.428c0.443-0.499,0.796-0.935,1.061-1.306L178.21,191.758z
				 M62.436,190.722c0.023-0.349,0.13-0.792,0.32-1.331c0.189-0.538,0.358-0.99,0.501-1.354c0.145-0.365,0.334-0.692,0.571-0.976
				c0.235-0.288,0.529-0.52,0.881-0.701c0.352-0.179,0.775-0.268,1.271-0.268c0.276,0,0.51,0.162,0.7,0.487
				c0.19,0.325,0.285,0.741,0.285,1.248c0,0.359-0.202,0.813-0.604,1.363c-0.404,0.551-0.817,0.987-1.236,1.314
				c-0.423,0.325-0.877,0.593-1.366,0.801c-0.49,0.208-0.942,0.31-1.357,0.31C62.401,191.367,62.413,191.069,62.436,190.722z
				 M78.869,194.371c-0.138,0.204-0.291,0.399-0.457,0.589c-0.167,0.188-0.342,0.356-0.524,0.504
				c-0.186,0.146-0.378,0.268-0.579,0.359c-0.2,0.092-0.404,0.137-0.611,0.137c-0.402,0-0.729-0.045-0.981-0.135
				s-0.447-0.207-0.587-0.351c-0.137-0.144-0.231-0.305-0.283-0.484c-0.036-0.126-0.043-0.251-0.054-0.377
				c0.166-0.167,0.34-0.316,0.503-0.489l-0.46-0.467c0.051-0.364,0.125-0.743,0.243-1.152c0.207-0.718,0.508-1.575,0.904-2.569
				c0.396-0.997,0.891-1.798,1.48-2.408c0.592-0.606,1.267-1.095,2.024-1.465c0.012-0.012,0.022,0.105,0.034,0.346
				c0.012,0.245,0.021,0.557,0.027,0.938c0.005,0.384,0.013,0.805,0.025,1.268c0.012,0.465,0.022,1.058,0.034,1.783
				c0.011,0.723,0.029,1.261,0.053,1.613c0.023,0.353,0.053,0.611,0.087,0.773C79.483,193.374,79.19,193.903,78.869,194.371z
				 M83.673,186.982v-0.173c0-0.173,0-0.425,0-0.75c0-0.327,0.005-0.709,0.02-1.145c0.011-0.437,0.033-0.918,0.064-1.449
				c0.032-0.529,0.072-1.077,0.122-1.648c0.024-0.283,0.068-0.753,0.128-1.416c0.06-0.662,0.141-1.409,0.24-2.234
				c0.101-0.827,0.259-1.67,0.476-2.533c0.217-0.862,0.418-1.66,0.603-2.392c0.184-0.736,0.428-1.335,0.732-1.801
				c0.303-0.463,0.642-0.696,1.015-0.696c0.21,0,0.371,0.121,0.481,0.361c0.11,0.242,0.166,0.671,0.166,1.293
				c0,0.472-0.036,1.107-0.106,1.912c-0.06,0.61-0.165,1.253-0.312,1.931c-0.149,0.677-0.333,1.363-0.547,2.054
				c-0.216,0.691-0.433,1.389-0.652,2.089c-0.219,0.704-0.439,1.379-0.664,2.025C84.898,183.929,84.311,185.453,83.673,186.982z
				 M121.211,180.08c-0.258,0.63-0.652,1.205-1.185,1.729c-0.532,0.521-1.205,0.977-2.018,1.36
				c-0.814,0.385-1.782,0.662-2.905,0.837l0.154-1.378l1.048-4.481c0-0.046,0.005-0.084,0.009-0.115
				c0.007-0.028,0.009-0.081,0.009-0.163c0-0.29-0.06-0.526-0.179-0.71c-0.122-0.185-0.271-0.332-0.449-0.442
				c-0.178-0.109-0.376-0.185-0.594-0.226c-0.218-0.039-0.429-0.06-0.636-0.06c-0.684,0-1.257,0.171-1.72,0.515
				c-0.464,0.342-0.84,0.774-1.128,1.296c-0.291,0.522-0.509,1.096-0.66,1.723c-0.151,0.626-0.259,1.228-0.321,1.802
				c-0.064,0.575-0.1,1.085-0.104,1.532c-0.007,0.447-0.01,0.746-0.01,0.897c-0.204-0.049-0.433-0.119-0.684-0.216
				c-0.216-0.084-0.478-0.193-0.785-0.331c-0.307-0.138-0.647-0.313-1.024-0.528c-0.147-0.083-0.27-0.15-0.366-0.199
				c-0.097-0.047-0.202-0.071-0.316-0.071c-0.17,0-0.304,0.05-0.401,0.151c-0.095,0.1-0.171,0.229-0.221,0.389
				c-0.052,0.159-0.084,0.341-0.095,0.547c-0.012,0.207-0.018,0.415-0.018,0.628c0,0.387,0.037,0.721,0.112,1.008
				c0.073,0.288,0.246,0.562,0.521,0.821c0.272,0.26,0.68,0.531,1.221,0.812c0.542,0.283,1.283,0.61,2.229,0.981v0.812
				c0,0.528-0.013,1.17-0.035,1.923c-0.023,0.751-0.073,1.544-0.154,2.372c-0.081,0.827-0.201,1.652-0.362,2.475
				c-0.161,0.821-0.379,1.558-0.655,2.206c-0.274,0.65-0.619,1.18-1.032,1.588c-0.412,0.408-0.913,0.613-1.498,0.613
				c-0.563,0-1.031-0.24-1.404-0.716c-0.373-0.477-0.685-1.093-0.932-1.845c-0.245-0.753-0.433-1.594-0.559-2.526
				c-0.127-0.931-0.219-1.85-0.275-2.758c-0.057-0.907-0.089-1.762-0.095-2.56c-0.006-0.799-0.009-1.434-0.009-1.906
				c0-1.15,0.082-2.333,0.251-3.548c0.167-1.215,0.426-2.394,0.777-3.54c0.35-1.146,0.796-2.225,1.338-3.237
				c0.54-1.014,1.18-1.9,1.915-2.659c0.736-0.76,1.577-1.362,2.521-1.807c0.944-0.442,1.998-0.663,3.159-0.663
				c1.55,0,2.836,0.179,3.856,0.537c1.02,0.357,1.835,0.812,2.442,1.366c0.608,0.554,1.034,1.168,1.281,1.844
				c0.247,0.675,0.371,1.336,0.371,1.982C121.599,178.807,121.47,179.453,121.211,180.08z M128.247,182.066
				c0.309-1.556,0.464-2.334,0.464-2.334s0.254-0.839,0.761-2.517c0.505-1.677,0.94-2.889,1.305-3.632
				c0.363-0.743,0.729-1.335,1.094-1.771c0.363-0.437,0.704-0.656,1.02-0.656c0.087,0,0.138,0.12,0.154,0.357
				c0.017,0.237,0.025,0.524,0.025,0.859c-0.105,1.053-0.347,2.191-0.727,3.411c-0.378,1.224-0.828,2.447-1.349,3.676
				c-0.517,1.229-1.067,2.421-1.648,3.578c-0.582,1.158-1.132,2.199-1.65,3.125C127.755,184.988,127.938,183.622,128.247,182.066z
				 M140.74,191.656c-0.046,0.37-0.146,0.831-0.302,1.387c-0.155,0.555-0.36,1.091-0.613,1.613
				c-0.253,0.521-0.552,0.964-0.896,1.334c-0.346,0.37-0.73,0.556-1.155,0.556c-0.266,0-0.483-0.067-0.656-0.205
				c-0.173-0.136-0.311-0.313-0.414-0.532c-0.104-0.22-0.176-0.469-0.215-0.747c-0.041-0.278-0.062-0.565-0.062-0.862
				c0-0.5,0.067-1.036,0.199-1.604c0.132-0.57,0.358-1.23,0.68-1.981s0.648-1.383,0.981-1.895c0.334-0.513,0.698-0.968,1.094-1.366
				c0.396-0.398,0.817-0.715,1.267-0.948c0.448-0.233,0.906-0.35,1.377-0.35L140.74,191.656z M168.573,191.656
				c-0.046,0.37-0.146,0.831-0.302,1.387c-0.156,0.555-0.359,1.091-0.612,1.613c-0.254,0.521-0.553,0.964-0.896,1.334
				c-0.347,0.37-0.73,0.556-1.156,0.556c-0.265,0-0.484-0.067-0.656-0.205c-0.172-0.136-0.311-0.313-0.413-0.532
				c-0.104-0.22-0.176-0.469-0.217-0.747c-0.04-0.278-0.06-0.565-0.06-0.862c0-0.5,0.065-1.036,0.198-1.604
				c0.131-0.57,0.358-1.23,0.68-1.981s0.649-1.383,0.981-1.895c0.334-0.513,0.698-0.968,1.095-1.366
				c0.396-0.398,0.817-0.715,1.266-0.948s0.906-0.35,1.378-0.35L168.573,191.656z"/>
		</g>
		<path fill="#FFFFFF" d="M191.57,84.859c0.08-9.192-5.837-17.208-13.783-21.279c2.287-7.072,3.958-14.439,4.068-21.9
			c0.105-7.153-1.691-14.636-7.074-19.67c-5.805-5.429-14.052-7.355-21.766-7.65c-8.45-0.321-16.945,1.317-25.142,3.219
			c-0.987,0.23-1.972,0.465-2.955,0.711C113.571,1.769,86.714,2.047,74.71,17.669c-8.619-1.82-17.497-2.962-26.308-2.429
			c-4.341,0.262-8.699,0.986-12.788,2.494c-3.314,1.223-7.016,3.109-9.377,5.829c-0.019,0.02-0.034,0.05-0.056,0.077
			c-0.107,0.077-0.288,0.218-0.455,0.345c-0.111,0.062-0.225,0.137-0.327,0.223c-0.04,0.033-0.077,0.068-0.113,0.095
			c0.095-0.152,0.044-0.077-0.039,0.038c-11.324,9.557-8.735,27.211-5.104,39.988C12.207,68.81,6.491,76.736,6.429,86.093
			c-0.026,4.412,1.426,8.777,3.816,12.459c2.44,3.761,5.742,6.51,9.667,8.469c-2.333,7.176-4.123,14.635-4.237,22.197
			c-0.106,7.139,1.809,14.832,7.523,19.562c5.514,4.562,12.985,5.987,19.938,6.487c8.205,0.583,16.53-0.369,24.591-1.901
			c1.702-0.323,3.397-0.689,5.085-1.093c11.38,16.55,38.381,16.642,50.519,0.896c7.961,1.692,16.098,2.875,24.246,2.713
			c7.57-0.147,15.663-1.613,21.739-6.415c2.318-1.825,4.49-3.72,6.289-6.073c2.206-2.892,3.537-6.445,4.284-9.983
			c1.64-7.759,0.51-15.958-1.344-23.575c-0.255-1.038-0.531-2.071-0.825-3.103C185.7,102.213,191.484,94.273,191.57,84.859z
			 M174.434,104.092c-0.755,0.376-1.123,1.399-0.887,2.191c2.174,7.303,3.666,14.923,3.093,22.574
			c-0.26,3.472-1.135,6.949-2.767,10.038c-1.521,2.885-3.806,4.936-6.271,6.989c-5.444,4.54-12.61,5.857-19.517,6.1
			c-8.42,0.301-16.855-1.044-25.05-2.845c-0.91-0.2-1.673,0.139-2.195,0.896c-10.301,14.941-35.956,14.633-45.479-0.946
			c-0.461-0.761-1.328-1.104-2.19-0.891c-7.775,1.921-15.728,3.145-23.746,3.321c-7.19,0.161-15.021-0.446-21.39-4.089
			c-6.24-3.563-8.348-10.481-8.472-17.285c-0.152-8.043,2.052-16.072,4.601-23.623c0.25-0.753-0.142-1.866-0.894-2.195
			c-3.834-1.675-6.97-3.906-9.414-7.361c-2.176-3.064-3.397-6.697-3.538-10.444c-0.305-8.682,5.692-15.822,13.113-19.546
			c0.756-0.379,1.129-1.398,0.893-2.187c-3.387-11.341-6.837-28.107,3.127-37.224c0.012-0.012,0.024-0.013,0.037-0.023
			c0.534-0.357,1.024-0.805,1.515-1.22c0.189-0.156,0.334-0.329,0.435-0.504c2.034-2.082,4.966-3.511,7.622-4.494
			c3.789-1.386,7.821-1.988,11.833-2.227c8.754-0.53,17.581,0.733,26.113,2.604c0.91,0.198,1.674-0.142,2.195-0.896
			c10.175-14.798,35.67-14.906,45.17,0.679c0.46,0.76,1.334,1.104,2.189,0.892c7.881-1.958,15.854-3.728,23.985-4.103
			c7.568-0.353,15.34,0.699,21.712,5.075c5.902,4.049,7.671,11.076,7.718,17.874c0.051,7.777-1.968,15.534-4.432,22.854
			c-0.253,0.752,0.136,1.861,0.891,2.194c7.396,3.269,12.975,9.843,13.253,18.159C187.97,93.167,181.896,100.332,174.434,104.092z"
			/>
		<g>
			<path fill="#09A0AE" d="M42.834,205.678h1.491v13.995h5.689v1.293h-7.181V205.678z"/>
			<path fill="#09A0AE" d="M55.515,210.281c1.147,0,2.104,0.498,2.872,1.496c0.768,0.998,1.15,2.32,1.15,3.962
				c0,0.95-0.151,1.847-0.454,2.689c-0.304,0.845-0.773,1.519-1.409,2.023c-0.635,0.505-1.373,0.756-2.214,0.756
				c-1.249,0-2.233-0.514-2.954-1.545c-0.719-1.03-1.079-2.32-1.079-3.869c0-1.235,0.226-2.299,0.679-3.2
				c0.454-0.897,1.006-1.508,1.661-1.831C54.421,210.442,55.003,210.281,55.515,210.281z M55.607,211.574
				c-0.914,0-1.603,0.387-2.064,1.162c-0.461,0.774-0.692,1.832-0.692,3.167c0,1.148,0.229,2.109,0.682,2.884
				c0.453,0.775,1.091,1.161,1.911,1.161c0.776,0,1.416-0.359,1.916-1.078c0.502-0.721,0.753-1.771,0.753-3.151
				c0-1.316-0.245-2.335-0.736-3.059C56.886,211.937,56.296,211.574,55.607,211.574z"/>
			<path fill="#09A0AE" d="M61.487,218.698c1.023,0.833,1.999,1.249,2.927,1.249c0.717,0,1.308-0.18,1.775-0.545
				c0.468-0.361,0.701-0.821,0.701-1.377c0-0.404-0.155-0.74-0.466-1.012c-0.312-0.271-0.912-0.54-1.804-0.801
				c-1.096-0.33-1.896-0.707-2.399-1.129c-0.504-0.425-0.756-1.013-0.756-1.766c0-0.861,0.34-1.582,1.019-2.165
				c0.68-0.581,1.52-0.871,2.521-0.871c0.804,0,1.718,0.284,2.74,0.851v1.551c-0.869-0.761-1.762-1.143-2.675-1.143
				c-0.629,0-1.146,0.17-1.551,0.508c-0.405,0.337-0.608,0.744-0.608,1.221c0,0.403,0.184,0.733,0.549,0.99
				c0.356,0.264,0.953,0.513,1.786,0.747c2.046,0.569,3.068,1.542,3.068,2.914c0,0.929-0.374,1.708-1.123,2.341
				c-0.748,0.632-1.657,0.947-2.723,0.947c-0.987,0-1.981-0.317-2.982-0.954V218.698z"/>
			<path fill="#09A0AE" d="M76.479,211.223c1.119-0.627,2.058-0.942,2.817-0.942c1.097,0,1.925,0.317,2.487,0.955
				c0.562,0.644,0.845,1.506,0.845,2.589v5.519c0,0.403,0.189,0.603,0.569,0.603c0.197,0,0.396-0.054,0.592-0.164v1.184
				c-0.351,0.161-0.708,0.241-1.073,0.241c-0.95,0-1.439-0.56-1.469-1.678c-0.358,0.556-0.756,0.975-1.195,1.255
				c-0.438,0.283-0.913,0.423-1.424,0.423c-0.833,0-1.532-0.304-2.094-0.91c-0.562-0.605-0.844-1.347-0.844-2.225
				c0-0.928,0.348-1.699,1.047-2.312c0.697-0.614,2.2-1.03,4.51-1.249v-0.899c0-0.592-0.192-1.08-0.576-1.464
				c-0.382-0.384-0.859-0.575-1.43-0.575c-0.812,0-1.732,0.407-2.763,1.217V211.223z M81.248,215.575
				c-1.801,0.219-2.939,0.528-3.415,0.928c-0.479,0.399-0.718,0.907-0.718,1.522c0,0.556,0.176,1.016,0.524,1.378
				c0.351,0.363,0.792,0.543,1.323,0.543c0.663,0,1.21-0.277,1.64-0.835c0.431-0.557,0.646-1.269,0.646-2.141V215.575z"/>
			<path fill="#09A0AE" d="M85.719,205.678H87.1v15.288h-1.381V205.678z"/>
			<path fill="#09A0AE" d="M96.053,210.522h1.02v11.046c0,1.412-0.385,2.514-1.15,3.311c-0.768,0.797-1.688,1.194-2.762,1.194
				c-0.942,0-1.958-0.373-3.047-1.117v-1.634c1.059,1.016,2.057,1.523,2.992,1.523c0.774,0,1.398-0.303,1.873-0.909
				c0.476-0.606,0.712-1.396,0.712-2.369v-2.247c-0.363,0.549-0.763,0.959-1.193,1.234c-0.432,0.275-0.896,0.411-1.392,0.411
				c-1.061,0-1.939-0.511-2.643-1.535c-0.701-1.022-1.053-2.246-1.053-3.671c0-1.534,0.393-2.831,1.174-3.89
				c0.782-1.06,1.71-1.59,2.784-1.59c0.46,0,0.884,0.1,1.271,0.302c0.389,0.2,0.737,0.502,1.052,0.904L96.053,210.522z
				 M95.69,212.757c-0.314-0.387-0.642-0.674-0.985-0.866c-0.344-0.189-0.705-0.284-1.085-0.284c-0.805,0-1.465,0.391-1.983,1.17
				c-0.52,0.785-0.778,1.781-0.778,2.995c0,1.11,0.227,2.049,0.68,2.822c0.453,0.771,1.062,1.157,1.83,1.157
				c0.665,0,1.218-0.303,1.66-0.909c0.441-0.608,0.662-1.394,0.662-2.358V212.757z"/>
			<path fill="#09A0AE" d="M103.351,210.281c1.148,0,2.105,0.498,2.873,1.496c0.767,0.998,1.149,2.32,1.149,3.962
				c0,0.95-0.15,1.847-0.454,2.689c-0.304,0.845-0.772,1.519-1.408,2.023c-0.635,0.505-1.373,0.756-2.212,0.756
				c-1.251,0-2.236-0.514-2.955-1.545c-0.72-1.03-1.08-2.32-1.08-3.869c0-1.235,0.228-2.299,0.68-3.2
				c0.454-0.897,1.007-1.508,1.66-1.831C102.257,210.442,102.84,210.281,103.351,210.281z M103.445,211.574
				c-0.916,0-1.604,0.387-2.065,1.162c-0.461,0.774-0.69,1.832-0.69,3.167c0,1.148,0.227,2.109,0.681,2.884
				c0.452,0.775,1.09,1.161,1.911,1.161c0.777,0,1.415-0.359,1.916-1.078c0.501-0.721,0.752-1.771,0.752-3.151
				c0-1.316-0.245-2.335-0.736-3.059C104.723,211.937,104.134,211.574,103.445,211.574z"/>
			<path fill="#09A0AE" d="M115.56,205.678h1.38v15.288h-1.38v-1.469c-0.345,0.57-0.732,0.998-1.168,1.283
				c-0.437,0.284-0.913,0.427-1.434,0.427c-1.098,0-1.987-0.539-2.668-1.616c-0.68-1.079-1.021-2.333-1.021-3.765
				c0-1.534,0.374-2.843,1.124-3.924c0.753-1.081,1.705-1.622,2.861-1.622c0.373,0,0.752,0.083,1.137,0.252
				c0.384,0.166,0.774,0.423,1.168,0.768V205.678z M115.56,212.627c-0.285-0.351-0.595-0.613-0.931-0.785
				c-0.336-0.171-0.702-0.259-1.096-0.259c-0.811,0-1.487,0.389-2.028,1.163c-0.542,0.774-0.811,1.798-0.811,3.071
				c0,1.19,0.237,2.177,0.712,2.957c0.476,0.783,1.08,1.173,1.819,1.173c0.65,0,1.203-0.287,1.654-0.865
				c0.454-0.576,0.68-1.308,0.68-2.192V212.627z"/>
			<path fill="#09A0AE" d="M123.429,210.281c1.147,0,2.105,0.498,2.873,1.496c0.767,0.998,1.149,2.32,1.149,3.962
				c0,0.95-0.152,1.847-0.454,2.689c-0.305,0.845-0.771,1.519-1.409,2.023c-0.635,0.505-1.373,0.756-2.213,0.756
				c-1.25,0-2.235-0.514-2.955-1.545c-0.719-1.03-1.078-2.32-1.078-3.869c0-1.235,0.226-2.299,0.679-3.2
				c0.453-0.897,1.007-1.508,1.66-1.831C122.335,210.442,122.918,210.281,123.429,210.281z M123.523,211.574
				c-0.916,0-1.604,0.387-2.065,1.162c-0.461,0.774-0.691,1.832-0.691,3.167c0,1.148,0.227,2.109,0.681,2.884
				c0.454,0.775,1.09,1.161,1.91,1.161c0.777,0,1.416-0.359,1.918-1.078c0.501-0.721,0.751-1.771,0.751-3.151
				c0-1.316-0.244-2.335-0.735-3.059C124.8,211.937,124.212,211.574,123.523,211.574z"/>
			<path fill="#09A0AE" d="M129.861,210.522h1.249l0.133,1.491c0.363-0.578,0.776-1.01,1.24-1.3
				c0.464-0.288,0.976-0.433,1.537-0.433c0.889,0,1.583,0.3,2.079,0.899c0.496,0.598,0.743,1.398,0.743,2.399v7.387h-1.381v-7.387
				c0-0.614-0.16-1.103-0.481-1.469c-0.322-0.366-0.738-0.548-1.249-0.548c-0.694,0-1.283,0.307-1.765,0.916
				c-0.483,0.61-0.724,1.315-0.724,2.11v6.378h-1.382V210.522z"/>
			<path fill="#09A0AE" d="M146.565,219.871c-1.114,0.892-2.2,1.337-3.26,1.337c-1.245,0-2.251-0.499-3.02-1.496
				c-0.768-0.996-1.153-2.296-1.153-3.894c0-1.653,0.397-2.99,1.19-4.008c0.792-1.019,1.796-1.528,3.008-1.528
				c1.075,0,1.937,0.41,2.587,1.233c0.65,0.822,0.976,1.861,0.976,3.117v0.68h-6.336v0.536c0,1.36,0.282,2.387,0.85,3.081
				c0.566,0.694,1.229,1.042,1.99,1.042c1.053,0,2.107-0.58,3.168-1.743V219.871z M145.424,214.139
				c-0.029-0.867-0.252-1.517-0.666-1.947c-0.416-0.434-0.9-0.652-1.454-0.652c-0.562,0-1.085,0.219-1.569,0.652
				c-0.484,0.431-0.83,1.081-1.033,1.947H145.424z"/>
			<path fill="#09A0AE" d="M148.768,218.698c1.022,0.833,1.998,1.249,2.926,1.249c0.716,0,1.309-0.18,1.775-0.545
				c0.468-0.361,0.702-0.821,0.702-1.377c0-0.404-0.155-0.74-0.467-1.012c-0.31-0.271-0.912-0.54-1.802-0.801
				c-1.096-0.33-1.896-0.707-2.401-1.129c-0.504-0.425-0.755-1.013-0.755-1.766c0-0.861,0.339-1.582,1.018-2.165
				c0.681-0.581,1.521-0.871,2.521-0.871c0.804,0,1.717,0.284,2.74,0.851v1.551c-0.869-0.761-1.761-1.143-2.674-1.143
				c-0.628,0-1.146,0.17-1.551,0.508c-0.406,0.337-0.608,0.744-0.608,1.221c0,0.403,0.182,0.733,0.548,0.99
				c0.357,0.264,0.953,0.513,1.787,0.747c2.044,0.569,3.069,1.542,3.069,2.914c0,0.929-0.375,1.708-1.125,2.341
				c-0.749,0.632-1.656,0.947-2.724,0.947c-0.986,0-1.98-0.317-2.98-0.954V218.698z"/>
		</g>
		<g>
			<path fill="#09A0AE" d="M45.865,128.481c0.008-0.013,0.58,0.462,0.58,0.462s-17.935-11.239,29.363-25.892
				c-0.106,0.253-0.528,0.2-0.725,0.37l5.99-5.135c-0.008,0.002,0.377,0.558,0.221,0.42c-9.139-7.838-10.528-17.944,0.686-27.594
				l-5.056-4.34c-1.716,1.74,0.271,0.279,0.356,0.479C29.99,52.593,47.453,41.764,47.453,41.764s-1.727,1.463,0.131-0.153
				L34.574,30.46c-1.885,1.587-0.52,0.353-0.816,0.604c-9.5,8.144-7.59,23.403-3.857,35.812c-1.913,0.937-3.688,2.067-5.328,3.47
				c-9.765,8.374-9.84,21.843-0.199,30.111c1.875,1.6,3.145,2.168,5.383,3.142c-4.318,12.737-7.494,29.063,1.8,37.153
				L45.865,128.481z M41.821,70.015c0,0-2.679-14.357,33.005,0.006C39.145,84.379,41.821,70.015,41.821,70.015z M42.543,100.932
				c0,0-2.676-14.371,33.015-0.004C39.867,115.29,42.543,100.932,42.543,100.932z"/>
			<path fill="#F5971E" d="M31.556,140.752c9.429,7.967,29.734,6.319,44.581,2.612c1.143,1.923,2.76,3.824,4.626,5.426
				c9.638,8.263,25.52,8.32,35.277-0.048c1.638-1.407,3.073-2.882,4.165-4.525c14.459,3.206,32.24,4.92,41.738-3.223
				c0.292-0.252-1.107,0.952,0.747-0.668l-13.012-11.155c-1.881,1.599-0.116,0.065-0.116,0.065s-12.738,15.068-29.83-25.484
				c0.233,0.067-1.42,1.727,0.613,0.261l-5.065-4.341c-11.245,9.619-24.299,7.342-33.438-0.497
				c-0.156-0.134-0.775-0.887-0.768-0.889l-5.99,5.135c0.196-0.17,1.084,0.284,1.38,0.195
				c-17.085,40.557-30.194,25.166-30.194,25.166s-0.396-0.314-0.404-0.302L31.556,140.752z M116.553,105.805
				c16.752,30.602,0.009,28.31,0.009,28.31S99.812,136.407,116.553,105.805z M80.518,105.182
				c16.748,30.606-0.002,28.311-0.002,28.311S63.771,135.789,80.518,105.182z"/>
			<path fill="#B61E53" d="M151.542,41.059c-0.011,0.011-0.267-0.183-0.267-0.183s17.771,11.1-29.521,25.747
				c0.108-0.255,0.368-0.332,0.567-0.505l-5.994,5.139c0.008-0.009-0.457,0.052-0.306,0.193c9.143,7.838,8.588,20.165-0.761,28.205
				l5.059,4.341c-0.15-0.136,0.128-0.616,0.038-0.813c47.29,14.651,29.631,25.653,29.631,25.653s-0.34,0.311-0.326,0.323
				l13.006,11.153c0.021,0.016,0.922-0.692,1.214-0.943c9.499-8.148,7.788-23.575,4.059-35.986c1.913-0.932,3.787-2.148,5.419-3.554
				c9.764-8.374,9.894-21.887,0.258-30.154c-1.869-1.604-3.438-2.465-5.681-3.442c4.32-12.734,7.207-29.354-2.09-37.443
				L151.542,41.059z M156.221,100.07c0,0,2.677,14.365-33.011,0C158.897,85.709,156.221,100.07,156.221,100.07z M155.499,69.157
				c0,0,2.677,14.371-33.016,0.006C158.176,54.797,155.499,69.157,155.499,69.157z"/>
			<path fill="#7FA55E" d="M165.848,28.789c-11.299-9.576-29.418-6.044-44.263-2.341c-1.143-1.927-2.599-3.681-4.468-5.288
				c-9.638-8.265-25.44-8.251-35.196,0.119c-1.642,1.404-3.03,2.918-4.124,4.557c-14.464-3.202-32.621-4.565-42.115,3.583
				c-0.293,0.254-1.143,1.007-1.123,1.024l13.01,11.158c0.008,0.006,0.512-0.408,0.512-0.408s12.546-14.9,29.635,25.658
				c-0.234-0.068-0.65,0.042-0.809-0.091l5.061,4.341c9.372-8.02,24.371-7.96,33.512-0.117c0.154,0.129,0.857,0.265,0.85,0.274
				l5.994-5.139c-0.199,0.173-0.767-0.012-1.064,0.079c17.088-40.556,30.035-25.304,30.035-25.304s0.238,0.178,0.249,0.167
				L165.848,28.789z M81.488,64.287c-16.752-30.608-0.009-28.312-0.009-28.312S98.23,33.682,81.488,64.287z M117.524,64.906
				c-16.749-30.605,0.006-28.312,0.006-28.312S134.267,34.3,117.524,64.906z"/>
		</g>
	</g>
</g>
<g id="Layer_3">
</g>
</svg>
