<?xml version="1.0" encoding="utf-8"?>
<!-- Generator: Adobe Illustrator 16.0.0, SVG Export Plug-In . SVG Version: 6.00 Build 0)  -->
<!DOCTYPE svg PUBLIC "-//W3C//DTD SVG 1.1//EN" "http://www.w3.org/Graphics/SVG/1.1/DTD/svg11.dtd">
<svg version="1.1" xmlns="http://www.w3.org/2000/svg" xmlns:xlink="http://www.w3.org/1999/xlink" x="0px" y="0px" width="88px"
	 height="118px" viewBox="0 0 88 118" enable-background="new 0 0 88 118" xml:space="preserve">
<g id="guides">
</g>
<g id="Layer_2">
	<g>
		<path fill="#808080" d="M43.057,94.715c0.314,0,0.584-0.048,0.81-0.145c0.225-0.097,0.411-0.222,0.559-0.378
			c0.148-0.155,0.256-0.333,0.324-0.532c0.067-0.199,0.102-0.404,0.102-0.616c0-0.23-0.042-0.429-0.125-0.597
			c-0.083-0.167-0.195-0.303-0.337-0.406c-0.143-0.102-0.31-0.179-0.5-0.229c-0.191-0.05-0.395-0.075-0.61-0.075
			c-0.346,0-0.634,0.055-0.864,0.164c-0.231,0.108-0.416,0.243-0.555,0.401c-0.139,0.158-0.238,0.328-0.301,0.508
			c-0.062,0.18-0.092,0.342-0.092,0.486c0,0.429,0.129,0.773,0.388,1.03C42.113,94.586,42.515,94.715,43.057,94.715z"/>
		<path fill="#808080" d="M86.327,100.643c-0.309,0.416-0.613,0.788-0.915,1.118c-0.13,0.141-0.267,0.276-0.412,0.408
			c-0.145,0.132-0.289,0.25-0.435,0.353c-0.145,0.104-0.288,0.188-0.43,0.252s-0.277,0.096-0.406,0.096
			c-0.173,0-0.286-0.08-0.338-0.239c-0.052-0.159-0.079-0.38-0.079-0.662c0-0.331,0.051-0.737,0.152-1.22
			c0.103-0.482,0.193-0.912,0.272-1.289c0.079-0.376,0.15-0.745,0.212-1.104c0.062-0.359,0.093-0.687,0.093-0.981
			c0-0.192-0.017-0.345-0.051-0.458s-0.082-0.199-0.144-0.262c-0.062-0.062-0.134-0.103-0.214-0.122
			c-0.081-0.019-0.168-0.028-0.261-0.028c-0.068,0-0.139,0.001-0.209,0.005c-0.071,0.003-0.142,0.004-0.209,0.004
			c-0.081,0-0.16-0.004-0.238-0.014c-0.076-0.009-0.153-0.029-0.228-0.061s-0.137-0.081-0.187-0.149
			c-0.049-0.069-0.1-0.139-0.153-0.21c-0.052-0.071-0.118-0.135-0.199-0.191s-0.192-0.084-0.335-0.084
			c-0.428,0-0.849,0.091-1.26,0.272c-0.413,0.181-0.805,0.425-1.177,0.732s-0.715,0.666-1.028,1.078
			c-0.312,0.411-0.606,0.9-0.879,1.465c-0.272,0.565-0.475,1.09-0.604,1.576c-0.122,0.452-0.181,0.894-0.188,1.325
			c-0.095,0.079-0.189,0.156-0.288,0.241c-0.157,0.135-0.327,0.261-0.509,0.379c-0.183,0.119-0.379,0.217-0.592,0.295
			s-0.448,0.117-0.707,0.117c-0.117,0-0.254-0.022-0.412-0.066c-0.157-0.043-0.307-0.092-0.448-0.145s-0.265-0.102-0.37-0.146
			c-0.104-0.043-0.16-0.065-0.166-0.065l0.047-0.188c0.055-0.074,0.164-0.216,0.327-0.425s0.354-0.456,0.573-0.741
			c0.219-0.284,0.466-0.62,0.74-1.006c0.273-0.388,0.523-0.735,0.748-1.041c0.226-0.306,0.424-0.584,0.598-0.834
			c0.172-0.25,0.295-0.443,0.369-0.58c0.259-0.069,0.444-0.143,0.555-0.221c0.111-0.078,0.173-0.143,0.186-0.193
			c0.037-0.15,0.055-0.332,0.055-0.544c0-0.264-0.047-0.473-0.143-0.627c-0.096-0.153-0.252-0.23-0.468-0.23
			c-0.019,0-0.043,0.004-0.073,0.014c-0.031,0.01-0.085,0.021-0.162,0.034c-0.077,0.012-0.189-0.49-0.338-0.481
			c-0.147,0.009-0.345-0.5-0.592-0.5c-0.086,0-0.18,0-0.281,0c-0.103,0-0.215,0.511-0.338,0.505
			c-0.16-0.006-0.316,0.211-0.467,0.139c-0.15-0.073-0.299-0.024-0.444-0.112c-0.145-0.088-0.291-0.104-0.438-0.175
			c-0.148-0.072-0.296-0.077-0.443-0.077c-0.197,0-0.412,0.048-0.643,0.113c-0.231,0.065-0.453,0.196-0.666,0.379
			c-0.213,0.182-0.406,0.443-0.578,0.776c-0.172,0.332-0.305,0.769-0.397,1.305c-0.013,0.075-0.021,0.147-0.027,0.218
			c-0.007,0.071-0.01,0.138-0.01,0.199c0,0.147,0.021,0.267,0.06,0.355c0.041,0.09,0.109,0.135,0.209,0.135
			c0.104,0,0.222-0.068,0.351-0.203c0.13-0.136,0.29-0.347,0.481-0.634c0.086-0.133,0.164-0.235,0.235-0.307s0.151-0.125,0.24-0.162
			c0.09-0.036,0.198-0.057,0.329-0.063c0.129-0.006,0.292-0.009,0.489-0.009c0.08,0,0.154,0.009,0.222,0.028
			c0.068,0.019,0.134,0.045,0.199,0.08c0.064,0.035,0.138,0.074,0.217,0.117c0.08,0.044,0.176,0.091,0.287,0.141l-2.2,3.042
			c-0.189,0.238-0.379,0.465-0.566,0.67c-0.129,0.141-0.267,0.276-0.411,0.407c-0.146,0.132-0.29,0.25-0.436,0.354
			c-0.145,0.104-0.287,0.188-0.429,0.252c-0.142,0.064-0.278,0.096-0.407,0.096c-0.173,0-0.285-0.08-0.338-0.239
			c-0.052-0.159-0.078-0.38-0.078-0.662c0-0.331,0.051-0.737,0.152-1.219c0.102-0.483,0.192-0.912,0.272-1.289
			c0.079-0.377,0.149-0.745,0.211-1.104s0.093-0.686,0.093-0.981c0-0.192-0.017-0.345-0.051-0.458
			c-0.033-0.112-0.081-0.199-0.144-0.262c-0.062-0.062-0.133-0.103-0.214-0.122c-0.08-0.019-0.167-0.028-0.26-0.028
			c-0.068,0-0.139,0.001-0.21,0.005c-0.071,0.002-0.141,0.004-0.209,0.004c-0.081,0-0.16-0.004-0.237-0.014s-0.153-0.03-0.229-0.061
			c-0.074-0.031-0.136-0.081-0.186-0.149c-0.05-0.069-0.101-0.138-0.153-0.21c-0.053-0.071-0.119-0.135-0.2-0.191
			c-0.08-0.056-0.191-0.084-0.335-0.084c-0.428,0-0.848,0.091-1.26,0.272c-0.413,0.181-0.805,0.425-1.177,0.732
			c-0.372,0.307-0.715,0.666-1.027,1.077c-0.313,0.411-0.606,0.9-0.879,1.465c-0.273,0.565-0.475,1.091-0.605,1.576
			c-0.105,0.393-0.156,0.775-0.177,1.151c-0.095,0.061-0.188,0.121-0.287,0.181c-0.184,0.108-0.362,0.205-0.535,0.288
			c-0.173,0.084-0.338,0.152-0.493,0.201c-0.153,0.05-0.291,0.075-0.411,0.075c-0.05,0-0.103-0.036-0.157-0.107
			c-0.056-0.072-0.109-0.169-0.158-0.29s0.082-0.257,0.049-0.41c-0.034-0.152,0.123-0.309,0.123-0.47v-0.131
			c0-0.125-0.131-0.251-0.1-0.382s-0.025-0.253,0.006-0.368s0.018-0.223,0.053-0.323c0.035-0.099,0.045-0.18,0.076-0.241
			c0.284-0.561,0.584-1.132,0.922-1.719c0.336-0.585,0.665-1.18,0.997-1.785c0.334-0.604,0.651-1.213,0.96-1.826
			c0.309-0.614,0.577-1.227,0.81-1.836c0.234-0.611,0.419-1.219,0.558-1.823c0.139-0.604,0.206-1.197,0.206-1.78
			c0-0.235-0.021-0.465-0.064-0.692c-0.043-0.226-0.117-0.429-0.224-0.607s-0.253-0.322-0.438-0.432
			c-0.186-0.109-0.422-0.163-0.707-0.163c-0.393,0-0.778,0.112-1.158,0.338c-0.379,0.224-0.743,0.533-1.092,0.927
			c-0.349,0.393-0.682,0.854-1,1.384c-0.317,0.529-0.612,1.098-0.882,1.708c-0.15,0.338-0.301,0.744-0.451,1.207
			c-0.016-0.604-0.142-1.188-0.389-1.754c-0.264-0.602-0.656-1.135-1.177-1.6c-0.522-0.463-1.175-0.835-1.96-1.115
			c-0.784-0.28-1.698-0.42-2.74-0.42c-0.79,0-1.536,0.128-2.237,0.384c-0.7,0.256-1.35,0.617-1.944,1.085
			c-0.597,0.469-1.133,1.029-1.607,1.682c-0.476,0.653-0.881,1.375-1.215,2.167c-0.332,0.792-0.589,1.64-0.768,2.545
			c-0.18,0.905-0.269,1.844-0.269,2.818c0,0.566,0.028,1.17,0.087,1.81c0.036,0.392,0.09,0.78,0.152,1.168
			c-0.247,0.216-0.499,0.429-0.757,0.632c-0.278,0.219-0.552,0.406-0.823,0.56s-0.518,0.231-0.739,0.231
			c-0.191,0-0.317-0.082-0.38-0.245c-0.061-0.164-0.092-0.383-0.092-0.661c0-0.284,0.045-0.599,0.133-0.945
			c0.089-0.347,0.162-0.696,0.221-1.047c0.058-0.351,0.166-0.775,0.326-1.273c0.158-0.499,0.277-0.906,0.359-1.222
			c0.08-0.317,0.152-0.6,0.216-0.846c0.063-0.249,0.095-0.439,0.095-0.576c0-0.16-0.045-0.288-0.136-0.383
			c-0.091-0.096-0.264-0.144-0.518-0.144c-0.14,0-0.296,0.017-0.468,0.051c-0.173,0.035-0.34,0.087-0.5,0.159
			s-0.305,0.163-0.432,0.275c-0.139,0.125-0.224,0.266-0.255,0.421c-0.055,0.222-0.198,0.701-0.433,1.437
			c-0.252,0.903-0.42,1.487-0.504,1.75c-0.045,0.117-0.141,0.605-0.285,1.461c-0.244,0.201-0.482,0.391-0.713,0.558
			c-0.147,0.106-0.301,0.21-0.457,0.312c-0.157,0.103-0.313,0.194-0.468,0.275s-0.3,0.145-0.438,0.19
			c-0.14,0.047-0.268,0.071-0.384,0.071c-0.12,0-0.221-0.038-0.302-0.112c-0.081-0.075-0.146-0.176-0.193-0.304
			c-0.049-0.128-0.083-0.272-0.104-0.435c-0.021-0.162-0.031-0.333-0.031-0.514c0-0.143,0.009-0.292,0.028-0.444
			c0.019-0.153,0.043-0.303,0.071-0.449c0.029-0.147,0.06-0.282,0.092-0.408c0.032-0.124,0.064-0.229,0.096-0.317
			c0.148-0.4,0.49-1.156,1.029-2.272c0.353-0.729,0.653-1.467,0.903-2.211c0.249-0.746,0.502-1.499,0.757-2.262
			c0.256-0.762,0.393-1.585,0.41-2.471c0.004-0.232,0.006-0.458,0.006-0.678c0-0.352-0.028-0.693-0.084-1.023
			c-0.055-0.33-0.146-0.62-0.271-0.871c-0.127-0.249-0.291-0.45-0.495-0.602c-0.203-0.151-0.45-0.227-0.74-0.227
			c-0.396,0-0.78,0.122-1.152,0.365c-0.372,0.244-0.723,0.581-1.052,1.013c-0.328,0.431-0.631,0.943-0.906,1.535
			s-0.501,1.239-0.676,1.942c-0.175,0.703-0.338,1.359-0.488,1.969c-0.152,0.61-0.237,1.316-0.256,2.117
			c-0.469,0.044-0.909,0.153-1.322,0.328c-0.413,0.176-0.815,0.435-1.206,0.779c-0.392,0.344-0.706,0.727-0.943,1.146
			s-0.452,0.821-0.647,1.206c-0.193,0.384-0.342,0.782-0.443,1.191c-0.053,0.211-0.091,0.422-0.116,0.631
			c-0.341,0.252-0.702,0.486-1.085,0.701c-0.389,0.217-0.788,0.397-1.197,0.542c-0.41,0.145-0.8,0.217-1.17,0.217
			c-0.117,0-0.228-0.012-0.329-0.036c-0.103-0.025-0.2-0.067-0.292-0.126c-0.094-0.061-0.185-0.145-0.274-0.253
			s-0.181-0.244-0.274-0.408c0.538-0.144,1.037-0.346,1.497-0.605s0.857-0.554,1.19-0.886c0.334-0.332,0.626-0.729,0.876-1.193
			c0.25-0.463,0.375-0.883,0.375-1.256c0-0.352-0.062-0.669-0.185-0.952c-0.124-0.283-0.295-0.524-0.515-0.725
			c-0.219-0.2-0.477-0.355-0.772-0.466s-0.617-0.166-0.963-0.166c-0.423,0-0.808,0.074-1.154,0.223
			c-0.346,0.149-0.658,0.35-0.938,0.602c-0.279,0.252-0.522,0.544-0.731,0.876c-0.208,0.332-0.382,0.68-0.52,1.045
			c-0.138,0.365-0.271,0.783-0.4,1.255c-0.128,0.471-0.192,0.877-0.192,1.218c0,0.137,0.019,0.269,0.029,0.402
			c-0.024,0.029-0.048,0.063-0.071,0.092c-0.142,0.173-0.29,0.341-0.444,0.504c-0.154,0.163-0.31,0.308-0.467,0.434
			c-0.157,0.127-0.314,0.229-0.472,0.306s-0.307,0.115-0.448,0.115c-0.251,0-0.442-0.061-0.574-0.181s-0.197-0.315-0.197-0.585
			c0-0.214,0.036-0.53,0.109-0.948s0.154-0.875,0.244-1.371c0.089-0.497,0.183-1.022,0.283-1.576c0.099-0.554,0.2-1.118,0.303-1.691
			c0.104-0.573,0.206-1.149,0.31-1.729c0.104-0.58,0.156-1.134,0.156-1.665c0-0.567-0.052-1.104-0.156-1.613
			c-0.104-0.509-0.254-0.952-0.449-1.332c-0.195-0.379-0.438-0.679-0.729-0.901c-0.291-0.222-0.622-0.333-0.995-0.333
			c-0.542,0-1.064,0.136-1.569,0.406c-0.504,0.271-0.975,0.662-1.412,1.17c-0.437,0.508-0.83,1.127-1.181,1.854
			s-0.646,1.547-0.886,2.458l-0.194,0.009c0.056-0.431,0.108-0.832,0.157-1.201c0.019-0.154,0.038-0.31,0.06-0.467
			c0.021-0.157,0.04-0.303,0.056-0.439s0.028-0.256,0.037-0.36c0.01-0.105,0.014-0.182,0.014-0.231c0-0.543-0.048-1.011-0.143-1.406
			c-0.096-0.395-0.23-0.722-0.402-0.98c-0.173-0.259-0.379-0.45-0.62-0.573c-0.24-0.124-0.502-0.186-0.785-0.186
			c-0.387,0-0.776,0.105-1.17,0.314c-0.394,0.21-0.782,0.506-1.165,0.888c-0.385,0.382-0.758,0.839-1.119,1.373
			c-0.362,0.534-0.704,1.128-1.025,1.785s-0.617,1.362-0.889,2.118c-0.272,0.755-0.507,1.542-0.707,2.362
			c0.108-0.439,0.221-0.912,0.336-1.418c0.115-0.505,0.21-1.016,0.284-1.53c0.074-0.513,0.146-1.003,0.212-1.468
			c0.068-0.465,0.102-0.87,0.102-1.216c0-0.449-0.029-0.859-0.088-1.229c-0.059-0.37-0.161-0.686-0.31-0.948
			c-0.147-0.262-0.348-0.465-0.601-0.61c-0.253-0.144-0.57-0.217-0.953-0.217c-0.295,0-0.604,0.062-0.929,0.186
			c-0.323,0.123-0.642,0.331-0.952,0.624c-0.311,0.292-0.607,0.684-0.888,1.174c-0.28,0.489-0.531,1.099-0.753,1.826
			c-0.025,0.024-0.037,0.056-0.037,0.092c0,0.068,0.009,0.144,0.025,0.227c0.018,0.083,0.04,0.162,0.066,0.235
			c0.026,0.075,0.056,0.137,0.088,0.19c0.032,0.052,0.062,0.078,0.092,0.078c0.094,0,0.179-0.021,0.255-0.06
			c0.075-0.04,0.131-0.106,0.167-0.199c0.187-0.264,0.392-0.513,0.613-0.744c0.223-0.231,0.444-0.432,0.667-0.605
			c0.222-0.173,0.435-0.311,0.636-0.412c0.202-0.102,0.373-0.153,0.514-0.153c0.088,0,0.154,0.028,0.197,0.083
			c0.044,0.056,0.46,0.122,0.476,0.199c0.02,0.078,0.411,0.159,0.411,0.247c0,0.087,0,0.159,0,0.215
			c0,0.649-0.362,1.256-0.353,1.824c0.01,0.567-0.206,1.113-0.267,1.637c-0.061,0.524-0.217,1.048-0.277,1.572
			c-0.061,0.524-0.227,1.058-0.404,1.601s-0.357,1.124-0.492,1.743s-0.294,1.29-0.452,2.013c-0.049,0.215-0.091,0.43-0.116,0.642
			c-0.023,0.213-0.04,0.445-0.04,0.698c0,0.13,0.032,0.245,0.101,0.347c0.066,0.102,0.158,0.188,0.275,0.259
			c0.117,0.071,0.25,0.124,0.401,0.158c0.151,0.034,0.306,0.05,0.466,0.05c0.136,0,0.277-0.014,0.426-0.041
			c0.147-0.028,0.285-0.075,0.415-0.144c0.129-0.068,0.24-0.16,0.332-0.278c0.093-0.117,0.151-0.268,0.176-0.453
			c0.139-0.569,0.291-1.192,0.456-1.868c0.165-0.674,0.335-1.37,0.51-2.087c0.176-0.717,0.393-1.428,0.651-2.134
			s0.526-1.382,0.805-2.029c0.277-0.647,0.557-1.25,0.838-1.808c0.28-0.558,0.554-1.043,0.819-1.456
			c0.264-0.413,0.512-0.736,0.741-0.97c0.229-0.234,0.435-0.351,0.613-0.351c0.217,0,0.391,0.055,0.522,0.166
			c0.13,0.111,0.23,0.272,0.301,0.48c0.07,0.21,0.115,0.466,0.135,0.768c0.019,0.302,0.028,0.644,0.028,1.026
			c0,0.555-0.065,1.162-0.196,1.821c-0.131,0.66-0.254,1.321-0.37,1.983c-0.114,0.662-0.243,1.327-0.384,1.993
			c-0.141,0.666-0.264,1.269-0.369,1.81s-0.196,1.008-0.271,1.4c-0.074,0.393-0.052,0.669,0.066,0.83
			c0,0.24,0.029,0.444,0.089,0.609c0.058,0.167,0.135,0.305,0.23,0.412c0.095,0.108,0.206,0.187,0.332,0.236
			c0.126,0.049,0.254,0.074,0.383,0.074s0.258-0.017,0.388-0.051c0.128-0.034,0.251-0.088,0.366-0.162
			c0.116-0.074,0.218-0.171,0.307-0.292c0.089-0.12,0.154-0.266,0.197-0.439c0.119-0.614,0.227-1.253,0.322-1.919
			c0.096-0.664,0.233-1.369,0.412-2.115c0.179-0.744,0.343-1.465,0.492-2.161c0.149-0.696,0.331-1.362,0.545-1.998
			c0.215-0.635,0.441-1.226,0.683-1.773c0.24-0.546,0.499-1.02,0.775-1.418c0.277-0.399,0.569-0.712,0.88-0.939
			c0.31-0.228,0.639-0.341,0.988-0.341c0.174,0,0.313,0.043,0.418,0.129c0.106,0.086,0.187,0.208,0.242,0.365
			s0.094,0.348,0.112,0.573c0.019,0.225,0.027,0.476,0.027,0.753c0,0.373-0.044,0.809-0.133,1.308
			c-0.089,0.5-0.18,1.009-0.272,1.527c-0.092,0.518-0.186,1.037-0.278,1.559c-0.094,0.521-0.186,1.035-0.276,1.54
			c-0.091,0.507-0.178,0.995-0.263,1.466c-0.085,0.473-0.14,0.915-0.164,1.328c-0.006,0.055-0.011,0.111-0.014,0.166
			c-0.003,0.057-0.005,0.108-0.005,0.158c0,0.444,0.074,0.837,0.223,1.179c0.147,0.342,0.344,0.628,0.59,0.859
			c0.247,0.231,0.529,0.405,0.846,0.522c0.317,0.118,0.643,0.176,0.975,0.176c0.344,0,0.689-0.052,1.037-0.157
			c0.349-0.104,0.692-0.275,1.031-0.513c0.32-0.224,0.635-0.516,0.944-0.864c0.074,0.119,0.142,0.244,0.229,0.353
			c0.288,0.36,0.647,0.648,1.079,0.861s0.935,0.32,1.511,0.32c0.37,0,0.736-0.042,1.097-0.129c0.36-0.085,0.708-0.199,1.044-0.343
			c0.337-0.143,0.657-0.306,0.962-0.49c0.268-0.161,0.514-0.326,0.75-0.492c0.081,0.191,0.174,0.374,0.29,0.539
			c0.193,0.277,0.438,0.499,0.73,0.666c0.292,0.167,0.639,0.25,1.04,0.25c0.284,0,0.566-0.048,0.848-0.143s0.56-0.221,0.835-0.378
			c0.275-0.156,0.541-0.342,0.797-0.555c0.257-0.212,0.5-0.437,0.729-0.672c0.151,0.379,0.33,0.684,0.535,0.913
			c0.205,0.229,0.41,0.404,0.615,0.525c0.205,0.121,0.395,0.201,0.568,0.24s0.304,0.059,0.393,0.059
			c0.149,0,0.314-0.028,0.495-0.083s0.366-0.127,0.557-0.216c0.191-0.088,0.386-0.189,0.583-0.305
			c0.197-0.115,0.385-0.231,0.563-0.349c0.174-0.115,0.349-0.241,0.525-0.368c0.013,0.079,0.023,0.16,0.042,0.234
			c0.059,0.231,0.155,0.427,0.291,0.587c0.137,0.161,0.313,0.285,0.531,0.375c0.219,0.089,0.489,0.134,0.811,0.134
			c0.356,0,0.734-0.064,1.132-0.194s0.787-0.292,1.17-0.486c0.382-0.194,0.737-0.407,1.067-0.638
			c0.146-0.102,0.277-0.201,0.401-0.297c0.09,0.331,0.188,0.656,0.302,0.971c0.206,0.578,0.459,1.089,0.758,1.533
			s0.646,0.796,1.044,1.057c0.397,0.263,0.85,0.393,1.355,0.393c0.477,0,0.916-0.087,1.317-0.262
			c0.402-0.177,0.767-0.413,1.092-0.711c0.324-0.298,0.609-0.646,0.854-1.042c0.245-0.396,0.453-0.816,0.622-1.259
			c0.171-0.442,0.301-0.896,0.39-1.36c0.091-0.464,0.142-0.912,0.154-1.344c0-0.038,0.001-0.105,0.004-0.204
			c0.004-0.099,0.007-0.215,0.01-0.348c0.003-0.132,0.008-0.279,0.014-0.439c0.006-0.16,0.013-0.321,0.019-0.481
			c0.013-0.376,0.028-0.79,0.046-1.241c0.975-0.147,1.822-0.404,2.545-0.768c0.724-0.364,1.322-0.796,1.797-1.295
			c0.253-0.267,0.469-0.547,0.654-0.84c-0.003,0.013-0.006,0.021-0.006,0.021s-0.089,0.505-0.266,1.515
			c-0.178,1.011-0.268,1.818-0.268,2.422c0,0.704,0.061,1.376,0.18,2.016c0.12,0.64,0.286,1.203,0.497,1.688
			c0.213,0.485,0.461,0.872,0.747,1.16c0.285,0.288,0.594,0.432,0.926,0.432c0.216,0,0.447-0.028,0.695-0.083
			c0.247-0.056,0.501-0.13,0.761-0.224c0.261-0.094,0.52-0.201,0.776-0.321c0.214-0.099,0.417-0.2,0.619-0.302
			c0.062,0.084,0.119,0.171,0.189,0.245c0.215,0.227,0.463,0.401,0.744,0.521c0.28,0.122,0.568,0.183,0.864,0.183
			c0.279,0,0.559-0.046,0.839-0.138c0.279-0.091,0.549-0.208,0.806-0.352c0.258-0.144,0.496-0.304,0.713-0.48
			c0.218-0.177,0.401-0.352,0.551-0.521c0.198,0.494,0.435,0.871,0.708,1.13c0.273,0.26,0.614,0.389,1.024,0.389
			c0.339,0,0.678-0.084,1.017-0.252c0.211-0.104,0.41-0.229,0.604-0.362c0.111,0.034,0.23,0.057,0.368,0.057
			c0.173,0,0.377-0.035,0.611-0.106c0.271,0.136,0.521,0.249,0.748,0.337c0.229,0.089,0.429,0.161,0.601,0.217
			c0.173,0.057,0.312,0.097,0.417,0.12c0.104,0.023,0.169,0.035,0.193,0.035c0.303,0,0.625-0.035,0.967-0.107
			c0.342-0.072,0.678-0.169,1.008-0.292s0.646-0.266,0.947-0.428c0.102-0.054,0.192-0.111,0.285-0.167
			c0.056,0.073,0.105,0.152,0.168,0.217c0.216,0.227,0.464,0.401,0.744,0.521c0.28,0.122,0.569,0.183,0.865,0.183
			c0.279,0,0.559-0.046,0.839-0.138c0.279-0.091,0.548-0.208,0.806-0.352c0.258-0.144,0.495-0.304,0.713-0.48
			c0.217-0.177,0.4-0.352,0.551-0.521c0.198,0.494,0.435,0.871,0.708,1.13c0.272,0.26,0.614,0.389,1.024,0.389
			c0.339,0,0.678-0.084,1.017-0.252s0.656-0.375,0.952-0.617c0.296-0.243,0.562-0.499,0.8-0.767
			c0.237-0.269,0.427-0.502,0.569-0.701L86.327,100.643z M24.556,100.086c0.013-0.187,0.069-0.425,0.172-0.714
			c0.103-0.289,0.191-0.532,0.269-0.728c0.078-0.196,0.18-0.371,0.307-0.525c0.127-0.153,0.285-0.278,0.474-0.375
			c0.188-0.096,0.416-0.145,0.683-0.145c0.147,0,0.273,0.087,0.375,0.262c0.103,0.175,0.153,0.398,0.153,0.668
			c0,0.193-0.108,0.438-0.325,0.733c-0.216,0.295-0.438,0.53-0.663,0.705c-0.226,0.175-0.47,0.319-0.733,0.43
			c-0.264,0.112-0.506,0.167-0.729,0.167C24.537,100.433,24.543,100.273,24.556,100.086z M33.756,102.045
			c-0.074,0.11-0.155,0.215-0.245,0.316c-0.089,0.102-0.183,0.192-0.282,0.271c-0.099,0.079-0.202,0.143-0.31,0.193
			c-0.108,0.049-0.218,0.073-0.328,0.073c-0.217,0-0.392-0.024-0.528-0.072c-0.135-0.048-0.24-0.111-0.313-0.188
			c-0.074-0.077-0.125-0.165-0.153-0.26c-0.027-0.097-0.041-0.193-0.041-0.29c0-0.311,0.055-0.659,0.166-1.044
			s0.273-0.845,0.486-1.38c0.213-0.534,0.477-0.965,0.795-1.291c0.317-0.327,0.68-0.589,1.086-0.788
			c0.006-0.006,0.013,0.055,0.019,0.186s0.011,0.299,0.014,0.504s0.008,0.432,0.015,0.681c0.006,0.248,0.012,0.566,0.018,0.956
			c0.007,0.388,0.016,0.677,0.029,0.867c0.013,0.189,0.028,0.328,0.047,0.414C34.086,101.509,33.929,101.794,33.756,102.045z
			 M37.436,98.079v-0.094c0-0.094,0-0.228,0-0.403s-0.547-0.379-0.54-0.614s-0.257-0.494-0.239-0.778
			c0.016-0.285-0.1-0.58-0.072-0.885c0.012-0.15-0.034-0.403-0.001-0.759c0.032-0.356,0.042-0.756,0.095-1.199
			c0.055-0.444,0.122-0.897,0.237-1.359c0.117-0.464,0.216-0.892,0.315-1.286s0.226-0.716,0.388-0.965
			c0.164-0.25,0.343-0.375,0.544-0.375c0.113,0,0.197,0.065,0.257,0.194c0.059,0.129,0.089,0.36,0.089,0.693
			c0,0.253-0.02,0.596-0.058,1.028c-0.032,0.327-0.088,0.672-0.168,1.036c-0.08,0.364-0.178,0.731-0.294,1.103
			c-0.115,0.372-0.231,0.746-0.349,1.122c-0.118,0.378,0.313,0.74,0.193,1.087C37.544,96.44,37.436,97.258,37.436,98.079z
			 M56.486,94.374c-0.139,0.337-0.351,0.646-0.637,0.928c-0.285,0.281-0.646,0.524-1.084,0.73c-0.436,0.206-0.955,0.356-1.559,0.45
			l0.084-0.74l0.562-2.406c0-0.025,0.001-0.044,0.004-0.061c0.004-0.016,0.005-0.045,0.005-0.089c0-0.155-0.032-0.282-0.097-0.381
			c-0.065-0.1-0.145-0.178-0.24-0.237s-0.202-0.099-0.319-0.121c-0.116-0.022-0.231-0.033-0.342-0.033
			c-0.366,0-0.674,0.092-0.923,0.275c-0.248,0.185-0.45,0.417-0.605,0.697c-0.155,0.28-0.273,0.589-0.354,0.925
			c-0.082,0.337-0.139,0.659-0.173,0.968c-0.034,0.308-0.053,0.582-0.056,0.822c-0.004,0.24-0.005,0.4-0.005,0.48
			c-0.11-0.024-0.232-0.063-0.366-0.115c-0.116-0.045-0.258-0.104-0.422-0.177c-0.165-0.075-0.349-0.169-0.551-0.284
			c-0.079-0.045-0.145-0.08-0.196-0.106c-0.052-0.025-0.109-0.039-0.17-0.039c-0.092,0-0.164,0.027-0.216,0.081
			s-0.092,0.123-0.119,0.209c-0.027,0.085-0.044,0.184-0.05,0.294c-0.006,0.111-0.01,0.223-0.01,0.337
			c0,0.206,0.021,0.386,0.06,0.542c0.04,0.154,0.133,0.301,0.28,0.44c0.146,0.14,0.662,0.285,0.953,0.436
			c0.289,0.151,1.493,0.328,1.493,0.527v0.435c0,0.285-0.304,0.628-0.315,1.033c-0.012,0.405-0.188,0.829-0.231,1.273
			c-0.043,0.444-0.184,0.887-0.27,1.328c-0.086,0.441-0.241,0.837-0.389,1.186s-0.35,0.633-0.57,0.852
			c-0.223,0.219-0.501,0.329-0.817,0.329c-0.301,0-0.558-0.128-0.757-0.384c-0.201-0.256-0.37-0.586-0.501-0.99
			c-0.135-0.405-0.233-0.856-0.302-1.356c-0.068-0.499-0.119-0.993-0.149-1.48c-0.031-0.488-0.048-0.946-0.051-1.375
			s-0.005-0.77-0.005-1.022c0-0.619,0.045-1.254,0.135-1.905c0.09-0.652,0.229-1.286,0.416-1.9c0.189-0.615,0.429-1.194,0.719-1.738
			s0.634-1.02,1.029-1.428c0.396-0.408,0.846-0.73,1.353-0.969s1.072-0.357,1.696-0.357c0.831,0,1.521,0.097,2.069,0.289
			s0.985,0.436,1.312,0.734c0.325,0.297,0.556,0.626,0.688,0.99c0.132,0.362,0.199,0.717,0.199,1.063
			C56.694,93.69,56.625,94.037,56.486,94.374z M60.264,95.44c0.166-0.835,0.249-1.253,0.249-1.253s0.136-0.451,0.407-1.351
			c0.271-0.9,0.506-1.551,0.701-1.95c0.195-0.4,0.392-0.716,0.588-0.951c0.194-0.234,0.377-0.352,0.547-0.352
			c0.047,0,0.074,0.064,0.083,0.191c0.009,0.127,0.014,0.281,0.014,0.462c-0.056,0.565-0.186,1.176-0.39,1.832
			c-0.204,0.656-0.445,1.313-0.724,1.972s-0.573,1.299-0.886,1.92c-0.312,0.622-0.607,1.182-0.886,1.679
			C59.999,97.008,60.098,96.275,60.264,95.44z M66.97,100.587c-0.024,0.199-0.079,0.447-0.161,0.745
			c-0.084,0.297-0.193,0.586-0.33,0.866c-0.135,0.279-0.296,0.519-0.481,0.717c-0.185,0.198-0.392,0.298-0.62,0.298
			c-0.142,0-0.26-0.037-0.352-0.11c-0.093-0.073-0.167-0.168-0.223-0.286c-0.056-0.118-0.095-0.251-0.116-0.4
			s-0.032-0.304-0.032-0.463c0-0.269,0.036-0.557,0.107-0.862c0.07-0.305,0.191-0.66,0.364-1.063s0.349-0.742,0.527-1.018
			c0.179-0.274,0.374-0.52,0.587-0.733s0.439-0.383,0.68-0.508c0.24-0.125,0.486-0.188,0.739-0.188L66.97,100.587z M81.154,100.587
			c-0.025,0.199-0.079,0.447-0.162,0.745c-0.084,0.297-0.193,0.586-0.329,0.866s-0.296,0.519-0.481,0.717s-0.393,0.298-0.621,0.298
			c-0.141,0-0.259-0.037-0.352-0.11c-0.093-0.073-0.166-0.168-0.222-0.286c-0.057-0.118-0.095-0.251-0.116-0.4
			s-0.032-0.304-0.032-0.463c0-0.269,0.035-0.557,0.106-0.862c0.07-0.305,0.192-0.66,0.365-1.063
			c0.172-0.403,0.348-0.742,0.526-1.018c0.179-0.274,0.375-0.52,0.587-0.733c0.213-0.213,0.439-0.383,0.68-0.508
			c0.24-0.125,0.487-0.188,0.74-0.188L81.154,100.587z"/>
	</g>
	<path fill="#808080" d="M78.814,45.007c-1.137-0.875-2.19-0.92-1.727-2.433c0.37-1.206,0.645-2.437,0.896-3.672
		c0.439-2.167,0.57-4.381,0.367-6.581c-0.911-9.841-12.164-10.047-19.604-8.729c-2.241,0.396-3.809,1.504-5.401-0.39
		c-1.332-1.584-3.333-2.541-5.231-3.235c-4.068-1.488-8.785-0.535-12.306,1.799c-2.385,1.582-2.002,2.589-5.032,2.059
		c-2.462-0.431-4.954-0.624-7.451-0.618c-3.77,0.008-7.803,0.884-10.594,3.563c-0.015,0.015-0.023,0.03-0.037,0.043
		c-0.054,0.043-0.107,0.087-0.16,0.131c-0.062,0.034-0.123,0.063-0.179,0.117c-0.032,0.03-0.058,0.062-0.089,0.093l0,0l0,0
		c-2.169,2.121-3.062,4.657-3.354,7.65c-0.162,1.679,0.069,3.38,0.305,5.04c0.311,2.195,1.503,3.52-0.375,4.988
		c-5.357,4.19-5.891,11.165-0.88,15.87c1.704,1.601,2.162,0.973,1.452,3.453c-0.47,1.637-0.842,3.35-1.003,5.047
		c-0.288,3.021-0.244,6.619,1.776,9.115c4.343,5.364,12.953,4.443,18.983,3.481c2.123-0.339,2.902-0.964,4.354,0.737
		c1.095,1.284,2.672,2.166,4.181,2.852c3.094,1.406,6.661,1.32,9.865,0.404c1.31-0.375,2.649-1.062,3.714-1.899
		c1.456-1.146,1.919-2.472,3.856-2.088c3.71,0.735,7.716,1.231,11.479,0.656c6.083-0.928,10.437-4.691,11.249-10.903
		c0.156-1.187-1.177-9.645-0.828-9.835c2.965-1.61,4.928-4.621,5.445-7.899C82.999,50.582,81.389,46.984,78.814,45.007z
		 M75.33,60.788c-0.319,0.173-0.477,0.582-0.377,0.926c1.645,5.699,2.661,12.422-2.419,16.652
		c-5.046,4.201-13.069,2.704-18.917,1.453c-0.397-0.084-0.69,0.065-0.926,0.377c-4.749,6.277-14.78,6.135-19.213-0.4
		c-0.213-0.314-0.547-0.467-0.926-0.376c-5.758,1.379-12.619,2.481-18.266,0.095c-6.82-2.881-4.172-12.428-2.436-17.7
		c0.105-0.319-0.058-0.782-0.376-0.926c-7.452-3.372-6.643-12.17,0.067-15.777c0.318-0.171,0.477-0.583,0.377-0.926
		c-1.494-5.167-2.759-11.664,1.494-15.855c0.17-0.126,0.336-0.271,0.483-0.393c0.031-0.026,0.054-0.054,0.079-0.081
		c4.889-4.582,13.465-3.123,19.354-1.872c0.395,0.084,0.693-0.063,0.926-0.377c4.641-6.23,14.71-6.25,19.08,0.286
		c0.211,0.314,0.551,0.469,0.926,0.376c5.963-1.466,12.834-3.113,18.568-0.06c6.253,3.329,3.855,12.4,2.121,17.675
		c-0.105,0.324,0.06,0.776,0.377,0.926C82.806,48.346,82.226,57.043,75.33,60.788z"/>
	<g>
		<path fill="#F69700" d="M21.027,71.091c0.004-0.004,0.246,0.193,0.246,0.193s-7.576-4.746,12.402-10.935
			c-0.045,0.106-0.223,0.085-0.307,0.157l2.531-2.171c-0.003,0.002,0.16,0.236,0.092,0.178c-3.859-3.311-4.445-7.58,0.292-11.655
			l-2.137-1.833c-0.725,0.734,0.115,0.117,0.15,0.201c-19.975-6.191-12.6-10.766-12.6-10.766s-0.729,0.619,0.056-0.064l-5.496-4.712
			c-0.796,0.672-0.219,0.149-0.343,0.255c-4.015,3.442-3.207,9.886-1.631,15.125c-0.809,0.396-1.558,0.876-2.251,1.47
			c-4.123,3.535-4.155,9.226-0.083,12.717c0.79,0.677,1.327,0.917,2.272,1.329c-1.823,5.38-3.165,12.277,0.762,15.692L21.027,71.091
			z M19.32,46.396c0,0-1.131-6.065,13.942,0C18.189,52.462,19.32,46.396,19.32,46.396z M19.626,59.455c0,0-1.132-6.07,13.944-0.003
			C18.494,65.52,19.626,59.455,19.626,59.455z"/>
		<path fill="#F69700" d="M14.984,76.274c3.98,3.366,12.559,2.67,18.832,1.105c0.48,0.812,1.163,1.612,1.951,2.291
			c4.072,3.49,10.779,3.515,14.903-0.021c0.69-0.594,1.297-1.218,1.758-1.911c6.11,1.353,13.618,2.079,17.63-1.362
			c0.125-0.106-0.468,0.403,0.315-0.282l-5.495-4.712c-0.795,0.675-0.049,0.028-0.049,0.028s-5.382,6.365-12.6-10.766
			c0.098,0.03-0.601,0.732,0.257,0.11l-2.138-1.832c-4.752,4.064-10.265,3.101-14.125-0.209c-0.066-0.058-0.327-0.375-0.324-0.377
			l-2.531,2.171c0.084-0.072,0.46,0.119,0.584,0.082C26.736,77.72,21.199,71.22,21.199,71.22s-0.168-0.133-0.172-0.129
			L14.984,76.274z M50.889,61.513c7.074,12.926,0.002,11.958,0.002,11.958S43.815,74.439,50.889,61.513z M35.665,61.249
			c7.075,12.93-0.001,11.961-0.001,11.961S28.592,74.179,35.665,61.249z"/>
		<path fill="#F69700" d="M65.667,34.164c-0.004,0.004-0.115-0.079-0.115-0.079s7.509,4.688-12.468,10.876
			c0.046-0.107,0.155-0.14,0.24-0.213l-2.533,2.171c0.004-0.002-0.193,0.024-0.128,0.081c3.862,3.311,3.628,8.518-0.321,11.915
			l2.137,1.833c-0.065-0.057,0.054-0.262,0.016-0.342C72.471,66.594,65.01,71.241,65.01,71.241s-0.143,0.131-0.137,0.137l5.493,4.71
			c0.008,0.006,0.39-0.293,0.514-0.4c4.014-3.441,3.29-9.955,1.714-15.197c0.809-0.396,1.6-0.909,2.289-1.503
			c4.125-3.536,4.18-9.245,0.107-12.737c-0.789-0.676-1.452-1.042-2.397-1.454c1.824-5.378,3.042-12.399-0.884-15.815L65.667,34.164
			z M67.644,59.091c0,0,1.128,6.066-13.944,0C68.771,53.023,67.644,59.091,67.644,59.091z M67.337,46.032
			c0,0,1.131,6.071-13.946,0.004C68.468,39.967,67.337,46.032,67.337,46.032z"/>
		<path fill="#F69700" d="M71.709,28.982c-4.773-4.046-12.426-2.556-18.698-0.991c-0.481-0.812-1.095-1.555-1.886-2.232
			c-4.071-3.493-10.746-3.486-14.867,0.047c-0.692,0.594-1.279,1.234-1.743,1.926c-6.108-1.351-13.776-1.928-17.789,1.513
			c-0.124,0.106-0.481,0.428-0.474,0.434l5.494,4.711c0.004,0.005,0.217-0.168,0.217-0.168s5.299-6.295,12.518,10.835
			c-0.1-0.029-0.275,0.02-0.341-0.038l2.138,1.833c3.961-3.387,10.295-3.362,14.156-0.05c0.066,0.056,0.361,0.114,0.357,0.117
			l2.533-2.171c-0.085,0.073-0.325-0.004-0.45,0.034c7.217-17.132,12.688-10.69,12.688-10.69s0.101,0.076,0.104,0.071L71.709,28.982
			z M36.074,43.975c-7.075-12.928-0.002-11.959-0.002-11.959S43.146,31.047,36.074,43.975z M51.297,44.237
			c-7.075-12.93,0.002-11.959,0.002-11.959S58.37,31.308,51.297,44.237z"/>
	</g>
	<g>
		<path fill="#F69700" d="M28.274,0.261h3.158c1.596,0,2.786,0.594,3.571,1.781c0.784,1.187,1.177,2.912,1.177,5.175
			c0,1.269-0.179,2.439-0.534,3.512c-0.357,1.072-0.906,1.877-1.648,2.413c-0.742,0.536-1.597,0.804-2.565,0.804h-3.158V0.261z
			 M29.608,1.458v11.33h1.828c1.192,0,2.051-0.501,2.575-1.502c0.523-1.001,0.786-2.497,0.786-4.487
			c0-1.734-0.272-3.059-0.816-3.971c-0.544-0.914-1.392-1.37-2.545-1.37H29.608z"/>
		<path fill="#F69700" d="M38.609,0.458c0.486,0,0.73,0.368,0.73,1.104c0,0.775-0.25,1.162-0.75,1.162
			c-0.481,0-0.722-0.374-0.722-1.123C37.868,0.838,38.114,0.458,38.609,0.458z M37.977,4.597h1.235v9.349h-1.235V4.597z"/>
		<path fill="#F69700" d="M41.321,4.597h1.117l0.118,1.335c0.326-0.518,0.697-0.904,1.111-1.163s0.873-0.387,1.376-0.387
			c0.796,0,1.417,0.268,1.86,0.804c0.444,0.536,0.666,1.252,0.666,2.148v6.612h-1.235V7.334c0-0.549-0.145-0.987-0.433-1.314
			c-0.287-0.327-0.66-0.491-1.117-0.491c-0.622,0-1.148,0.274-1.58,0.819c-0.432,0.547-0.647,1.176-0.647,1.889v5.709h-1.236V4.597z
			"/>
		<path fill="#F69700" d="M55.869,12.964c-0.995,0.798-1.968,1.198-2.918,1.198c-1.113,0-2.014-0.447-2.701-1.339
			c-0.688-0.893-1.031-2.055-1.031-3.488c0-1.478,0.354-2.673,1.064-3.585c0.709-0.913,1.606-1.369,2.691-1.369
			c0.962,0,1.733,0.368,2.315,1.104s0.873,1.666,0.873,2.791v0.608h-5.67v0.48c0,1.216,0.254,2.136,0.761,2.757
			c0.506,0.621,1.1,0.932,1.78,0.932c0.942,0,1.887-0.521,2.835-1.56V12.964z M54.849,7.834c-0.025-0.775-0.225-1.356-0.597-1.743
			c-0.372-0.388-0.806-0.582-1.302-0.582c-0.503,0-0.971,0.194-1.404,0.582c-0.435,0.387-0.742,0.968-0.925,1.743H54.849z"/>
	</g>
	<g>
		<path fill="#F69700" d="M21.335,109.122h0.63v5.912h2.402v0.547h-3.032V109.122z"/>
		<path fill="#F69700" d="M26.502,111.066c0.484,0,0.889,0.211,1.213,0.632c0.324,0.422,0.486,0.979,0.486,1.674
			c0,0.4-0.064,0.779-0.192,1.136s-0.326,0.642-0.595,0.854c-0.268,0.213-0.58,0.319-0.936,0.319c-0.527,0-0.943-0.217-1.247-0.653
			c-0.304-0.435-0.457-0.98-0.457-1.634c0-0.521,0.097-0.972,0.288-1.352s0.425-0.637,0.701-0.773
			C26.04,111.135,26.285,111.066,26.502,111.066z M26.541,111.613c-0.386,0-0.678,0.164-0.872,0.491s-0.292,0.773-0.292,1.338
			c0,0.484,0.097,0.89,0.287,1.217c0.191,0.327,0.461,0.491,0.809,0.491c0.327,0,0.597-0.152,0.809-0.456
			c0.212-0.304,0.318-0.748,0.318-1.331c0-0.556-0.104-0.987-0.312-1.292C27.081,111.766,26.832,111.613,26.541,111.613z"/>
		<path fill="#F69700" d="M28.834,114.622c0.433,0.352,0.846,0.528,1.237,0.528c0.303,0,0.552-0.077,0.749-0.23
			c0.199-0.152,0.297-0.347,0.297-0.582c0-0.17-0.065-0.312-0.196-0.428c-0.132-0.114-0.385-0.227-0.763-0.338
			c-0.462-0.14-0.801-0.299-1.013-0.478c-0.213-0.179-0.32-0.427-0.32-0.745c0-0.364,0.144-0.669,0.431-0.915
			s0.643-0.368,1.064-0.368c0.34,0,0.727,0.12,1.158,0.36v0.654c-0.368-0.321-0.744-0.481-1.129-0.481
			c-0.267,0-0.485,0.071-0.656,0.213c-0.171,0.143-0.257,0.315-0.257,0.516c0,0.17,0.077,0.31,0.232,0.418
			c0.149,0.111,0.402,0.216,0.753,0.315c0.865,0.241,1.297,0.651,1.297,1.231c0,0.392-0.158,0.722-0.474,0.989
			c-0.317,0.267-0.7,0.4-1.15,0.4c-0.417,0-0.837-0.134-1.261-0.402V114.622z"/>
		<path fill="#F69700" d="M35.9,109.122h0.618l1.803,6.458h-0.704l-0.549-2.231h-1.714l-0.548,2.231H34.12L35.9,109.122z
			 M36.197,109.91l-0.715,2.916h1.445L36.197,109.91z"/>
		<path fill="#F69700" d="M38.798,109.122h0.583v6.458h-0.583V109.122z"/>
		<path fill="#F69700" d="M42.974,111.168h0.431v4.667c0,0.596-0.162,1.062-0.485,1.398c-0.325,0.337-0.713,0.505-1.168,0.505
			c-0.397,0-0.826-0.157-1.286-0.472v-0.689c0.447,0.429,0.868,0.643,1.263,0.643c0.328,0,0.592-0.128,0.793-0.384
			c0.2-0.257,0.3-0.59,0.3-1v-0.949c-0.153,0.232-0.322,0.406-0.504,0.521c-0.183,0.116-0.379,0.174-0.589,0.174
			c-0.446,0-0.818-0.216-1.115-0.648c-0.296-0.432-0.443-0.949-0.443-1.551c0-0.648,0.164-1.196,0.495-1.643
			c0.33-0.448,0.722-0.672,1.176-0.672c0.193,0,0.372,0.043,0.537,0.127c0.163,0.085,0.312,0.213,0.443,0.382L42.974,111.168z
			 M42.82,112.113c-0.132-0.163-0.271-0.285-0.416-0.365c-0.145-0.081-0.298-0.121-0.459-0.121c-0.339,0-0.618,0.165-0.838,0.496
			c-0.218,0.331-0.328,0.751-0.328,1.264c0,0.469,0.096,0.866,0.286,1.192c0.192,0.325,0.449,0.488,0.774,0.488
			c0.281,0,0.515-0.128,0.701-0.385c0.188-0.256,0.279-0.588,0.279-0.995V112.113z"/>
		<path fill="#F69700" d="M45.867,111.066c0.484,0,0.888,0.211,1.213,0.632c0.324,0.422,0.486,0.979,0.486,1.674
			c0,0.4-0.064,0.779-0.192,1.136s-0.326,0.642-0.596,0.854c-0.268,0.213-0.579,0.319-0.935,0.319c-0.527,0-0.944-0.217-1.247-0.653
			c-0.305-0.435-0.457-0.98-0.457-1.634c0-0.521,0.097-0.972,0.287-1.352c0.192-0.38,0.426-0.637,0.701-0.773
			C45.404,111.135,45.65,111.066,45.867,111.066z M45.906,111.613c-0.387,0-0.678,0.164-0.872,0.491s-0.293,0.773-0.293,1.338
			c0,0.484,0.097,0.89,0.288,1.217s0.461,0.491,0.808,0.491c0.328,0,0.597-0.152,0.81-0.456c0.212-0.304,0.317-0.748,0.317-1.331
			c0-0.556-0.103-0.987-0.311-1.292C46.445,111.766,46.197,111.613,45.906,111.613z"/>
		<path fill="#F69700" d="M50.834,109.122h0.584v6.458h-0.584v-0.62c-0.145,0.241-0.309,0.421-0.493,0.541
			c-0.185,0.121-0.386,0.181-0.604,0.181c-0.465,0-0.84-0.228-1.129-0.683c-0.287-0.455-0.431-0.985-0.431-1.591
			c0-0.647,0.158-1.2,0.476-1.657s0.72-0.686,1.208-0.686c0.158,0,0.318,0.036,0.48,0.107c0.162,0.07,0.326,0.179,0.493,0.324
			V109.122z M50.834,112.057c-0.12-0.148-0.25-0.258-0.393-0.331c-0.143-0.073-0.297-0.109-0.464-0.109
			c-0.342,0-0.628,0.164-0.856,0.491s-0.342,0.759-0.342,1.296c0,0.503,0.101,0.92,0.301,1.25c0.2,0.33,0.456,0.495,0.769,0.495
			c0.274,0,0.508-0.122,0.698-0.366c0.192-0.243,0.287-0.552,0.287-0.926V112.057z"/>
		<path fill="#F69700" d="M53.969,111.066c0.484,0,0.889,0.211,1.213,0.632c0.323,0.422,0.485,0.979,0.485,1.674
			c0,0.4-0.063,0.779-0.192,1.136c-0.127,0.356-0.326,0.642-0.594,0.854c-0.269,0.213-0.581,0.319-0.937,0.319
			c-0.527,0-0.942-0.217-1.247-0.653c-0.304-0.435-0.455-0.98-0.455-1.634c0-0.521,0.095-0.972,0.287-1.352
			c0.19-0.38,0.424-0.637,0.701-0.773C53.506,111.135,53.753,111.066,53.969,111.066z M54.008,111.613
			c-0.387,0-0.677,0.164-0.873,0.491c-0.194,0.327-0.291,0.773-0.291,1.338c0,0.484,0.096,0.89,0.287,1.217
			c0.192,0.327,0.461,0.491,0.808,0.491c0.327,0,0.598-0.152,0.81-0.456c0.211-0.304,0.317-0.748,0.317-1.331
			c0-0.556-0.104-0.987-0.312-1.292C54.548,111.766,54.299,111.613,54.008,111.613z"/>
		<path fill="#F69700" d="M56.496,111.168h0.527l0.057,0.63c0.154-0.244,0.328-0.427,0.523-0.549
			c0.196-0.122,0.412-0.183,0.65-0.183c0.375,0,0.668,0.126,0.877,0.38s0.315,0.591,0.315,1.014v3.12h-0.584v-3.12
			c0-0.259-0.067-0.466-0.204-0.62c-0.136-0.155-0.312-0.232-0.527-0.232c-0.294,0-0.542,0.129-0.745,0.386
			c-0.204,0.258-0.306,0.555-0.306,0.892v2.694h-0.584V111.168z"/>
		<path fill="#F69700" d="M63.362,115.118c-0.47,0.377-0.929,0.564-1.378,0.564c-0.525,0-0.95-0.211-1.274-0.632
			c-0.325-0.421-0.487-0.97-0.487-1.646c0-0.697,0.168-1.261,0.503-1.692s0.759-0.646,1.271-0.646c0.453,0,0.817,0.173,1.093,0.521
			c0.274,0.347,0.411,0.787,0.411,1.317v0.287h-2.675v0.227c0,0.574,0.12,1.008,0.358,1.301c0.239,0.293,0.519,0.44,0.84,0.44
			c0.445,0,0.891-0.246,1.339-0.737V115.118z M62.88,112.696c-0.012-0.365-0.105-0.64-0.282-0.822
			c-0.175-0.183-0.379-0.274-0.613-0.274c-0.237,0-0.458,0.091-0.663,0.274c-0.204,0.183-0.351,0.457-0.437,0.822H62.88z"/>
		<path fill="#F69700" d="M64.103,114.622c0.433,0.352,0.845,0.528,1.236,0.528c0.303,0,0.553-0.077,0.75-0.23
			c0.198-0.152,0.296-0.347,0.296-0.582c0-0.17-0.065-0.312-0.195-0.428c-0.132-0.114-0.386-0.227-0.763-0.338
			c-0.462-0.14-0.801-0.299-1.014-0.478s-0.319-0.427-0.319-0.745c0-0.364,0.144-0.669,0.431-0.915s0.643-0.368,1.063-0.368
			c0.34,0,0.727,0.12,1.159,0.36v0.654c-0.368-0.321-0.745-0.481-1.13-0.481c-0.267,0-0.484,0.071-0.655,0.213
			c-0.171,0.143-0.258,0.315-0.258,0.516c0,0.17,0.077,0.31,0.232,0.418c0.15,0.111,0.402,0.216,0.754,0.315
			c0.864,0.241,1.297,0.651,1.297,1.231c0,0.392-0.158,0.722-0.475,0.989c-0.317,0.267-0.7,0.4-1.15,0.4
			c-0.416,0-0.837-0.134-1.26-0.402V114.622z"/>
	</g>
</g>
<g id="Layer_3">
</g>
</svg>
