<?xml version="1.0" encoding="utf-8"?>
<!-- Generator: Adobe Illustrator 16.0.0, SVG Export Plug-In . SVG Version: 6.00 Build 0)  -->
<!DOCTYPE svg PUBLIC "-//W3C//DTD SVG 1.1//EN" "http://www.w3.org/Graphics/SVG/1.1/DTD/svg11.dtd">
<svg version="1.1" xmlns="http://www.w3.org/2000/svg" xmlns:xlink="http://www.w3.org/1999/xlink" x="0px" y="0px" width="88px"
	 height="118px" viewBox="0 0 88 118" enable-background="new 0 0 88 118" xml:space="preserve">
<g id="guides">
</g>
<g id="Layer_2">
	<g>
		<g>
			<path fill="#808080" d="M43.057,94.76c0.314,0,0.584-0.048,0.81-0.145c0.225-0.097,0.411-0.223,0.559-0.378
				c0.148-0.155,0.256-0.333,0.324-0.532c0.067-0.199,0.102-0.404,0.102-0.616c0-0.23-0.042-0.429-0.125-0.597
				c-0.083-0.168-0.195-0.304-0.337-0.406c-0.143-0.103-0.31-0.179-0.5-0.229c-0.191-0.05-0.395-0.075-0.61-0.075
				c-0.346,0-0.634,0.054-0.864,0.164c-0.231,0.108-0.416,0.242-0.555,0.401c-0.139,0.158-0.238,0.328-0.301,0.508
				c-0.062,0.181-0.092,0.342-0.092,0.485c0,0.429,0.129,0.773,0.388,1.031C42.113,94.631,42.515,94.76,43.057,94.76z"/>
			<path fill="#808080" d="M86.327,100.688c-0.309,0.416-0.613,0.788-0.915,1.118c-0.13,0.141-0.267,0.276-0.412,0.408
				c-0.145,0.131-0.289,0.249-0.435,0.353c-0.145,0.104-0.288,0.188-0.43,0.252c-0.142,0.064-0.277,0.097-0.406,0.097
				c-0.173,0-0.286-0.08-0.338-0.239s-0.079-0.38-0.079-0.662c0-0.331,0.051-0.737,0.152-1.22c0.103-0.482,0.193-0.912,0.272-1.289
				c0.079-0.376,0.15-0.745,0.212-1.104c0.062-0.359,0.093-0.686,0.093-0.98c0-0.193-0.017-0.346-0.051-0.458
				c-0.034-0.112-0.082-0.199-0.144-0.262c-0.062-0.062-0.134-0.103-0.214-0.122c-0.081-0.019-0.168-0.028-0.261-0.028
				c-0.068,0-0.139,0.001-0.209,0.005c-0.071,0.003-0.142,0.004-0.209,0.004c-0.081,0-0.16-0.004-0.238-0.014
				c-0.076-0.009-0.153-0.029-0.228-0.061s-0.137-0.081-0.187-0.15c-0.049-0.068-0.1-0.138-0.153-0.21
				c-0.052-0.072-0.118-0.136-0.199-0.191c-0.081-0.056-0.192-0.084-0.335-0.084c-0.428,0-0.849,0.091-1.26,0.272
				c-0.413,0.181-0.805,0.425-1.177,0.732c-0.372,0.307-0.715,0.666-1.028,1.077c-0.312,0.412-0.606,0.9-0.879,1.465
				c-0.272,0.565-0.475,1.09-0.604,1.576c-0.122,0.453-0.181,0.894-0.188,1.325c-0.095,0.079-0.189,0.156-0.288,0.241
				c-0.157,0.135-0.327,0.261-0.509,0.38c-0.183,0.118-0.379,0.217-0.592,0.295s-0.448,0.117-0.707,0.117
				c-0.117,0-0.254-0.022-0.412-0.065c-0.157-0.043-0.307-0.092-0.448-0.145c-0.142-0.053-0.265-0.102-0.37-0.146
				c-0.104-0.043-0.16-0.065-0.166-0.065l0.047-0.188c0.055-0.075,0.164-0.217,0.327-0.426c0.163-0.209,0.354-0.456,0.573-0.74
				s0.466-0.62,0.74-1.007c0.273-0.387,0.523-0.734,0.748-1.04c0.226-0.306,0.424-0.584,0.598-0.834
				c0.172-0.25,0.295-0.443,0.369-0.581c0.259-0.069,0.444-0.143,0.555-0.221c0.111-0.079,0.173-0.143,0.186-0.193
				c0.037-0.15,0.055-0.332,0.055-0.545c0-0.264-0.047-0.473-0.143-0.626s-0.252-0.23-0.468-0.23c-0.019,0-0.043,0.004-0.073,0.014
				c-0.031,0.01-0.085,0.021-0.162,0.033c-0.077,0.012-0.189-0.013-0.338-0.003c-0.147,0.009-0.345-0.022-0.592-0.022
				c-0.086,0-0.18,0-0.281,0c-0.103,0-0.215,0.033-0.338,0.027c-0.16-0.006-0.316-0.027-0.467-0.099
				c-0.15-0.073-0.299-0.144-0.444-0.232c-0.145-0.088-0.291-0.163-0.438-0.235c-0.148-0.072-0.296-0.106-0.443-0.106
				c-0.197,0-0.412,0.033-0.643,0.099c-0.231,0.064-0.453,0.188-0.666,0.371c-0.213,0.181-0.406,0.438-0.578,0.771
				s-0.305,0.768-0.397,1.304c-0.013,0.074-0.021,0.146-0.027,0.218c-0.007,0.07-0.01,0.137-0.01,0.198
				c0,0.148,0.021,0.267,0.06,0.356c0.041,0.089,0.109,0.134,0.209,0.134c0.104,0,0.222-0.067,0.351-0.203
				c0.13-0.135,0.29-0.347,0.481-0.635c0.086-0.132,0.164-0.234,0.235-0.306s0.151-0.126,0.24-0.162
				c0.09-0.036,0.198-0.057,0.329-0.063c0.129-0.006,0.292-0.009,0.489-0.009c0.08,0,0.154,0.009,0.222,0.028
				c0.068,0.019,0.134,0.045,0.199,0.08c0.064,0.035,0.138,0.074,0.217,0.117c0.08,0.044,0.176,0.09,0.287,0.141l-2.203,3.046
				c-0.188,0.236-0.377,0.462-0.563,0.666c-0.129,0.141-0.267,0.276-0.411,0.408c-0.146,0.131-0.29,0.249-0.436,0.353
				c-0.145,0.104-0.287,0.188-0.429,0.252c-0.142,0.064-0.278,0.097-0.407,0.097c-0.173,0-0.285-0.08-0.338-0.239
				c-0.052-0.159-0.078-0.38-0.078-0.662c0-0.331,0.051-0.737,0.152-1.22s0.192-0.912,0.272-1.289
				c0.079-0.376,0.149-0.745,0.211-1.104c0.062-0.359,0.093-0.686,0.093-0.98c0-0.193-0.017-0.346-0.051-0.458
				c-0.033-0.112-0.081-0.199-0.144-0.262c-0.062-0.062-0.133-0.103-0.214-0.122c-0.08-0.019-0.167-0.028-0.26-0.028
				c-0.068,0-0.139,0.001-0.21,0.005s-0.141,0.004-0.209,0.004c-0.081,0-0.16-0.004-0.237-0.014s-0.153-0.029-0.229-0.061
				c-0.074-0.031-0.136-0.081-0.186-0.15c-0.05-0.068-0.101-0.138-0.153-0.21s-0.119-0.136-0.2-0.191
				c-0.08-0.056-0.191-0.084-0.335-0.084c-0.428,0-0.848,0.091-1.26,0.272c-0.413,0.181-0.805,0.425-1.177,0.732
				c-0.372,0.307-0.715,0.666-1.027,1.077c-0.313,0.412-0.606,0.9-0.879,1.465c-0.273,0.565-0.475,1.09-0.605,1.576
				c-0.105,0.393-0.156,0.775-0.177,1.151c-0.095,0.06-0.188,0.12-0.287,0.179c-0.184,0.109-0.362,0.206-0.535,0.289
				c-0.173,0.084-0.338,0.151-0.493,0.201c-0.153,0.05-0.291,0.074-0.411,0.074c-0.05,0-0.103-0.035-0.157-0.107
				c-0.056-0.071-0.109-0.167-0.158-0.289c-0.049-0.121-0.251-0.258-0.284-0.411c-0.034-0.152-0.21-0.309-0.21-0.471v-0.13
				c0-0.125,0.202-0.251,0.233-0.382c0.031-0.13,0.142-0.253,0.173-0.368c0.03-0.115,0.102-0.222,0.137-0.322
				c0.035-0.099,0.086-0.18,0.117-0.242c0.284-0.56,0.604-1.132,0.941-1.718s0.676-1.181,1.009-1.785
				c0.333-0.604,0.655-1.213,0.964-1.827s0.58-1.226,0.813-1.836c0.234-0.61,0.421-1.218,0.56-1.822
				c0.137-0.604,0.206-1.197,0.206-1.78c0-0.234-0.021-0.465-0.064-0.691c-0.043-0.226-0.117-0.429-0.224-0.607
				s-0.253-0.322-0.438-0.432c-0.186-0.108-0.422-0.163-0.707-0.163c-0.393,0-0.778,0.112-1.158,0.337
				c-0.379,0.225-0.743,0.534-1.092,0.927c-0.349,0.394-0.682,0.855-1,1.384c-0.317,0.529-0.612,1.099-0.882,1.708
				c-0.15,0.338-0.301,0.745-0.451,1.207c-0.016-0.603-0.142-1.188-0.389-1.753c-0.264-0.603-0.656-1.136-1.177-1.6
				c-0.522-0.464-1.175-0.836-1.96-1.115c-0.784-0.28-1.698-0.42-2.74-0.42c-0.79,0-1.536,0.128-2.237,0.383
				c-0.7,0.256-1.35,0.618-1.944,1.085c-0.597,0.468-1.133,1.029-1.607,1.682c-0.476,0.652-0.881,1.375-1.215,2.167
				c-0.332,0.791-0.589,1.64-0.768,2.545c-0.18,0.905-0.269,1.844-0.269,2.817c0,0.566,0.028,1.17,0.087,1.81
				c0.036,0.392,0.09,0.781,0.152,1.168c-0.247,0.217-0.499,0.428-0.757,0.632c-0.278,0.219-0.552,0.405-0.823,0.56
				c-0.271,0.154-0.518,0.231-0.739,0.231c-0.191,0-0.317-0.082-0.38-0.245c-0.061-0.164-0.092-0.384-0.092-0.661
				c0-0.284,0.045-0.599,0.133-0.945c0.089-0.347,0.162-0.696,0.221-1.047c0.058-0.352,0.166-0.775,0.326-1.273
				c0.158-0.498,0.277-0.905,0.359-1.222c0.08-0.317,0.152-0.6,0.216-0.847c0.063-0.248,0.095-0.439,0.095-0.575
				c0-0.16-0.045-0.288-0.136-0.383s-0.264-0.143-0.518-0.143c-0.14,0-0.296,0.017-0.468,0.051c-0.173,0.035-0.34,0.088-0.5,0.159
				c-0.16,0.072-0.305,0.164-0.432,0.276c-0.139,0.125-0.224,0.265-0.255,0.421c-0.055,0.222-0.198,0.701-0.433,1.437
				c-0.252,0.903-0.42,1.487-0.504,1.75c-0.045,0.117-0.141,0.606-0.285,1.462c-0.244,0.2-0.482,0.39-0.713,0.558
				c-0.147,0.106-0.301,0.21-0.457,0.312c-0.157,0.103-0.313,0.194-0.468,0.275c-0.154,0.081-0.3,0.145-0.438,0.191
				c-0.14,0.046-0.268,0.07-0.384,0.07c-0.12,0-0.221-0.037-0.302-0.112c-0.081-0.075-0.146-0.176-0.193-0.304
				c-0.049-0.128-0.083-0.272-0.104-0.435c-0.021-0.162-0.031-0.333-0.031-0.515c0-0.143,0.009-0.291,0.028-0.443
				c0.019-0.153,0.043-0.303,0.071-0.449c0.029-0.146,0.06-0.282,0.092-0.407s0.064-0.23,0.096-0.318
				c0.148-0.399,0.49-1.156,1.029-2.272c0.353-0.729,0.653-1.466,0.903-2.211c0.249-0.745,0.502-1.499,0.757-2.261
				c0.256-0.762,0.393-1.586,0.41-2.471c0.004-0.232,0.006-0.458,0.006-0.678c0-0.352-0.028-0.693-0.084-1.023
				c-0.055-0.33-0.146-0.62-0.271-0.871c-0.127-0.25-0.291-0.451-0.495-0.602c-0.203-0.151-0.45-0.227-0.74-0.227
				c-0.396,0-0.78,0.122-1.152,0.365s-0.723,0.581-1.052,1.012c-0.328,0.432-0.631,0.943-0.906,1.535
				c-0.275,0.592-0.501,1.239-0.676,1.941c-0.175,0.703-0.338,1.36-0.488,1.97c-0.152,0.61-0.237,1.315-0.256,2.116
				c-0.469,0.044-0.909,0.154-1.322,0.329c-0.413,0.175-0.815,0.435-1.206,0.779c-0.392,0.344-0.706,0.726-0.943,1.146
				c-0.237,0.419-0.452,0.821-0.647,1.206c-0.193,0.385-0.342,0.782-0.443,1.192c-0.053,0.212-0.091,0.422-0.116,0.631
				c-0.341,0.252-0.702,0.487-1.085,0.701c-0.389,0.217-0.788,0.398-1.197,0.542c-0.41,0.145-0.8,0.217-1.17,0.217
				c-0.117,0-0.228-0.012-0.329-0.036c-0.103-0.024-0.2-0.066-0.292-0.126c-0.094-0.06-0.185-0.145-0.274-0.253
				c-0.09-0.108-0.181-0.245-0.274-0.407c0.538-0.145,1.037-0.346,1.497-0.605s0.857-0.555,1.19-0.886
				c0.334-0.332,0.626-0.729,0.876-1.193c0.25-0.464,0.375-0.883,0.375-1.256c0-0.351-0.062-0.668-0.185-0.952
				c-0.124-0.283-0.295-0.524-0.515-0.725c-0.219-0.2-0.477-0.355-0.772-0.466s-0.617-0.167-0.963-0.167
				c-0.423,0-0.808,0.075-1.154,0.224c-0.346,0.149-0.658,0.35-0.938,0.603c-0.279,0.252-0.522,0.544-0.731,0.876
				c-0.208,0.332-0.382,0.68-0.52,1.045c-0.138,0.365-0.271,0.783-0.4,1.255c-0.128,0.471-0.192,0.877-0.192,1.218
				c0,0.137,0.019,0.268,0.029,0.402c-0.024,0.03-0.048,0.064-0.071,0.092c-0.142,0.173-0.29,0.341-0.444,0.504
				c-0.154,0.163-0.31,0.308-0.467,0.434c-0.157,0.126-0.314,0.229-0.472,0.306s-0.307,0.115-0.448,0.115
				c-0.251,0-0.442-0.06-0.574-0.181s-0.197-0.316-0.197-0.585c0-0.214,0.036-0.53,0.109-0.947s0.154-0.875,0.244-1.371
				c0.089-0.497,0.183-1.022,0.283-1.576c0.099-0.554,0.2-1.117,0.303-1.69c0.104-0.573,0.206-1.149,0.31-1.729
				c0.104-0.58,0.156-1.134,0.156-1.665c0-0.567-0.052-1.105-0.156-1.613c-0.104-0.509-0.254-0.952-0.449-1.332
				s-0.438-0.68-0.729-0.901c-0.291-0.222-0.622-0.333-0.995-0.333c-0.542,0-1.064,0.136-1.569,0.407
				c-0.504,0.271-0.975,0.661-1.412,1.169c-0.437,0.509-0.83,1.126-1.181,1.854s-0.646,1.547-0.886,2.459l-0.194,0.009
				c0.056-0.432,0.108-0.832,0.157-1.202c0.019-0.154,0.038-0.31,0.06-0.467s0.04-0.304,0.056-0.439
				c0.016-0.136,0.028-0.256,0.037-0.361c0.01-0.104,0.014-0.182,0.014-0.231c0-0.542-0.048-1.011-0.143-1.406
				c-0.096-0.394-0.23-0.721-0.402-0.979c-0.173-0.259-0.379-0.45-0.62-0.573c-0.24-0.124-0.502-0.186-0.785-0.186
				c-0.387,0-0.776,0.105-1.17,0.314c-0.394,0.21-0.782,0.506-1.165,0.888c-0.385,0.382-0.758,0.84-1.119,1.373
				c-0.362,0.533-0.704,1.128-1.025,1.785s-0.617,1.362-0.889,2.118c-0.272,0.755-0.507,1.542-0.707,2.362
				c0.108-0.439,0.221-0.912,0.336-1.417c0.115-0.506,0.21-1.016,0.284-1.53s0.146-1.003,0.212-1.468
				c0.068-0.465,0.102-0.87,0.102-1.215c0-0.45-0.029-0.86-0.088-1.23c-0.059-0.369-0.161-0.686-0.31-0.947
				c-0.147-0.262-0.348-0.465-0.601-0.61c-0.253-0.145-0.57-0.217-0.953-0.217c-0.295,0-0.604,0.062-0.929,0.185
				c-0.323,0.124-0.642,0.331-0.952,0.624s-0.607,0.685-0.888,1.174c-0.28,0.49-0.531,1.099-0.753,1.826
				c-0.025,0.024-0.037,0.055-0.037,0.092c0,0.068,0.009,0.144,0.025,0.227c0.018,0.083,0.04,0.162,0.066,0.236
				c0.026,0.074,0.056,0.137,0.088,0.19c0.032,0.052,0.062,0.078,0.092,0.078c0.094,0,0.179-0.02,0.255-0.06
				c0.075-0.04,0.131-0.106,0.167-0.199c0.187-0.265,0.392-0.513,0.613-0.745c0.223-0.231,0.444-0.433,0.667-0.605
				c0.222-0.172,0.435-0.31,0.636-0.411c0.202-0.102,0.373-0.153,0.514-0.153c0.088,0,0.154,0.028,0.197,0.083
				c0.044,0.056,0.127,0.122,0.143,0.199c0.02,0.077,0.078,0.159,0.078,0.247s0,0.159,0,0.215c0,0.648-0.029,1.256-0.02,1.824
				c0.01,0.568-0.04,1.113-0.101,1.637c-0.06,0.524-0.134,1.048-0.192,1.572c-0.061,0.524-0.186,1.058-0.363,1.601
				c-0.178,0.542-0.337,1.124-0.472,1.743c-0.136,0.619-0.284,1.29-0.441,2.012c-0.05,0.216-0.087,0.43-0.112,0.643
				c-0.023,0.212-0.037,0.445-0.037,0.698c0,0.129,0.033,0.245,0.102,0.347c0.068,0.102,0.16,0.188,0.277,0.259
				c0.117,0.071,0.25,0.124,0.401,0.158c0.151,0.034,0.306,0.05,0.466,0.05c0.136,0,0.277-0.014,0.426-0.041
				c0.147-0.028,0.285-0.076,0.415-0.144c0.129-0.068,0.24-0.161,0.332-0.278c0.093-0.117,0.151-0.268,0.176-0.454
				c0.139-0.569,0.291-1.192,0.456-1.867s0.335-1.371,0.51-2.087c0.176-0.717,0.393-1.429,0.651-2.134
				c0.259-0.706,0.526-1.382,0.805-2.029c0.277-0.647,0.557-1.25,0.838-1.808c0.28-0.558,0.554-1.043,0.819-1.456
				c0.264-0.413,0.512-0.737,0.741-0.971s0.435-0.352,0.613-0.352c0.217,0,0.391,0.056,0.522,0.167c0.13,0.11,0.23,0.271,0.301,0.48
				s0.115,0.465,0.135,0.768c0.019,0.302,0.028,0.644,0.028,1.026c0,0.555-0.065,1.162-0.196,1.822s-0.254,1.321-0.37,1.983
				c-0.114,0.662-0.243,1.327-0.384,1.992c-0.141,0.666-0.264,1.27-0.369,1.811s-0.196,1.008-0.271,1.4
				c-0.074,0.393-0.052,0.669,0.066,0.83c0,0.241,0.029,0.444,0.089,0.61c0.058,0.167,0.135,0.304,0.23,0.411
				c0.095,0.108,0.206,0.187,0.332,0.236c0.126,0.05,0.254,0.074,0.383,0.074s0.258-0.017,0.388-0.051
				c0.128-0.034,0.251-0.088,0.366-0.162c0.116-0.074,0.218-0.171,0.307-0.292s0.154-0.267,0.197-0.44
				c0.119-0.614,0.227-1.253,0.322-1.918c0.096-0.666,0.233-1.371,0.412-2.115c0.179-0.745,0.343-1.465,0.492-2.162
				c0.149-0.696,0.331-1.362,0.545-1.998c0.215-0.635,0.441-1.227,0.683-1.773c0.24-0.546,0.499-1.02,0.775-1.418
				c0.277-0.399,0.569-0.713,0.88-0.94c0.31-0.227,0.639-0.341,0.988-0.341c0.174,0,0.313,0.043,0.418,0.129
				c0.106,0.086,0.187,0.208,0.242,0.366s0.094,0.348,0.112,0.573s0.027,0.476,0.027,0.753c0,0.373-0.044,0.809-0.133,1.309
				s-0.18,1.009-0.272,1.527c-0.092,0.518-0.186,1.038-0.278,1.559c-0.094,0.521-0.186,1.035-0.276,1.54
				c-0.091,0.506-0.178,0.995-0.263,1.467s-0.14,0.914-0.164,1.327c-0.006,0.056-0.011,0.111-0.014,0.167
				c-0.003,0.055-0.005,0.108-0.005,0.157c0,0.444,0.074,0.837,0.223,1.179c0.147,0.342,0.344,0.629,0.59,0.86
				c0.247,0.231,0.529,0.405,0.846,0.522c0.317,0.117,0.643,0.176,0.975,0.176c0.344,0,0.689-0.052,1.037-0.157
				c0.349-0.104,0.692-0.276,1.031-0.513c0.32-0.224,0.635-0.516,0.944-0.864c0.074,0.12,0.142,0.244,0.229,0.354
				c0.288,0.361,0.647,0.648,1.079,0.861c0.432,0.213,0.935,0.32,1.511,0.32c0.37,0,0.736-0.043,1.097-0.129
				c0.36-0.085,0.708-0.2,1.044-0.343c0.337-0.143,0.657-0.306,0.962-0.49c0.268-0.161,0.514-0.326,0.75-0.493
				c0.081,0.191,0.174,0.375,0.29,0.539c0.193,0.277,0.438,0.499,0.73,0.666c0.292,0.167,0.639,0.25,1.04,0.25
				c0.284,0,0.566-0.047,0.848-0.143c0.281-0.095,0.56-0.221,0.835-0.378s0.541-0.342,0.797-0.555
				c0.257-0.212,0.5-0.437,0.729-0.672c0.151,0.379,0.33,0.684,0.535,0.913c0.205,0.229,0.41,0.404,0.615,0.525
				s0.395,0.202,0.568,0.241s0.304,0.059,0.393,0.059c0.149,0,0.314-0.028,0.495-0.083s0.366-0.127,0.557-0.216
				c0.191-0.088,0.386-0.19,0.583-0.305c0.197-0.114,0.385-0.23,0.563-0.349c0.174-0.115,0.349-0.24,0.525-0.369
				c0.013,0.08,0.023,0.161,0.042,0.235c0.059,0.231,0.155,0.427,0.291,0.587c0.137,0.16,0.313,0.285,0.531,0.375
				c0.219,0.089,0.489,0.134,0.811,0.134c0.356,0,0.734-0.064,1.132-0.194c0.397-0.129,0.787-0.291,1.17-0.485
				c0.382-0.194,0.737-0.407,1.067-0.638c0.146-0.103,0.277-0.201,0.401-0.297c0.09,0.331,0.188,0.656,0.302,0.971
				c0.206,0.579,0.459,1.09,0.758,1.533s0.646,0.795,1.044,1.057s0.85,0.393,1.355,0.393c0.477,0,0.916-0.088,1.317-0.263
				c0.402-0.175,0.767-0.412,1.092-0.71c0.324-0.298,0.609-0.646,0.854-1.042c0.245-0.396,0.453-0.816,0.622-1.259
				c0.171-0.443,0.301-0.896,0.39-1.36c0.091-0.464,0.142-0.912,0.154-1.345c0-0.037,0.001-0.104,0.004-0.203
				c0.004-0.099,0.007-0.215,0.01-0.348s0.008-0.279,0.014-0.439c0.006-0.161,0.013-0.321,0.019-0.481
				c0.013-0.377,0.028-0.79,0.046-1.241c0.975-0.148,1.822-0.404,2.545-0.768c0.724-0.364,1.322-0.796,1.797-1.295
				c0.253-0.267,0.469-0.547,0.654-0.839c-0.003,0.013-0.006,0.021-0.006,0.021c0,0-0.089,0.504-0.266,1.515
				c-0.178,1.01-0.268,1.817-0.268,2.422c0,0.704,0.061,1.376,0.18,2.016c0.12,0.64,0.286,1.203,0.497,1.688
				c0.213,0.485,0.461,0.872,0.747,1.16c0.285,0.289,0.594,0.433,0.926,0.433c0.216,0,0.447-0.028,0.695-0.084
				c0.247-0.055,0.501-0.13,0.761-0.224c0.261-0.093,0.52-0.2,0.776-0.321c0.214-0.1,0.417-0.2,0.619-0.302
				c0.061,0.084,0.119,0.171,0.189,0.245c0.215,0.227,0.463,0.401,0.744,0.522c0.28,0.122,0.568,0.182,0.864,0.182
				c0.279,0,0.559-0.046,0.839-0.138c0.279-0.091,0.549-0.209,0.806-0.352c0.258-0.143,0.496-0.303,0.713-0.48
				c0.218-0.177,0.401-0.351,0.551-0.521c0.198,0.495,0.435,0.871,0.708,1.13s0.614,0.389,1.024,0.389
				c0.339,0,0.678-0.084,1.017-0.253c0.211-0.104,0.41-0.229,0.604-0.362c0.111,0.034,0.23,0.058,0.368,0.058
				c0.173,0,0.377-0.036,0.611-0.106c0.271,0.136,0.521,0.249,0.748,0.337c0.229,0.088,0.429,0.161,0.601,0.217
				c0.173,0.056,0.312,0.096,0.417,0.12c0.104,0.024,0.169,0.036,0.193,0.036c0.303,0,0.625-0.036,0.967-0.108
				s0.678-0.169,1.008-0.292c0.33-0.124,0.646-0.266,0.947-0.428c0.102-0.054,0.192-0.111,0.285-0.167
				c0.056,0.074,0.105,0.153,0.168,0.218c0.216,0.227,0.464,0.401,0.744,0.522c0.28,0.122,0.569,0.182,0.865,0.182
				c0.279,0,0.559-0.046,0.839-0.138c0.279-0.091,0.548-0.209,0.806-0.352s0.495-0.303,0.713-0.48
				c0.217-0.177,0.4-0.351,0.551-0.521c0.198,0.495,0.435,0.871,0.708,1.13c0.272,0.259,0.614,0.389,1.024,0.389
				c0.339,0,0.678-0.084,1.017-0.253c0.339-0.168,0.656-0.374,0.952-0.617s0.562-0.499,0.8-0.767
				c0.237-0.268,0.427-0.501,0.569-0.701L86.327,100.688z M24.556,100.13c0.013-0.187,0.069-0.424,0.172-0.714
				c0.103-0.289,0.191-0.532,0.269-0.728c0.078-0.196,0.18-0.37,0.307-0.524c0.127-0.153,0.285-0.278,0.474-0.375
				s0.416-0.145,0.683-0.145c0.147,0,0.273,0.087,0.375,0.262c0.103,0.175,0.153,0.398,0.153,0.669c0,0.193-0.108,0.437-0.325,0.732
				c-0.216,0.295-0.438,0.53-0.663,0.705s-0.47,0.318-0.733,0.429c-0.264,0.112-0.506,0.167-0.729,0.167
				C24.537,100.478,24.543,100.317,24.556,100.13z M33.756,102.09c-0.074,0.109-0.155,0.214-0.245,0.315
				c-0.089,0.102-0.183,0.191-0.282,0.271c-0.099,0.079-0.202,0.143-0.31,0.192c-0.108,0.049-0.218,0.074-0.328,0.074
				c-0.217,0-0.392-0.024-0.528-0.072c-0.135-0.048-0.24-0.111-0.313-0.188c-0.074-0.078-0.125-0.165-0.153-0.261
				c-0.027-0.096-0.041-0.193-0.041-0.29c0-0.311,0.055-0.659,0.166-1.044s0.273-0.845,0.486-1.38
				c0.213-0.534,0.477-0.965,0.795-1.291c0.317-0.326,0.68-0.589,1.086-0.788c0.006-0.006,0.013,0.056,0.019,0.186
				c0.006,0.131,0.011,0.299,0.014,0.504c0.003,0.205,0.008,0.432,0.015,0.681c0.006,0.248,0.012,0.567,0.018,0.955
				c0.007,0.389,0.016,0.678,0.029,0.867c0.013,0.189,0.028,0.328,0.047,0.415C34.086,101.554,33.929,101.838,33.756,102.09z
				 M36.77,98.123v-0.094c0-0.094,0-0.228,0-0.402c0-0.175-0.214-0.38-0.207-0.614s-0.091-0.493-0.073-0.777
				c0.016-0.284-0.015-0.58,0.011-0.886c0.014-0.15,0.009-0.403,0.042-0.759c0.032-0.356,0.062-0.756,0.115-1.199
				c0.054-0.444,0.133-0.897,0.248-1.36c0.117-0.463,0.222-0.891,0.321-1.285c0.098-0.394,0.227-0.716,0.389-0.966
				c0.164-0.25,0.346-0.375,0.545-0.375c0.113,0,0.199,0.065,0.259,0.194c0.059,0.13,0.089,0.361,0.089,0.694
				c0,0.253-0.02,0.595-0.058,1.027c-0.032,0.327-0.088,0.673-0.168,1.036c-0.08,0.364-0.178,0.731-0.294,1.103
				c-0.115,0.372-0.231,0.746-0.349,1.123c-0.118,0.377-0.02,0.74-0.14,1.087C37.211,96.484,36.77,97.302,36.77,98.123z
				 M56.486,94.418c-0.139,0.337-0.351,0.646-0.637,0.927c-0.285,0.281-0.646,0.524-1.084,0.73c-0.436,0.206-0.955,0.356-1.559,0.45
				l0.084-0.74l0.562-2.406c0-0.025,0.001-0.045,0.004-0.061c0.004-0.016,0.005-0.045,0.005-0.089c0-0.155-0.032-0.282-0.097-0.381
				c-0.065-0.099-0.145-0.178-0.24-0.237s-0.202-0.099-0.319-0.121c-0.116-0.022-0.231-0.033-0.342-0.033
				c-0.366,0-0.674,0.092-0.923,0.276c-0.248,0.184-0.45,0.416-0.605,0.696s-0.273,0.589-0.354,0.925
				c-0.082,0.336-0.139,0.659-0.173,0.967s-0.053,0.583-0.056,0.823c-0.004,0.24-0.005,0.4-0.005,0.481
				c-0.11-0.025-0.232-0.064-0.366-0.115c-0.116-0.045-0.258-0.104-0.422-0.178c-0.165-0.073-0.349-0.168-0.551-0.283
				c-0.079-0.045-0.145-0.081-0.196-0.106c-0.052-0.026-0.109-0.039-0.17-0.039c-0.092,0-0.164,0.027-0.216,0.081
				c-0.052,0.054-0.092,0.124-0.119,0.209s-0.044,0.184-0.05,0.294c-0.006,0.111-0.01,0.224-0.01,0.337
				c0,0.206,0.021,0.386,0.06,0.541c0.04,0.154,0.133,0.301,0.28,0.44c0.146,0.14,0.329,0.285,0.62,0.436
				c0.289,0.151,1.16,0.328,1.16,0.527v0.435c0,0.284,0.029,0.628,0.018,1.033s-0.021,0.829-0.065,1.273
				c-0.043,0.444-0.099,0.887-0.185,1.328c-0.088,0.441-0.2,0.836-0.348,1.185c-0.147,0.349-0.33,0.633-0.551,0.852
				c-0.223,0.219-0.49,0.329-0.806,0.329c-0.302,0-0.552-0.128-0.753-0.384c-0.201-0.256-0.366-0.586-0.498-0.99
				c-0.134-0.404-0.232-0.856-0.301-1.356c-0.068-0.5-0.117-0.993-0.147-1.48c-0.031-0.487-0.048-0.946-0.051-1.375
				s-0.005-0.77-0.005-1.023c0-0.618,0.045-1.253,0.135-1.904c0.09-0.652,0.229-1.286,0.416-1.9
				c0.189-0.615,0.429-1.194,0.719-1.738s0.634-1.02,1.029-1.428c0.396-0.408,0.846-0.73,1.353-0.969
				c0.507-0.238,1.072-0.357,1.696-0.357c0.831,0,1.521,0.096,2.069,0.288s0.985,0.437,1.312,0.734
				c0.325,0.297,0.556,0.627,0.688,0.99s0.199,0.717,0.199,1.064C56.694,93.735,56.625,94.081,56.486,94.418z M60.264,95.484
				c0.166-0.835,0.249-1.253,0.249-1.253c0-0.001,0.136-0.451,0.407-1.352c0.271-0.9,0.506-1.55,0.701-1.95
				c0.195-0.399,0.392-0.716,0.588-0.951c0.194-0.234,0.377-0.351,0.547-0.351c0.047,0,0.074,0.063,0.083,0.191
				c0.009,0.128,0.014,0.281,0.014,0.462c-0.056,0.565-0.186,1.176-0.39,1.832s-0.445,1.313-0.724,1.972
				c-0.278,0.659-0.573,1.299-0.886,1.92c-0.312,0.622-0.607,1.181-0.886,1.678C59.999,97.053,60.098,96.319,60.264,95.484z
				 M66.97,100.632c-0.024,0.199-0.079,0.447-0.161,0.745c-0.084,0.298-0.193,0.586-0.33,0.866
				c-0.135,0.279-0.296,0.518-0.481,0.717c-0.185,0.199-0.392,0.298-0.62,0.298c-0.142,0-0.26-0.037-0.352-0.109
				c-0.093-0.073-0.167-0.169-0.223-0.286c-0.056-0.118-0.095-0.251-0.116-0.4c-0.021-0.15-0.032-0.304-0.032-0.463
				c0-0.269,0.036-0.556,0.107-0.862c0.07-0.305,0.191-0.66,0.364-1.063s0.349-0.742,0.527-1.018
				c0.179-0.274,0.374-0.519,0.587-0.733s0.439-0.384,0.68-0.509c0.24-0.125,0.486-0.188,0.739-0.188L66.97,100.632z
				 M81.154,100.632c-0.025,0.199-0.079,0.447-0.162,0.745c-0.084,0.298-0.193,0.586-0.329,0.866s-0.296,0.518-0.481,0.717
				s-0.393,0.298-0.621,0.298c-0.141,0-0.259-0.037-0.352-0.109c-0.093-0.073-0.166-0.169-0.222-0.286
				c-0.057-0.118-0.095-0.251-0.116-0.4c-0.021-0.15-0.032-0.304-0.032-0.463c0-0.269,0.035-0.556,0.106-0.862
				c0.07-0.305,0.192-0.66,0.365-1.063c0.172-0.403,0.348-0.742,0.526-1.018c0.179-0.274,0.375-0.519,0.587-0.733
				c0.213-0.214,0.439-0.384,0.68-0.509c0.24-0.125,0.487-0.188,0.74-0.188L81.154,100.632z"/>
		</g>
		<g>
			<path fill="#B70050" d="M21.698,33.551c0,0-0.03,0.019-0.08,0.055C21.089,34.068,21.698,33.551,21.698,33.551z"/>
			<path fill="#B70050" d="M64.773,70.562C64.81,70.523,64.83,70.5,64.83,70.5S64.184,71.061,64.773,70.562z"/>
			<path fill="#B70050" d="M70.059,75.466c-0.013,0.011-0.027,0.019-0.039,0.03C69.839,75.656,70.153,75.386,70.059,75.466z"/>
			<path fill="#B70050" d="M74.99,45.341c-0.789-0.677-1.452-1.042-2.397-1.455c1.824-5.378,3.042-12.399-0.884-15.814
				c-4.773-4.046-12.426-2.556-18.698-0.991c-0.481-0.812-1.095-1.554-1.886-2.232c-4.071-3.492-10.746-3.486-14.867,0.048
				c-0.692,0.594-1.279,1.233-1.743,1.926c-6.108-1.352-13.776-1.929-17.789,1.513c-0.124,0.107-0.481,0.428-0.474,0.434
				l5.494,4.711c0.004,0.005,0.217-0.168,0.217-0.168s5.299-6.295,12.518,10.835c-0.1-0.029-0.275,0.019-0.341-0.038l2.138,1.833
				c3.961-3.386,10.295-3.361,14.156-0.049c0.066,0.056,0.361,0.115,0.357,0.117c0.004-0.002-0.193,0.023-0.128,0.08
				c3.862,3.312,3.628,8.519-0.321,11.915l0.008,0.006c-4.752,4.065-10.265,3.102-14.125-0.208
				c-0.066-0.058-0.327-0.376-0.324-0.377l-0.053,0.045c-3.723-3.292-4.238-7.501,0.437-11.522l-2.137-1.833
				c-0.05,0.05-0.075,0.08-0.11,0.117c-18.39-5.758-13.159-10.1-12.419-10.628c0.043-0.038,0.077-0.068,0.136-0.119l-5.496-4.711
				c-0.796,0.672-0.219,0.149-0.343,0.256c-4.015,3.441-3.207,9.886-1.631,15.125c-0.809,0.396-1.558,0.875-2.251,1.469
				c-4.123,3.535-4.155,9.226-0.083,12.717c0.79,0.677,1.327,0.917,2.272,1.329c-1.823,5.38-3.165,12.276,0.762,15.691
				c3.98,3.367,12.559,2.671,18.832,1.106c0.48,0.812,1.163,1.613,1.951,2.29c4.072,3.491,10.779,3.516,14.903-0.02
				c0.69-0.594,1.297-1.219,1.758-1.911c6.091,1.348,13.569,2.071,17.591-1.333c0.058-0.051,0.164-0.145,0.354-0.312l-5.495-4.712
				c-0.046,0.039-0.069,0.059-0.105,0.089c-0.582,0.605-5.701,5.243-12.447-10.606c0.05-0.033,0.093-0.062,0.161-0.111l-0.009-0.008
				c-0.063-0.059,0.054-0.261,0.016-0.341C72.471,65.684,65.01,70.331,65.01,70.331s-0.143,0.131-0.137,0.136l5.493,4.711
				c0.008,0.007,0.39-0.293,0.514-0.4c4.014-3.441,3.29-9.956,1.714-15.197c0.809-0.396,1.6-0.91,2.289-1.503
				C79.008,54.542,79.062,48.833,74.99,45.341z M36.074,43.064c-7.075-12.928-0.002-11.959-0.002-11.959
				S43.146,30.136,36.074,43.064z M33.263,45.486c-15.073,6.066-13.942,0-13.942,0S18.189,39.419,33.263,45.486z M33.57,58.542
				c-15.076,6.068-13.944,0.003-13.944,0.003S18.494,52.475,33.57,58.542z M21.235,70.349c0.022,0.015,0.038,0.025,0.038,0.025
				s-0.026-0.021-0.06-0.048c-0.009-0.01-0.015-0.017-0.015-0.017s-0.168-0.133-0.172-0.128l-0.006,0.005
				c-1.13-0.929-4.975-5.24,12.454-10.682l-0.106,0.092c0.084-0.072,0.46,0.12,0.584,0.083
				C27.057,76.05,21.697,70.843,21.235,70.349z M35.664,72.299c0,0-7.072,0.97,0.001-11.959
				C42.74,73.269,35.664,72.299,35.664,72.299z M50.891,72.56c0,0-7.075,0.97-0.002-11.958C57.963,73.53,50.891,72.56,50.891,72.56z
				 M51.297,43.327c-7.075-12.93,0.002-11.959,0.002-11.959S58.37,30.397,51.297,43.327z M52.874,43.872
				c7.207-17.108,12.673-10.708,12.688-10.69c-0.003-0.002-0.01-0.006-0.01-0.006s0.029,0.021,0.06,0.042
				c0.017,0.012,0.023,0.016,0.035,0.023c0.799,0.579,6.061,5.042-12.562,10.811c0.006-0.013,0.019-0.018,0.025-0.029l0.215-0.184
				C53.239,43.911,52.999,43.834,52.874,43.872z M53.391,45.125c15.077-6.068,13.946-0.003,13.946-0.003
				S68.468,51.191,53.391,45.125z M53.699,58.18c15.072-6.067,13.944,0,13.944,0S68.771,64.247,53.699,58.18z"/>
		</g>
		<path fill="#808080" d="M78.814,44.097c-1.137-0.874-2.19-0.92-1.727-2.433c0.37-1.206,0.645-2.437,0.896-3.672
			c0.439-2.167,0.57-4.381,0.367-6.581c-0.911-9.841-12.164-10.047-19.604-8.73c-2.241,0.397-3.809,1.504-5.401-0.389
			c-1.333-1.584-3.333-2.542-5.231-3.235c-4.068-1.488-8.785-0.534-12.306,1.799c-2.385,1.581-2.002,2.589-5.032,2.059
			c-2.462-0.431-4.954-0.623-7.451-0.618c-3.765,0.008-7.809,0.881-10.594,3.564c-0.014,0.013-0.022,0.027-0.034,0.041
			c-0.056,0.044-0.111,0.089-0.166,0.134c-0.06,0.034,0.021,0.09-0.033,0.143c-0.031,0.031,0.051,0.121,0.053,0.121
			c-0.002,0-0.143,0-0.143,0c-2.169,2-3.133,4.63-3.423,7.623c-0.163,1.678,0.033,3.367,0.269,5.026
			c0.311,2.196,1.484,3.514-0.393,4.982c-5.357,4.19-5.9,11.162-0.89,15.866c1.704,1.601,2.153,0.972,1.443,3.451
			c-0.47,1.637-0.842,3.349-1.003,5.045c-0.288,3.021-0.244,6.62,1.776,9.116c4.343,5.363,12.953,4.442,18.983,3.48
			c2.123-0.338,2.902-0.964,4.354,0.738c1.095,1.283,2.673,2.165,4.181,2.851c3.094,1.406,6.661,1.321,9.865,0.404
			c1.31-0.375,2.649-1.062,3.714-1.9c1.456-1.146,1.919-2.472,3.856-2.088c3.71,0.735,7.716,1.231,11.479,0.657
			c6.083-0.928,10.437-4.691,11.249-10.903c0.156-1.187-1.177-9.645-0.828-9.835c2.965-1.61,4.928-4.621,5.445-7.899
			C82.999,49.67,81.389,46.075,78.814,44.097z M75.33,59.877c-0.319,0.173-0.477,0.582-0.377,0.926
			c1.645,5.698,2.661,12.423-2.419,16.652c-5.046,4.201-13.07,2.703-18.917,1.452c-0.397-0.085-0.69,0.065-0.926,0.377
			c-4.748,6.278-14.78,6.136-19.213-0.399c-0.213-0.315-0.547-0.467-0.926-0.376c-5.758,1.378-12.619,2.481-18.266,0.095
			c-6.82-2.881-4.173-12.429-2.436-17.7c0.105-0.32-0.058-0.782-0.376-0.926c-7.454-3.373-6.64-12.168,0.067-15.777
			c0.318-0.172,0.477-0.583,0.377-0.926c-1.494-5.166-2.759-11.663,1.493-15.855c0.17-0.125,0.337-0.271,0.484-0.392
			c0.03-0.025,0.053-0.052,0.077-0.079c4.876-4.59,13.475-3.123,19.355-1.874c0.395,0.084,0.693-0.063,0.926-0.376
			c4.639-6.233,14.711-6.249,19.08,0.285c0.211,0.315,0.551,0.469,0.926,0.377c5.963-1.466,12.834-3.113,18.568-0.06
			c6.252,3.329,3.855,12.399,2.121,17.674c-0.105,0.325,0.06,0.776,0.377,0.926C82.804,47.436,82.227,56.133,75.33,59.877z"/>
		<g>
			<path fill="#B70050" d="M26.938,11.763c0.699,0.569,1.267,0.96,1.701,1.172c0.436,0.212,0.879,0.319,1.33,0.319
				c0.713,0,1.349-0.255,1.908-0.766c0.559-0.51,0.838-1.173,0.838-1.991c0-0.615-0.183-1.128-0.549-1.54
				c-0.373-0.405-1.082-0.805-2.129-1.197c-2.073-0.785-3.109-1.975-3.109-3.571c0-1.026,0.367-1.901,1.104-2.624
				s1.617-1.084,2.644-1.084c0.844,0,1.713,0.314,2.609,0.942v1.775c-0.569-0.53-1.038-0.893-1.407-1.089
				c-0.369-0.196-0.761-0.294-1.173-0.294c-0.687,0-1.257,0.235-1.712,0.706c-0.454,0.471-0.682,1.018-0.682,1.639
				c0,0.628,0.205,1.123,0.613,1.486c0.408,0.363,1.149,0.764,2.222,1.203c0.647,0.262,1.169,0.527,1.564,0.795
				s0.726,0.647,0.991,1.138c0.265,0.49,0.397,1.049,0.397,1.677c0,1.171-0.405,2.155-1.216,2.953
				c-0.812,0.797-1.773,1.196-2.885,1.196c-0.968,0-1.988-0.376-3.061-1.128V11.763z"/>
			<path fill="#B70050" d="M35.806,0.707h1.235v5.611c0.308-0.497,0.664-0.87,1.069-1.118c0.405-0.249,0.863-0.373,1.373-0.373
				c0.766,0,1.379,0.269,1.84,0.804c0.461,0.537,0.691,1.22,0.691,2.05v6.71h-1.236v-6.71c0-0.517-0.148-0.93-0.445-1.241
				c-0.296-0.31-0.667-0.466-1.109-0.466c-0.613,0-1.131,0.265-1.552,0.795c-0.42,0.53-0.631,1.145-0.631,1.844v5.778h-1.235V0.707z
				"/>
			<path fill="#B70050" d="M47.4,4.827c1.026,0,1.883,0.446,2.57,1.339C50.656,7.059,51,8.241,51,9.712
				c0,0.85-0.136,1.653-0.406,2.408c-0.271,0.755-0.692,1.359-1.261,1.81c-0.569,0.451-1.229,0.677-1.981,0.677
				c-1.119,0-2-0.461-2.645-1.383c-0.644-0.922-0.966-2.077-0.966-3.463c0-1.105,0.202-2.06,0.608-2.864
				c0.405-0.804,0.9-1.35,1.486-1.638C46.421,4.971,46.942,4.827,47.4,4.827z M47.483,5.984c-0.819,0-1.435,0.347-1.849,1.04
				c-0.412,0.693-0.618,1.639-0.618,2.835c0,1.027,0.203,1.887,0.608,2.58c0.407,0.693,0.978,1.04,1.711,1.04
				c0.695,0,1.267-0.322,1.716-0.967c0.448-0.644,0.673-1.584,0.673-2.82c0-1.177-0.219-2.09-0.658-2.737
				C48.628,6.309,48.1,5.984,47.483,5.984z"/>
			<path fill="#B70050" d="M53.953,18.747h-1.217V5.043h1.1l0.117,1.354c0.334-0.523,0.699-0.915,1.096-1.177
				s0.82-0.393,1.272-0.393c1.002,0,1.797,0.463,2.383,1.388c0.587,0.926,0.88,2.062,0.88,3.409c0,1.635-0.378,2.874-1.135,3.718
				c-0.757,0.843-1.588,1.265-2.492,1.265c-0.353,0-0.697-0.075-1.031-0.226s-0.658-0.376-0.973-0.677V18.747z M53.953,12.548
				c0.268,0.307,0.555,0.539,0.858,0.696c0.304,0.157,0.626,0.235,0.967,0.235c0.738,0,1.345-0.35,1.819-1.05
				c0.474-0.7,0.711-1.612,0.711-2.737c0-1.033-0.207-1.912-0.623-2.634c-0.415-0.723-0.966-1.084-1.652-1.084
				c-0.603,0-1.1,0.287-1.492,0.858c-0.392,0.573-0.588,1.231-0.588,1.977V12.548z"/>
		</g>
		<g>
			<path fill="#B70050" d="M21.335,108.903h0.63v5.912h2.402v0.546h-3.032V108.903z"/>
			<path fill="#B70050" d="M26.502,110.848c0.484,0,0.889,0.21,1.213,0.632c0.324,0.421,0.486,0.979,0.486,1.673
				c0,0.402-0.064,0.78-0.192,1.137s-0.326,0.641-0.595,0.854c-0.268,0.213-0.58,0.319-0.936,0.319
				c-0.527,0-0.943-0.218-1.247-0.653s-0.457-0.979-0.457-1.634c0-0.521,0.097-0.972,0.288-1.352s0.425-0.637,0.701-0.773
				S26.285,110.848,26.502,110.848z M26.541,111.394c-0.386,0-0.678,0.164-0.872,0.491s-0.292,0.773-0.292,1.338
				c0,0.484,0.097,0.89,0.287,1.217c0.191,0.327,0.461,0.491,0.809,0.491c0.327,0,0.597-0.152,0.809-0.456
				c0.212-0.304,0.318-0.748,0.318-1.331c0-0.556-0.104-0.986-0.312-1.292C27.081,111.546,26.832,111.394,26.541,111.394z"/>
			<path fill="#B70050" d="M28.834,114.403c0.433,0.352,0.846,0.528,1.237,0.528c0.303,0,0.552-0.077,0.749-0.229
				c0.199-0.154,0.297-0.348,0.297-0.583c0-0.17-0.065-0.312-0.196-0.427c-0.132-0.114-0.385-0.227-0.763-0.338
				c-0.462-0.139-0.801-0.298-1.013-0.477c-0.213-0.179-0.32-0.428-0.32-0.746c0-0.364,0.144-0.669,0.431-0.915
				c0.287-0.245,0.643-0.368,1.064-0.368c0.34,0,0.727,0.12,1.158,0.359v0.654c-0.368-0.321-0.744-0.481-1.129-0.481
				c-0.267,0-0.485,0.071-0.656,0.214s-0.257,0.314-0.257,0.516c0,0.17,0.077,0.31,0.232,0.418c0.149,0.112,0.402,0.217,0.753,0.315
				c0.865,0.241,1.297,0.651,1.297,1.231c0,0.392-0.158,0.722-0.474,0.989c-0.317,0.267-0.7,0.4-1.15,0.4
				c-0.417,0-0.837-0.134-1.261-0.402V114.403z"/>
			<path fill="#B70050" d="M35.9,108.903h0.618l1.803,6.458h-0.704l-0.549-2.231h-1.714l-0.548,2.231H34.12L35.9,108.903z
				 M36.197,109.69l-0.715,2.916h1.445L36.197,109.69z"/>
			<path fill="#B70050" d="M38.798,108.903h0.583v6.458h-0.583V108.903z"/>
			<path fill="#B70050" d="M42.974,110.949h0.431v4.667c0,0.596-0.162,1.062-0.485,1.398c-0.325,0.336-0.713,0.504-1.168,0.504
				c-0.397,0-0.826-0.157-1.286-0.472v-0.69c0.447,0.429,0.868,0.644,1.263,0.644c0.328,0,0.592-0.128,0.793-0.384
				c0.2-0.256,0.3-0.589,0.3-1v-0.949c-0.153,0.231-0.322,0.405-0.504,0.521c-0.183,0.116-0.379,0.174-0.589,0.174
				c-0.446,0-0.818-0.216-1.115-0.648c-0.296-0.432-0.443-0.95-0.443-1.551c0-0.648,0.164-1.196,0.495-1.644
				c0.33-0.447,0.722-0.671,1.176-0.671c0.193,0,0.372,0.042,0.537,0.127c0.163,0.085,0.312,0.212,0.443,0.382L42.974,110.949z
				 M42.82,111.894c-0.132-0.163-0.271-0.285-0.416-0.365c-0.145-0.081-0.298-0.121-0.459-0.121c-0.339,0-0.618,0.165-0.838,0.495
				c-0.218,0.331-0.328,0.752-0.328,1.264c0,0.469,0.096,0.866,0.286,1.192c0.192,0.325,0.449,0.488,0.774,0.488
				c0.281,0,0.515-0.128,0.701-0.384c0.188-0.256,0.279-0.588,0.279-0.996V111.894z"/>
			<path fill="#B70050" d="M45.867,110.848c0.484,0,0.888,0.21,1.213,0.632c0.324,0.421,0.486,0.979,0.486,1.673
				c0,0.402-0.064,0.78-0.192,1.137s-0.326,0.641-0.596,0.854c-0.268,0.213-0.579,0.319-0.935,0.319
				c-0.527,0-0.944-0.218-1.247-0.653c-0.305-0.435-0.457-0.979-0.457-1.634c0-0.521,0.097-0.972,0.287-1.352
				c0.192-0.38,0.426-0.637,0.701-0.773C45.404,110.916,45.65,110.848,45.867,110.848z M45.906,111.394
				c-0.387,0-0.678,0.164-0.872,0.491s-0.293,0.773-0.293,1.338c0,0.484,0.097,0.89,0.288,1.217s0.461,0.491,0.808,0.491
				c0.328,0,0.597-0.152,0.81-0.456c0.212-0.304,0.317-0.748,0.317-1.331c0-0.556-0.103-0.986-0.311-1.292
				C46.445,111.546,46.197,111.394,45.906,111.394z"/>
			<path fill="#B70050" d="M50.834,108.903h0.584v6.458h-0.584v-0.62c-0.145,0.24-0.309,0.421-0.493,0.542s-0.386,0.18-0.604,0.18
				c-0.465,0-0.84-0.228-1.129-0.683c-0.287-0.455-0.431-0.985-0.431-1.59c0-0.648,0.158-1.201,0.476-1.657s0.72-0.685,1.208-0.685
				c0.158,0,0.318,0.035,0.48,0.106c0.162,0.071,0.326,0.179,0.493,0.324V108.903z M50.834,111.838
				c-0.12-0.148-0.25-0.259-0.393-0.331c-0.143-0.073-0.297-0.109-0.464-0.109c-0.342,0-0.628,0.164-0.856,0.491
				s-0.342,0.759-0.342,1.296c0,0.503,0.101,0.919,0.301,1.25c0.2,0.33,0.456,0.495,0.769,0.495c0.274,0,0.508-0.122,0.698-0.366
				c0.192-0.244,0.287-0.552,0.287-0.926V111.838z"/>
			<path fill="#B70050" d="M53.969,110.848c0.484,0,0.889,0.21,1.213,0.632c0.323,0.421,0.485,0.979,0.485,1.673
				c0,0.402-0.063,0.78-0.192,1.137c-0.127,0.356-0.326,0.641-0.594,0.854c-0.269,0.213-0.581,0.319-0.937,0.319
				c-0.527,0-0.942-0.218-1.247-0.653c-0.304-0.435-0.455-0.979-0.455-1.634c0-0.521,0.095-0.972,0.287-1.352
				c0.19-0.38,0.424-0.637,0.701-0.773C53.506,110.916,53.753,110.848,53.969,110.848z M54.008,111.394
				c-0.387,0-0.677,0.164-0.873,0.491c-0.194,0.327-0.291,0.773-0.291,1.338c0,0.484,0.096,0.89,0.287,1.217
				c0.192,0.327,0.461,0.491,0.808,0.491c0.327,0,0.598-0.152,0.81-0.456c0.211-0.304,0.317-0.748,0.317-1.331
				c0-0.556-0.104-0.986-0.312-1.292C54.548,111.546,54.299,111.394,54.008,111.394z"/>
			<path fill="#B70050" d="M56.496,110.949h0.527l0.057,0.63c0.154-0.244,0.328-0.427,0.523-0.549
				c0.196-0.122,0.412-0.183,0.65-0.183c0.375,0,0.668,0.126,0.877,0.379s0.315,0.591,0.315,1.014v3.12h-0.584v-3.12
				c0-0.26-0.067-0.466-0.204-0.621c-0.136-0.154-0.312-0.231-0.527-0.231c-0.294,0-0.542,0.129-0.745,0.386
				c-0.204,0.258-0.306,0.555-0.306,0.892v2.694h-0.584V110.949z"/>
			<path fill="#B70050" d="M63.362,114.898c-0.47,0.376-0.929,0.564-1.378,0.564c-0.525,0-0.95-0.21-1.274-0.632
				c-0.325-0.421-0.487-0.97-0.487-1.646c0-0.698,0.168-1.262,0.503-1.692s0.759-0.646,1.271-0.646c0.453,0,0.817,0.173,1.093,0.521
				c0.274,0.347,0.411,0.786,0.411,1.317v0.287h-2.675v0.227c0,0.574,0.12,1.008,0.358,1.301c0.239,0.293,0.519,0.44,0.84,0.44
				c0.445,0,0.891-0.245,1.339-0.736V114.898z M62.88,112.477c-0.012-0.366-0.105-0.64-0.282-0.823
				c-0.175-0.183-0.379-0.274-0.613-0.274c-0.237,0-0.458,0.091-0.663,0.274c-0.204,0.183-0.351,0.457-0.437,0.823H62.88z"/>
			<path fill="#B70050" d="M64.103,114.403c0.433,0.352,0.845,0.528,1.236,0.528c0.303,0,0.553-0.077,0.75-0.229
				c0.198-0.154,0.296-0.348,0.296-0.583c0-0.17-0.065-0.312-0.195-0.427c-0.132-0.114-0.386-0.227-0.763-0.338
				c-0.462-0.139-0.801-0.298-1.014-0.477c-0.213-0.179-0.319-0.428-0.319-0.746c0-0.364,0.144-0.669,0.431-0.915
				c0.287-0.245,0.643-0.368,1.063-0.368c0.34,0,0.727,0.12,1.159,0.359v0.654c-0.368-0.321-0.745-0.481-1.13-0.481
				c-0.267,0-0.484,0.071-0.655,0.214s-0.258,0.314-0.258,0.516c0,0.17,0.077,0.31,0.232,0.418c0.15,0.112,0.402,0.217,0.754,0.315
				c0.864,0.241,1.297,0.651,1.297,1.231c0,0.392-0.158,0.722-0.475,0.989c-0.317,0.267-0.7,0.4-1.15,0.4
				c-0.416,0-0.837-0.134-1.26-0.402V114.403z"/>
		</g>
	</g>
</g>
<g id="Layer_3">
</g>
</svg>
