<?xml version="1.0" encoding="utf-8"?>
<!-- Generator: Adobe Illustrator 16.0.0, SVG Export Plug-In . SVG Version: 6.00 Build 0)  -->
<!DOCTYPE svg PUBLIC "-//W3C//DTD SVG 1.1//EN" "http://www.w3.org/Graphics/SVG/1.1/DTD/svg11.dtd">
<svg version="1.1" xmlns="http://www.w3.org/2000/svg" xmlns:xlink="http://www.w3.org/1999/xlink" x="0px" y="0px" width="302px"
	 height="66px" viewBox="0 0 302 66" enable-background="new 0 0 302 66" xml:space="preserve">
<g id="guides">
</g>
<g id="Layer_2">
	<g>
		<path fill="#FFFFFF" d="M191.167,26.691c0.778,0,1.446-0.119,2.004-0.359c0.557-0.238,1.02-0.549,1.386-0.937
			c0.366-0.384,0.634-0.824,0.802-1.316c0.168-0.493,0.252-1.002,0.252-1.526c0-0.571-0.104-1.064-0.309-1.479
			c-0.207-0.416-0.486-0.752-0.836-1.006c-0.353-0.254-0.765-0.442-1.238-0.567c-0.473-0.121-0.977-0.184-1.512-0.184
			c-0.854,0-1.568,0.135-2.141,0.405c-0.573,0.271-1.031,0.601-1.375,0.994c-0.343,0.394-0.592,0.812-0.744,1.261
			c-0.152,0.445-0.229,0.848-0.229,1.201c0,1.064,0.32,1.915,0.961,2.556C188.831,26.371,189.823,26.691,191.167,26.691z"/>
		<path fill="#FFFFFF" d="M300.234,41.375c-0.764,1.029-1.52,1.952-2.269,2.77c-0.32,0.348-0.66,0.685-1.018,1.01
			c-0.359,0.325-0.719,0.617-1.078,0.875c-0.359,0.257-0.713,0.465-1.064,0.624c-0.352,0.158-0.688,0.239-1.008,0.239
			c-0.428,0-0.707-0.199-0.837-0.593s-0.194-0.942-0.194-1.641c0-0.818,0.126-1.825,0.379-3.021c0.251-1.194,0.477-2.26,0.674-3.192
			c0.197-0.934,0.372-1.845,0.525-2.734c0.15-0.89,0.229-1.699,0.229-2.429c0-0.479-0.043-0.856-0.126-1.135
			c-0.084-0.277-0.204-0.493-0.356-0.646c-0.152-0.156-0.329-0.256-0.529-0.302c-0.199-0.045-0.414-0.069-0.646-0.069
			c-0.168,0-0.341,0.003-0.518,0.011c-0.178,0.009-0.348,0.013-0.518,0.013c-0.199,0-0.396-0.013-0.588-0.036
			c-0.192-0.023-0.381-0.074-0.564-0.152c-0.185-0.076-0.338-0.199-0.461-0.37c-0.123-0.17-0.25-0.343-0.381-0.521
			c-0.129-0.178-0.294-0.335-0.494-0.475c-0.199-0.138-0.477-0.208-0.83-0.208c-1.061,0-2.1,0.225-3.123,0.673
			c-1.021,0.449-1.991,1.055-2.914,1.816c-0.92,0.759-1.77,1.65-2.545,2.667c-0.775,1.021-1.502,2.231-2.178,3.63
			c-0.676,1.4-1.176,2.702-1.498,3.903c-0.301,1.124-0.455,2.217-0.476,3.287c-0.233,0.194-0.461,0.381-0.706,0.591
			c-0.389,0.334-0.809,0.646-1.259,0.94c-0.45,0.293-0.938,0.538-1.466,0.731c-0.527,0.193-1.111,0.29-1.752,0.29
			c-0.291,0-0.631-0.052-1.02-0.161c-0.391-0.107-0.76-0.229-1.11-0.361c-0.352-0.131-0.657-0.252-0.917-0.36
			c-0.26-0.106-0.396-0.162-0.412-0.162l0.115-0.463c0.137-0.186,0.408-0.538,0.812-1.057c0.403-0.518,0.878-1.129,1.42-1.834
			c0.542-0.703,1.152-1.535,1.832-2.495c0.68-0.959,1.299-1.817,1.855-2.576c0.558-0.759,1.049-1.447,1.477-2.066
			c0.428-0.618,0.733-1.098,0.918-1.439c0.641-0.169,1.098-0.352,1.373-0.545c0.275-0.194,0.428-0.353,0.459-0.478
			c0.092-0.373,0.137-0.823,0.137-1.351c0-0.652-0.117-1.169-0.355-1.549c-0.236-0.381-0.621-0.572-1.156-0.572
			c-0.045,0-0.107,0.011-0.184,0.035c-0.076,0.022-0.21,0.05-0.4,0.083c-0.191,0.029-0.469,0.057-0.836,0.08
			c-0.365,0.024-0.855,0.035-1.466,0.035c-0.214,0-0.446,0-0.698,0s-0.53-0.008-0.836-0.024c-0.398-0.015-0.782-0.112-1.158-0.29
			c-0.373-0.18-0.738-0.378-1.099-0.596c-0.358-0.218-0.722-0.415-1.087-0.595c-0.367-0.177-0.732-0.268-1.101-0.268
			c-0.487,0-1.019,0.08-1.592,0.239c-0.573,0.161-1.122,0.467-1.648,0.918c-0.528,0.449-1.005,1.087-1.433,1.911
			c-0.428,0.825-0.755,1.901-0.984,3.23c-0.031,0.182-0.053,0.363-0.068,0.538s-0.023,0.34-0.023,0.493
			c0,0.366,0.05,0.66,0.149,0.881c0.099,0.221,0.271,0.332,0.517,0.332c0.258,0,0.549-0.168,0.869-0.502s0.718-0.859,1.19-1.571
			c0.214-0.328,0.409-0.581,0.585-0.76c0.176-0.178,0.373-0.312,0.595-0.401c0.222-0.089,0.493-0.141,0.813-0.155
			c0.32-0.017,0.725-0.022,1.213-0.022c0.199,0,0.383,0.022,0.551,0.069s0.332,0.112,0.492,0.197
			c0.161,0.085,0.34,0.182,0.539,0.291c0.199,0.108,0.434,0.224,0.71,0.346l-6.042,8.355l-0.42-1.927
			c-0.764,1.029-1.52,1.952-2.27,2.77c-0.32,0.348-0.66,0.685-1.018,1.01c-0.359,0.325-0.719,0.617-1.078,0.875
			c-0.358,0.257-0.713,0.465-1.064,0.624c-0.352,0.158-0.687,0.239-1.008,0.239c-0.428,0-0.706-0.199-0.836-0.593
			s-0.193-0.942-0.193-1.641c0-0.818,0.125-1.825,0.377-3.021c0.252-1.194,0.477-2.26,0.674-3.192
			c0.197-0.934,0.373-1.845,0.525-2.734c0.151-0.89,0.229-1.699,0.229-2.429c0-0.479-0.042-0.856-0.125-1.135
			c-0.084-0.277-0.203-0.493-0.356-0.646c-0.152-0.156-0.33-0.256-0.529-0.302c-0.2-0.045-0.415-0.069-0.646-0.069
			c-0.169,0-0.342,0.003-0.52,0.011c-0.177,0.009-0.348,0.013-0.518,0.013c-0.199,0-0.396-0.013-0.587-0.036
			c-0.192-0.023-0.382-0.074-0.564-0.152c-0.185-0.076-0.339-0.199-0.461-0.37c-0.124-0.17-0.251-0.343-0.381-0.521
			s-0.294-0.335-0.494-0.475c-0.2-0.138-0.478-0.208-0.831-0.208c-1.059,0-2.099,0.225-3.122,0.673
			c-1.021,0.449-1.991,1.055-2.914,1.816c-0.921,0.759-1.771,1.65-2.545,2.667c-0.776,1.021-1.503,2.231-2.179,3.63
			c-0.676,1.4-1.174,2.702-1.497,3.903c-0.263,0.977-0.412,1.93-0.462,2.866c-0.229,0.144-0.451,0.289-0.69,0.43
			c-0.452,0.271-0.896,0.51-1.324,0.717c-0.43,0.208-0.837,0.373-1.22,0.496c-0.383,0.124-0.723,0.186-1.021,0.186
			c-0.122,0-0.253-0.089-0.39-0.266c-0.138-0.177-0.27-0.416-0.391-0.716c-0.123-0.302-0.228-0.641-0.311-1.017
			c-0.084-0.378-0.127-0.767-0.127-1.166V43.29c0.046-0.309,0.107-0.623,0.186-0.948c0.076-0.322,0.152-0.626,0.229-0.912
			c0.076-0.284,0.157-0.55,0.241-0.797c0.085-0.246,0.165-0.447,0.241-0.601c0.705-1.385,1.474-2.803,2.307-4.254
			c0.834-1.451,1.664-2.925,2.488-4.423c0.826-1.497,1.621-3.006,2.383-4.524c0.762-1.521,1.433-3.037,2.012-4.551
			c0.58-1.511,1.039-3.016,1.381-4.513s0.512-2.968,0.512-4.411c0-0.581-0.054-1.151-0.16-1.711
			c-0.107-0.562-0.291-1.063-0.554-1.507c-0.265-0.442-0.626-0.799-1.087-1.068c-0.459-0.271-1.043-0.404-1.75-0.404
			c-0.973,0-1.928,0.277-2.869,0.835s-1.844,1.322-2.707,2.296c-0.863,0.975-1.688,2.119-2.475,3.43
			c-0.787,1.312-1.516,2.721-2.186,4.231c-0.373,0.838-0.744,1.844-1.115,2.987c-0.039-1.494-0.353-2.942-0.965-4.34
			c-0.653-1.493-1.625-2.814-2.914-3.963c-1.293-1.15-2.91-2.071-4.854-2.765c-1.945-0.692-4.208-1.039-6.789-1.039
			c-1.96,0-3.807,0.317-5.543,0.95s-3.342,1.531-4.819,2.688c-1.477,1.159-2.804,2.549-3.981,4.166
			c-1.178,1.617-2.179,3.406-3.006,5.367c-0.826,1.959-1.461,4.062-1.904,6.304c-0.443,2.243-0.666,4.57-0.666,6.979
			c0,1.403,0.074,2.898,0.219,4.484c0.088,0.969,0.221,1.933,0.375,2.893c-0.613,0.538-1.236,1.062-1.875,1.566
			c-0.688,0.543-1.367,1.005-2.039,1.387c-0.672,0.382-1.283,0.572-1.832,0.572c-0.475,0-0.787-0.202-0.939-0.606
			c-0.152-0.405-0.229-0.95-0.229-1.637c0-0.703,0.11-1.484,0.329-2.341c0.221-0.86,0.402-1.723,0.546-2.593
			c0.145-0.872,0.413-1.922,0.807-3.155c0.394-1.233,0.69-2.243,0.892-3.026c0.2-0.786,0.379-1.485,0.535-2.099
			c0.158-0.612,0.236-1.087,0.236-1.423c0-0.398-0.113-0.713-0.338-0.951c-0.225-0.236-0.652-0.355-1.283-0.355
			c-0.345,0-0.73,0.042-1.158,0.127c-0.428,0.085-0.841,0.218-1.238,0.394c-0.397,0.178-0.754,0.405-1.068,0.683
			c-0.346,0.309-0.556,0.657-0.631,1.043c-0.135,0.551-0.494,1.737-1.073,3.562c-0.624,2.237-1.04,3.682-1.248,4.333
			c-0.112,0.291-0.349,1.501-0.707,3.623c-0.604,0.494-1.196,0.964-1.765,1.38c-0.365,0.264-0.744,0.522-1.133,0.774
			c-0.39,0.255-0.775,0.481-1.157,0.681c-0.382,0.201-0.744,0.359-1.088,0.474s-0.661,0.173-0.95,0.173
			c-0.298,0-0.547-0.092-0.748-0.277c-0.2-0.186-0.359-0.436-0.479-0.752c-0.12-0.317-0.205-0.675-0.258-1.078
			c-0.051-0.4-0.077-0.825-0.077-1.272c0-0.356,0.023-0.723,0.071-1.101c0.047-0.379,0.107-0.749,0.179-1.112
			c0.071-0.364,0.147-0.699,0.227-1.008c0.079-0.308,0.158-0.57,0.237-0.787c0.365-0.988,1.215-2.863,2.549-5.628
			c0.873-1.806,1.619-3.633,2.237-5.478s1.243-3.711,1.876-5.601c0.633-1.887,0.971-3.929,1.015-6.121
			c0.01-0.574,0.016-1.135,0.016-1.678c0-0.873-0.069-1.717-0.207-2.536c-0.138-0.818-0.362-1.539-0.675-2.158
			c-0.313-0.619-0.721-1.115-1.227-1.491c-0.504-0.375-1.114-0.562-1.832-0.562c-0.982,0-1.935,0.302-2.856,0.906
			c-0.921,0.603-1.788,1.438-2.603,2.507c-0.814,1.069-1.562,2.335-2.246,3.801c-0.684,1.467-1.242,3.071-1.674,4.811
			c-0.434,1.743-0.837,3.369-1.213,4.88c-0.375,1.512-0.584,3.259-0.631,5.242c-1.16,0.109-2.252,0.381-3.275,0.813
			c-1.023,0.435-2.02,1.079-2.988,1.93c-0.971,0.853-1.748,1.798-2.338,2.837c-0.587,1.038-1.121,2.034-1.603,2.987
			c-0.481,0.954-0.847,1.938-1.099,2.952c-0.188,0.756-0.282,1.503-0.33,2.246c-0.551,0.368-1.115,0.723-1.707,1.053
			c-0.963,0.537-1.951,0.984-2.967,1.344c-1.016,0.358-1.98,0.537-2.896,0.537c-0.292,0-0.564-0.029-0.816-0.09
			c-0.253-0.059-0.495-0.163-0.725-0.313c-0.23-0.148-0.456-0.357-0.678-0.627c-0.223-0.268-0.449-0.604-0.678-1.006
			c1.33-0.36,2.566-0.86,3.706-1.501s2.123-1.373,2.949-2.194c0.827-0.823,1.55-1.808,2.169-2.957c0.62-1.149,0.93-2.188,0.93-3.114
			c0-0.869-0.152-1.655-0.459-2.356c-0.305-0.702-0.73-1.301-1.272-1.796s-1.181-0.882-1.915-1.156
			c-0.732-0.274-1.527-0.411-2.385-0.411c-1.047,0-2,0.186-2.858,0.554c-0.858,0.37-1.632,0.867-2.323,1.493s-1.295,1.35-1.812,2.17
			c-0.517,0.821-0.945,1.685-1.287,2.587c-0.342,0.904-0.672,1.94-0.991,3.11c-0.318,1.167-0.479,2.173-0.479,3.016
			c0,0.35,0.016,0.694,0.043,1.035c-0.05,0.06-0.098,0.131-0.146,0.19c-0.352,0.427-0.719,0.844-1.1,1.248
			c-0.382,0.406-0.768,0.764-1.156,1.078c-0.391,0.312-0.779,0.564-1.168,0.754c-0.391,0.192-0.76,0.287-1.111,0.287
			c-0.623,0-1.096-0.149-1.422-0.448c-0.326-0.301-0.49-0.782-0.49-1.45c0-0.53,0.091-1.312,0.271-2.346
			c0.182-1.036,0.383-2.167,0.604-3.398c0.221-1.229,0.455-2.53,0.701-3.904c0.246-1.372,0.497-2.768,0.752-4.188
			c0.254-1.42,0.51-2.847,0.769-4.283c0.257-1.435,0.386-2.81,0.386-4.123c0-1.405-0.129-2.737-0.387-3.996
			c-0.258-1.261-0.629-2.361-1.113-3.3c-0.485-0.938-1.088-1.683-1.808-2.231c-0.72-0.55-1.542-0.826-2.466-0.826
			c-1.341,0-2.637,0.337-3.887,1.008c-1.25,0.672-2.415,1.638-3.497,2.898c-1.081,1.26-2.058,2.791-2.927,4.592
			c-0.868,1.802-1.6,3.834-2.193,6.092l-0.481,0.023c0.138-1.068,0.267-2.061,0.389-2.978c0.046-0.382,0.095-0.767,0.149-1.156
			c0.053-0.39,0.1-0.751,0.137-1.088c0.039-0.336,0.069-0.633,0.093-0.894c0.022-0.26,0.034-0.45,0.034-0.572
			c0-1.344-0.119-2.504-0.355-3.482c-0.236-0.977-0.568-1.787-0.996-2.428c-0.428-0.641-0.938-1.113-1.534-1.419
			c-0.596-0.305-1.245-0.458-1.946-0.458c-0.959,0-1.926,0.26-2.898,0.778c-0.975,0.519-1.938,1.253-2.888,2.2
			c-0.95,0.946-1.874,2.08-2.771,3.4c-0.897,1.321-1.744,2.795-2.539,4.421c-0.797,1.626-1.531,3.374-2.203,5.246
			c-0.672,1.87-1.256,3.821-1.751,5.852c0.269-1.088,0.544-2.258,0.831-3.511c0.286-1.254,0.521-2.518,0.705-3.792
			c0.184-1.272,0.359-2.485,0.527-3.637c0.166-1.152,0.25-2.154,0.25-3.01c0-1.114-0.072-2.13-0.217-3.046
			c-0.146-0.917-0.401-1.699-0.768-2.348c-0.367-0.651-0.863-1.154-1.488-1.512c-0.627-0.359-1.412-0.539-2.359-0.539
			c-0.732,0-1.501,0.153-2.303,0.459s-1.588,0.82-2.359,1.546c-0.771,0.726-1.504,1.696-2.198,2.908
			c-0.694,1.214-1.317,2.723-1.866,4.524c-0.061,0.061-0.092,0.137-0.092,0.229c0,0.167,0.021,0.354,0.064,0.56
			c0.045,0.206,0.1,0.4,0.164,0.584c0.064,0.183,0.138,0.339,0.217,0.47c0.08,0.13,0.156,0.194,0.229,0.194
			c0.231,0,0.441-0.049,0.631-0.148c0.188-0.1,0.325-0.265,0.412-0.493c0.465-0.657,0.972-1.271,1.521-1.843
			c0.551-0.573,1.102-1.073,1.652-1.5c0.551-0.428,1.076-0.768,1.576-1.02c0.499-0.251,0.924-0.378,1.271-0.378
			c0.217,0,0.381,0.069,0.488,0.207c0.109,0.136,0.186,0.302,0.229,0.492c0.043,0.191,0.065,0.396,0.065,0.611
			c0,0.216,0,0.394,0,0.533c0.028,1.606,0.054,3.112,0.078,4.519c0.024,1.405-0.038,2.757-0.187,4.054
			c-0.149,1.299-0.299,2.596-0.447,3.894c-0.148,1.298-0.443,2.619-0.883,3.964c-0.439,1.343-0.826,2.783-1.161,4.318
			c-0.335,1.536-0.698,3.198-1.089,4.985c-0.122,0.534-0.213,1.064-0.273,1.592c-0.062,0.525-0.092,1.103-0.092,1.729
			c0,0.32,0.084,0.606,0.252,0.858s0.396,0.466,0.686,0.641c0.289,0.176,0.621,0.306,0.996,0.389
			c0.373,0.085,0.758,0.126,1.154,0.126c0.336,0,0.686-0.034,1.053-0.103c0.365-0.068,0.709-0.187,1.029-0.355
			c0.32-0.169,0.595-0.398,0.823-0.687c0.228-0.292,0.374-0.665,0.435-1.125c0.346-1.41,0.723-2.953,1.131-4.625
			c0.408-1.671,0.828-3.395,1.263-5.171c0.435-1.775,0.972-3.537,1.612-5.285c0.641-1.749,1.305-3.424,1.992-5.028
			c0.688-1.602,1.38-3.094,2.076-4.476c0.695-1.383,1.373-2.585,2.029-3.607c0.655-1.023,1.269-1.825,1.838-2.405
			c0.568-0.58,1.075-0.871,1.519-0.871c0.537,0,0.968,0.139,1.292,0.413s0.574,0.673,0.748,1.19
			c0.174,0.521,0.284,1.154,0.332,1.903c0.047,0.747,0.07,1.595,0.07,2.541c0,1.375-0.162,2.88-0.484,4.515
			c-0.324,1.633-0.631,3.271-0.916,4.912c-0.287,1.64-0.604,3.286-0.952,4.936c-0.349,1.649-0.653,3.144-0.915,4.484
			c-0.264,1.339-0.486,2.496-0.67,3.47c-0.184,0.973-0.129,1.657,0.166,2.054c0,0.597,0.072,1.1,0.217,1.513
			c0.145,0.411,0.336,0.752,0.571,1.019c0.236,0.267,0.511,0.462,0.823,0.583c0.312,0.123,0.629,0.183,0.949,0.183
			s0.64-0.042,0.959-0.125c0.319-0.085,0.623-0.219,0.909-0.4c0.286-0.184,0.539-0.425,0.759-0.724
			c0.221-0.298,0.383-0.662,0.489-1.088c0.296-1.522,0.562-3.105,0.798-4.754c0.237-1.646,0.577-3.395,1.021-5.24
			s0.851-3.63,1.22-5.354c0.371-1.724,0.82-3.373,1.351-4.947c0.53-1.575,1.094-3.04,1.689-4.395
			c0.595-1.352,1.237-2.524,1.922-3.515c0.685-0.987,1.411-1.765,2.179-2.327s1.583-0.846,2.449-0.846
			c0.43,0,0.775,0.107,1.037,0.321c0.26,0.213,0.461,0.515,0.6,0.905c0.137,0.39,0.229,0.862,0.275,1.42s0.069,1.179,0.069,1.866
			c0,0.924-0.11,2.004-0.329,3.241c-0.219,1.238-0.444,2.499-0.674,3.783c-0.23,1.283-0.461,2.569-0.691,3.861
			c-0.232,1.29-0.459,2.563-0.684,3.815c-0.225,1.252-0.441,2.464-0.651,3.633s-0.345,2.264-0.405,3.288
			c-0.016,0.137-0.027,0.274-0.035,0.414c-0.008,0.135-0.012,0.265-0.012,0.387c0,1.101,0.184,2.073,0.55,2.921
			c0.366,0.847,0.854,1.558,1.464,2.13c0.611,0.573,1.309,1.005,2.096,1.294c0.785,0.291,1.591,0.435,2.414,0.435
			c0.85,0,1.706-0.129,2.568-0.388c0.863-0.26,1.715-0.684,2.555-1.271c0.786-0.551,1.559-1.258,2.318-2.111
			c0.182,0.293,0.375,0.577,0.588,0.844c0.713,0.895,1.605,1.605,2.674,2.134c1.069,0.529,2.317,0.792,3.742,0.792
			c0.917,0,1.822-0.105,2.717-0.319c0.893-0.211,1.754-0.494,2.588-0.848c0.832-0.353,1.625-0.759,2.382-1.215
			c0.398-0.24,0.781-0.482,1.151-0.728c0.149,0.291,0.3,0.58,0.484,0.843c0.481,0.686,1.084,1.235,1.811,1.648
			c0.725,0.413,1.584,0.619,2.576,0.619c0.704,0,1.404-0.116,2.102-0.352c0.697-0.234,1.387-0.547,2.068-0.937
			c0.681-0.389,1.34-0.847,1.976-1.373s1.236-1.083,1.803-1.666c0.376,0.94,0.816,1.694,1.325,2.262
			c0.508,0.568,1.016,1,1.523,1.301c0.509,0.301,0.977,0.499,1.408,0.596c0.43,0.098,0.754,0.146,0.973,0.146
			c0.371,0,0.78-0.067,1.227-0.206c0.447-0.137,0.906-0.316,1.381-0.536c0.473-0.218,0.954-0.469,1.442-0.753
			c0.489-0.283,0.954-0.571,1.397-0.864c0.43-0.284,0.863-0.596,1.299-0.913c0.031,0.196,0.059,0.396,0.105,0.581
			c0.145,0.574,0.385,1.059,0.722,1.455c0.335,0.397,0.774,0.706,1.316,0.928c0.542,0.221,1.21,0.332,2.004,0.332
			c0.886,0,1.821-0.161,2.806-0.481s1.951-0.721,2.898-1.201c0.946-0.481,1.828-1.009,2.645-1.581
			c0.361-0.253,0.688-0.497,0.996-0.737c0.223,0.82,0.467,1.625,0.745,2.406c0.513,1.434,1.138,2.699,1.88,3.799
			c0.738,1.096,1.602,1.97,2.587,2.618c0.984,0.648,2.103,0.973,3.356,0.973c1.18,0,2.269-0.217,3.266-0.651
			c0.996-0.434,1.896-1.021,2.701-1.758c0.807-0.739,1.51-1.599,2.115-2.582c0.606-0.983,1.121-2.021,1.542-3.119
			c0.423-1.096,0.743-2.219,0.966-3.37c0.223-1.149,0.35-2.259,0.381-3.329c0-0.093,0.002-0.259,0.011-0.505
			c0.009-0.244,0.015-0.531,0.022-0.86c0.008-0.329,0.019-0.691,0.035-1.09c0.015-0.396,0.031-0.794,0.045-1.192
			c0.031-0.933,0.068-1.958,0.115-3.073c2.412-0.366,4.515-1,6.305-1.903c1.79-0.9,3.273-1.971,4.448-3.209
			c0.628-0.659,1.165-1.354,1.623-2.081c-0.009,0.035-0.015,0.055-0.015,0.055c0-0.002-0.221,1.25-0.661,3.751
			c-0.44,2.502-0.661,4.502-0.661,6.001c0,1.744,0.148,3.408,0.445,4.993c0.297,1.586,0.707,2.98,1.232,4.184
			c0.523,1.202,1.141,2.159,1.848,2.874c0.708,0.714,1.473,1.07,2.295,1.07c0.533,0,1.107-0.067,1.722-0.206
			c0.612-0.139,1.241-0.323,1.886-0.557c0.645-0.231,1.285-0.497,1.923-0.794c0.527-0.247,1.034-0.498,1.534-0.749
			c0.15,0.208,0.295,0.425,0.469,0.607c0.534,0.562,1.148,0.994,1.843,1.294c0.695,0.3,1.41,0.45,2.143,0.45
			c0.691,0,1.384-0.113,2.077-0.341c0.693-0.227,1.359-0.518,1.998-0.873c0.639-0.354,1.227-0.751,1.766-1.189
			c0.539-0.438,0.993-0.87,1.361-1.292c0.494,1.224,1.078,2.158,1.756,2.799c0.678,0.643,1.522,0.963,2.537,0.963
			c0.84,0,1.68-0.208,2.52-0.625c0.838-0.416,1.623-0.925,2.354-1.524c0.206,0.22,0.448,0.404,0.742,0.538
			c0.335,0.155,0.732,0.232,1.191,0.232c0.426,0,0.932-0.088,1.512-0.265c0.671,0.338,1.289,0.616,1.854,0.836
			c0.565,0.221,1.062,0.399,1.49,0.54c0.426,0.139,0.771,0.237,1.031,0.295c0.258,0.059,0.418,0.088,0.48,0.088
			c0.748,0,1.546-0.089,2.393-0.268c0.849-0.177,1.681-0.42,2.496-0.725c0.818-0.306,1.601-0.658,2.348-1.059
			c0.251-0.135,0.477-0.275,0.706-0.415c0.136,0.182,0.263,0.377,0.416,0.539c0.534,0.562,1.149,0.994,1.843,1.294
			c0.695,0.3,1.41,0.45,2.143,0.45c0.691,0,1.384-0.113,2.077-0.341c0.694-0.227,1.358-0.518,1.997-0.873
			c0.641-0.354,1.229-0.751,1.767-1.189c0.539-0.438,0.993-0.87,1.363-1.292c0.493,1.224,1.077,2.158,1.755,2.799
			c0.676,0.643,1.521,0.963,2.536,0.963c0.841,0,1.681-0.208,2.521-0.625c0.839-0.417,1.625-0.927,2.357-1.528
			c0.733-0.602,1.395-1.235,1.982-1.9c0.588-0.663,1.057-1.242,1.408-1.736L300.234,41.375z M146.274,39.995
			c0.031-0.462,0.174-1.052,0.426-1.769c0.253-0.717,0.475-1.317,0.667-1.802c0.192-0.486,0.444-0.918,0.759-1.299
			c0.313-0.381,0.705-0.69,1.172-0.929c0.467-0.24,1.031-0.359,1.69-0.359c0.368,0,0.679,0.218,0.931,0.649
			c0.253,0.434,0.379,0.985,0.379,1.659c0,0.476-0.268,1.082-0.804,1.814c-0.536,0.731-1.085,1.312-1.644,1.745
			c-0.561,0.434-1.166,0.788-1.816,1.065c-0.652,0.277-1.253,0.414-1.805,0.414C146.229,40.854,146.245,40.459,146.274,39.995z
			 M168.128,44.849c-0.184,0.271-0.387,0.531-0.607,0.782c-0.222,0.25-0.455,0.474-0.699,0.669c-0.244,0.198-0.5,0.357-0.768,0.478
			c-0.268,0.124-0.539,0.183-0.814,0.183c-0.535,0-0.969-0.059-1.305-0.178c-0.337-0.12-0.596-0.276-0.779-0.467
			s-0.309-0.405-0.379-0.645c-0.045-0.158-0.053-0.316-0.068-0.474c0.224-0.224,0.447-0.445,0.666-0.678l-0.611-0.621
			c0.067-0.483,0.168-0.988,0.324-1.532c0.274-0.954,0.676-2.094,1.203-3.417c0.525-1.324,1.182-2.391,1.969-3.199
			c0.785-0.808,1.684-1.458,2.691-1.951c0.014-0.016,0.029,0.138,0.045,0.461c0.016,0.324,0.027,0.739,0.035,1.248
			c0.008,0.507,0.019,1.071,0.035,1.686c0.016,0.616,0.031,1.406,0.047,2.368c0.015,0.962,0.038,1.679,0.068,2.147
			c0.031,0.469,0.07,0.812,0.116,1.028C168.946,43.521,168.556,44.226,168.128,44.849z M174.517,35.022v-0.231
			c0-0.232,0-0.566,0-0.999s0.008-0.939,0.024-1.521c0.017-0.58,0.046-1.222,0.087-1.927c0.041-0.704,0.097-1.435,0.162-2.193
			c0.034-0.371,0.09-0.998,0.17-1.88c0.08-0.881,0.188-1.874,0.32-2.973c0.133-1.098,0.344-2.219,0.632-3.366
			s0.556-2.208,0.801-3.184c0.245-0.978,0.569-1.774,0.974-2.394c0.402-0.618,0.854-0.927,1.351-0.927
			c0.278,0,0.493,0.16,0.64,0.481c0.147,0.321,0.222,0.893,0.222,1.719c0,0.627-0.048,1.474-0.144,2.543
			c-0.078,0.811-0.217,1.667-0.414,2.566c-0.199,0.902-0.441,1.812-0.728,2.732c-0.286,0.919-0.575,1.847-0.866,2.78
			s-0.586,1.832-0.885,2.691C176.147,30.962,175.364,32.989,174.517,35.022z M224.437,25.844c-0.342,0.836-0.868,1.602-1.576,2.298
			c-0.709,0.695-1.604,1.3-2.684,1.811c-1.082,0.51-2.369,0.881-3.862,1.113l0.206-1.833l1.395-5.96c0-0.062,0.004-0.113,0.01-0.152
			c0.008-0.039,0.012-0.111,0.012-0.22c0-0.385-0.08-0.698-0.239-0.944c-0.161-0.246-0.358-0.441-0.597-0.587
			c-0.235-0.145-0.499-0.245-0.789-0.298c-0.289-0.054-0.572-0.08-0.846-0.08c-0.909,0-1.672,0.228-2.287,0.682
			s-1.116,1.032-1.5,1.726c-0.387,0.695-0.678,1.458-0.878,2.292c-0.2,0.834-0.343,1.633-0.427,2.396
			c-0.086,0.764-0.133,1.443-0.139,2.037c-0.008,0.595-0.012,0.992-0.012,1.193c-0.271-0.064-0.575-0.159-0.908-0.287
			c-0.287-0.111-0.635-0.257-1.045-0.44c-0.408-0.183-0.863-0.417-1.362-0.702c-0.196-0.11-0.358-0.198-0.487-0.263
			c-0.129-0.063-0.27-0.095-0.42-0.095c-0.228,0-0.405,0.066-0.535,0.2c-0.127,0.133-0.227,0.306-0.294,0.518
			c-0.068,0.211-0.11,0.454-0.124,0.728c-0.018,0.275-0.023,0.554-0.023,0.835c0,0.511,0.048,0.958,0.147,1.34
			c0.098,0.384,0.328,0.748,0.692,1.092c0.363,0.347,0.904,0.707,1.624,1.083c0.721,0.375,1.707,0.81,2.964,1.304v1.078
			c0,0.704-0.016,1.558-0.045,2.559c-0.031,1-0.1,2.053-0.207,3.153s-0.268,2.198-0.48,3.291c-0.215,1.094-0.504,2.073-0.871,2.936
			c-0.365,0.864-0.824,1.569-1.373,2.111s-1.215,0.815-1.992,0.815c-0.75,0-1.371-0.318-1.868-0.952
			c-0.495-0.633-0.909-1.452-1.237-2.453c-0.327-1-0.576-2.119-0.743-3.359c-0.169-1.237-0.29-2.46-0.367-3.667
			c-0.077-1.207-0.118-2.342-0.126-3.404c-0.009-1.063-0.011-1.907-0.011-2.534c0-1.53,0.109-3.102,0.333-4.719
			c0.222-1.615,0.566-3.184,1.033-4.706c0.465-1.524,1.059-2.96,1.779-4.306c0.719-1.349,1.568-2.527,2.547-3.538
			c0.979-1.01,2.098-1.81,3.354-2.399s2.655-0.884,4.201-0.884c2.061,0,3.77,0.238,5.127,0.714s2.441,1.081,3.248,1.818
			c0.811,0.737,1.379,1.554,1.705,2.451c0.328,0.897,0.492,1.776,0.492,2.635C224.95,24.152,224.78,25.009,224.437,25.844z
			 M233.794,28.485c0.41-2.07,0.615-3.105,0.615-3.105s0.336-1.115,1.012-3.346c0.672-2.23,1.25-3.84,1.734-4.831
			c0.485-0.989,0.971-1.774,1.455-2.354s0.937-0.871,1.355-0.871c0.117,0,0.186,0.158,0.207,0.475
			c0.021,0.314,0.032,0.697,0.032,1.143c-0.14,1.402-0.46,2.914-0.966,4.538c-0.504,1.626-1.102,3.254-1.792,4.887
			c-0.688,1.632-1.421,3.219-2.192,4.759c-0.775,1.539-1.507,2.925-2.196,4.155C233.138,32.371,233.382,30.554,233.794,28.485z
			 M250.407,41.237c-0.062,0.492-0.195,1.106-0.402,1.845s-0.479,1.453-0.814,2.145c-0.337,0.693-0.734,1.283-1.193,1.775
			c-0.459,0.493-0.971,0.739-1.537,0.739c-0.352,0-0.643-0.09-0.871-0.273c-0.229-0.18-0.414-0.417-0.551-0.707
			c-0.139-0.293-0.233-0.623-0.287-0.993c-0.053-0.37-0.08-0.752-0.08-1.146c0-0.666,0.088-1.378,0.264-2.135
			s0.477-1.634,0.904-2.634c0.428-0.998,0.863-1.839,1.305-2.521c0.444-0.681,0.93-1.286,1.455-1.815
			c0.527-0.531,1.088-0.95,1.684-1.261c0.596-0.31,1.205-0.465,1.832-0.465L250.407,41.237z M287.419,41.237
			c-0.061,0.492-0.195,1.106-0.401,1.845s-0.478,1.453-0.815,2.145c-0.336,0.693-0.733,1.283-1.191,1.775
			c-0.459,0.493-0.971,0.739-1.537,0.739c-0.354,0-0.643-0.09-0.872-0.273c-0.229-0.18-0.413-0.417-0.55-0.707
			c-0.139-0.293-0.234-0.623-0.288-0.993s-0.079-0.752-0.079-1.146c0-0.666,0.088-1.378,0.263-2.135s0.478-1.634,0.905-2.634
			c0.426-0.998,0.862-1.839,1.305-2.521c0.443-0.681,0.929-1.286,1.455-1.815c0.526-0.531,1.088-0.95,1.683-1.261
			c0.597-0.31,1.206-0.465,1.833-0.465L287.419,41.237z"/>
	</g>
	<g>
		<path fill="#FFFFFF" d="M75.488,32.79c0.032-3.715-2.358-6.954-5.569-8.601c0.924-2.857,1.6-5.835,1.644-8.85
			c0.042-2.891-0.684-5.916-2.86-7.95c-2.346-2.194-5.678-2.973-8.795-3.092C56.492,4.168,53.06,4.83,49.746,5.599
			c-0.399,0.093-0.796,0.188-1.194,0.287c-4.585-6.676-15.439-6.563-20.291-0.249C24.776,4.9,21.189,4.439,17.628,4.655
			c-1.754,0.105-3.516,0.396-5.168,1.007c-1.34,0.493-2.835,1.255-3.789,2.355C8.663,8.025,8.657,8.038,8.647,8.048
			C8.605,8.08,8.532,8.137,8.464,8.188C8.419,8.213,8.373,8.244,8.332,8.279c-0.017,0.013-0.03,0.027-0.046,0.039
			c0.039-0.062,0.019-0.031-0.016,0.015c-4.576,3.862-3.53,10.996-2.062,16.16c-3.207,1.811-5.518,5.014-5.543,8.796
			c-0.01,1.782,0.576,3.546,1.543,5.034c0.986,1.519,2.32,2.631,3.906,3.423c-0.943,2.9-1.666,5.915-1.712,8.971
			c-0.043,2.886,0.73,5.995,3.04,7.906c2.229,1.844,5.248,2.419,8.057,2.621c3.316,0.236,6.682-0.149,9.938-0.767
			c0.688-0.132,1.373-0.28,2.056-0.442c4.599,6.689,15.512,6.725,20.417,0.361c3.218,0.685,6.506,1.162,9.799,1.097
			c3.06-0.059,6.329-0.651,8.786-2.592c0.936-0.738,1.814-1.504,2.541-2.454c0.892-1.168,1.43-2.605,1.73-4.035
			c0.664-3.136,0.207-6.449-0.543-9.528c-0.102-0.419-0.214-0.837-0.332-1.254C73.116,39.803,75.454,36.593,75.488,32.79z
			 M68.563,40.562c-0.305,0.151-0.455,0.565-0.359,0.885c0.879,2.953,1.481,6.031,1.25,9.124c-0.105,1.404-0.459,2.809-1.117,4.057
			c-0.615,1.166-1.539,1.994-2.535,2.823c-2.2,1.836-5.096,2.368-7.887,2.466c-3.403,0.122-6.812-0.422-10.125-1.149
			c-0.366-0.081-0.675,0.057-0.887,0.362c-4.162,6.038-14.531,5.914-18.379-0.382c-0.188-0.308-0.537-0.446-0.887-0.36
			c-3.143,0.776-6.355,1.271-9.596,1.342c-2.906,0.066-6.072-0.181-8.645-1.652c-2.522-1.44-3.374-4.235-3.424-6.986
			c-0.062-3.25,0.828-6.495,1.859-9.547c0.102-0.303-0.058-0.754-0.361-0.887c-1.55-0.677-2.816-1.578-3.805-2.976
			c-0.879-1.237-1.373-2.706-1.43-4.221c-0.123-3.508,2.3-6.395,5.299-7.898c0.306-0.153,0.457-0.564,0.361-0.884
			C6.528,20.094,5.135,13.319,9.161,9.634c0.004-0.004,0.01-0.004,0.015-0.009c0.216-0.144,0.415-0.326,0.612-0.493
			C9.864,9.07,9.923,8.999,9.964,8.928c0.822-0.841,2.006-1.419,3.08-1.816c1.531-0.56,3.161-0.803,4.783-0.899
			c3.537-0.215,7.104,0.295,10.553,1.052c0.367,0.08,0.676-0.057,0.887-0.361c4.112-5.98,14.416-6.024,18.256,0.274
			c0.186,0.307,0.538,0.446,0.885,0.359c3.184-0.791,6.406-1.506,9.693-1.657c3.059-0.143,6.199,0.283,8.773,2.051
			c2.387,1.636,3.102,4.477,3.12,7.224c0.021,3.144-0.796,6.279-1.791,9.237c-0.103,0.304,0.056,0.751,0.36,0.885
			c2.988,1.321,5.243,3.979,5.355,7.34C74.033,36.147,71.579,39.043,68.563,40.562z"/>
		<g>
			<path fill="#09A0AE" d="M16.604,50.419c0.003-0.006,0.234,0.186,0.234,0.186s-7.247-4.542,11.866-10.464
				c-0.043,0.103-0.213,0.082-0.292,0.15l2.421-2.076c-0.004,0.001,0.152,0.226,0.089,0.169c-3.694-3.168-4.255-7.252,0.276-11.151
				l-2.043-1.754c-0.693,0.703,0.11,0.112,0.145,0.194c-19.112-5.924-12.055-10.3-12.055-10.3s-0.697,0.591,0.053-0.062
				l-5.258-4.506c-0.762,0.641-0.209,0.141-0.329,0.244c-3.839,3.29-3.068,9.458-1.56,14.473c-0.773,0.378-1.49,0.836-2.153,1.402
				c-3.946,3.385-3.977,8.828-0.081,12.169c0.758,0.647,1.271,0.876,2.176,1.27C8.347,45.51,7.063,52.109,10.82,55.378
				L16.604,50.419z M14.969,26.791c0,0-1.083-5.803,13.339,0.001C13.888,32.595,14.969,26.791,14.969,26.791z M15.261,39.287
				c0,0-1.082-5.81,13.342-0.004C14.179,45.087,15.261,39.287,15.261,39.287z"/>
			<path fill="#F5971E" d="M10.82,55.378c3.81,3.22,12.017,2.553,18.017,1.056c0.463,0.777,1.115,1.545,1.869,2.193
				c3.896,3.339,10.314,3.362,14.258-0.02c0.662-0.569,1.242-1.165,1.684-1.83c5.843,1.296,13.029,1.989,16.867-1.301
				c0.119-0.103-0.447,0.385,0.303-0.271l-5.259-4.508c-0.76,0.646-0.047,0.027-0.047,0.027s-5.148,6.088-12.056-10.3
				c0.094,0.027-0.574,0.699,0.248,0.106l-2.047-1.755c-4.545,3.888-9.82,2.968-13.514-0.201c-0.064-0.054-0.314-0.358-0.311-0.359
				l-2.421,2.076c0.079-0.068,0.438,0.113,0.558,0.079c-6.904,16.39-12.203,10.171-12.203,10.171s-0.16-0.127-0.163-0.122
				L10.82,55.378z M45.171,41.254c6.771,12.367,0.004,11.44,0.004,11.44S38.405,53.622,45.171,41.254z M30.608,41.003
				c6.768,12.368-0.002,11.44-0.002,11.44S23.839,53.372,30.608,41.003z"/>
			<path fill="#B61E53" d="M59.312,15.088c-0.004,0.003-0.107-0.074-0.107-0.074s7.182,4.485-11.931,10.405
				c0.044-0.102,0.148-0.133,0.229-0.204l-2.423,2.077c0.003-0.003-0.185,0.021-0.124,0.078c3.695,3.168,3.471,8.148-0.307,11.398
				l2.045,1.755c-0.062-0.057,0.051-0.25,0.015-0.329c19.112,5.921,11.976,10.367,11.976,10.367s-0.138,0.126-0.133,0.13
				l5.256,4.508c0.01,0.006,0.373-0.28,0.491-0.382c3.839-3.292,3.147-9.526,1.641-14.542c0.772-0.376,1.53-0.869,2.189-1.437
				c3.945-3.385,3.999-8.847,0.104-12.186c-0.756-0.649-1.39-0.997-2.295-1.392c1.744-5.147,2.912-11.864-0.846-15.133
				L59.312,15.088z M61.202,38.937c0,0,1.082,5.805-13.34,0C62.284,33.133,61.202,38.937,61.202,38.937z M60.911,26.444
				c0,0,1.082,5.808-13.344,0.001C61.993,20.641,60.911,26.444,60.911,26.444z"/>
			<path fill="#7FA55E" d="M65.093,10.129c-4.566-3.871-11.889-2.442-17.888-0.946c-0.462-0.778-1.05-1.487-1.806-2.137
				c-3.896-3.341-10.281-3.335-14.225,0.048c-0.664,0.568-1.225,1.18-1.667,1.841c-5.845-1.293-13.183-1.845-17.021,1.448
				c-0.118,0.104-0.461,0.408-0.453,0.416l5.258,4.509c0.003,0.003,0.207-0.165,0.207-0.165s5.07-6.021,11.977,10.369
				c-0.095-0.027-0.264,0.018-0.327-0.036l2.046,1.754c3.787-3.241,9.848-3.218,13.542-0.046c0.062,0.051,0.347,0.107,0.344,0.11
				l2.423-2.077c-0.081,0.071-0.311-0.004-0.43,0.032c6.905-16.39,12.138-10.227,12.138-10.227s0.097,0.071,0.101,0.067
				L65.093,10.129z M30.999,24.475c-6.77-12.37-0.002-11.442-0.002-11.442S37.767,12.107,30.999,24.475z M45.563,24.726
				c-6.769-12.37,0.002-11.443,0.002-11.443S52.33,12.356,45.563,24.726z"/>
		</g>
	</g>
</g>
<g id="Layer_3">
</g>
</svg>
