<?xml version="1.0" encoding="utf-8"?>
<!-- Generator: Adobe Illustrator 16.0.0, SVG Export Plug-In . SVG Version: 6.00 Build 0)  -->
<!DOCTYPE svg PUBLIC "-//W3C//DTD SVG 1.1//EN" "http://www.w3.org/Graphics/SVG/1.1/DTD/svg11.dtd">
<svg version="1.1" xmlns="http://www.w3.org/2000/svg" xmlns:xlink="http://www.w3.org/1999/xlink" x="0px" y="0px" width="325px"
	 height="385px" viewBox="0 0 325 385" enable-background="new 0 0 325 385" xml:space="preserve">
<g id="guides">
</g>
<g id="Layer_2">
	<g>
		<g>
			<path fill="#FFFFFF" d="M159.427,306.971c1.021,0,1.898-0.157,2.632-0.471c0.731-0.314,1.338-0.724,1.819-1.23
				c0.481-0.505,0.832-1.083,1.053-1.731c0.221-0.647,0.331-1.315,0.331-2.004c0-0.749-0.136-1.396-0.406-1.943
				c-0.271-0.547-0.637-0.987-1.098-1.321c-0.462-0.333-1.003-0.582-1.624-0.744c-0.622-0.162-1.284-0.243-1.986-0.243
				c-1.123,0-2.061,0.177-2.812,0.532c-0.752,0.354-1.354,0.79-1.805,1.306c-0.451,0.516-0.777,1.067-0.978,1.654
				c-0.201,0.587-0.301,1.113-0.301,1.579c0,1.397,0.421,2.515,1.264,3.355C156.357,306.551,157.661,306.971,159.427,306.971z"/>
			<path fill="#FFFFFF" d="M300.208,326.257c-1.003,1.352-1.996,2.564-2.978,3.638c-0.421,0.457-0.868,0.899-1.339,1.327
				c-0.472,0.428-0.943,0.811-1.414,1.148c-0.471,0.337-0.938,0.611-1.398,0.82c-0.462,0.208-0.902,0.313-1.324,0.313
				c-0.562,0-0.928-0.259-1.098-0.777c-0.171-0.518-0.256-1.236-0.256-2.156c0-1.075,0.166-2.397,0.496-3.967
				c0.331-1.569,0.627-2.967,0.886-4.193s0.488-2.424,0.688-3.592c0.201-1.168,0.301-2.231,0.301-3.19
				c0-0.627-0.055-1.125-0.165-1.489c-0.11-0.365-0.267-0.648-0.467-0.851c-0.202-0.203-0.434-0.334-0.695-0.396
				c-0.263-0.061-0.545-0.091-0.848-0.091c-0.222,0-0.449,0.005-0.682,0.016c-0.231,0.01-0.458,0.015-0.68,0.015
				c-0.263,0-0.521-0.015-0.772-0.045c-0.252-0.03-0.5-0.096-0.741-0.197c-0.242-0.102-0.444-0.264-0.605-0.487
				c-0.161-0.223-0.327-0.451-0.499-0.684c-0.172-0.233-0.388-0.441-0.65-0.624c-0.263-0.182-0.625-0.273-1.09-0.273
				c-1.392,0-2.759,0.295-4.1,0.884c-1.342,0.589-2.618,1.384-3.828,2.383c-1.211,1-2.325,2.168-3.344,3.507
				c-1.02,1.339-1.973,2.928-2.859,4.767c-0.889,1.838-1.545,3.547-1.968,5.125c-0.396,1.473-0.599,2.909-0.625,4.311
				c-0.303,0.252-0.609,0.511-0.928,0.783c-0.512,0.437-1.063,0.848-1.655,1.234c-0.592,0.387-1.232,0.707-1.925,0.96
				c-0.692,0.254-1.459,0.381-2.301,0.381c-0.382,0-0.827-0.071-1.339-0.214c-0.512-0.141-0.998-0.299-1.459-0.472
				c-0.462-0.173-0.862-0.331-1.203-0.473c-0.342-0.142-0.522-0.213-0.542-0.213l0.15-0.609c0.181-0.244,0.537-0.706,1.068-1.387
				c0.53-0.681,1.152-1.483,1.865-2.408c0.711-0.925,1.514-2.017,2.406-3.277s1.704-2.388,2.437-3.384s1.379-1.9,1.94-2.714
				c0.562-0.812,0.962-1.442,1.203-1.89c0.843-0.224,1.444-0.463,1.805-0.718c0.361-0.254,0.562-0.463,0.602-0.627
				c0.12-0.489,0.181-1.08,0.181-1.773c0-0.857-0.155-1.536-0.466-2.037c-0.312-0.5-0.817-0.75-1.52-0.75
				c-0.06,0-0.141,0.016-0.241,0.046c-0.1,0.03-0.275,0.066-0.525,0.106c-0.251,0.041-0.617,0.284-1.099,0.314
				c-0.481,0.032-1.123,0.254-1.925,0.254c-0.281,0-0.587,0-0.918,0c-0.33,0-0.697-0.218-1.098-0.239
				c-0.521-0.02-1.028-0.251-1.52-0.486c-0.491-0.234-0.973-0.546-1.443-0.832c-0.472-0.287-0.947-0.573-1.43-0.808
				c-0.48-0.234-0.962-0.365-1.443-0.365c-0.642,0-1.339,0.099-2.091,0.31s-1.474,0.609-2.166,1.2
				c-0.691,0.592-1.318,1.428-1.88,2.511s-0.993,2.496-1.294,4.24c-0.04,0.241-0.069,0.477-0.09,0.707s-0.03,0.446-0.03,0.646
				c0,0.481,0.064,0.868,0.195,1.158c0.131,0.291,0.356,0.436,0.677,0.436c0.341,0,0.723-0.22,1.144-0.659s0.942-1.128,1.564-2.065
				c0.28-0.429,0.536-0.761,0.767-0.996c0.23-0.234,0.491-0.41,0.782-0.527s0.646-0.185,1.068-0.205
				c0.421-0.02,0.952-0.029,1.594-0.029c0.261,0,0.501,0.03,0.723,0.091c0.221,0.061,0.436,0.147,0.646,0.259
				c0.21,0.112,0.446,0.239,0.707,0.381c0.261,0.143,0.571,0.295,0.933,0.457l-7.271,10.053c-0.58,0.721-1.156,1.399-1.729,2.025
				c-0.421,0.458-0.867,0.9-1.338,1.327c-0.472,0.428-0.943,0.811-1.414,1.148c-0.472,0.338-0.938,0.611-1.399,0.82
				c-0.461,0.209-0.902,0.313-1.323,0.313c-0.562,0-0.928-0.26-1.098-0.777c-0.171-0.518-0.256-1.236-0.256-2.156
				c0-1.075,0.166-2.397,0.496-3.967c0.331-1.569,0.626-2.967,0.885-4.193c0.259-1.227,0.488-2.424,0.689-3.592
				c0.2-1.169,0.301-2.231,0.301-3.191c0-0.627-0.056-1.125-0.165-1.489c-0.111-0.365-0.267-0.648-0.467-0.851
				c-0.202-0.202-0.434-0.334-0.695-0.396c-0.263-0.061-0.546-0.091-0.848-0.091c-0.222,0-0.449,0.005-0.682,0.015
				c-0.231,0.011-0.459,0.015-0.68,0.015c-0.264,0-0.521-0.015-0.772-0.045s-0.5-0.096-0.741-0.198
				c-0.242-0.102-0.444-0.264-0.605-0.486c-0.162-0.223-0.328-0.451-0.499-0.684c-0.172-0.233-0.389-0.441-0.65-0.624
				c-0.263-0.183-0.626-0.273-1.09-0.273c-1.392,0-2.759,0.295-4.101,0.884c-1.341,0.589-2.617,1.384-3.828,2.383
				c-1.21,1-2.325,2.168-3.344,3.507c-1.019,1.339-1.972,2.928-2.859,4.767s-1.544,3.547-1.967,5.125
				c-0.344,1.281-0.542,2.535-0.605,3.764c-0.303,0.188-0.595,0.38-0.909,0.567c-0.595,0.354-1.175,0.667-1.739,0.94
				c-0.565,0.273-1.099,0.491-1.602,0.653c-0.504,0.162-0.95,0.243-1.34,0.243c-0.162,0-0.333-0.116-0.514-0.35
				c-0.181-0.231-0.352-0.545-0.513-0.94c-0.161-0.394-0.465-0.839-0.576-1.334c-0.109-0.496-0.334-1.005-0.334-1.532v-0.425
				c0-0.404,0.309-0.819,0.41-1.244c0.1-0.424,0.286-0.824,0.386-1.198c0.102-0.374,0.248-0.723,0.359-1.047
				c0.109-0.323,0.236-0.586,0.337-0.789c0.926-1.82,1.947-3.683,3.042-5.589c1.095-1.905,2.189-3.841,3.273-5.808
				s2.129-3.947,3.13-5.944c1.001-1.997,1.883-3.988,2.645-5.975c0.762-1.986,1.366-3.962,1.813-5.928
				c0.449-1.966,0.675-3.897,0.675-5.793c0-0.764-0.071-1.513-0.212-2.25c-0.14-0.735-0.383-1.395-0.729-1.977
				c-0.346-0.581-0.821-1.049-1.426-1.403c-0.604-0.355-1.371-0.532-2.3-0.532c-1.275,0-2.532,0.366-3.768,1.097
				c-1.235,0.731-2.421,1.738-3.555,3.017c-1.135,1.28-2.218,2.782-3.251,4.504c-1.033,1.722-1.99,3.574-2.871,5.557
				c-0.486,1.093-0.971,2.39-1.455,3.878c-0.055-1.946-0.477-3.832-1.276-5.656c-0.857-1.96-2.134-3.695-3.829-5.205
				c-1.695-1.51-3.82-2.72-6.374-3.63c-2.553-0.91-5.525-1.365-8.916-1.365c-2.572,0-4.997,0.416-7.278,1.248
				s-4.391,2.008-6.33,3.531c-1.938,1.523-3.682,3.346-5.228,5.471c-1.548,2.124-2.863,4.474-3.949,7.048
				c-1.084,2.575-1.918,5.335-2.501,8.281s-0.874,6.001-0.874,9.167c0,1.843,0.096,3.807,0.286,5.89
				c0.117,1.276,0.281,2.545,0.485,3.81c-0.803,0.703-1.619,1.387-2.456,2.046c-0.902,0.712-1.795,1.319-2.678,1.82
				c-0.882,0.501-1.684,0.752-2.406,0.752c-0.621,0-1.032-0.265-1.232-0.797c-0.201-0.531-0.301-1.248-0.301-2.15
				c0-0.922,0.144-1.947,0.433-3.075c0.288-1.128,0.526-2.263,0.716-3.406c0.189-1.143,0.543-2.524,1.06-4.144
				s0.907-2.945,1.171-3.975c0.263-1.03,0.498-1.949,0.703-2.754c0.206-0.806,0.309-1.429,0.309-1.871
				c0-0.521-0.147-0.937-0.442-1.248c-0.296-0.311-0.857-0.466-1.685-0.466c-0.453,0-0.961,0.056-1.521,0.167
				c-0.562,0.112-1.104,0.284-1.627,0.517c-0.521,0.233-0.989,0.533-1.402,0.897c-0.454,0.406-0.73,0.862-0.828,1.369
				c-0.179,0.723-0.649,2.282-1.41,4.677c-0.82,2.938-1.367,4.836-1.641,5.692c-0.146,0.383-0.456,1.974-0.93,4.768
				c-0.794,0.651-1.567,1.255-2.314,1.803c-0.481,0.344-0.979,0.683-1.49,1.017c-0.511,0.334-1.018,0.632-1.519,0.895
				c-0.501,0.263-0.978,0.47-1.429,0.622c-0.451,0.152-0.868,0.228-1.248,0.228c-0.392,0-0.719-0.121-0.982-0.365
				s-0.474-0.573-0.629-0.988c-0.157-0.416-0.27-0.887-0.337-1.415c-0.069-0.527-0.103-1.084-0.103-1.673
				c0-0.466,0.03-0.947,0.094-1.444c0.062-0.498,0.14-0.984,0.234-1.46c0.094-0.477,0.193-0.917,0.297-1.324
				c0.104-0.405,0.208-0.75,0.312-1.034c0.479-1.297,1.596-3.761,3.347-7.391c1.147-2.373,2.126-4.771,2.938-7.194
				s1.634-4.875,2.464-7.355c0.832-2.48,1.276-5.16,1.333-8.04c0.014-0.755,0.02-1.491,0.02-2.206c0-1.145-0.09-2.254-0.271-3.33
				c-0.181-1.074-0.477-2.019-0.888-2.833c-0.41-0.814-0.947-1.466-1.609-1.958c-0.661-0.493-1.464-0.739-2.406-0.739
				c-1.291,0-2.541,0.396-3.752,1.188c-1.21,0.792-2.35,1.89-3.419,3.294c-1.068,1.404-2.052,3.068-2.949,4.993
				c-0.898,1.925-1.631,4.031-2.199,6.318c-0.567,2.287-1.099,4.422-1.591,6.408c-0.493,1.986-0.77,4.281-0.83,6.886
				c-1.524,0.143-2.958,0.499-4.301,1.069c-1.344,0.569-2.652,1.414-3.926,2.534s-2.297,2.362-3.068,3.726
				c-0.772,1.364-1.475,2.672-2.105,3.923c-0.633,1.252-1.114,2.544-1.444,3.877c-0.171,0.69-0.297,1.377-0.379,2.059
				c-1.109,0.819-2.284,1.578-3.529,2.273c-1.263,0.706-2.562,1.294-3.896,1.765c-1.334,0.471-2.603,0.706-3.806,0.706
				c-0.383,0-0.74-0.039-1.071-0.117c-0.333-0.079-0.649-0.216-0.951-0.412c-0.303-0.196-0.6-0.47-0.891-0.823
				c-0.292-0.353-0.59-0.794-0.891-1.324c1.748-0.47,3.371-1.127,4.868-1.971c1.497-0.843,2.788-1.804,3.873-2.882
				c1.086-1.078,2.035-2.373,2.849-3.883c0.814-1.51,1.222-2.873,1.222-4.089c0-1.141-0.201-2.172-0.603-3.094
				c-0.4-0.921-0.959-1.707-1.672-2.358c-0.713-0.651-1.551-1.157-2.514-1.517c-0.964-0.36-2.008-0.541-3.132-0.541
				c-1.377,0-2.628,0.242-3.756,0.728c-1.127,0.485-2.144,1.138-3.052,1.959c-0.907,0.821-1.7,1.771-2.379,2.851
				c-0.678,1.079-1.241,2.211-1.689,3.399c-0.449,1.188-0.883,2.548-1.302,4.082c-0.419,1.534-0.628,2.855-0.628,3.963
				c0,0.461,0.021,0.917,0.055,1.367c-0.064,0.079-0.128,0.164-0.191,0.241c-0.462,0.562-0.943,1.108-1.444,1.639
				c-0.501,0.532-1.008,1.003-1.52,1.415c-0.511,0.411-1.022,0.742-1.534,0.992c-0.511,0.251-0.998,0.376-1.459,0.376
				c-0.816,0-1.439-0.196-1.868-0.59c-0.429-0.393-0.642-1.027-0.642-1.903c0-0.697,0.119-1.725,0.356-3.084
				c0.238-1.358,0.501-2.845,0.792-4.46c0.29-1.616,0.597-3.325,0.921-5.127c0.323-1.802,0.652-3.636,0.987-5.5
				s0.671-3.739,1.009-5.625s0.507-3.69,0.507-5.415c0-1.845-0.169-3.595-0.508-5.25c-0.338-1.654-0.826-3.098-1.463-4.332
				s-1.428-2.211-2.373-2.933c-0.945-0.723-2.024-1.083-3.238-1.083c-1.762,0-3.463,0.442-5.104,1.324s-3.173,2.15-4.593,3.805
				c-1.422,1.654-2.703,3.665-3.844,6.031c-1.142,2.367-2.103,5.034-2.883,8.002l-0.632,0.03c0.181-1.404,0.351-2.708,0.512-3.911
				c0.06-0.501,0.125-1.007,0.195-1.52c0.07-0.511,0.131-0.987,0.181-1.429c0.05-0.44,0.09-0.832,0.12-1.173
				c0.03-0.341,0.045-0.592,0.045-0.752c0-1.765-0.155-3.289-0.466-4.572c-0.312-1.284-0.747-2.347-1.309-3.189
				c-0.561-0.842-1.232-1.464-2.015-1.865c-0.782-0.401-1.634-0.602-2.557-0.602c-1.259,0-2.528,0.341-3.807,1.022
				c-1.279,0.682-2.543,1.645-3.792,2.888c-1.249,1.244-2.462,2.733-3.64,4.468c-1.178,1.734-2.289,3.669-3.335,5.805
				c-1.045,2.136-2.01,4.432-2.894,6.889c-0.883,2.457-1.648,5.019-2.299,7.686c0.353-1.428,0.716-2.965,1.092-4.611
				s0.685-3.306,0.926-4.979c0.242-1.672,0.472-3.265,0.692-4.777c0.219-1.512,0.329-2.83,0.329-3.953
				c0-1.464-0.096-2.798-0.285-4.001c-0.191-1.203-0.526-2.231-1.009-3.083c-0.48-0.852-1.133-1.514-1.955-1.985
				c-0.822-0.472-1.855-0.708-3.099-0.708c-0.962,0-1.97,0.201-3.022,0.602s-2.086,1.078-3.099,2.03
				c-1.014,0.953-1.976,2.226-2.888,3.82s-1.729,3.575-2.451,5.941c-0.08,0.081-0.121,0.181-0.121,0.301
				c0,0.221,0.028,0.467,0.086,0.738c0.058,0.271,0.129,0.526,0.213,0.767c0.087,0.241,0.182,0.447,0.287,0.617
				c0.104,0.171,0.204,0.256,0.299,0.256c0.305,0,0.58-0.065,0.828-0.196c0.248-0.13,0.428-0.346,0.542-0.646
				c0.609-0.862,1.276-1.669,1.999-2.422c0.723-0.752,1.445-1.409,2.169-1.97s1.413-1.007,2.069-1.339
				c0.657-0.33,1.214-0.496,1.671-0.496c0.285,0,0.499,0.091,0.643,0.271c0.142,0.181,0.229,0.396,0.285,0.647
				s0.072,0.518,0.072,0.802c0,0.284,0,0.517,0,0.699c0,2.11,0.084,4.088,0.117,5.935c0.031,1.847-0.044,3.622-0.239,5.326
				c-0.195,1.704-0.389,3.409-0.584,5.114s-0.58,3.439-1.157,5.207c-0.577,1.766-1.085,3.657-1.524,5.673
				c-0.44,2.015-0.917,4.198-1.429,6.546c-0.16,0.702-0.281,1.398-0.361,2.091c-0.08,0.692-0.119,1.449-0.119,2.271
				c0,0.421,0.109,0.797,0.33,1.128c0.222,0.331,0.52,0.612,0.902,0.842c0.379,0.231,0.815,0.401,1.307,0.512
				s0.996,0.166,1.517,0.166c0.441,0,0.901-0.045,1.383-0.136c0.48-0.089,0.931-0.246,1.352-0.466
				c0.42-0.222,0.781-0.522,1.081-0.903c0.301-0.381,0.491-0.873,0.571-1.476c0.453-1.854,0.948-3.878,1.484-6.075
				c0.536-2.195,1.089-4.459,1.659-6.792c0.57-2.333,1.276-4.646,2.117-6.942c0.842-2.295,1.714-4.497,2.617-6.603
				c0.904-2.105,1.812-4.065,2.727-5.88c0.914-1.814,1.802-3.394,2.664-4.737c0.862-1.343,1.667-2.396,2.415-3.158
				c0.748-0.762,1.412-1.144,1.994-1.144c0.706,0,1.272,0.181,1.698,0.542s0.753,0.883,0.981,1.564s0.374,1.515,0.437,2.497
				c0.062,0.983,0.094,2.096,0.094,3.339c0,1.805-0.214,3.781-0.639,5.927c-0.427,2.146-0.827,4.298-1.203,6.452
				c-0.375,2.155-0.792,4.315-1.25,6.482s-0.858,4.129-1.202,5.889c-0.345,1.76-0.638,3.279-0.88,4.557
				c-0.241,1.279-0.169,2.178,0.218,2.7c0,0.782,0.096,1.443,0.286,1.985c0.189,0.542,0.44,0.988,0.75,1.338
				c0.311,0.352,0.671,0.607,1.081,0.768c0.411,0.161,0.826,0.241,1.247,0.241c0.42,0,0.84-0.055,1.259-0.166
				c0.42-0.111,0.817-0.287,1.193-0.527c0.376-0.24,0.709-0.557,0.998-0.948c0.288-0.391,0.502-0.868,0.643-1.431
				c0.388-1.998,0.738-4.078,1.049-6.242s0.757-4.458,1.339-6.883c0.583-2.424,1.116-4.768,1.603-7.032
				c0.485-2.264,1.077-4.43,1.773-6.499c0.697-2.068,1.437-3.992,2.219-5.771s1.623-3.317,2.524-4.616
				c0.9-1.299,1.853-2.318,2.861-3.058c1.007-0.739,2.078-1.109,3.216-1.109c0.564,0,1.019,0.141,1.362,0.421
				c0.343,0.281,0.605,0.677,0.787,1.188c0.181,0.511,0.302,1.133,0.363,1.865c0.061,0.732,0.091,1.549,0.091,2.451
				c0,1.212-0.145,2.631-0.433,4.257c-0.289,1.626-0.584,3.282-0.886,4.967c-0.301,1.686-0.604,3.376-0.908,5.072
				c-0.303,1.696-0.603,3.366-0.896,5.012c-0.296,1.646-0.581,3.236-0.856,4.771c-0.275,1.535-0.453,2.975-0.532,4.318
				c-0.021,0.181-0.036,0.361-0.046,0.542c-0.011,0.181-0.015,0.351-0.015,0.511c0,1.444,0.24,2.723,0.722,3.835
				c0.48,1.114,1.122,2.046,1.924,2.798s1.718,1.319,2.75,1.7c1.032,0.381,2.09,0.572,3.172,0.572c1.116,0,2.24-0.17,3.374-0.511
				c1.133-0.341,2.25-0.897,3.354-1.67c1.033-0.723,2.048-1.652,3.047-2.772c0.238,0.385,0.49,0.759,0.771,1.11
				c0.936,1.174,2.106,2.108,3.511,2.801c1.404,0.694,3.043,1.042,4.916,1.042c1.204,0,2.394-0.139,3.566-0.418
				c1.173-0.279,2.306-0.65,3.399-1.115c1.092-0.464,2.136-0.996,3.129-1.595c0.862-0.521,1.667-1.051,2.432-1.588
				c0.262,0.62,0.574,1.204,0.948,1.738c0.632,0.901,1.425,1.623,2.377,2.165c0.952,0.543,2.081,0.813,3.385,0.813
				c0.925,0,1.845-0.155,2.761-0.463c0.915-0.308,1.82-0.718,2.715-1.229c0.896-0.511,1.761-1.112,2.595-1.804
				c0.835-0.692,1.624-1.421,2.369-2.188c0.492,1.235,1.072,2.226,1.739,2.971c0.668,0.746,1.335,1.315,2.002,1.709
				s1.283,0.655,1.848,0.783c0.564,0.127,0.991,0.191,1.279,0.191c0.487,0,1.024-0.089,1.611-0.271
				c0.586-0.181,1.19-0.415,1.812-0.703c0.621-0.287,1.253-0.617,1.895-0.99s1.253-0.751,1.836-1.134
				c0.561-0.372,1.126-0.77,1.694-1.183c0.041,0.256,0.089,0.507,0.149,0.747c0.191,0.752,0.506,1.389,0.948,1.91
				c0.44,0.522,1.018,0.928,1.729,1.219c0.712,0.291,1.589,0.436,2.632,0.436c1.163,0,2.392-0.21,3.686-0.632
				c1.294-0.421,2.562-0.947,3.806-1.579c1.242-0.631,2.4-1.323,3.474-2.075c0.471-0.33,0.901-0.649,1.304-0.961
				c0.291,1.075,0.617,2.128,0.982,3.153c0.672,1.883,1.494,3.546,2.467,4.988c0.973,1.441,2.105,2.589,3.399,3.44
				c1.293,0.851,2.763,1.277,4.407,1.277c1.551,0,2.98-0.285,4.289-0.855c1.31-0.57,2.492-1.34,3.55-2.31
				c1.058-0.97,1.983-2.101,2.779-3.39c0.794-1.291,1.47-2.656,2.023-4.096c0.554-1.44,0.977-2.915,1.269-4.425
				s0.458-2.968,0.499-4.374c0-0.12,0.005-0.341,0.015-0.663c0.011-0.322,0.02-0.698,0.03-1.13c0.01-0.432,0.025-0.909,0.045-1.431
				c0.021-0.522,0.04-1.044,0.061-1.566c0.04-1.225,0.09-2.57,0.15-4.037c3.169-0.481,5.929-1.314,8.28-2.499
				c2.351-1.184,4.299-2.589,5.844-4.215c0.817-0.862,1.523-1.766,2.124-2.712c-0.008,0.031-0.014,0.05-0.014,0.05
				s-0.289,1.642-0.867,4.928c-0.579,3.286-0.867,5.913-0.867,7.881c0,2.29,0.193,4.476,0.584,6.558
				c0.39,2.083,0.929,3.914,1.618,5.493c0.688,1.58,1.498,2.838,2.428,3.775c0.929,0.938,1.933,1.407,3.012,1.407
				c0.702,0,1.455-0.09,2.262-0.272c0.805-0.181,1.631-0.424,2.478-0.729c0.847-0.305,1.688-0.652,2.524-1.044
				c0.684-0.319,1.345-0.643,1.994-0.969c0.199,0.276,0.408,0.542,0.638,0.783c0.702,0.738,1.509,1.305,2.422,1.699
				c0.912,0.395,1.85,0.592,2.812,0.592c0.909,0,1.818-0.148,2.729-0.446c0.909-0.298,1.783-0.68,2.623-1.146
				c0.838-0.466,1.611-0.988,2.319-1.563c0.707-0.576,1.304-1.141,1.789-1.697c0.647,1.608,1.415,2.833,2.305,3.677
				c0.89,0.844,2,1.266,3.333,1.266c1.102,0,2.205-0.273,3.309-0.821c0.681-0.338,1.332-0.729,1.959-1.159
				c0.357,0.11,0.759,0.167,1.204,0.167c0.562,0,1.224-0.115,1.985-0.346c0.883,0.443,1.694,0.809,2.438,1.097
				c0.741,0.289,1.393,0.525,1.955,0.708c0.561,0.183,1.013,0.312,1.354,0.39s0.551,0.116,0.631,0.116
				c0.983,0,2.031-0.118,3.145-0.352c1.113-0.234,2.205-0.552,3.278-0.952c1.073-0.401,2.101-0.864,3.084-1.392
				c0.315-0.169,0.614-0.343,0.905-0.519c0.179,0.24,0.366,0.47,0.568,0.683c0.702,0.738,1.509,1.305,2.422,1.699
				c0.912,0.395,1.85,0.592,2.812,0.592c0.91,0,1.818-0.148,2.729-0.446c0.909-0.298,1.784-0.68,2.623-1.146
				c0.838-0.466,1.611-0.988,2.319-1.563c0.707-0.576,1.304-1.141,1.789-1.697c0.647,1.608,1.415,2.833,2.305,3.677
				c0.89,0.844,2.001,1.266,3.333,1.266c1.103,0,2.206-0.273,3.309-0.821s2.136-1.217,3.099-2.008s1.83-1.622,2.602-2.495
				c0.772-0.872,1.389-1.632,1.851-2.282L300.208,326.257z M99.233,324.445c0.04-0.608,0.227-1.382,0.559-2.324
				c0.332-0.94,0.624-1.73,0.876-2.368c0.251-0.637,0.584-1.206,0.996-1.706c0.413-0.5,0.926-0.907,1.54-1.221
				s1.354-0.471,2.22-0.471c0.483,0,0.891,0.285,1.223,0.853c0.332,0.569,0.499,1.295,0.499,2.177c0,0.628-0.354,1.422-1.058,2.383
				c-0.704,0.96-1.425,1.726-2.159,2.294c-0.734,0.569-1.529,1.035-2.385,1.397c-0.855,0.363-1.646,0.544-2.371,0.544
				C99.173,325.573,99.193,325.054,99.233,324.445z M129.167,330.819c-0.241,0.356-0.507,0.698-0.799,1.027
				c-0.29,0.33-0.596,0.623-0.917,0.88c-0.322,0.258-0.657,0.467-1.009,0.627c-0.352,0.16-0.708,0.24-1.068,0.24
				c-0.703,0-1.274-0.078-1.716-0.235c-0.44-0.157-0.781-0.361-1.022-0.612c-0.24-0.25-0.406-0.533-0.496-0.847
				s-0.136-0.627-0.136-0.942c0-1.011,0.181-2.143,0.542-3.397c0.36-1.253,0.887-2.75,1.579-4.489
				c0.691-1.739,1.554-3.139,2.587-4.2c1.033-1.062,2.211-1.916,3.535-2.563c0.02-0.021,0.039,0.182,0.06,0.606
				c0.021,0.425,0.035,0.97,0.045,1.638c0.011,0.667,0.026,1.405,0.046,2.214c0.021,0.81,0.041,1.846,0.062,3.109
				s0.05,2.204,0.091,2.821s0.092,1.067,0.153,1.35C130.241,329.077,129.729,330.001,129.167,330.819z M137.5,317.915v-0.306
				c0-0.304,0-0.741,0-1.311c0-0.569,0.039-1.234,0.061-1.997c0.021-0.763,0.075-1.605,0.129-2.531
				c0.056-0.925,0.134-1.885,0.221-2.88c0.044-0.488,0.122-1.311,0.228-2.47c0.104-1.158,0.246-2.458,0.421-3.902
				c0.175-1.442,0.452-2.917,0.831-4.423c0.378-1.506,0.729-2.899,1.052-4.182s0.748-2.33,1.279-3.142
				c0.529-0.812,1.12-1.218,1.773-1.218c0.366,0,0.646,0.211,0.84,0.632c0.193,0.421,0.292,1.173,0.292,2.257
				c0,0.823-0.063,1.936-0.188,3.341c-0.104,1.063-0.286,2.187-0.546,3.371c-0.261,1.185-0.579,2.38-0.955,3.587
				c-0.376,1.208-0.755,2.426-1.138,3.652c-0.382,1.227-0.798,2.406-1.188,3.536C139.67,312.582,138.5,315.243,137.5,317.915z
				 M203.121,305.86c-0.45,1.097-1.141,2.103-2.07,3.017c-0.931,0.914-2.105,1.707-3.526,2.377c-1.42,0.67-3.11,1.158-5.07,1.462
				l0.271-2.406l1.83-7.829c0-0.081,0.005-0.147,0.016-0.198c0.01-0.05,0.015-0.147,0.015-0.289c0-0.504-0.105-0.917-0.315-1.24
				c-0.211-0.322-0.472-0.579-0.782-0.771c-0.312-0.191-0.656-0.323-1.037-0.394c-0.381-0.07-0.751-0.105-1.113-0.105
				c-1.192,0-2.193,0.299-3.002,0.897c-0.809,0.598-1.466,1.353-1.971,2.266c-0.506,0.912-0.89,1.916-1.152,3.01
				c-0.264,1.095-0.449,2.144-0.561,3.147c-0.111,1.003-0.173,1.896-0.182,2.676c-0.011,0.781-0.016,1.303-0.016,1.566
				c-0.357-0.083-0.756-0.208-1.192-0.375c-0.379-0.145-0.835-0.339-1.372-0.579c-0.537-0.239-1.134-0.547-1.789-0.923
				c-0.259-0.146-0.473-0.261-0.641-0.344c-0.17-0.083-0.354-0.125-0.553-0.125c-0.299,0-0.531,0.087-0.7,0.263
				c-0.169,0.174-0.299,0.401-0.389,0.68c-0.089,0.278-0.144,0.597-0.163,0.958c-0.021,0.36-0.029,0.726-0.029,1.096
				c0,0.671,0.063,1.257,0.192,1.76c0.13,0.503,0.433,0.981,0.911,1.434c0.477,0.454,1.06,0.927,2.005,1.419
				c0.943,0.493,1.766,1.065,3.766,1.715v1.416c0,0.924,0.105,2.044,0.066,3.359c-0.041,1.315-0.066,2.697-0.206,4.142
				c-0.141,1.446-0.319,2.887-0.601,4.323c-0.281,1.436-0.646,2.721-1.128,3.855c-0.48,1.135-1.074,2.059-1.796,2.772
				s-1.591,1.07-2.613,1.07c-0.982,0-1.799-0.417-2.449-1.25c-0.652-0.833-1.193-1.907-1.625-3.223
				c-0.43-1.314-0.755-2.785-0.976-4.411c-0.221-1.625-0.381-3.231-0.481-4.817c-0.1-1.586-0.155-3.077-0.165-4.471
				c-0.01-1.395-0.015-2.505-0.015-3.328c0-2.011,0.146-4.077,0.437-6.198c0.292-2.121,0.744-4.183,1.357-6.183
				c0.612-2.001,1.393-3.886,2.337-5.655c0.944-1.77,2.061-3.317,3.348-4.645c1.286-1.327,2.754-2.377,4.402-3.151
				s3.488-1.161,5.519-1.161c2.705,0,4.949,0.312,6.732,0.937c1.783,0.625,3.205,1.42,4.269,2.388
				c1.062,0.967,1.808,2.041,2.238,3.22c0.431,1.178,0.646,2.332,0.646,3.461C203.797,303.636,203.571,304.763,203.121,305.86z
				 M215.409,309.328c0.54-2.717,0.811-4.076,0.811-4.077c0,0,0.441-1.465,1.326-4.395c0.884-2.929,1.644-5.044,2.28-6.344
				c0.637-1.3,1.273-2.331,1.91-3.093c0.636-0.762,1.229-1.143,1.781-1.143c0.151,0,0.242,0.207,0.271,0.622
				c0.028,0.415,0.043,0.915,0.043,1.502c-0.182,1.84-0.604,3.827-1.268,5.961s-1.449,4.272-2.354,6.417
				c-0.905,2.144-1.866,4.227-2.883,6.249c-1.016,2.022-1.977,3.843-2.881,5.46C214.549,314.431,214.87,312.045,215.409,309.328z
				 M237.23,326.076c-0.08,0.646-0.257,1.454-0.527,2.423c-0.271,0.969-0.628,1.908-1.07,2.816
				c-0.441,0.909-0.965,1.686-1.566,2.332c-0.603,0.646-1.276,0.969-2.019,0.969c-0.463,0-0.845-0.119-1.146-0.357
				c-0.302-0.238-0.542-0.548-0.724-0.93c-0.181-0.383-0.306-0.817-0.376-1.303c-0.071-0.486-0.105-0.988-0.105-1.505
				c0-0.875,0.114-1.809,0.346-2.803c0.23-0.994,0.627-2.146,1.188-3.458c0.562-1.313,1.133-2.416,1.715-3.311
				c0.581-0.895,1.218-1.69,1.91-2.385c0.691-0.696,1.429-1.248,2.211-1.655c0.782-0.408,1.584-0.612,2.406-0.612L237.23,326.076z
				 M283.378,326.076c-0.08,0.646-0.257,1.454-0.527,2.423c-0.271,0.969-0.628,1.908-1.07,2.816
				c-0.441,0.909-0.964,1.686-1.566,2.332c-0.603,0.646-1.275,0.969-2.019,0.969c-0.463,0-0.845-0.119-1.146-0.357
				c-0.301-0.238-0.542-0.548-0.723-0.93c-0.181-0.383-0.307-0.817-0.377-1.303c-0.07-0.486-0.105-0.988-0.105-1.505
				c0-0.875,0.115-1.809,0.346-2.803c0.23-0.994,0.627-2.146,1.188-3.458c0.562-1.313,1.133-2.416,1.715-3.311
				c0.581-0.895,1.218-1.69,1.91-2.385c0.691-0.696,1.429-1.248,2.211-1.655c0.782-0.408,1.584-0.612,2.406-0.612L283.378,326.076z"
				/>
		</g>
		<path fill="#FFFFFF" d="M324.177,138.4c0.143-16.055-10.194-30.044-24.069-37.156c3.992-12.359,6.914-25.229,7.104-38.248
			c0.183-12.501-2.951-25.565-12.358-34.362c-10.133-9.478-24.545-12.843-38.016-13.357c-14.759-0.563-29.598,2.299-43.906,5.618
			c-1.725,0.4-3.445,0.818-5.165,1.24c-19.815-28.853-66.724-28.372-87.694-1.081c-15.059-3.176-30.557-5.168-45.948-4.242
			c-7.579,0.457-15.192,1.726-22.333,4.354c-5.792,2.132-12.251,5.429-16.37,10.175c-0.039,0.045-0.072,0.092-0.108,0.138
			c-0.179,0.138-0.497,0.383-0.789,0.61c-0.198,0.108-0.392,0.236-0.575,0.389c-0.067,0.056-0.131,0.113-0.196,0.169
			c0.17-0.268,0.076-0.133-0.071,0.06c-19.771,16.698-15.25,47.527-8.905,69.847c-13.863,7.82-23.85,21.662-23.953,38.001
			c-0.05,7.71,2.489,15.336,6.663,21.764c4.261,6.563,10.026,11.372,16.878,14.794c-4.072,12.528-7.196,25.554-7.395,38.767
			c-0.187,12.465,3.158,25.901,13.135,34.161c9.638,7.978,22.678,10.467,34.825,11.333c14.331,1.022,28.875-0.641,42.945-3.313
			c2.978-0.565,5.938-1.209,8.886-1.907c19.874,28.902,67.037,29.061,88.232,1.562c13.904,2.955,28.12,5.02,42.355,4.739
			c13.219-0.26,27.347-2.822,37.969-11.202c4.041-3.188,7.837-6.499,10.975-10.607c3.858-5.054,6.179-11.267,7.484-17.44
			c2.865-13.555,0.886-27.876-2.347-41.176c-0.441-1.817-0.929-3.624-1.44-5.423C313.932,168.718,324.032,154.853,324.177,138.4z
			 M294.255,171.99c-1.325,0.667-1.971,2.445-1.559,3.829c3.805,12.759,6.404,26.061,5.403,39.425
			c-0.454,6.072-1.981,12.14-4.832,17.535c-2.659,5.036-6.646,8.621-10.948,12.206c-9.515,7.932-22.027,10.236-34.096,10.664
			c-14.702,0.521-29.434-1.825-43.748-4.972c-1.584-0.348-2.922,0.243-3.828,1.558c-17.996,26.094-62.797,25.562-79.433-1.648
			c-0.811-1.326-2.324-1.93-3.829-1.558c-13.581,3.359-27.473,5.495-41.473,5.806c-12.558,0.28-26.235-0.783-37.362-7.139
			c-10.899-6.227-14.573-18.317-14.798-30.198c-0.266-14.045,3.587-28.064,8.037-41.262c0.439-1.306-0.242-3.254-1.559-3.829
			c-6.695-2.923-12.174-6.822-16.443-12.85c-3.798-5.361-5.94-11.7-6.174-18.257c-0.539-15.153,9.933-27.633,22.896-34.126
			c1.326-0.664,1.972-2.448,1.559-3.829C26.156,83.54,20.13,54.254,37.534,38.332c0.021-0.014,0.042-0.023,0.062-0.037
			c0.933-0.625,1.79-1.408,2.648-2.128c0.332-0.278,0.58-0.576,0.762-0.883c3.555-3.633,8.664-6.135,13.306-7.843
			c6.613-2.435,13.663-3.477,20.669-3.899c15.287-0.921,30.711,1.279,45.612,4.548c1.583,0.348,2.924-0.241,3.829-1.558
			c17.768-25.85,62.304-26.03,78.894,1.18c0.808,1.325,2.326,1.932,3.828,1.559c13.757-3.422,27.684-6.508,41.888-7.167
			c13.219-0.612,26.8,1.233,37.921,8.865c10.312,7.075,13.403,19.345,13.481,31.22c0.088,13.587-3.435,27.126-7.744,39.914
			c-0.44,1.311,0.244,3.248,1.559,3.829c12.92,5.709,22.658,17.189,23.138,31.723C317.891,152.916,307.285,165.427,294.255,171.99z"
			/>
		<g>
			<path fill="#00A0AE" d="M69.724,214.591c0.018-0.02,1.025,0.798,1.025,0.798s-31.327-19.621,51.274-45.209
				c-0.186,0.438-0.921,0.348-1.265,0.643l10.464-8.973c-0.014,0.007,0.664,0.976,0.384,0.739
				c-15.959-13.691-18.389-31.344,1.201-48.191l-8.833-7.579c-2.999,3.037,0.479,0.484,0.623,0.833
				c-82.593-25.6-52.097-44.516-52.097-44.516s-3.017,2.56,0.23-0.263l-22.72-19.481c-3.297,2.777-0.912,0.615-1.427,1.057
				c-16.592,14.226-13.26,40.875-6.738,62.541c-3.342,1.634-6.445,3.617-9.308,6.072c-17.048,14.617-17.184,38.146-0.348,52.583
				c3.27,2.8,5.492,3.792,9.402,5.496c-7.541,22.243-13.092,50.76,3.144,64.88L69.724,214.591z M62.666,112.48
				c0,0-4.675-25.082,57.65,0.004C57.996,137.566,62.666,112.48,62.666,112.48z M63.93,166.477c0,0-4.679-25.096,57.66-0.011
				C59.251,191.554,63.93,166.477,63.93,166.477z"/>
			<path fill="#F69700" d="M44.737,236.02c16.465,13.923,51.933,11.042,77.864,4.574c1.992,3.357,4.814,6.67,8.074,9.469
				c16.836,14.435,44.573,14.535,61.621-0.081c2.859-2.456,5.36-5.039,7.27-7.901c25.259,5.593,56.306,8.594,72.894-5.636
				c0.516-0.439-1.932,1.666,1.307-1.165l-22.72-19.485c-3.29,2.79-0.208,0.116-0.208,0.116s-22.246,26.317-52.098-44.513
				c0.407,0.12-2.479,3.021,1.065,0.453l-8.837-7.579c-19.649,16.805-42.441,12.823-58.406-0.864
				c-0.274-0.236-1.354-1.553-1.341-1.56l-10.464,8.973c0.344-0.294,1.897,0.496,2.412,0.341
				C93.329,242,70.438,215.122,70.438,215.122s-0.696-0.55-0.714-0.53L44.737,236.02z M193.195,174.987
				c29.251,53.45,0.009,49.442,0.009,49.442S163.95,228.437,193.195,174.987z M130.252,173.898
				c29.249,53.462-0.009,49.451-0.009,49.451S101.002,227.36,130.252,173.898z"/>
			<path fill="#B70050" d="M254.297,61.907c-0.017,0.015-0.469-0.326-0.469-0.326s31.042,19.385-51.555,44.973
				c0.189-0.44,0.645-0.584,0.992-0.882l-10.468,8.978c0.01-0.008-0.803,0.097-0.532,0.333
				c15.969,13.691,14.993,35.221-1.328,49.264l8.833,7.58c-0.271-0.236,0.218-1.081,0.063-1.417
				c82.603,25.587,51.752,44.802,51.752,44.802s-0.591,0.542-0.568,0.563l22.718,19.479c0.031,0.028,1.605-1.212,2.12-1.653
				c16.594-14.227,13.603-41.166,7.087-62.834c3.343-1.64,6.611-3.765,9.471-6.217c17.049-14.621,17.276-38.226,0.443-52.665
				c-3.266-2.799-6.008-4.31-9.918-6.014c7.54-22.239,12.581-51.271-3.657-65.392L254.297,61.907z M262.472,164.971
				c0,0,4.669,25.084-57.656,0C267.141,139.886,262.472,164.971,262.472,164.971z M261.206,110.978c0,0,4.68,25.097-57.66,0.012
				C265.886,85.9,261.206,110.978,261.206,110.978z"/>
			<path fill="#7EA65F" d="M279.281,40.478c-19.732-16.727-51.376-10.565-77.307-4.097c-1.995-3.358-4.534-6.425-7.799-9.229
				c-16.835-14.438-44.433-14.415-61.476,0.202c-2.863,2.456-5.289,5.097-7.204,7.963c-25.258-5.589-56.969-7.974-73.552,6.255
				c-0.515,0.442-1.996,1.766-1.96,1.793L72.7,62.844c0.019,0.02,0.894-0.701,0.894-0.701s21.911-26.026,51.763,44.807
				c-0.41-0.121-1.138,0.077-1.414-0.159l8.839,7.579c16.375-14,42.567-13.896,58.536-0.205c0.271,0.232,1.49,0.476,1.48,0.484
				l10.468-8.978c-0.348,0.298-1.341-0.02-1.86,0.139c29.842-70.837,52.459-44.198,52.459-44.198s0.416,0.309,0.433,0.294
				L279.281,40.478z M131.94,102.468c-29.254-53.454-0.009-49.446-0.009-49.446S161.187,49.018,131.94,102.468z M194.884,103.557
				c-29.254-53.462,0.011-49.451,0.011-49.451S224.131,50.095,194.884,103.557z"/>
		</g>
		<g>
			<path fill="#00A0AE" d="M68.065,348.836h2.604v24.444h9.936v2.259H68.065V348.836z"/>
			<path fill="#00A0AE" d="M89.429,356.876c2.003,0,3.676,0.871,5.016,2.613c1.339,1.742,2.01,4.048,2.01,6.92
				c0,1.659-0.266,3.225-0.795,4.699c-0.529,1.474-1.35,2.651-2.459,3.532c-1.11,0.88-2.399,1.32-3.867,1.32
				c-2.182,0-3.901-0.899-5.159-2.699c-1.257-1.799-1.886-4.051-1.886-6.757c0-2.156,0.396-4.02,1.188-5.589
				c0.791-1.57,1.758-2.635,2.899-3.197C87.518,357.157,88.535,356.876,89.429,356.876z M89.592,359.135
				c-1.598,0-2.8,0.676-3.606,2.029c-0.806,1.353-1.209,3.197-1.209,5.532c0,2.004,0.397,3.682,1.19,5.035
				c0.792,1.353,1.905,2.029,3.337,2.029c1.355,0,2.472-0.628,3.348-1.886c0.876-1.256,1.313-3.091,1.313-5.503
				c0-2.297-0.429-4.078-1.285-5.341S90.794,359.135,89.592,359.135z"/>
			<path fill="#00A0AE" d="M99.076,371.578c1.786,1.455,3.49,2.182,5.111,2.182c1.25,0,2.284-0.316,3.101-0.951
				c0.816-0.633,1.225-1.437,1.225-2.41c0-0.704-0.271-1.292-0.813-1.767c-0.542-0.474-1.591-0.94-3.148-1.399
				c-1.914-0.574-3.312-1.231-4.192-1.972c-0.881-0.74-1.32-1.767-1.32-3.082c0-1.506,0.594-2.766,1.779-3.781
				c1.188-1.015,2.655-1.522,4.403-1.522c1.403,0,2.998,0.496,4.785,1.486v2.706c-1.519-1.327-3.075-1.991-4.67-1.991
				c-1.099,0-2.001,0.295-2.709,0.884c-0.708,0.589-1.062,1.3-1.062,2.132c0,0.705,0.319,1.281,0.957,1.729
				c0.625,0.461,1.666,0.896,3.12,1.304c3.573,0.996,5.36,2.693,5.36,5.092c0,1.621-0.654,2.983-1.962,4.087
				c-1.309,1.103-2.895,1.655-4.758,1.655c-1.723,0-3.458-0.555-5.206-1.665V371.578z"/>
			<path fill="#00A0AE" d="M128.29,348.836h2.557l7.452,26.703h-2.909l-2.27-9.227h-7.087l-2.264,9.227h-2.838L128.29,348.836z
				 M129.522,352.09l-2.959,12.06h5.976L129.522,352.09z"/>
			<path fill="#00A0AE" d="M140.27,348.836h2.412v26.703h-2.412V348.836z"/>
			<path fill="#00A0AE" d="M157.536,357.297h1.78v19.295c0,2.463-0.67,4.39-2.011,5.781c-1.34,1.391-2.947,2.086-4.823,2.086
				c-1.646,0-3.42-0.65-5.321-1.952v-2.852c1.85,1.773,3.592,2.661,5.225,2.661c1.354,0,2.444-0.53,3.274-1.589
				c0.829-1.059,1.244-2.438,1.244-4.135v-3.924c-0.639,0.957-1.334,1.675-2.087,2.153s-1.563,0.718-2.432,0.718
				c-1.85,0-3.387-0.893-4.613-2.68c-1.224-1.786-1.837-3.924-1.837-6.413c0-2.68,0.683-4.945,2.049-6.795
				c1.365-1.85,2.985-2.776,4.862-2.776c0.804,0,1.543,0.176,2.22,0.527c0.676,0.351,1.289,0.877,1.838,1.579L157.536,357.297z
				 M156.904,361.202c-0.549-0.676-1.123-1.18-1.724-1.512c-0.599-0.332-1.23-0.498-1.895-0.498c-1.404,0-2.559,0.683-3.465,2.048
				c-0.905,1.365-1.359,3.107-1.359,5.226c0,1.94,0.396,3.583,1.188,4.929s1.857,2.019,3.197,2.019c1.16,0,2.127-0.529,2.899-1.588
				c0.772-1.059,1.158-2.431,1.158-4.116V361.202z"/>
			<path fill="#00A0AE" d="M169.5,356.876c2.003,0,3.675,0.871,5.016,2.613c1.339,1.742,2.01,4.048,2.01,6.92
				c0,1.659-0.266,3.225-0.794,4.699c-0.53,1.474-1.351,2.651-2.461,3.532c-1.11,0.88-2.398,1.32-3.866,1.32
				c-2.183,0-3.902-0.899-5.159-2.699s-1.885-4.051-1.885-6.757c0-2.156,0.395-4.02,1.187-5.589c0.791-1.57,1.758-2.635,2.899-3.197
				C167.589,357.157,168.606,356.876,169.5,356.876z M169.663,359.135c-1.599,0-2.801,0.676-3.606,2.029
				c-0.806,1.353-1.208,3.197-1.208,5.532c0,2.004,0.396,3.682,1.188,5.035c0.794,1.353,1.906,2.029,3.339,2.029
				c1.355,0,2.471-0.628,3.347-1.886c0.876-1.256,1.313-3.091,1.313-5.503c0-2.297-0.429-4.078-1.285-5.341
				S170.865,359.135,169.663,359.135z"/>
			<path fill="#00A0AE" d="M190.039,348.836h2.412v26.703h-2.412v-2.564c-0.601,0.995-1.281,1.741-2.042,2.239
				c-0.761,0.498-1.595,0.746-2.502,0.746c-1.918,0-3.472-0.94-4.66-2.823c-1.189-1.882-1.783-4.074-1.783-6.575
				c0-2.68,0.654-4.964,1.965-6.853c1.311-1.889,2.976-2.833,4.996-2.833c0.651,0,1.313,0.147,1.984,0.44
				c0.671,0.294,1.352,0.74,2.042,1.34V348.836z M190.039,360.973c-0.497-0.612-1.04-1.069-1.627-1.369
				c-0.587-0.299-1.226-0.449-1.914-0.449c-1.417,0-2.597,0.676-3.541,2.029c-0.944,1.353-1.417,3.139-1.417,5.359
				c0,2.081,0.415,3.804,1.244,5.168c0.83,1.366,1.889,2.048,3.178,2.048c1.136,0,2.1-0.504,2.891-1.512s1.187-2.284,1.187-3.828
				V360.973z"/>
			<path fill="#00A0AE" d="M202.998,356.876c2.003,0,3.675,0.871,5.016,2.613c1.34,1.742,2.01,4.048,2.01,6.92
				c0,1.659-0.265,3.225-0.795,4.699c-0.529,1.474-1.349,2.651-2.459,3.532c-1.11,0.88-2.4,1.32-3.867,1.32
				c-2.182,0-3.902-0.899-5.158-2.699c-1.258-1.799-1.886-4.051-1.886-6.757c0-2.156,0.396-4.02,1.187-5.589
				c0.792-1.57,1.758-2.635,2.899-3.197C201.087,357.157,202.104,356.876,202.998,356.876z M203.161,359.135
				c-1.599,0-2.801,0.676-3.606,2.029c-0.806,1.353-1.208,3.197-1.208,5.532c0,2.004,0.396,3.682,1.189,5.035
				s1.905,2.029,3.338,2.029c1.355,0,2.471-0.628,3.347-1.886c0.876-1.256,1.314-3.091,1.314-5.503c0-2.297-0.429-4.078-1.285-5.341
				C205.393,359.767,204.363,359.135,203.161,359.135z"/>
			<path fill="#00A0AE" d="M213.449,357.297h2.181l0.229,2.604c0.637-1.008,1.36-1.764,2.169-2.268
				c0.809-0.504,1.703-0.756,2.685-0.756c1.554,0,2.765,0.524,3.631,1.57c0.866,1.047,1.3,2.444,1.3,4.192v12.902h-2.412v-12.902
				c0-1.072-0.281-1.927-0.843-2.565c-0.562-0.638-1.289-0.957-2.182-0.957c-1.213,0-2.24,0.533-3.082,1.599
				c-0.843,1.065-1.264,2.294-1.264,3.685v11.141h-2.412V357.297z"/>
			<path fill="#00A0AE" d="M241.837,373.625c-1.942,1.557-3.84,2.335-5.693,2.335c-2.172,0-3.93-0.871-5.271-2.612
				c-1.342-1.742-2.013-4.011-2.013-6.806c0-2.883,0.691-5.216,2.076-6.996s3.136-2.67,5.255-2.67c1.876,0,3.381,0.718,4.518,2.154
				c1.136,1.436,1.703,3.251,1.703,5.446v1.187h-11.063v0.938c0,2.374,0.494,4.167,1.483,5.378c0.988,1.212,2.147,1.818,3.475,1.818
				c1.837,0,3.682-1.015,5.531-3.043V373.625z M239.847,363.614c-0.051-1.513-0.439-2.646-1.165-3.403
				c-0.727-0.756-1.572-1.134-2.54-1.134c-0.98,0-1.895,0.378-2.74,1.134c-0.848,0.757-1.449,1.89-1.805,3.403H239.847z"/>
			<path fill="#00A0AE" d="M244.9,371.578c1.786,1.455,3.49,2.182,5.11,2.182c1.251,0,2.284-0.316,3.102-0.951
				c0.816-0.633,1.226-1.437,1.226-2.41c0-0.704-0.272-1.292-0.814-1.767c-0.542-0.474-1.592-0.94-3.148-1.399
				c-1.915-0.574-3.312-1.231-4.192-1.972c-0.88-0.74-1.32-1.767-1.32-3.082c0-1.506,0.594-2.766,1.779-3.781
				c1.188-1.015,2.654-1.522,4.403-1.522c1.403,0,2.999,0.496,4.785,1.486v2.706c-1.519-1.327-3.075-1.991-4.67-1.991
				c-1.098,0-2.001,0.295-2.709,0.884c-0.709,0.589-1.062,1.3-1.062,2.132c0,0.705,0.319,1.281,0.957,1.729
				c0.625,0.461,1.665,0.896,3.12,1.304c3.573,0.996,5.359,2.693,5.36,5.092c0,1.621-0.654,2.983-1.963,4.087
				c-1.308,1.103-2.894,1.655-4.756,1.655c-1.724,0-3.459-0.555-5.207-1.665V371.578z"/>
		</g>
	</g>
</g>
<g id="Layer_3">
</g>
</svg>
