<?xml version="1.0" encoding="utf-8"?>
<!-- Generator: Adobe Illustrator 16.0.0, SVG Export Plug-In . SVG Version: 6.00 Build 0)  -->
<!DOCTYPE svg PUBLIC "-//W3C//DTD SVG 1.1//EN" "http://www.w3.org/Graphics/SVG/1.1/DTD/svg11.dtd">
<svg version="1.1" xmlns="http://www.w3.org/2000/svg" xmlns:xlink="http://www.w3.org/1999/xlink" x="0px" y="0px" width="88px"
	 height="118px" viewBox="0 0 88 118" enable-background="new 0 0 88 118" xml:space="preserve">
<g id="guides">
</g>
<g id="Layer_2">
	<g>
		<path fill="#808080" d="M43.057,94.716c0.314,0,0.584-0.048,0.809-0.145c0.225-0.096,0.412-0.222,0.559-0.377
			c0.148-0.155,0.256-0.333,0.324-0.533c0.068-0.198,0.102-0.403,0.102-0.616c0-0.23-0.041-0.429-0.125-0.597
			c-0.082-0.168-0.195-0.303-0.336-0.406c-0.143-0.102-0.311-0.179-0.5-0.229c-0.191-0.049-0.395-0.074-0.611-0.074
			c-0.346,0-0.633,0.055-0.863,0.163c-0.232,0.109-0.416,0.243-0.555,0.402c-0.139,0.158-0.238,0.328-0.301,0.508
			s-0.092,0.342-0.092,0.486c0,0.429,0.129,0.773,0.387,1.03C42.113,94.586,42.514,94.716,43.057,94.716z"/>
		<path fill="#808080" d="M86.326,100.644c-0.309,0.416-0.613,0.788-0.914,1.118c-0.131,0.141-0.268,0.276-0.412,0.408
			c-0.145,0.132-0.289,0.25-0.436,0.353c-0.145,0.104-0.287,0.188-0.43,0.252c-0.141,0.064-0.277,0.096-0.406,0.096
			c-0.172,0-0.285-0.08-0.338-0.239c-0.051-0.159-0.078-0.38-0.078-0.662c0-0.331,0.051-0.737,0.152-1.22s0.193-0.912,0.271-1.289
			c0.08-0.376,0.15-0.745,0.213-1.104c0.061-0.359,0.092-0.686,0.092-0.98c0-0.193-0.016-0.345-0.051-0.458
			c-0.033-0.112-0.082-0.199-0.143-0.262c-0.062-0.062-0.135-0.103-0.215-0.122s-0.168-0.028-0.26-0.028
			c-0.068,0-0.139,0.001-0.209,0.005c-0.072,0.002-0.143,0.004-0.209,0.004c-0.082,0-0.16-0.004-0.238-0.014
			c-0.076-0.009-0.154-0.029-0.229-0.061c-0.074-0.032-0.137-0.081-0.186-0.15c-0.049-0.068-0.1-0.138-0.154-0.21
			c-0.051-0.071-0.117-0.135-0.199-0.191c-0.08-0.056-0.191-0.084-0.334-0.084c-0.428,0-0.85,0.091-1.26,0.272
			c-0.414,0.181-0.805,0.425-1.178,0.732c-0.371,0.307-0.715,0.666-1.027,1.077c-0.312,0.412-0.607,0.9-0.879,1.465
			c-0.273,0.565-0.475,1.09-0.605,1.576c-0.121,0.452-0.18,0.894-0.188,1.324c-0.096,0.079-0.189,0.156-0.289,0.241
			c-0.156,0.135-0.326,0.261-0.508,0.379c-0.184,0.119-0.379,0.217-0.592,0.295c-0.213,0.079-0.449,0.118-0.707,0.118
			c-0.117,0-0.254-0.022-0.412-0.066c-0.158-0.044-0.307-0.092-0.449-0.145c-0.141-0.053-0.264-0.102-0.369-0.146
			c-0.105-0.043-0.16-0.065-0.166-0.065l0.047-0.188c0.055-0.074,0.164-0.217,0.326-0.426c0.164-0.208,0.355-0.456,0.574-0.74
			c0.219-0.284,0.465-0.62,0.74-1.007c0.273-0.388,0.523-0.734,0.748-1.041c0.225-0.306,0.424-0.584,0.598-0.834
			c0.172-0.25,0.295-0.443,0.369-0.58c0.258-0.069,0.443-0.143,0.555-0.221c0.111-0.079,0.172-0.143,0.186-0.193
			c0.037-0.15,0.055-0.332,0.055-0.545c0-0.264-0.047-0.473-0.143-0.626c-0.096-0.153-0.252-0.23-0.469-0.23
			c-0.018,0-0.043,0.004-0.072,0.014c-0.031,0.01-0.086,0.021-0.162,0.033C76.26,96.293,76.148,95.791,76,95.8
			c-0.148,0.009-0.346-0.5-0.592-0.5c-0.086,0-0.18,0-0.281,0c-0.104,0-0.215,0.51-0.338,0.504c-0.16-0.006-0.316,0.212-0.467,0.14
			c-0.15-0.073-0.299-0.023-0.445-0.111c-0.145-0.089-0.291-0.104-0.438-0.176c-0.148-0.072-0.297-0.077-0.443-0.077
			c-0.197,0-0.412,0.048-0.643,0.113c-0.232,0.065-0.453,0.196-0.666,0.379c-0.213,0.182-0.406,0.443-0.578,0.776
			s-0.305,0.768-0.398,1.305c-0.012,0.074-0.021,0.147-0.027,0.218c-0.006,0.071-0.01,0.138-0.01,0.2
			c0,0.147,0.021,0.267,0.061,0.355c0.041,0.09,0.109,0.135,0.209,0.135c0.104,0,0.221-0.068,0.35-0.203
			c0.131-0.136,0.291-0.347,0.482-0.635c0.086-0.132,0.164-0.235,0.234-0.307c0.072-0.072,0.152-0.125,0.24-0.162
			c0.09-0.036,0.199-0.057,0.33-0.062c0.129-0.006,0.291-0.009,0.488-0.009c0.08,0,0.154,0.009,0.223,0.028
			c0.068,0.019,0.133,0.045,0.199,0.08c0.064,0.035,0.137,0.074,0.217,0.117c0.08,0.044,0.176,0.091,0.287,0.141l-2.201,3.042
			c-0.189,0.237-0.379,0.465-0.566,0.67c-0.129,0.14-0.266,0.276-0.41,0.407c-0.146,0.132-0.291,0.25-0.436,0.354
			c-0.145,0.104-0.287,0.187-0.43,0.252c-0.141,0.064-0.277,0.096-0.406,0.096c-0.174,0-0.285-0.08-0.338-0.239
			c-0.053-0.159-0.078-0.38-0.078-0.662c0-0.331,0.051-0.737,0.152-1.22s0.191-0.912,0.271-1.289c0.08-0.377,0.15-0.745,0.211-1.104
			c0.062-0.359,0.094-0.687,0.094-0.981c0-0.192-0.018-0.345-0.051-0.458s-0.082-0.199-0.145-0.262
			c-0.061-0.062-0.133-0.103-0.213-0.122s-0.168-0.028-0.26-0.028c-0.068,0-0.139,0.001-0.211,0.005
			c-0.07,0.002-0.141,0.004-0.209,0.004c-0.08,0-0.16-0.004-0.236-0.014c-0.078-0.009-0.154-0.029-0.229-0.061
			s-0.137-0.081-0.186-0.15c-0.051-0.068-0.102-0.138-0.154-0.21c-0.053-0.071-0.119-0.135-0.199-0.191s-0.191-0.084-0.336-0.084
			c-0.428,0-0.848,0.091-1.26,0.272c-0.412,0.181-0.805,0.425-1.176,0.732c-0.373,0.307-0.715,0.666-1.027,1.077
			c-0.314,0.411-0.607,0.899-0.879,1.465c-0.273,0.565-0.475,1.091-0.605,1.576c-0.105,0.392-0.156,0.775-0.178,1.151
			c-0.094,0.06-0.188,0.121-0.287,0.18c-0.184,0.108-0.361,0.205-0.535,0.289c-0.172,0.084-0.338,0.151-0.492,0.201
			s-0.291,0.074-0.412,0.074c-0.049,0-0.102-0.036-0.156-0.107c-0.057-0.072-0.109-0.168-0.158-0.29s-0.419-0.257-0.452-0.41
			c-0.033-0.152-0.376-0.309-0.376-0.471v-0.13c0-0.125,0.368-0.251,0.399-0.382s0.226-0.253,0.257-0.368s0.143-0.223,0.178-0.323
			c0.035-0.099,0.107-0.18,0.139-0.241c0.283-0.561,0.615-1.132,0.953-1.719c0.336-0.585,0.679-1.181,1.013-1.785
			c0.332-0.604,0.659-1.213,0.968-1.827s0.58-1.226,0.814-1.836c0.234-0.611,0.422-1.218,0.561-1.823
			c0.137-0.604,0.205-1.197,0.205-1.78c0-0.235-0.021-0.465-0.064-0.692c-0.043-0.226-0.117-0.429-0.223-0.607
			c-0.107-0.179-0.254-0.322-0.439-0.432c-0.186-0.109-0.422-0.163-0.707-0.163c-0.393,0-0.777,0.112-1.158,0.337
			c-0.379,0.225-0.742,0.534-1.092,0.927c-0.348,0.393-0.682,0.854-1,1.384c-0.316,0.529-0.611,1.099-0.881,1.708
			c-0.15,0.338-0.301,0.745-0.451,1.207c-0.016-0.604-0.143-1.188-0.389-1.754c-0.264-0.602-0.656-1.135-1.178-1.6
			c-0.521-0.463-1.174-0.836-1.959-1.115c-0.785-0.28-1.699-0.42-2.74-0.42c-0.791,0-1.537,0.128-2.238,0.384
			c-0.699,0.256-1.35,0.618-1.943,1.085c-0.598,0.469-1.133,1.029-1.607,1.682c-0.477,0.653-0.881,1.375-1.215,2.167
			c-0.332,0.791-0.59,1.64-0.768,2.545c-0.18,0.905-0.27,1.844-0.27,2.818c0,0.566,0.029,1.17,0.088,1.81
			c0.035,0.392,0.09,0.78,0.152,1.168c-0.248,0.217-0.5,0.429-0.758,0.632c-0.277,0.219-0.551,0.405-0.822,0.56
			c-0.271,0.154-0.518,0.231-0.74,0.231c-0.191,0-0.316-0.082-0.379-0.245c-0.061-0.164-0.092-0.383-0.092-0.661
			c0-0.284,0.045-0.599,0.133-0.945c0.088-0.348,0.162-0.696,0.221-1.047c0.057-0.352,0.166-0.775,0.326-1.273
			c0.158-0.498,0.277-0.905,0.359-1.222c0.08-0.317,0.152-0.6,0.215-0.847c0.064-0.248,0.096-0.439,0.096-0.575
			c0-0.16-0.045-0.288-0.137-0.383c-0.09-0.096-0.264-0.144-0.518-0.144c-0.139,0-0.295,0.017-0.467,0.051
			c-0.174,0.035-0.34,0.087-0.5,0.159s-0.305,0.163-0.432,0.275c-0.139,0.125-0.225,0.265-0.256,0.421
			c-0.055,0.222-0.197,0.701-0.432,1.437c-0.252,0.903-0.42,1.487-0.504,1.75c-0.045,0.118-0.141,0.606-0.285,1.462
			c-0.244,0.201-0.482,0.391-0.713,0.558c-0.148,0.106-0.301,0.21-0.457,0.312c-0.158,0.103-0.314,0.194-0.469,0.275
			s-0.299,0.144-0.438,0.19c-0.141,0.047-0.268,0.07-0.385,0.07c-0.119,0-0.221-0.038-0.301-0.112
			c-0.082-0.075-0.146-0.176-0.193-0.304c-0.049-0.128-0.084-0.272-0.104-0.435c-0.021-0.162-0.031-0.333-0.031-0.514
			c0-0.143,0.008-0.292,0.027-0.444c0.02-0.153,0.043-0.302,0.072-0.448c0.029-0.147,0.059-0.282,0.092-0.408
			c0.031-0.124,0.064-0.229,0.096-0.317c0.148-0.399,0.49-1.156,1.029-2.272c0.352-0.729,0.652-1.466,0.902-2.21
			c0.25-0.746,0.502-1.499,0.758-2.262c0.256-0.762,0.393-1.585,0.41-2.471c0.004-0.232,0.006-0.458,0.006-0.678
			c0-0.352-0.029-0.693-0.084-1.023c-0.055-0.331-0.146-0.62-0.271-0.871c-0.127-0.25-0.291-0.45-0.496-0.602
			c-0.203-0.151-0.449-0.227-0.74-0.227c-0.396,0-0.779,0.122-1.152,0.365c-0.371,0.244-0.723,0.581-1.051,1.012
			c-0.328,0.432-0.631,0.943-0.906,1.535c-0.275,0.592-0.502,1.239-0.676,1.942c-0.176,0.703-0.338,1.359-0.488,1.969
			c-0.152,0.61-0.238,1.316-0.256,2.116c-0.469,0.045-0.91,0.154-1.322,0.329c-0.414,0.176-0.816,0.435-1.207,0.779
			c-0.391,0.344-0.705,0.726-0.943,1.146c-0.236,0.419-0.451,0.821-0.646,1.206c-0.193,0.385-0.342,0.782-0.443,1.192
			c-0.053,0.211-0.092,0.421-0.117,0.631c-0.34,0.253-0.701,0.487-1.084,0.701c-0.389,0.217-0.789,0.398-1.197,0.542
			c-0.41,0.145-0.801,0.217-1.17,0.217c-0.117,0-0.229-0.012-0.33-0.036c-0.102-0.025-0.199-0.067-0.291-0.126
			c-0.094-0.061-0.186-0.146-0.275-0.254c-0.09-0.108-0.18-0.244-0.273-0.407c0.537-0.144,1.037-0.346,1.496-0.605
			c0.461-0.259,0.857-0.554,1.191-0.886c0.334-0.332,0.625-0.729,0.875-1.193c0.25-0.464,0.375-0.883,0.375-1.256
			c0-0.351-0.061-0.668-0.184-0.952c-0.125-0.283-0.295-0.524-0.516-0.725c-0.219-0.2-0.477-0.355-0.771-0.466
			c-0.297-0.111-0.617-0.166-0.963-0.166c-0.424,0-0.809,0.075-1.154,0.223c-0.346,0.149-0.658,0.35-0.938,0.602
			c-0.279,0.253-0.523,0.544-0.732,0.876c-0.207,0.332-0.381,0.68-0.52,1.044c-0.137,0.366-0.27,0.784-0.4,1.255
			c-0.127,0.471-0.191,0.877-0.191,1.218c0,0.137,0.018,0.269,0.029,0.402c-0.025,0.029-0.049,0.063-0.072,0.092
			c-0.141,0.173-0.289,0.341-0.443,0.504c-0.154,0.163-0.311,0.308-0.467,0.434c-0.158,0.126-0.314,0.229-0.473,0.306
			c-0.156,0.077-0.307,0.115-0.447,0.115c-0.252,0-0.443-0.061-0.574-0.181c-0.133-0.121-0.197-0.315-0.197-0.585
			c0-0.214,0.035-0.53,0.109-0.947c0.072-0.417,0.154-0.875,0.244-1.371c0.088-0.497,0.182-1.022,0.283-1.576
			c0.098-0.554,0.199-1.117,0.303-1.69s0.205-1.149,0.309-1.729c0.105-0.58,0.156-1.134,0.156-1.665
			c0-0.567-0.051-1.105-0.156-1.613c-0.104-0.509-0.254-0.952-0.449-1.332c-0.195-0.378-0.438-0.679-0.729-0.901
			c-0.291-0.222-0.623-0.333-0.996-0.333c-0.541,0-1.064,0.136-1.568,0.406c-0.504,0.271-0.975,0.662-1.412,1.169
			c-0.438,0.509-0.83,1.127-1.182,1.854c-0.35,0.727-0.646,1.547-0.885,2.458l-0.195,0.009c0.057-0.431,0.109-0.832,0.158-1.201
			c0.018-0.154,0.037-0.31,0.059-0.468c0.021-0.157,0.041-0.303,0.057-0.438s0.027-0.256,0.037-0.36
			c0.01-0.105,0.014-0.182,0.014-0.231c0-0.542-0.049-1.01-0.143-1.406c-0.096-0.394-0.23-0.721-0.402-0.979
			c-0.174-0.259-0.379-0.45-0.621-0.573c-0.24-0.124-0.502-0.186-0.785-0.186c-0.387,0-0.775,0.105-1.17,0.314
			c-0.393,0.21-0.781,0.505-1.164,0.888c-0.385,0.382-0.758,0.839-1.119,1.372c-0.363,0.534-0.705,1.128-1.025,1.785
			c-0.322,0.657-0.617,1.362-0.889,2.118c-0.273,0.755-0.508,1.542-0.707,2.362c0.107-0.439,0.221-0.912,0.336-1.417
			c0.115-0.505,0.209-1.016,0.283-1.53c0.074-0.513,0.146-1.003,0.213-1.468c0.068-0.465,0.102-0.87,0.102-1.216
			c0-0.449-0.029-0.859-0.088-1.229c-0.059-0.369-0.162-0.686-0.311-0.947c-0.146-0.262-0.348-0.465-0.6-0.61
			c-0.254-0.144-0.57-0.217-0.953-0.217c-0.295,0-0.605,0.061-0.93,0.186c-0.322,0.123-0.641,0.331-0.951,0.624
			c-0.311,0.292-0.607,0.684-0.889,1.174c-0.279,0.49-0.531,1.099-0.752,1.826c-0.025,0.024-0.037,0.056-0.037,0.092
			c0,0.068,0.008,0.144,0.025,0.227c0.018,0.083,0.039,0.161,0.066,0.235c0.025,0.075,0.055,0.137,0.088,0.19
			c0.031,0.052,0.062,0.078,0.092,0.078c0.094,0,0.178-0.021,0.254-0.06c0.076-0.04,0.131-0.106,0.168-0.199
			c0.186-0.264,0.391-0.513,0.613-0.744c0.223-0.231,0.443-0.432,0.666-0.605c0.223-0.172,0.436-0.31,0.637-0.411
			c0.201-0.102,0.373-0.153,0.514-0.153c0.088,0,0.154,0.028,0.197,0.083c0.043,0.056-0.04,0.122-0.024,0.199
			c0.02,0.078-0.089,0.159-0.089,0.247c0,0.087,0,0.159,0,0.215c0,0.649,0.138,1.256,0.147,1.824
			c0.01,0.567,0.044,1.112-0.017,1.637s-0.094,1.048-0.152,1.572c-0.061,0.524-0.164,1.058-0.342,1.601
			c-0.178,0.542-0.326,1.124-0.461,1.743c-0.135,0.619-0.28,1.29-0.437,2.012c-0.051,0.215-0.083,0.43-0.108,0.643
			c-0.023,0.213-0.037,0.445-0.037,0.698c0,0.129,0.035,0.245,0.104,0.347c0.068,0.102,0.16,0.188,0.277,0.259
			c0.117,0.071,0.25,0.124,0.4,0.158c0.152,0.034,0.307,0.05,0.467,0.05c0.135,0,0.277-0.014,0.426-0.041
			c0.146-0.028,0.285-0.076,0.414-0.144s0.24-0.161,0.332-0.278c0.094-0.117,0.152-0.268,0.176-0.453
			c0.139-0.569,0.291-1.192,0.457-1.867c0.164-0.674,0.334-1.37,0.51-2.087c0.176-0.717,0.393-1.428,0.65-2.134
			c0.26-0.706,0.527-1.382,0.805-2.029s0.557-1.25,0.838-1.808c0.281-0.558,0.555-1.043,0.82-1.456
			c0.264-0.413,0.512-0.737,0.74-0.97c0.23-0.235,0.436-0.352,0.613-0.352c0.217,0,0.391,0.055,0.523,0.166
			c0.129,0.111,0.23,0.271,0.301,0.48c0.07,0.21,0.115,0.466,0.135,0.768c0.018,0.302,0.027,0.644,0.027,1.026
			c0,0.555-0.064,1.162-0.195,1.821c-0.131,0.66-0.254,1.321-0.371,1.983c-0.113,0.662-0.242,1.327-0.383,1.993
			s-0.264,1.269-0.369,1.81c-0.105,0.541-0.197,1.008-0.271,1.4c-0.074,0.393-0.051,0.669,0.066,0.83c0,0.241,0.029,0.444,0.09,0.61
			c0.057,0.167,0.135,0.304,0.23,0.411c0.094,0.108,0.205,0.187,0.332,0.237c0.125,0.049,0.254,0.074,0.383,0.074
			s0.258-0.017,0.387-0.051c0.129-0.034,0.252-0.088,0.367-0.162s0.217-0.171,0.307-0.292c0.088-0.12,0.154-0.267,0.197-0.439
			c0.119-0.614,0.227-1.253,0.322-1.919c0.096-0.665,0.232-1.37,0.412-2.115c0.178-0.744,0.342-1.465,0.492-2.161
			c0.148-0.696,0.33-1.362,0.545-1.998c0.215-0.635,0.441-1.226,0.682-1.773c0.24-0.546,0.5-1.02,0.775-1.418
			c0.277-0.399,0.57-0.713,0.881-0.94c0.309-0.227,0.639-0.341,0.988-0.341c0.174,0,0.312,0.043,0.418,0.129
			s0.186,0.208,0.242,0.365c0.055,0.157,0.094,0.348,0.111,0.573c0.02,0.225,0.027,0.476,0.027,0.753
			c0,0.373-0.043,0.809-0.133,1.309c-0.088,0.5-0.18,1.009-0.271,1.527c-0.092,0.518-0.186,1.037-0.279,1.559
			s-0.186,1.035-0.275,1.54c-0.092,0.506-0.178,0.995-0.264,1.466c-0.084,0.473-0.139,0.915-0.164,1.328
			c-0.006,0.055-0.01,0.111-0.014,0.166c-0.002,0.056-0.004,0.108-0.004,0.157c0,0.444,0.074,0.837,0.223,1.179
			c0.146,0.342,0.344,0.629,0.59,0.86c0.246,0.231,0.529,0.405,0.846,0.522s0.643,0.176,0.975,0.176
			c0.344,0,0.689-0.052,1.037-0.157c0.348-0.104,0.691-0.276,1.031-0.514c0.32-0.224,0.635-0.516,0.943-0.863
			c0.074,0.119,0.143,0.244,0.23,0.353c0.287,0.36,0.646,0.647,1.078,0.861c0.432,0.214,0.936,0.32,1.512,0.32
			c0.369,0,0.736-0.042,1.096-0.129c0.361-0.085,0.709-0.2,1.045-0.343c0.336-0.143,0.656-0.306,0.961-0.49
			c0.268-0.161,0.514-0.326,0.75-0.492c0.082,0.191,0.174,0.374,0.291,0.539c0.193,0.277,0.438,0.499,0.73,0.666
			c0.291,0.167,0.639,0.25,1.039,0.25c0.285,0,0.566-0.048,0.848-0.143s0.561-0.221,0.836-0.378
			c0.275-0.157,0.541-0.342,0.797-0.555c0.256-0.212,0.5-0.437,0.729-0.672c0.15,0.379,0.33,0.684,0.535,0.913
			c0.205,0.229,0.41,0.403,0.615,0.525s0.395,0.201,0.568,0.24c0.174,0.04,0.303,0.06,0.393,0.06c0.148,0,0.314-0.028,0.494-0.083
			c0.182-0.056,0.367-0.127,0.557-0.216c0.191-0.088,0.387-0.189,0.584-0.304c0.197-0.115,0.385-0.231,0.562-0.349
			c0.174-0.115,0.35-0.241,0.525-0.368c0.014,0.079,0.023,0.16,0.043,0.234c0.059,0.231,0.154,0.426,0.291,0.587
			s0.312,0.285,0.531,0.375c0.219,0.089,0.488,0.134,0.811,0.134c0.355,0,0.734-0.065,1.131-0.194
			c0.398-0.129,0.787-0.291,1.17-0.485c0.383-0.195,0.738-0.407,1.068-0.638c0.145-0.102,0.277-0.201,0.4-0.297
			c0.09,0.331,0.189,0.656,0.303,0.971c0.205,0.579,0.459,1.09,0.758,1.533s0.646,0.796,1.043,1.057
			c0.398,0.262,0.85,0.393,1.355,0.393c0.477,0,0.916-0.087,1.318-0.263c0.402-0.176,0.766-0.413,1.092-0.71
			c0.324-0.298,0.609-0.646,0.854-1.042c0.244-0.397,0.453-0.816,0.621-1.259c0.172-0.442,0.301-0.896,0.391-1.36
			c0.09-0.464,0.141-0.912,0.154-1.345c0-0.037,0-0.105,0.004-0.203c0.004-0.099,0.006-0.215,0.01-0.348
			c0.002-0.133,0.008-0.279,0.014-0.439s0.012-0.321,0.018-0.482c0.014-0.376,0.029-0.79,0.047-1.24
			c0.975-0.148,1.822-0.404,2.545-0.768s1.322-0.796,1.797-1.295c0.252-0.267,0.469-0.547,0.654-0.84
			c-0.004,0.012-0.006,0.021-0.006,0.021s-0.09,0.505-0.266,1.515c-0.178,1.011-0.268,1.818-0.268,2.422
			c0,0.704,0.061,1.376,0.18,2.016c0.119,0.64,0.285,1.203,0.496,1.688c0.213,0.485,0.461,0.873,0.748,1.16
			c0.285,0.288,0.594,0.433,0.926,0.433c0.215,0,0.447-0.028,0.695-0.084c0.246-0.055,0.5-0.13,0.76-0.224
			c0.262-0.094,0.52-0.201,0.777-0.321c0.213-0.099,0.416-0.2,0.619-0.302c0.061,0.084,0.119,0.171,0.189,0.245
			c0.215,0.227,0.463,0.401,0.744,0.521c0.279,0.122,0.568,0.183,0.863,0.183c0.279,0,0.559-0.045,0.84-0.138
			c0.279-0.091,0.549-0.209,0.805-0.352c0.258-0.144,0.496-0.304,0.713-0.48c0.219-0.177,0.402-0.352,0.551-0.522
			c0.199,0.495,0.436,0.871,0.709,1.13c0.273,0.26,0.613,0.389,1.023,0.389c0.34,0,0.678-0.084,1.018-0.253
			c0.211-0.104,0.41-0.229,0.604-0.362c0.111,0.035,0.23,0.058,0.369,0.058c0.172,0,0.377-0.036,0.611-0.106
			c0.27,0.136,0.52,0.249,0.748,0.337s0.428,0.161,0.6,0.217c0.174,0.057,0.312,0.097,0.418,0.12
			c0.104,0.023,0.168,0.035,0.193,0.035c0.303,0,0.625-0.035,0.967-0.107s0.678-0.169,1.008-0.293
			c0.33-0.123,0.645-0.266,0.947-0.427c0.102-0.054,0.191-0.111,0.285-0.167c0.055,0.073,0.105,0.152,0.168,0.218
			c0.215,0.227,0.463,0.401,0.744,0.521c0.279,0.122,0.568,0.183,0.865,0.183c0.279,0,0.559-0.045,0.838-0.138
			c0.279-0.091,0.549-0.209,0.807-0.352c0.258-0.144,0.494-0.304,0.713-0.48c0.217-0.177,0.4-0.352,0.551-0.522
			c0.197,0.495,0.434,0.871,0.707,1.13c0.273,0.26,0.615,0.389,1.025,0.389c0.338,0,0.678-0.084,1.016-0.253
			c0.34-0.167,0.656-0.374,0.953-0.617c0.295-0.243,0.562-0.499,0.799-0.767c0.238-0.269,0.428-0.502,0.57-0.701L86.326,100.644z
			 M24.555,100.086c0.014-0.187,0.07-0.424,0.172-0.714c0.104-0.288,0.191-0.531,0.27-0.727s0.18-0.371,0.307-0.525
			c0.127-0.153,0.285-0.278,0.473-0.375c0.189-0.097,0.416-0.145,0.684-0.145c0.146,0,0.273,0.087,0.375,0.262
			c0.102,0.175,0.152,0.398,0.152,0.668c0,0.193-0.107,0.438-0.324,0.732c-0.217,0.295-0.438,0.53-0.664,0.706
			c-0.225,0.175-0.469,0.318-0.732,0.429c-0.264,0.112-0.506,0.167-0.729,0.167C24.537,100.433,24.543,100.273,24.555,100.086z
			 M33.756,102.045c-0.074,0.11-0.156,0.215-0.246,0.316c-0.088,0.102-0.182,0.192-0.281,0.271c-0.1,0.079-0.203,0.143-0.311,0.192
			s-0.217,0.074-0.328,0.074c-0.217,0-0.391-0.024-0.527-0.072c-0.135-0.048-0.24-0.111-0.314-0.188s-0.125-0.165-0.152-0.261
			s-0.041-0.192-0.041-0.289c0-0.311,0.055-0.66,0.166-1.044c0.111-0.385,0.273-0.845,0.486-1.38s0.477-0.965,0.795-1.291
			c0.316-0.327,0.68-0.589,1.086-0.788c0.006-0.006,0.012,0.055,0.018,0.186c0.006,0.13,0.012,0.299,0.014,0.504
			c0.004,0.205,0.008,0.432,0.016,0.681c0.006,0.248,0.012,0.566,0.018,0.956c0.006,0.388,0.016,0.677,0.029,0.867
			c0.012,0.189,0.027,0.328,0.047,0.414C34.086,101.51,33.928,101.794,33.756,102.045z M36.436,98.08v-0.094
			c0-0.094,0-0.228,0-0.402c0-0.175-0.048-0.38-0.04-0.614c0.006-0.234-0.007-0.493,0.011-0.777c0.016-0.285,0.025-0.58,0.051-0.885
			c0.014-0.15,0.029-0.404,0.062-0.759c0.033-0.356,0.074-0.756,0.127-1.199c0.055-0.444,0.138-0.897,0.253-1.359
			c0.117-0.464,0.224-0.892,0.323-1.286c0.1-0.394,0.229-0.716,0.391-0.966c0.164-0.25,0.348-0.375,0.547-0.375
			c0.113,0,0.199,0.065,0.258,0.194s0.09,0.36,0.09,0.693c0,0.253-0.02,0.596-0.059,1.028c-0.031,0.326-0.088,0.672-0.168,1.036
			c-0.08,0.364-0.178,0.731-0.293,1.103s-0.232,0.746-0.35,1.122c-0.117,0.377-0.187,0.74-0.306,1.087
			C37.044,96.44,36.436,97.258,36.436,98.08z M56.486,94.375c-0.139,0.337-0.352,0.646-0.637,0.928
			c-0.285,0.281-0.646,0.524-1.084,0.73c-0.436,0.206-0.955,0.356-1.559,0.45l0.084-0.74l0.562-2.406c0-0.025,0-0.045,0.004-0.061
			s0.004-0.045,0.004-0.089c0-0.155-0.031-0.281-0.096-0.38c-0.066-0.1-0.145-0.178-0.24-0.237c-0.096-0.06-0.203-0.099-0.32-0.121
			c-0.115-0.022-0.23-0.033-0.342-0.033c-0.365,0-0.674,0.092-0.922,0.275c-0.248,0.185-0.451,0.417-0.605,0.697
			c-0.156,0.28-0.273,0.589-0.354,0.925c-0.082,0.337-0.139,0.659-0.174,0.968c-0.033,0.308-0.053,0.582-0.055,0.822
			c-0.004,0.24-0.006,0.399-0.006,0.48c-0.109-0.024-0.232-0.064-0.365-0.115c-0.117-0.045-0.258-0.104-0.422-0.178
			c-0.166-0.074-0.35-0.168-0.551-0.284c-0.08-0.045-0.145-0.081-0.197-0.106c-0.051-0.025-0.109-0.039-0.17-0.039
			c-0.092,0-0.164,0.027-0.215,0.081c-0.053,0.054-0.092,0.123-0.119,0.209c-0.027,0.085-0.045,0.184-0.051,0.294
			c-0.006,0.111-0.01,0.223-0.01,0.337c0,0.206,0.021,0.386,0.061,0.541c0.039,0.154,0.133,0.301,0.279,0.44
			c0.146,0.14,0.163,0.285,0.454,0.437c0.289,0.151,0.993,0.328,0.993,0.527v0.435c0,0.285,0.196,0.628,0.185,1.033
			c-0.012,0.405,0.062,0.829,0.019,1.273c-0.043,0.444-0.059,0.887-0.145,1.328c-0.088,0.441-0.18,0.836-0.326,1.185
			c-0.148,0.349-0.318,0.633-0.539,0.852c-0.223,0.219-0.487,0.329-0.802,0.329c-0.303,0-0.55-0.128-0.749-0.384
			c-0.201-0.256-0.365-0.586-0.498-0.99c-0.133-0.405-0.23-0.857-0.299-1.356c-0.068-0.499-0.117-0.993-0.148-1.48
			c-0.031-0.488-0.047-0.946-0.051-1.375c-0.002-0.428-0.004-0.77-0.004-1.022c0-0.618,0.045-1.253,0.135-1.905
			c0.09-0.651,0.229-1.286,0.416-1.9c0.189-0.615,0.428-1.194,0.719-1.738c0.289-0.544,0.633-1.02,1.029-1.428
			c0.395-0.407,0.846-0.73,1.352-0.968c0.508-0.238,1.072-0.357,1.697-0.357c0.83,0,1.521,0.097,2.068,0.289
			c0.549,0.192,0.986,0.436,1.312,0.734c0.326,0.297,0.557,0.626,0.688,0.99c0.133,0.362,0.199,0.717,0.199,1.063
			C56.693,93.691,56.625,94.037,56.486,94.375z M60.264,95.44c0.166-0.835,0.248-1.253,0.248-1.253s0.137-0.451,0.408-1.351
			s0.506-1.55,0.701-1.95c0.195-0.399,0.391-0.716,0.588-0.95c0.193-0.234,0.377-0.352,0.547-0.352c0.047,0,0.074,0.064,0.082,0.191
			c0.01,0.127,0.014,0.281,0.014,0.462c-0.055,0.565-0.186,1.176-0.389,1.832c-0.205,0.656-0.445,1.313-0.725,1.972
			c-0.277,0.659-0.572,1.299-0.885,1.92c-0.312,0.623-0.607,1.182-0.887,1.679C59.998,97.009,60.098,96.275,60.264,95.44z
			 M66.969,100.588c-0.023,0.199-0.078,0.447-0.16,0.744c-0.084,0.298-0.193,0.586-0.33,0.866c-0.135,0.279-0.297,0.518-0.482,0.717
			c-0.184,0.198-0.391,0.298-0.619,0.298c-0.143,0-0.26-0.037-0.352-0.11c-0.094-0.073-0.168-0.168-0.223-0.286
			c-0.057-0.118-0.096-0.25-0.117-0.4c-0.021-0.15-0.031-0.304-0.031-0.463c0-0.269,0.035-0.557,0.107-0.862
			c0.07-0.305,0.191-0.659,0.363-1.062c0.174-0.404,0.35-0.742,0.527-1.018c0.18-0.274,0.375-0.52,0.588-0.733
			s0.439-0.383,0.68-0.509s0.486-0.188,0.738-0.188L66.969,100.588z M81.154,100.588c-0.025,0.199-0.08,0.447-0.162,0.744
			c-0.084,0.298-0.193,0.586-0.33,0.866c-0.135,0.279-0.295,0.518-0.48,0.717c-0.186,0.198-0.393,0.298-0.621,0.298
			c-0.141,0-0.26-0.037-0.352-0.11c-0.094-0.073-0.166-0.168-0.223-0.286s-0.094-0.25-0.115-0.4
			c-0.021-0.15-0.033-0.304-0.033-0.463c0-0.269,0.035-0.557,0.107-0.862c0.07-0.305,0.191-0.659,0.365-1.062
			c0.172-0.404,0.348-0.742,0.525-1.018c0.18-0.274,0.375-0.52,0.588-0.733s0.439-0.383,0.68-0.509s0.486-0.188,0.74-0.188
			L81.154,100.588z"/>
	</g>
	<g>
		<path fill="#7EA65F" d="M21.027,70.399c0.004-0.004,0.246,0.194,0.246,0.194s-7.576-4.746,12.402-10.935
			c-0.045,0.106-0.223,0.085-0.307,0.157l2.531-2.171c-0.004,0.002,0.16,0.235,0.092,0.179c-3.859-3.312-4.445-7.581,0.291-11.655
			l-2.137-1.833c-0.725,0.735,0.115,0.118,0.15,0.202c-19.975-6.191-12.6-10.766-12.6-10.766s-0.729,0.62,0.057-0.064l-5.496-4.712
			c-0.797,0.672-0.219,0.149-0.344,0.256c-4.014,3.441-3.207,9.886-1.631,15.126c-0.809,0.395-1.557,0.875-2.25,1.469
			c-4.123,3.535-4.156,9.226-0.084,12.717c0.791,0.677,1.328,0.917,2.273,1.33c-1.824,5.38-3.166,12.277,0.762,15.692L21.027,70.399
			z M19.32,45.705c0,0-1.131-6.066,13.941,0C18.189,51.771,19.32,45.705,19.32,45.705z M19.625,58.764c0,0-1.131-6.07,13.945-0.003
			C18.494,64.828,19.625,58.764,19.625,58.764z"/>
		<path fill="#7EA65F" d="M14.984,75.583c3.98,3.367,12.559,2.671,18.832,1.106c0.48,0.812,1.162,1.612,1.951,2.29
			c4.072,3.491,10.779,3.515,14.902-0.02c0.691-0.594,1.297-1.218,1.758-1.91c6.111,1.352,13.619,2.079,17.631-1.363
			c0.125-0.106-0.469,0.403,0.314-0.282l-5.494-4.713c-0.795,0.675-0.049,0.029-0.049,0.029s-5.383,6.364-12.6-10.765
			c0.098,0.029-0.602,0.73,0.256,0.109l-2.137-1.833c-4.752,4.064-10.266,3.101-14.125-0.209c-0.066-0.058-0.328-0.375-0.324-0.377
			l-2.531,2.171c0.084-0.072,0.459,0.119,0.584,0.082c-7.217,17.131-12.754,10.631-12.754,10.631s-0.168-0.133-0.172-0.129
			L14.984,75.583z M50.889,60.821c7.074,12.928,0.002,11.958,0.002,11.958S43.814,73.749,50.889,60.821z M35.664,60.559
			c7.076,12.93,0,11.959,0,11.959S28.592,73.488,35.664,60.559z"/>
		<path fill="#7EA65F" d="M65.666,33.474c-0.004,0.003-0.115-0.08-0.115-0.08s7.51,4.689-12.467,10.877
			c0.045-0.106,0.154-0.141,0.24-0.214l-2.533,2.171c0.004-0.002-0.193,0.024-0.129,0.082c3.863,3.31,3.629,8.517-0.32,11.914
			l2.137,1.833c-0.066-0.057,0.053-0.262,0.016-0.342C72.471,65.903,65.01,70.55,65.01,70.55s-0.143,0.132-0.137,0.136l5.492,4.71
			c0.008,0.007,0.391-0.293,0.514-0.399c4.014-3.44,3.291-9.955,1.715-15.197c0.809-0.396,1.6-0.91,2.289-1.503
			c4.125-3.536,4.18-9.245,0.107-12.737c-0.789-0.677-1.453-1.043-2.398-1.455c1.824-5.378,3.043-12.4-0.883-15.815L65.666,33.474z
			 M67.643,58.399c0,0,1.129,6.066-13.943,0C68.771,52.333,67.643,58.399,67.643,58.399z M67.336,45.341
			c0,0,1.131,6.07-13.945,0.003C68.467,39.275,67.336,45.341,67.336,45.341z"/>
		<path fill="#7EA65F" d="M71.709,28.29c-4.773-4.045-12.426-2.555-18.699-0.99c-0.48-0.812-1.094-1.555-1.885-2.232
			c-4.072-3.493-10.746-3.486-14.867,0.049c-0.693,0.593-1.279,1.232-1.744,1.926c-6.107-1.352-13.775-1.929-17.789,1.513
			c-0.123,0.106-0.48,0.428-0.473,0.434l5.494,4.71c0.004,0.006,0.217-0.168,0.217-0.168s5.299-6.294,12.518,10.836
			c-0.1-0.03-0.275,0.019-0.342-0.038l2.139,1.833c3.961-3.386,10.295-3.361,14.156-0.049c0.066,0.056,0.361,0.115,0.357,0.117
			l2.533-2.171c-0.086,0.073-0.326-0.004-0.451,0.034c7.217-17.133,12.689-10.69,12.689-10.69s0.1,0.075,0.104,0.072L71.709,28.29z
			 M36.074,43.283c-7.076-12.928-0.002-11.958-0.002-11.958S43.145,30.356,36.074,43.283z M51.297,43.546
			c-7.076-12.93,0.002-11.959,0.002-11.959S58.369,30.616,51.297,43.546z"/>
	</g>
	<path fill="#808080" d="M78.814,44.316c-1.137-0.875-2.191-0.921-1.727-2.434c0.369-1.206,0.645-2.437,0.896-3.671
		c0.439-2.168,0.57-4.382,0.367-6.582c-0.912-9.841-12.164-10.046-19.605-8.73c-2.24,0.396-3.809,1.504-5.4-0.39
		c-1.334-1.584-3.334-2.541-5.232-3.235c-4.068-1.488-8.785-0.535-12.305,1.8c-2.385,1.581-2.002,2.588-5.033,2.058
		c-2.461-0.43-4.953-0.623-7.451-0.618c-3.766,0.008-7.807,0.882-10.594,3.564c-0.014,0.014-0.023,0.029-0.035,0.043
		c-0.055,0.043-0.107,0.087-0.16,0.13c-0.061,0.034-0.125,0.064-0.18,0.118c-0.033,0.03-0.059,0.062-0.09,0.093l0,0l0,0
		c-2.168,2.121-3.062,4.657-3.354,7.65c-0.162,1.679,0.07,3.38,0.305,5.04c0.311,2.196,1.504,3.521-0.375,4.99
		c-5.357,4.189-5.891,11.164-0.879,15.869c1.703,1.601,2.162,0.973,1.451,3.452c-0.469,1.637-0.842,3.35-1.002,5.046
		c-0.289,3.021-0.244,6.621,1.775,9.117c4.344,5.362,12.953,4.442,18.984,3.48c2.123-0.338,2.902-0.964,4.354,0.737
		c1.096,1.284,2.674,2.166,4.182,2.851c3.094,1.407,6.66,1.321,9.865,0.405c1.309-0.375,2.648-1.063,3.713-1.9
		c1.457-1.146,1.92-2.472,3.857-2.088c3.709,0.735,7.715,1.231,11.479,0.657c6.082-0.928,10.438-4.692,11.25-10.903
		c0.156-1.188-1.178-9.646-0.828-9.835c2.965-1.609,4.928-4.621,5.445-7.899C82.998,49.89,81.389,46.294,78.814,44.316z
		 M75.33,60.097c-0.32,0.172-0.477,0.582-0.377,0.926c1.645,5.699,2.662,12.423-2.42,16.653c-5.045,4.202-13.068,2.703-18.916,1.453
		c-0.398-0.085-0.691,0.064-0.926,0.377c-4.75,6.277-14.779,6.134-19.213-0.4c-0.213-0.314-0.547-0.467-0.926-0.376
		c-5.758,1.379-12.619,2.48-18.266,0.095c-6.82-2.881-4.174-12.427-2.436-17.699c0.105-0.32-0.059-0.782-0.377-0.926
		C4.02,56.824,4.836,48.03,11.543,44.42c0.318-0.171,0.477-0.582,0.377-0.926c-1.494-5.166-2.76-11.661,1.492-15.854
		c0.17-0.126,0.338-0.271,0.484-0.393c0.033-0.026,0.057-0.054,0.082-0.082c4.879-4.584,13.469-3.121,19.352-1.872
		c0.395,0.084,0.691-0.063,0.926-0.376c4.641-6.231,14.709-6.249,19.08,0.285c0.211,0.315,0.551,0.469,0.926,0.377
		c5.963-1.466,12.834-3.112,18.568-0.06c6.252,3.328,3.855,12.399,2.121,17.674c-0.105,0.325,0.059,0.776,0.377,0.926
		C82.803,47.653,82.227,56.353,75.33,60.097z"/>
	<g>
		<path fill="#7EA65F" d="M32.42,0.262h3.297c1.189,0,2.146,0.273,2.869,0.819c0.723,0.546,1.084,1.378,1.084,2.497
			c0,0.843-0.227,1.574-0.682,2.192c-0.455,0.618-1.162,1.083-2.123,1.398c0.66,0.17,1.148,0.462,1.465,0.877
			c0.318,0.416,0.559,1.026,0.723,1.83l0.803,4.071h-1.422l-0.541-3.296c-0.176-1.047-0.473-1.802-0.887-2.266
			C36.59,7.92,35.99,7.688,35.207,7.688h-1.482v6.259H32.42V0.262z M33.725,1.458v5.121h1.363c0.969,0,1.75-0.257,2.346-0.77
			c0.596-0.514,0.893-1.208,0.893-2.084c0-0.759-0.213-1.326-0.637-1.702c-0.426-0.376-1.064-0.564-1.914-0.564H33.725z"/>
		<path fill="#7EA65F" d="M47.293,12.965c-0.996,0.799-1.969,1.197-2.918,1.197c-1.113,0-2.014-0.446-2.701-1.339
			c-0.689-0.893-1.033-2.055-1.033-3.488c0-1.478,0.355-2.673,1.064-3.585c0.711-0.913,1.607-1.369,2.693-1.369
			c0.961,0,1.732,0.368,2.314,1.104s0.873,1.666,0.873,2.791v0.608h-5.67v0.48c0,1.216,0.254,2.136,0.76,2.756
			c0.508,0.622,1.102,0.933,1.781,0.933c0.941,0,1.887-0.521,2.836-1.56V12.965z M46.271,7.834
			c-0.025-0.775-0.225-1.356-0.596-1.743c-0.373-0.388-0.807-0.582-1.303-0.582c-0.502,0-0.971,0.193-1.404,0.582
			c-0.434,0.387-0.742,0.968-0.924,1.743H46.271z"/>
		<path fill="#7EA65F" d="M48.861,11.916c0.916,0.746,1.789,1.119,2.619,1.119c0.643,0,1.172-0.163,1.59-0.487
			c0.418-0.325,0.627-0.736,0.627-1.235c0-0.361-0.139-0.663-0.416-0.905c-0.277-0.243-0.816-0.482-1.613-0.718
			c-0.982-0.294-1.697-0.63-2.148-1.01s-0.678-0.906-0.678-1.58c0-0.771,0.305-1.418,0.912-1.938c0.609-0.52,1.361-0.78,2.258-0.78
			c0.719,0,1.537,0.254,2.451,0.761V6.53c-0.777-0.68-1.576-1.02-2.393-1.02c-0.562,0-1.025,0.151-1.389,0.453
			s-0.545,0.666-0.545,1.093c0,0.361,0.164,0.656,0.49,0.886c0.32,0.236,0.854,0.459,1.6,0.669c1.832,0.51,2.746,1.379,2.746,2.609
			c0,0.831-0.334,1.529-1.004,2.094c-0.672,0.565-1.484,0.849-2.438,0.849c-0.885,0-1.773-0.284-2.67-0.854V11.916z"/>
		<path fill="#7EA65F" d="M57.033,1.812h1.109v2.786h1.775v1.069h-1.775V12.2c0,0.274,0.072,0.482,0.215,0.623
			c0.145,0.141,0.359,0.211,0.648,0.211c0.262,0,0.564-0.104,0.912-0.314v1.226c-0.432,0.144-0.854,0.216-1.266,0.216
			c-0.504,0-0.916-0.147-1.236-0.442c-0.32-0.295-0.48-0.74-0.48-1.335V5.667H55.65V4.598h1.285L57.033,1.812z"/>
	</g>
	<g>
		<path fill="#7EA65F" d="M21.334,109.122h0.631v5.912h2.402v0.546h-3.033V109.122z"/>
		<path fill="#7EA65F" d="M26.502,111.066c0.484,0,0.889,0.211,1.213,0.632c0.324,0.422,0.486,0.979,0.486,1.674
			c0,0.401-0.064,0.78-0.193,1.136c-0.127,0.356-0.326,0.642-0.594,0.855s-0.58,0.319-0.936,0.319c-0.527,0-0.943-0.217-1.248-0.653
			c-0.303-0.435-0.457-0.98-0.457-1.634c0-0.522,0.098-0.973,0.289-1.352c0.191-0.38,0.424-0.638,0.701-0.774
			C26.039,111.135,26.285,111.066,26.502,111.066z M26.541,111.613c-0.387,0-0.678,0.164-0.873,0.491
			c-0.193,0.327-0.291,0.773-0.291,1.338c0,0.484,0.096,0.891,0.287,1.218s0.461,0.491,0.809,0.491c0.326,0,0.596-0.152,0.809-0.457
			c0.211-0.304,0.318-0.748,0.318-1.331c0-0.556-0.104-0.986-0.312-1.292C27.08,111.766,26.832,111.613,26.541,111.613z"/>
		<path fill="#7EA65F" d="M28.834,114.622c0.432,0.352,0.846,0.528,1.236,0.528c0.303,0,0.553-0.077,0.75-0.23
			c0.199-0.153,0.297-0.348,0.297-0.583c0-0.17-0.066-0.313-0.197-0.428c-0.131-0.114-0.385-0.227-0.762-0.338
			c-0.463-0.139-0.801-0.298-1.014-0.477c-0.213-0.179-0.32-0.427-0.32-0.745c0-0.364,0.145-0.669,0.432-0.915
			s0.643-0.368,1.064-0.368c0.34,0,0.727,0.12,1.158,0.359v0.654c-0.369-0.32-0.744-0.481-1.129-0.481
			c-0.268,0-0.486,0.071-0.656,0.213c-0.172,0.143-0.258,0.315-0.258,0.516c0,0.171,0.078,0.311,0.232,0.419
			c0.15,0.111,0.402,0.216,0.754,0.315c0.865,0.241,1.297,0.65,1.297,1.231c0,0.392-0.158,0.722-0.475,0.989
			c-0.316,0.267-0.699,0.4-1.15,0.4c-0.416,0-0.836-0.134-1.26-0.403V114.622z"/>
		<path fill="#7EA65F" d="M35.9,109.122h0.617l1.803,6.458h-0.703l-0.549-2.232h-1.715l-0.547,2.232h-0.688L35.9,109.122z
			 M36.197,109.909l-0.715,2.917h1.445L36.197,109.909z"/>
		<path fill="#7EA65F" d="M38.797,109.122h0.584v6.458h-0.584V109.122z"/>
		<path fill="#7EA65F" d="M42.973,111.168h0.432v4.667c0,0.596-0.162,1.062-0.486,1.398c-0.324,0.337-0.713,0.505-1.168,0.505
			c-0.396,0-0.826-0.158-1.285-0.472v-0.689c0.447,0.429,0.867,0.643,1.262,0.643c0.328,0,0.592-0.128,0.793-0.384
			c0.201-0.257,0.301-0.59,0.301-1v-0.949c-0.154,0.232-0.322,0.405-0.504,0.521c-0.184,0.116-0.379,0.174-0.59,0.174
			c-0.445,0-0.818-0.216-1.115-0.648c-0.295-0.432-0.443-0.949-0.443-1.551c0-0.648,0.164-1.196,0.496-1.643
			c0.33-0.448,0.721-0.672,1.176-0.672c0.193,0,0.371,0.043,0.537,0.127c0.162,0.086,0.311,0.213,0.443,0.382L42.973,111.168z
			 M42.82,112.113c-0.133-0.163-0.271-0.285-0.416-0.366c-0.145-0.08-0.299-0.121-0.459-0.121c-0.34,0-0.619,0.166-0.838,0.496
			s-0.328,0.751-0.328,1.264c0,0.469,0.096,0.866,0.285,1.192c0.193,0.326,0.449,0.488,0.775,0.488c0.281,0,0.514-0.128,0.701-0.384
			c0.188-0.256,0.279-0.587,0.279-0.995V112.113z"/>
		<path fill="#7EA65F" d="M45.867,111.066c0.484,0,0.887,0.211,1.213,0.632c0.324,0.422,0.486,0.979,0.486,1.674
			c0,0.401-0.064,0.78-0.193,1.136c-0.127,0.356-0.326,0.642-0.596,0.855c-0.268,0.213-0.578,0.319-0.934,0.319
			c-0.527,0-0.945-0.217-1.248-0.653c-0.305-0.435-0.457-0.98-0.457-1.634c0-0.522,0.098-0.973,0.287-1.352
			c0.193-0.38,0.426-0.638,0.701-0.774C45.404,111.135,45.65,111.066,45.867,111.066z M45.906,111.613
			c-0.387,0-0.678,0.164-0.873,0.491c-0.193,0.327-0.293,0.773-0.293,1.338c0,0.484,0.098,0.891,0.289,1.218
			s0.461,0.491,0.807,0.491c0.328,0,0.598-0.152,0.811-0.457c0.211-0.304,0.316-0.748,0.316-1.331c0-0.556-0.102-0.986-0.311-1.292
			C46.445,111.766,46.197,111.613,45.906,111.613z"/>
		<path fill="#7EA65F" d="M50.834,109.122h0.584v6.458h-0.584v-0.621c-0.145,0.241-0.309,0.421-0.494,0.542
			c-0.184,0.121-0.385,0.181-0.604,0.181c-0.465,0-0.84-0.228-1.129-0.683c-0.287-0.455-0.432-0.985-0.432-1.59
			c0-0.648,0.158-1.2,0.477-1.657c0.316-0.457,0.719-0.686,1.207-0.686c0.158,0,0.318,0.036,0.48,0.107s0.326,0.179,0.494,0.324
			V109.122z M50.834,112.058c-0.121-0.148-0.25-0.259-0.393-0.331c-0.143-0.073-0.297-0.109-0.465-0.109
			c-0.342,0-0.627,0.164-0.855,0.491s-0.342,0.759-0.342,1.296c0,0.503,0.1,0.92,0.301,1.25c0.199,0.33,0.455,0.496,0.768,0.496
			c0.275,0,0.508-0.122,0.699-0.366c0.191-0.244,0.287-0.553,0.287-0.926V112.058z"/>
		<path fill="#7EA65F" d="M53.969,111.066c0.484,0,0.889,0.211,1.213,0.632c0.322,0.422,0.484,0.979,0.484,1.674
			c0,0.401-0.062,0.78-0.191,1.136c-0.127,0.356-0.326,0.642-0.594,0.855c-0.27,0.213-0.582,0.319-0.938,0.319
			c-0.527,0-0.941-0.217-1.246-0.653c-0.305-0.435-0.455-0.98-0.455-1.634c0-0.522,0.094-0.973,0.287-1.352
			c0.189-0.38,0.424-0.638,0.701-0.774C53.506,111.135,53.752,111.066,53.969,111.066z M54.008,111.613
			c-0.387,0-0.678,0.164-0.873,0.491c-0.195,0.327-0.291,0.773-0.291,1.338c0,0.484,0.096,0.891,0.287,1.218
			s0.461,0.491,0.807,0.491c0.328,0,0.598-0.152,0.811-0.457c0.211-0.304,0.316-0.748,0.316-1.331c0-0.556-0.104-0.986-0.311-1.292
			S54.299,111.613,54.008,111.613z"/>
		<path fill="#7EA65F" d="M56.496,111.168h0.527l0.057,0.63c0.154-0.244,0.328-0.427,0.523-0.548
			c0.195-0.122,0.412-0.184,0.65-0.184c0.375,0,0.668,0.126,0.877,0.38s0.314,0.591,0.314,1.014v3.12h-0.584v-3.12
			c0-0.259-0.066-0.466-0.203-0.621s-0.312-0.231-0.527-0.231c-0.295,0-0.543,0.129-0.746,0.386
			c-0.203,0.258-0.305,0.555-0.305,0.891v2.695h-0.584V111.168z"/>
		<path fill="#7EA65F" d="M63.361,115.118c-0.469,0.376-0.928,0.564-1.377,0.564c-0.525,0-0.951-0.21-1.275-0.632
			s-0.486-0.969-0.486-1.646c0-0.697,0.168-1.261,0.502-1.691c0.336-0.431,0.76-0.646,1.271-0.646c0.453,0,0.816,0.174,1.092,0.521
			s0.412,0.787,0.412,1.317v0.287h-2.676v0.228c0,0.574,0.121,1.007,0.359,1.3c0.238,0.293,0.518,0.44,0.84,0.44
			c0.445,0,0.891-0.245,1.338-0.736V115.118z M62.879,112.696c-0.012-0.366-0.105-0.64-0.281-0.823
			c-0.176-0.183-0.379-0.274-0.613-0.274c-0.238,0-0.459,0.091-0.664,0.274c-0.203,0.183-0.35,0.457-0.436,0.823H62.879z"/>
		<path fill="#7EA65F" d="M64.102,114.622c0.434,0.352,0.846,0.528,1.236,0.528c0.303,0,0.553-0.077,0.75-0.23
			c0.199-0.153,0.297-0.348,0.297-0.583c0-0.17-0.066-0.313-0.195-0.428c-0.133-0.114-0.387-0.227-0.764-0.338
			c-0.461-0.139-0.801-0.298-1.014-0.477c-0.213-0.179-0.318-0.427-0.318-0.745c0-0.364,0.143-0.669,0.43-0.915
			s0.643-0.368,1.064-0.368c0.34,0,0.727,0.12,1.158,0.359v0.654c-0.367-0.32-0.744-0.481-1.129-0.481
			c-0.268,0-0.484,0.071-0.656,0.213c-0.17,0.143-0.258,0.315-0.258,0.516c0,0.171,0.078,0.311,0.232,0.419
			c0.15,0.111,0.402,0.216,0.754,0.315c0.865,0.241,1.297,0.65,1.297,1.231c0,0.392-0.158,0.722-0.475,0.989
			c-0.316,0.267-0.699,0.4-1.15,0.4c-0.416,0-0.836-0.134-1.26-0.403V114.622z"/>
	</g>
</g>
<g id="Layer_3">
</g>
</svg>
