<svg xmlns="http://www.w3.org/2000/svg" width="302" height="66" viewBox="0 0 302 66"><g fill="#FFF"><path d="M191.167 26.691c.778 0 1.446-.119 2.004-.359.557-.238 1.02-.549 1.386-.937.366-.384.634-.824.802-1.316a4.7 4.7 0 0 0 .252-1.526c0-.571-.104-1.064-.309-1.479a2.71 2.71 0 0 0-.836-1.006 3.723 3.723 0 0 0-1.238-.567 6.081 6.081 0 0 0-1.512-.184c-.854 0-1.568.135-2.141.405-.573.271-1.031.601-1.375.994a3.747 3.747 0 0 0-.744 1.261c-.152.445-.229.848-.229 1.201 0 1.064.32 1.915.961 2.556.643.637 1.635.957 2.979.957z"/><path d="M300.234 41.375a34.979 34.979 0 0 1-2.269 2.77c-.32.348-.66.685-1.018 1.01-.359.325-.719.617-1.078.875a6.309 6.309 0 0 1-1.064.624 2.466 2.466 0 0 1-1.008.239c-.428 0-.707-.199-.837-.593s-.194-.942-.194-1.641c0-.818.126-1.825.379-3.021.251-1.194.477-2.26.674-3.192a74.39 74.39 0 0 0 .525-2.734c.15-.89.229-1.699.229-2.429 0-.479-.043-.856-.126-1.135-.084-.277-.204-.493-.356-.646a1.059 1.059 0 0 0-.529-.302 2.922 2.922 0 0 0-.646-.069c-.168 0-.341.003-.518.011-.178.009-.348.013-.518.013a4.95 4.95 0 0 1-.588-.036 2.061 2.061 0 0 1-.564-.152 1.053 1.053 0 0 1-.461-.37c-.123-.17-.25-.343-.381-.521a2.057 2.057 0 0 0-.494-.475c-.199-.138-.477-.208-.83-.208a7.71 7.71 0 0 0-3.123.673 12.467 12.467 0 0 0-2.914 1.816c-.92.759-1.77 1.65-2.545 2.667-.775 1.021-1.502 2.231-2.178 3.63-.676 1.4-1.176 2.702-1.498 3.903a13.695 13.695 0 0 0-.476 3.287c-.233.194-.461.381-.706.591-.389.334-.809.646-1.259.94-.45.293-.938.538-1.466.731a5.062 5.062 0 0 1-1.752.29c-.291 0-.631-.052-1.02-.161a12.46 12.46 0 0 1-1.11-.361 26.36 26.36 0 0 1-.917-.36c-.26-.106-.396-.162-.412-.162l.115-.463c.137-.186.408-.538.812-1.057.403-.518.878-1.129 1.42-1.834a77.765 77.765 0 0 0 1.832-2.495c.68-.959 1.299-1.817 1.855-2.576a88.08 88.08 0 0 0 1.477-2.066c.428-.618.733-1.098.918-1.439.641-.169 1.098-.352 1.373-.545.275-.194.428-.353.459-.478.092-.373.137-.823.137-1.351 0-.652-.117-1.169-.355-1.549-.236-.381-.621-.572-1.156-.572a.654.654 0 0 0-.184.035c-.076.022-.21.05-.4.083-.191.029-.469.057-.836.08a23.63 23.63 0 0 1-1.466.035h-.698c-.252 0-.53-.008-.836-.024a2.936 2.936 0 0 1-1.158-.29c-.373-.18-.738-.378-1.099-.596a13.956 13.956 0 0 0-1.087-.595 2.513 2.513 0 0 0-1.101-.268c-.487 0-1.019.08-1.592.239-.573.161-1.122.467-1.648.918-.528.449-1.005 1.087-1.433 1.911-.428.825-.755 1.901-.984 3.23a6.538 6.538 0 0 0-.091 1.031c0 .366.05.66.149.881a.524.524 0 0 0 .517.332c.258 0 .549-.168.869-.502s.718-.859 1.19-1.571c.214-.328.409-.581.585-.76.176-.178.373-.312.595-.401.222-.089.493-.141.813-.155.32-.017.725-.022 1.213-.022.199 0 .383.022.551.069s.332.112.492.197c.161.085.34.182.539.291.199.108.434.224.71.346l-6.042 8.355-.42-1.927a34.76 34.76 0 0 1-2.27 2.77c-.32.348-.66.685-1.018 1.01-.359.325-.719.617-1.078.875a6.27 6.27 0 0 1-1.064.624 2.462 2.462 0 0 1-1.008.239c-.428 0-.706-.199-.836-.593s-.193-.942-.193-1.641c0-.818.125-1.825.377-3.021l.674-3.192c.197-.934.373-1.845.525-2.734.151-.89.229-1.699.229-2.429 0-.479-.042-.856-.125-1.135-.084-.277-.203-.493-.356-.646a1.063 1.063 0 0 0-.529-.302 2.935 2.935 0 0 0-.646-.069c-.169 0-.342.003-.52.011-.177.009-.348.013-.518.013-.199 0-.396-.013-.587-.036a2.052 2.052 0 0 1-.564-.152 1.047 1.047 0 0 1-.461-.37l-.381-.521a2.075 2.075 0 0 0-.494-.475c-.2-.138-.478-.208-.831-.208a7.713 7.713 0 0 0-3.122.673 12.467 12.467 0 0 0-2.914 1.816 15.973 15.973 0 0 0-2.545 2.667c-.776 1.021-1.503 2.231-2.179 3.63-.676 1.4-1.174 2.702-1.497 3.903a13.82 13.82 0 0 0-.462 2.866c-.229.144-.451.289-.69.43-.452.271-.896.51-1.324.717-.43.208-.837.373-1.22.496a3.363 3.363 0 0 1-1.021.186c-.122 0-.253-.089-.39-.266a2.992 2.992 0 0 1-.391-.716 6.295 6.295 0 0 1-.311-1.017 5.362 5.362 0 0 1-.127-1.166v-.321c.046-.309.107-.623.186-.948.076-.322.152-.626.229-.912.076-.284.157-.55.241-.797.085-.246.165-.447.241-.601a96.29 96.29 0 0 1 2.307-4.254 270.3 270.3 0 0 0 2.488-4.423 131.24 131.24 0 0 0 2.383-4.524 50.182 50.182 0 0 0 2.012-4.551c.58-1.511 1.039-3.016 1.381-4.513s.512-2.968.512-4.411c0-.581-.054-1.151-.16-1.711a4.624 4.624 0 0 0-.554-1.507 3.017 3.017 0 0 0-1.087-1.068c-.459-.271-1.043-.404-1.75-.404-.973 0-1.928.277-2.869.835s-1.844 1.322-2.707 2.296c-.863.975-1.688 2.119-2.475 3.43a38.825 38.825 0 0 0-2.186 4.231c-.373.838-.744 1.844-1.115 2.987a11.465 11.465 0 0 0-.965-4.34c-.653-1.493-1.625-2.814-2.914-3.963-1.293-1.15-2.91-2.071-4.854-2.765-1.945-.692-4.208-1.039-6.789-1.039-1.96 0-3.807.317-5.543.95s-3.342 1.531-4.819 2.688c-1.477 1.159-2.804 2.549-3.981 4.166a26.674 26.674 0 0 0-3.006 5.367 32.306 32.306 0 0 0-1.904 6.304 35.948 35.948 0 0 0-.666 6.979c0 1.403.074 2.898.219 4.484a42.6 42.6 0 0 0 .375 2.893 46.529 46.529 0 0 1-1.875 1.566 16.339 16.339 0 0 1-2.039 1.387c-.672.382-1.283.572-1.832.572-.475 0-.787-.202-.939-.606-.152-.405-.229-.95-.229-1.637 0-.703.11-1.484.329-2.341.221-.86.402-1.723.546-2.593.145-.872.413-1.922.807-3.155.394-1.233.69-2.243.892-3.026l.535-2.099c.158-.612.236-1.087.236-1.423 0-.398-.113-.713-.338-.951-.225-.236-.652-.355-1.283-.355-.345 0-.73.042-1.158.127a5.872 5.872 0 0 0-1.238.394 4.178 4.178 0 0 0-1.068.683c-.346.309-.556.657-.631 1.043-.135.551-.494 1.737-1.073 3.562-.624 2.237-1.04 3.682-1.248 4.333-.112.291-.349 1.501-.707 3.623-.604.494-1.196.964-1.765 1.38a26.77 26.77 0 0 1-1.133.774c-.39.255-.775.481-1.157.681-.382.201-.744.359-1.088.474s-.661.173-.95.173c-.298 0-.547-.092-.748-.277a1.95 1.95 0 0 1-.479-.752 4.814 4.814 0 0 1-.258-1.078c-.051-.4-.077-.825-.077-1.272 0-.356.023-.723.071-1.101a17.037 17.037 0 0 1 .406-2.12c.079-.308.158-.57.237-.787.365-.988 1.215-2.863 2.549-5.628a46.575 46.575 0 0 0 2.237-5.478l1.876-5.601c.633-1.887.971-3.929 1.015-6.121.01-.574.016-1.135.016-1.678 0-.873-.069-1.717-.207-2.536-.138-.818-.362-1.539-.675-2.158a4.15 4.15 0 0 0-1.227-1.491c-.504-.375-1.114-.562-1.832-.562-.982 0-1.935.302-2.856.906-.921.603-1.788 1.438-2.603 2.507-.814 1.069-1.562 2.335-2.246 3.801a26.437 26.437 0 0 0-1.674 4.811l-1.213 4.88c-.375 1.512-.584 3.259-.631 5.242-1.16.109-2.252.381-3.275.813-1.023.435-2.02 1.079-2.988 1.93a10.999 10.999 0 0 0-2.338 2.837 73.162 73.162 0 0 0-1.603 2.987 14.085 14.085 0 0 0-1.099 2.952 12.597 12.597 0 0 0-.33 2.246c-.551.368-1.115.723-1.707 1.053-.963.537-1.951.984-2.967 1.344-1.016.358-1.98.537-2.896.537-.292 0-.564-.029-.816-.09a2.26 2.26 0 0 1-.725-.313 2.999 2.999 0 0 1-.678-.627 6.995 6.995 0 0 1-.678-1.006c1.33-.36 2.566-.86 3.706-1.501s2.123-1.373 2.949-2.194c.827-.823 1.55-1.808 2.169-2.957.62-1.149.93-2.188.93-3.114 0-.869-.152-1.655-.459-2.356-.305-.702-.73-1.301-1.272-1.796s-1.181-.882-1.915-1.156a6.75 6.75 0 0 0-2.385-.411c-1.047 0-2 .186-2.858.554-.858.37-1.632.867-2.323 1.493s-1.295 1.35-1.812 2.17a14.474 14.474 0 0 0-1.287 2.587c-.342.904-.672 1.94-.991 3.11-.318 1.167-.479 2.173-.479 3.016 0 .35.016.694.043 1.035-.05.06-.098.131-.146.19-.352.427-.719.844-1.1 1.248-.382.406-.768.764-1.156 1.078a6.363 6.363 0 0 1-1.168.754c-.391.192-.76.287-1.111.287-.623 0-1.096-.149-1.422-.448-.326-.301-.49-.782-.49-1.45 0-.53.091-1.312.271-2.346.182-1.036.383-2.167.604-3.398l.701-3.904.752-4.188c.254-1.42.51-2.847.769-4.283.257-1.435.386-2.81.386-4.123 0-1.405-.129-2.737-.387-3.996-.258-1.261-.629-2.361-1.113-3.3-.485-.938-1.088-1.683-1.808-2.231a3.955 3.955 0 0 0-2.466-.826c-1.341 0-2.637.337-3.887 1.008-1.25.672-2.415 1.638-3.497 2.898-1.081 1.26-2.058 2.791-2.927 4.592-.868 1.802-1.6 3.834-2.193 6.092l-.481.023c.138-1.068.267-2.061.389-2.978.046-.382.095-.767.149-1.156a43.26 43.26 0 0 0 .23-1.982c.022-.26.034-.45.034-.572 0-1.344-.119-2.504-.355-3.482-.236-.977-.568-1.787-.996-2.428-.428-.641-.938-1.113-1.534-1.419a4.21 4.21 0 0 0-1.946-.458c-.959 0-1.926.26-2.898.778-.975.519-1.938 1.253-2.888 2.2-.95.946-1.874 2.08-2.771 3.4a36.057 36.057 0 0 0-2.539 4.421 51.277 51.277 0 0 0-2.203 5.246 57.685 57.685 0 0 0-1.751 5.852c.269-1.088.544-2.258.831-3.511.286-1.254.521-2.518.705-3.792.184-1.272.359-2.485.527-3.637.166-1.152.25-2.154.25-3.01 0-1.114-.072-2.13-.217-3.046-.146-.917-.401-1.699-.768-2.348a3.925 3.925 0 0 0-1.488-1.512c-.627-.359-1.412-.539-2.359-.539-.732 0-1.501.153-2.303.459s-1.588.82-2.359 1.546c-.771.726-1.504 1.696-2.198 2.908-.694 1.214-1.317 2.723-1.866 4.524a.31.31 0 0 0-.092.229c0 .167.021.354.064.56.045.206.1.4.164.584.064.183.138.339.217.47.08.13.156.194.229.194.231 0 .441-.049.631-.148a.89.89 0 0 0 .412-.493c.465-.657.972-1.271 1.521-1.843a15.454 15.454 0 0 1 1.652-1.5 9.779 9.779 0 0 1 1.576-1.02c.499-.251.924-.378 1.271-.378.217 0 .381.069.488.207.109.136.186.302.229.492.043.191.065.396.065.611v.533l.078 4.519a30.901 30.901 0 0 1-.187 4.054l-.447 3.894a20.05 20.05 0 0 1-.883 3.964 44.341 44.341 0 0 0-1.161 4.318l-1.089 4.985a14.482 14.482 0 0 0-.273 1.592 14.84 14.84 0 0 0-.092 1.729c0 .32.084.606.252.858s.396.466.686.641c.289.176.621.306.996.389a5.18 5.18 0 0 0 1.154.126c.336 0 .686-.034 1.053-.103a3.637 3.637 0 0 0 1.029-.355c.32-.169.595-.398.823-.687.228-.292.374-.665.435-1.125.346-1.41.723-2.953 1.131-4.625.408-1.671.828-3.395 1.263-5.171a49.932 49.932 0 0 1 1.612-5.285 101.366 101.366 0 0 1 1.992-5.028 81.238 81.238 0 0 1 2.076-4.476 39.805 39.805 0 0 1 2.029-3.607c.655-1.023 1.269-1.825 1.838-2.405.568-.58 1.075-.871 1.519-.871.537 0 .968.139 1.292.413s.574.673.748 1.19c.174.521.284 1.154.332 1.903.047.747.07 1.595.07 2.541 0 1.375-.162 2.88-.484 4.515a209.08 209.08 0 0 0-.916 4.912c-.287 1.64-.604 3.286-.952 4.936a296.733 296.733 0 0 0-.915 4.484 442.39 442.39 0 0 0-.67 3.47c-.184.973-.129 1.657.166 2.054 0 .597.072 1.1.217 1.513.145.411.336.752.571 1.019.236.267.511.462.823.583.312.123.629.183.949.183s.64-.042.959-.125c.319-.085.623-.219.909-.4a2.87 2.87 0 0 0 .759-.724c.221-.298.383-.662.489-1.088a96.57 96.57 0 0 0 .798-4.754c.237-1.646.577-3.395 1.021-5.24s.851-3.63 1.22-5.354c.371-1.724.82-3.373 1.351-4.947a52.918 52.918 0 0 1 1.689-4.395c.595-1.352 1.237-2.524 1.922-3.515.685-.987 1.411-1.765 2.179-2.327s1.583-.846 2.449-.846c.43 0 .775.107 1.037.321.26.213.461.515.6.905.137.39.229.862.275 1.42s.069 1.179.069 1.866c0 .924-.11 2.004-.329 3.241-.219 1.238-.444 2.499-.674 3.783-.23 1.283-.461 2.569-.691 3.861l-.684 3.815-.651 3.633a27.882 27.882 0 0 0-.405 3.288 6.998 6.998 0 0 0-.047.801c0 1.101.184 2.073.55 2.921.366.847.854 1.558 1.464 2.13a6.116 6.116 0 0 0 2.096 1.294 6.897 6.897 0 0 0 2.414.435c.85 0 1.706-.129 2.568-.388.863-.26 1.715-.684 2.555-1.271.786-.551 1.559-1.258 2.318-2.111.182.293.375.577.588.844a7.772 7.772 0 0 0 2.674 2.134c1.069.529 2.317.792 3.742.792.917 0 1.822-.105 2.717-.319a16.055 16.055 0 0 0 2.588-.848 18.964 18.964 0 0 0 2.382-1.215c.398-.24.781-.482 1.151-.728.149.291.3.58.484.843a5.507 5.507 0 0 0 1.811 1.648c.725.413 1.584.619 2.576.619a6.52 6.52 0 0 0 2.102-.352 11.58 11.58 0 0 0 2.068-.937c.681-.389 1.34-.847 1.976-1.373s1.236-1.083 1.803-1.666c.376.94.816 1.694 1.325 2.262.508.568 1.016 1 1.523 1.301.509.301.977.499 1.408.596.43.098.754.146.973.146.371 0 .78-.067 1.227-.206.447-.137.906-.316 1.381-.536.473-.218.954-.469 1.442-.753.489-.283.954-.571 1.397-.864.43-.284.863-.596 1.299-.913.031.196.059.396.105.581.145.574.385 1.059.722 1.455.335.397.774.706 1.316.928.542.221 1.21.332 2.004.332.886 0 1.821-.161 2.806-.481s1.951-.721 2.898-1.201a21.957 21.957 0 0 0 3.641-2.318c.223.82.467 1.625.745 2.406.513 1.434 1.138 2.699 1.88 3.799.738 1.096 1.602 1.97 2.587 2.618.984.648 2.103.973 3.356.973 1.18 0 2.269-.217 3.266-.651a9.734 9.734 0 0 0 2.701-1.758 12 12 0 0 0 2.115-2.582 18.653 18.653 0 0 0 1.542-3.119 19.79 19.79 0 0 0 .966-3.37c.223-1.149.35-2.259.381-3.329 0-.093.002-.259.011-.505.009-.244.015-.531.022-.86.008-.329.019-.691.035-1.09.015-.396.031-.794.045-1.192.031-.933.068-1.958.115-3.073 2.412-.366 4.515-1 6.305-1.903 1.79-.9 3.273-1.971 4.448-3.209a13.23 13.23 0 0 0 1.623-2.081l-.015.055-.661 3.751c-.44 2.502-.661 4.502-.661 6.001 0 1.744.148 3.408.445 4.993.297 1.586.707 2.98 1.232 4.184.523 1.202 1.141 2.159 1.848 2.874.708.714 1.473 1.07 2.295 1.07.533 0 1.107-.067 1.722-.206a15.774 15.774 0 0 0 1.886-.557 22.67 22.67 0 0 0 1.923-.794 62.907 62.907 0 0 0 1.534-.749c.15.208.295.425.469.607a5.564 5.564 0 0 0 1.843 1.294c.695.3 1.41.45 2.143.45.691 0 1.384-.113 2.077-.341a11.434 11.434 0 0 0 1.998-.873 12.057 12.057 0 0 0 1.766-1.189c.539-.438.993-.87 1.361-1.292.494 1.224 1.078 2.158 1.756 2.799.678.643 1.522.963 2.537.963.84 0 1.68-.208 2.52-.625a12.418 12.418 0 0 0 2.354-1.524c.206.22.448.404.742.538.335.155.732.232 1.191.232.426 0 .932-.088 1.512-.265.671.338 1.289.616 1.854.836.565.221 1.062.399 1.49.54.426.139.771.237 1.031.295.258.059.418.088.48.088.748 0 1.546-.089 2.393-.268.849-.177 1.681-.42 2.496-.725a19.12 19.12 0 0 0 2.348-1.059c.251-.135.477-.275.706-.415.136.182.263.377.416.539a5.575 5.575 0 0 0 1.843 1.294c.695.3 1.41.45 2.143.45.691 0 1.384-.113 2.077-.341a11.392 11.392 0 0 0 1.997-.873 11.91 11.91 0 0 0 1.767-1.189c.539-.438.993-.87 1.363-1.292.493 1.224 1.077 2.158 1.755 2.799.676.643 1.521.963 2.536.963.841 0 1.681-.208 2.521-.625a12.41 12.41 0 0 0 2.357-1.528 17.173 17.173 0 0 0 1.982-1.9 21.282 21.282 0 0 0 1.408-1.736l-1.102-5.039zm-153.96-1.38c.031-.462.174-1.052.426-1.769.253-.717.475-1.317.667-1.802.192-.486.444-.918.759-1.299a3.64 3.64 0 0 1 1.172-.929c.467-.24 1.031-.359 1.69-.359.368 0 .679.218.931.649.253.434.379.985.379 1.659 0 .476-.268 1.082-.804 1.814-.536.731-1.085 1.312-1.644 1.745a8.22 8.22 0 0 1-1.816 1.065c-.652.277-1.253.414-1.805.414 0-.329.016-.724.045-1.188zm21.854 4.854a8.033 8.033 0 0 1-.607.782c-.222.25-.455.474-.699.669-.244.198-.5.357-.768.478a1.916 1.916 0 0 1-.814.183c-.535 0-.969-.059-1.305-.178-.337-.12-.596-.276-.779-.467s-.309-.405-.379-.645c-.045-.158-.053-.316-.068-.474.224-.224.447-.445.666-.678l-.611-.621c.067-.483.168-.988.324-1.532.274-.954.676-2.094 1.203-3.417.525-1.324 1.182-2.391 1.969-3.199a9.63 9.63 0 0 1 2.691-1.951c.014-.016.029.138.045.461.016.324.027.739.035 1.248.008.507.019 1.071.035 1.686.016.616.031 1.406.047 2.368.015.962.038 1.679.068 2.147.031.469.07.812.116 1.028a13.378 13.378 0 0 1-1.169 2.112zm6.389-9.827v-1.23c0-.433.008-.939.024-1.521.017-.58.046-1.222.087-1.927.041-.704.097-1.435.162-2.193l.17-1.88c.08-.881.188-1.874.32-2.973.133-1.098.344-2.219.632-3.366l.801-3.184c.245-.978.569-1.774.974-2.394.402-.618.854-.927 1.351-.927.278 0 .493.16.64.481.147.321.222.893.222 1.719 0 .627-.048 1.474-.144 2.543a21.764 21.764 0 0 1-.414 2.566 33.154 33.154 0 0 1-.728 2.732l-.866 2.78a87.057 87.057 0 0 1-.885 2.691 119.458 119.458 0 0 1-2.346 6.083zm49.92-9.178c-.342.836-.868 1.602-1.576 2.298-.709.695-1.604 1.3-2.684 1.811-1.082.51-2.369.881-3.862 1.113l.206-1.833 1.395-5.96c0-.062.004-.113.01-.152.008-.039.012-.111.012-.22 0-.385-.08-.698-.239-.944a1.878 1.878 0 0 0-.597-.587 2.267 2.267 0 0 0-.789-.298 4.607 4.607 0 0 0-.846-.08c-.909 0-1.672.228-2.287.682s-1.116 1.032-1.5 1.726a8.99 8.99 0 0 0-.878 2.292 19.41 19.41 0 0 0-.427 2.396 20.291 20.291 0 0 0-.139 2.037c-.008.595-.012.992-.012 1.193a7.12 7.12 0 0 1-.908-.287 22.81 22.81 0 0 1-1.045-.44 15.927 15.927 0 0 1-1.362-.702c-.196-.11-.358-.198-.487-.263a.948.948 0 0 0-.42-.095c-.228 0-.405.066-.535.2a1.311 1.311 0 0 0-.294.518c-.068.211-.11.454-.124.728-.018.275-.023.554-.023.835 0 .511.048.958.147 1.34.098.384.328.748.692 1.092.363.347.904.707 1.624 1.083.721.375 1.707.81 2.964 1.304v1.078c0 .704-.016 1.558-.045 2.559-.031 1-.1 2.053-.207 3.153s-.268 2.198-.48 3.291c-.215 1.094-.504 2.073-.871 2.936-.365.864-.824 1.569-1.373 2.111s-1.215.815-1.992.815c-.75 0-1.371-.318-1.868-.952-.495-.633-.909-1.452-1.237-2.453-.327-1-.576-2.119-.743-3.359a51.136 51.136 0 0 1-.367-3.667 60.771 60.771 0 0 1-.126-3.404 296.145 296.145 0 0 1-.011-2.534c0-1.53.109-3.102.333-4.719a29.895 29.895 0 0 1 1.033-4.706 23.883 23.883 0 0 1 1.779-4.306 15.578 15.578 0 0 1 2.547-3.538c.979-1.01 2.098-1.81 3.354-2.399s2.655-.884 4.201-.884c2.061 0 3.77.238 5.127.714s2.441 1.081 3.248 1.818c.811.737 1.379 1.554 1.705 2.451.328.897.492 1.776.492 2.635a6.748 6.748 0 0 1-.515 2.573zm9.357 2.641l.615-3.105s.336-1.115 1.012-3.346c.672-2.23 1.25-3.84 1.734-4.831.485-.989.971-1.774 1.455-2.354s.937-.871 1.355-.871c.117 0 .186.158.207.475.021.314.032.697.032 1.143-.14 1.402-.46 2.914-.966 4.538a52.468 52.468 0 0 1-1.792 4.887 80.376 80.376 0 0 1-2.192 4.759 107.451 107.451 0 0 1-2.196 4.155c.08-1.564.324-3.381.736-5.45zm16.613 12.752c-.062.492-.195 1.106-.402 1.845s-.479 1.453-.814 2.145a7.177 7.177 0 0 1-1.193 1.775c-.459.493-.971.739-1.537.739-.352 0-.643-.09-.871-.273a1.936 1.936 0 0 1-.551-.707 3.471 3.471 0 0 1-.287-.993 8.074 8.074 0 0 1-.08-1.146c0-.666.088-1.378.264-2.135s.477-1.634.904-2.634c.428-.998.863-1.839 1.305-2.521a11.42 11.42 0 0 1 1.455-1.815 6.82 6.82 0 0 1 1.684-1.261 3.922 3.922 0 0 1 1.832-.465l-1.709 7.446zm37.012 0c-.061.492-.195 1.106-.401 1.845s-.478 1.453-.815 2.145a7.172 7.172 0 0 1-1.191 1.775c-.459.493-.971.739-1.537.739-.354 0-.643-.09-.872-.273a1.933 1.933 0 0 1-.55-.707c-.139-.293-.234-.623-.288-.993s-.079-.752-.079-1.146c0-.666.088-1.378.263-2.135s.478-1.634.905-2.634c.426-.998.862-1.839 1.305-2.521a11.31 11.31 0 0 1 1.455-1.815 6.816 6.816 0 0 1 1.683-1.261 3.928 3.928 0 0 1 1.833-.465l-1.711 7.446z"/></g><path fill="#FFF" d="M75.488 32.79c.032-3.715-2.358-6.954-5.569-8.601.924-2.857 1.6-5.835 1.644-8.85.042-2.891-.684-5.916-2.86-7.95-2.346-2.194-5.678-2.973-8.795-3.092-3.416-.129-6.848.533-10.162 1.302-.399.093-.796.188-1.194.287C43.967-.79 33.113-.677 28.261 5.637c-3.485-.737-7.072-1.198-10.633-.982-1.754.105-3.516.396-5.168 1.007-1.34.493-2.835 1.255-3.789 2.355-.008.008-.014.021-.024.031l-.183.14a.818.818 0 0 0-.132.091c-.017.013-.03.027-.046.039.039-.062.019-.031-.016.015-4.576 3.862-3.53 10.996-2.062 16.16C3.001 26.304.69 29.507.665 33.289c-.01 1.782.576 3.546 1.543 5.034.986 1.519 2.32 2.631 3.906 3.423-.943 2.9-1.666 5.915-1.712 8.971-.043 2.886.73 5.995 3.04 7.906 2.229 1.844 5.248 2.419 8.057 2.621 3.316.236 6.682-.149 9.938-.767.688-.132 1.373-.28 2.056-.442 4.599 6.689 15.512 6.725 20.417.361 3.218.685 6.506 1.162 9.799 1.097 3.06-.059 6.329-.651 8.786-2.592.936-.738 1.814-1.504 2.541-2.454.892-1.168 1.43-2.605 1.73-4.035.664-3.136.207-6.449-.543-9.528a35.106 35.106 0 0 0-.332-1.254c3.225-1.827 5.563-5.037 5.597-8.84zm-6.925 7.772c-.305.151-.455.565-.359.885.879 2.953 1.481 6.031 1.25 9.124-.105 1.404-.459 2.809-1.117 4.057-.615 1.166-1.539 1.994-2.535 2.823-2.2 1.836-5.096 2.368-7.887 2.466-3.403.122-6.812-.422-10.125-1.149-.366-.081-.675.057-.887.362-4.162 6.038-14.531 5.914-18.379-.382a.797.797 0 0 0-.887-.36c-3.143.776-6.355 1.271-9.596 1.342-2.906.066-6.072-.181-8.645-1.652-2.522-1.44-3.374-4.235-3.424-6.986-.062-3.25.828-6.495 1.859-9.547.102-.303-.058-.754-.361-.887-1.55-.677-2.816-1.578-3.805-2.976a7.792 7.792 0 0 1-1.43-4.221c-.123-3.508 2.3-6.395 5.299-7.898.306-.153.457-.564.361-.884-1.367-4.585-2.76-11.36 1.266-15.045.004-.004.01-.004.015-.009.216-.144.415-.326.612-.493a.752.752 0 0 0 .176-.204c.822-.841 2.006-1.419 3.08-1.816 1.531-.56 3.161-.803 4.783-.899 3.537-.215 7.104.295 10.553 1.052.367.08.676-.057.887-.361C33.379.924 43.683.88 47.523 7.178a.794.794 0 0 0 .885.359c3.184-.791 6.406-1.506 9.693-1.657 3.059-.143 6.199.283 8.773 2.051 2.387 1.636 3.102 4.477 3.12 7.224.021 3.144-.796 6.279-1.791 9.237-.103.304.056.751.36.885 2.988 1.321 5.243 3.979 5.355 7.34.115 3.53-2.339 6.426-5.355 7.945z"/><path fill="#09A0AE" d="M16.604 50.419c.003-.006.234.186.234.186s-7.247-4.542 11.866-10.464c-.043.103-.213.082-.292.15l2.421-2.076c-.004.001.152.226.089.169-3.694-3.168-4.255-7.252.276-11.151l-2.043-1.754c-.693.703.11.112.145.194-19.112-5.924-12.055-10.3-12.055-10.3s-.697.591.053-.062l-5.258-4.506c-.762.641-.209.141-.329.244-3.839 3.29-3.068 9.458-1.56 14.473-.773.378-1.49.836-2.153 1.402-3.946 3.385-3.977 8.828-.081 12.169.758.647 1.271.876 2.176 1.27-1.746 5.147-3.03 11.746.727 15.015l5.784-4.959zm-1.635-23.628s-1.083-5.803 13.339.001c-14.42 5.803-13.339-.001-13.339-.001zm.292 12.496s-1.082-5.81 13.342-.004c-14.424 5.804-13.342.004-13.342.004z"/><path fill="#F5971E" d="M10.82 55.378c3.81 3.22 12.017 2.553 18.017 1.056a9.121 9.121 0 0 0 1.869 2.193c3.896 3.339 10.314 3.362 14.258-.02.662-.569 1.242-1.165 1.684-1.83 5.843 1.296 13.029 1.989 16.867-1.301.119-.103-.447.385.303-.271l-5.259-4.508c-.76.646-.047.027-.047.027s-5.148 6.088-12.056-10.3c.094.027-.574.699.248.106l-2.047-1.755c-4.545 3.888-9.82 2.968-13.514-.201a4.639 4.639 0 0 1-.311-.359l-2.421 2.076c.079-.068.438.113.558.079-6.904 16.39-12.203 10.171-12.203 10.171s-.16-.127-.163-.122l-5.783 4.959zm34.351-14.124c6.771 12.367.004 11.44.004 11.44s-6.77.928-.004-11.44zm-14.563-.251c6.768 12.368-.002 11.44-.002 11.44s-6.767.929.002-11.44z"/><path fill="#B61E53" d="M59.312 15.088c-.004.003-.107-.074-.107-.074s7.182 4.485-11.931 10.405c.044-.102.148-.133.229-.204l-2.423 2.077c.003-.003-.185.021-.124.078 3.695 3.168 3.471 8.148-.307 11.398l2.045 1.755c-.062-.057.051-.25.015-.329 19.112 5.921 11.976 10.367 11.976 10.367s-.138.126-.133.13l5.256 4.508c.01.006.373-.28.491-.382 3.839-3.292 3.147-9.526 1.641-14.542.772-.376 1.53-.869 2.189-1.437 3.945-3.385 3.999-8.847.104-12.186-.756-.649-1.39-.997-2.295-1.392 1.744-5.147 2.912-11.864-.846-15.133l-5.78 4.961zm1.89 23.849s1.082 5.805-13.34 0c14.422-5.804 13.34 0 13.34 0zm-.291-12.493s1.082 5.808-13.344.001c14.426-5.804 13.344-.001 13.344-.001z"/><path fill="#7FA55E" d="M65.093 10.129c-4.566-3.871-11.889-2.442-17.888-.946a8.548 8.548 0 0 0-1.806-2.137c-3.896-3.341-10.281-3.335-14.225.048a9.095 9.095 0 0 0-1.667 1.841c-5.845-1.293-13.183-1.845-17.021 1.448-.118.104-.461.408-.453.416l5.258 4.509c.003.003.207-.165.207-.165s5.07-6.021 11.977 10.369c-.095-.027-.264.018-.327-.036l2.046 1.754c3.787-3.241 9.848-3.218 13.542-.046.062.051.347.107.344.11l2.423-2.077c-.081.071-.311-.004-.43.032 6.905-16.39 12.138-10.227 12.138-10.227s.097.071.101.067l5.781-4.96zM30.999 24.475c-6.77-12.37-.002-11.442-.002-11.442s6.77-.926.002 11.442zm14.564.251c-6.769-12.37.002-11.443.002-11.443s6.765-.927-.002 11.443z"/></svg>