<svg xmlns="http://www.w3.org/2000/svg" width="88" height="118" viewBox="0 0 88 118"><g fill="gray"><path d="M43.057 94.961c.314 0 .584-.048.81-.145a1.68 1.68 0 0 0 .559-.378c.148-.156.256-.333.324-.532.067-.199.102-.404.102-.616 0-.23-.042-.429-.125-.597a1.076 1.076 0 0 0-.337-.406 1.5 1.5 0 0 0-.5-.229 2.404 2.404 0 0 0-.61-.075c-.346 0-.634.054-.864.164-.231.108-.416.242-.555.401s-.238.328-.301.509c-.062.18-.092.342-.092.485 0 .429.129.773.388 1.031.257.26.659.388 1.201.388z"/><path d="M86.327 100.889c-.309.416-.613.788-.915 1.118-.13.141-.267.276-.412.408-.145.132-.289.25-.435.353a2.513 2.513 0 0 1-.43.252.987.987 0 0 1-.406.096c-.173 0-.286-.08-.338-.239s-.079-.38-.079-.662c0-.331.051-.737.152-1.22.103-.482.193-.912.272-1.289.079-.376.15-.745.212-1.104s.093-.686.093-.98c0-.193-.017-.346-.051-.458a.625.625 0 0 0-.144-.262.446.446 0 0 0-.214-.122 1.142 1.142 0 0 0-.261-.028c-.068 0-.139.001-.209.005a4.983 4.983 0 0 1-.209.004c-.081 0-.16-.004-.238-.014a.83.83 0 0 1-.228-.061.442.442 0 0 1-.187-.149l-.153-.21a.826.826 0 0 0-.199-.191.58.58 0 0 0-.335-.084c-.428 0-.849.091-1.26.272a4.972 4.972 0 0 0-1.177.733 6.474 6.474 0 0 0-1.028 1.077c-.312.412-.606.9-.879 1.465a9.013 9.013 0 0 0-.604 1.576 5.4 5.4 0 0 0-.188 1.324c-.095.079-.189.156-.288.241a4.99 4.99 0 0 1-.509.38c-.183.118-.379.217-.592.295s-.448.117-.707.117c-.117 0-.254-.022-.412-.065a5.119 5.119 0 0 1-.448-.145 10.074 10.074 0 0 1-.37-.146 2.265 2.265 0 0 0-.166-.066l.047-.187c.055-.075.164-.217.327-.426l.573-.74c.219-.284.466-.62.74-1.007.273-.387.523-.734.748-1.04.226-.306.424-.584.598-.834.172-.25.295-.443.369-.581.259-.069.444-.143.555-.221.111-.079.173-.143.186-.193.037-.15.055-.332.055-.545 0-.264-.047-.473-.143-.626-.096-.154-.252-.23-.468-.23a.235.235 0 0 0-.073.014 1.21 1.21 0 0 1-.162.033c-.077.012-.189-.114-.338-.104-.147.009-.345-.123-.592-.123h-.281c-.103 0-.215.133-.338.127-.16-.006-.316.023-.467-.049s-.299-.117-.444-.206c-.145-.087-.291-.15-.438-.223a.994.994 0 0 0-.443-.1c-.197 0-.412.037-.643.102-.231.065-.453.19-.666.372s-.406.44-.578.773-.305.768-.397 1.304a2.47 2.47 0 0 0-.037.416c0 .147.021.267.06.355.041.09.109.135.209.135.104 0 .222-.067.351-.203.13-.135.29-.347.481-.635.086-.132.164-.234.235-.306s.151-.126.24-.162c.09-.036.198-.057.329-.063.129-.006.292-.009.489-.009a.823.823 0 0 1 .421.108l.217.117c.08.044.176.09.287.141l-2.203 3.046c-.188.236-.377.462-.563.666a6.597 6.597 0 0 1-.411.408c-.146.132-.29.25-.436.353a2.506 2.506 0 0 1-.429.252.992.992 0 0 1-.407.096c-.173 0-.285-.08-.338-.239-.052-.159-.078-.38-.078-.662 0-.331.051-.737.152-1.22l.272-1.289c.079-.376.149-.745.211-1.104s.093-.686.093-.98c0-.193-.017-.346-.051-.458a.604.604 0 0 0-.144-.262.441.441 0 0 0-.214-.122 1.127 1.127 0 0 0-.26-.028c-.068 0-.139.001-.21.005s-.141.004-.209.004c-.081 0-.16-.004-.237-.014s-.153-.029-.229-.061a.44.44 0 0 1-.186-.149l-.153-.21a.85.85 0 0 0-.2-.191.576.576 0 0 0-.335-.084c-.428 0-.848.091-1.26.272a4.972 4.972 0 0 0-1.177.733 6.428 6.428 0 0 0-1.027 1.077 8.61 8.61 0 0 0-.879 1.465 9.023 9.023 0 0 0-.605 1.576 5.622 5.622 0 0 0-.177 1.151c-.095.06-.188.12-.287.179a6.982 6.982 0 0 1-.535.289 3.825 3.825 0 0 1-.493.201c-.153.05-.291.074-.411.074-.05 0-.103-.035-.157-.107a1.177 1.177 0 0 1-.158-.289c-.049-.121-.251-.258-.284-.411-.034-.152-.21-.309-.21-.471v-.13c0-.125.202-.251.233-.382s.142-.253.173-.368c.03-.115.102-.223.137-.322s.086-.18.117-.243c.284-.559.604-1.132.941-1.718.337-.585.676-1.181 1.009-1.785.333-.604.655-1.213.964-1.827s.58-1.226.813-1.836c.234-.61.42-1.218.559-1.822a7.924 7.924 0 0 0 .208-1.78c0-.235-.022-.465-.065-.691s-.117-.429-.224-.607-.253-.323-.438-.432-.422-.163-.707-.163c-.393 0-.778.112-1.158.337a4.656 4.656 0 0 0-1.092.927 9.28 9.28 0 0 0-1 1.384 15.706 15.706 0 0 0-.882 1.708 12.7 12.7 0 0 0-.451 1.207 4.642 4.642 0 0 0-.389-1.753 4.607 4.607 0 0 0-1.177-1.6c-.522-.464-1.175-.836-1.96-1.116-.784-.28-1.698-.419-2.74-.419-.79 0-1.536.128-2.237.383-.7.255-1.35.618-1.944 1.085a8.362 8.362 0 0 0-1.607 1.682 10.75 10.75 0 0 0-1.215 2.166 13.18 13.18 0 0 0-.768 2.545 14.42 14.42 0 0 0-.269 2.818c0 .566.028 1.17.087 1.81.036.392.09.781.152 1.168-.247.217-.499.428-.757.632a6.623 6.623 0 0 1-.823.559c-.271.154-.518.231-.739.231-.191 0-.317-.082-.38-.245-.061-.163-.092-.383-.092-.661 0-.284.045-.598.133-.945.089-.347.162-.696.221-1.047a9.09 9.09 0 0 1 .326-1.273c.158-.498.277-.905.359-1.222l.216-.846c.063-.248.095-.439.095-.575a.53.53 0 0 0-.136-.383c-.091-.096-.264-.144-.518-.144-.14 0-.296.017-.468.051-.173.035-.34.087-.5.159s-.305.164-.432.276a.765.765 0 0 0-.255.42c-.055.222-.198.701-.433 1.438-.252.903-.42 1.487-.504 1.75-.045.117-.141.605-.285 1.462-.244.2-.482.39-.713.558-.147.106-.301.21-.457.312a5.472 5.472 0 0 1-.468.275c-.154.081-.3.145-.438.191-.14.046-.268.07-.384.07-.12 0-.221-.037-.302-.112s-.146-.176-.193-.304a1.888 1.888 0 0 1-.104-.435 4.005 4.005 0 0 1-.003-.959 7.011 7.011 0 0 1 .163-.856 3.42 3.42 0 0 1 .096-.318c.148-.399.49-1.156 1.029-2.272.353-.729.653-1.466.903-2.211l.757-2.261a8.215 8.215 0 0 0 .41-2.471c.004-.232.006-.458.006-.678 0-.352-.028-.693-.084-1.023a3.072 3.072 0 0 0-.271-.871 1.685 1.685 0 0 0-.495-.602 1.206 1.206 0 0 0-.74-.227c-.396 0-.78.122-1.152.365s-.723.581-1.052 1.012a8.346 8.346 0 0 0-.906 1.535c-.275.592-.501 1.239-.676 1.942s-.338 1.359-.488 1.97c-.152.61-.237 1.315-.256 2.116-.469.044-.909.153-1.322.329s-.815.435-1.206.779a4.4 4.4 0 0 0-.943 1.146c-.237.419-.452.821-.647 1.206a5.695 5.695 0 0 0-.443 1.192 5.053 5.053 0 0 0-.116.631 10.17 10.17 0 0 1-1.085.7 7.814 7.814 0 0 1-1.197.543c-.41.145-.8.217-1.17.217a1.43 1.43 0 0 1-.329-.036.89.89 0 0 1-.292-.127c-.094-.06-.185-.145-.274-.253s-.181-.244-.274-.407a6.423 6.423 0 0 0 1.497-.606 5.48 5.48 0 0 0 1.19-.886c.334-.332.626-.729.876-1.193s.375-.883.375-1.257c0-.351-.062-.668-.185-.951a2.12 2.12 0 0 0-.515-.725 2.351 2.351 0 0 0-.772-.466 2.721 2.721 0 0 0-.963-.167 2.89 2.89 0 0 0-1.154.224c-.346.149-.658.35-.938.603a4.152 4.152 0 0 0-.731.876c-.208.332-.382.68-.52 1.045-.138.365-.271.783-.4 1.255-.128.471-.192.877-.192 1.218 0 .137.019.268.029.402-.024.029-.048.064-.071.092-.142.173-.29.341-.444.504a4.55 4.55 0 0 1-.467.435 2.537 2.537 0 0 1-.472.306 1.02 1.02 0 0 1-.448.115c-.251 0-.442-.061-.574-.182-.132-.121-.197-.315-.197-.585 0-.214.036-.53.109-.947.073-.418.154-.875.244-1.371l.283-1.576.303-1.691c.104-.573.206-1.149.31-1.729a9.42 9.42 0 0 0 .156-1.664c0-.567-.052-1.105-.156-1.613a5.166 5.166 0 0 0-.449-1.332 2.615 2.615 0 0 0-.729-.902 1.596 1.596 0 0 0-.995-.333c-.542 0-1.064.136-1.569.407-.504.271-.975.661-1.412 1.169-.437.509-.83 1.126-1.181 1.854s-.646 1.547-.886 2.459l-.194.009.157-1.202c.019-.154.038-.31.06-.467a20.579 20.579 0 0 0 .093-.799c.01-.105.014-.182.014-.231a6.06 6.06 0 0 0-.143-1.405 3.086 3.086 0 0 0-.402-.98 1.652 1.652 0 0 0-.62-.573 1.685 1.685 0 0 0-.785-.185 2.48 2.48 0 0 0-1.17.314 4.973 4.973 0 0 0-1.165.888c-.385.382-.758.84-1.119 1.373-.362.533-.704 1.128-1.025 1.785s-.617 1.362-.889 2.117a23.14 23.14 0 0 0-.707 2.362c.108-.439.221-.912.336-1.417.115-.506.21-1.016.284-1.531.074-.514.146-1.003.212-1.468a7.847 7.847 0 0 0 .014-2.445 2.792 2.792 0 0 0-.31-.947 1.58 1.58 0 0 0-.601-.61c-.253-.145-.57-.217-.953-.217-.295 0-.604.062-.929.185-.323.123-.642.331-.952.624s-.607.685-.888 1.174-.531 1.099-.753 1.826a.122.122 0 0 0-.037.092c0 .068.009.144.025.227.018.083.04.162.066.236.026.074.056.137.088.189s.062.079.092.079c.094 0 .179-.02.255-.06a.363.363 0 0 0 .167-.199 6.492 6.492 0 0 1 1.28-1.35 4.04 4.04 0 0 1 .636-.412c.202-.102.373-.152.514-.152.088 0 .154.027.197.083.044.056.127.122.143.199.02.078.078.16.078.247v.215c0 .648-.029 1.256-.02 1.824s-.04 1.113-.101 1.637c-.06.524-.134 1.048-.192 1.572a8.238 8.238 0 0 1-.363 1.6 17.657 17.657 0 0 0-.472 1.744c-.136.619-.284 1.29-.441 2.012-.05.216-.087.43-.112.643a6.471 6.471 0 0 0-.037.698c0 .129.034.245.103.347a.84.84 0 0 0 .276.259c.117.071.25.124.401.158.151.034.306.05.466.05.136 0 .277-.014.426-.041.147-.028.285-.076.415-.144a.912.912 0 0 0 .508-.731l.456-1.867.51-2.088a20.25 20.25 0 0 1 .651-2.133c.259-.706.526-1.382.805-2.029.277-.647.557-1.25.838-1.808.28-.558.554-1.043.819-1.456a6.11 6.11 0 0 1 .741-.971c.229-.234.435-.352.613-.352.217 0 .391.056.522.167.13.11.23.271.301.48s.115.465.135.767c.019.302.028.644.028 1.026 0 .555-.065 1.163-.196 1.822-.131.66-.254 1.321-.37 1.983-.114.662-.243 1.326-.384 1.992s-.264 1.27-.369 1.811l-.271 1.4c-.075.392-.052.669.066.83 0 .24.029.444.089.61.058.167.135.303.23.411a.85.85 0 0 0 .332.236c.126.05.254.074.383.074s.258-.017.388-.051c.128-.034.251-.087.366-.162.116-.074.218-.171.307-.292.089-.121.154-.267.197-.44.119-.614.227-1.253.322-1.918.096-.666.233-1.371.412-2.116.179-.745.343-1.465.492-2.161.149-.696.331-1.362.545-1.998.215-.635.441-1.227.683-1.773.24-.546.499-1.02.775-1.419.277-.399.569-.712.88-.94.31-.227.639-.341.988-.341.174 0 .313.043.418.129a.795.795 0 0 1 .242.365c.056.158.094.349.112.573a7.591 7.591 0 0 1-.106 2.062l-.272 1.527-.278 1.559-.276 1.541-.263 1.467c-.085.472-.14.914-.164 1.327a3.132 3.132 0 0 0-.019.324c0 .444.074.837.223 1.179.147.342.344.629.59.86.247.231.529.405.846.522a2.8 2.8 0 0 0 .975.176c.344 0 .689-.053 1.037-.157a3.624 3.624 0 0 0 1.031-.513c.32-.224.635-.516.944-.864.074.12.142.244.229.354a3.13 3.13 0 0 0 1.079.861c.432.213.935.32 1.511.32.37 0 .736-.043 1.097-.129.36-.085.708-.2 1.044-.343.337-.143.657-.306.962-.49.268-.161.514-.326.75-.493.081.191.174.374.29.539.193.277.438.499.73.666.292.167.639.25 1.04.25.284 0 .566-.048.848-.143s.56-.221.835-.378.541-.342.797-.555c.257-.212.5-.437.729-.672.151.379.33.684.535.913.205.229.41.404.615.525s.395.202.568.241.304.059.393.059c.149 0 .314-.028.495-.083s.366-.127.557-.216c.191-.089.386-.19.583-.305a11.643 11.643 0 0 0 1.088-.718c.013.08.023.161.042.235.059.231.155.427.291.587.137.16.313.285.531.375.219.089.489.134.811.134.356 0 .734-.065 1.132-.194s.787-.291 1.17-.485a8.824 8.824 0 0 0 1.468-.935c.09.331.188.655.302.971.206.579.459 1.09.758 1.533s.646.795 1.044 1.057.85.393 1.355.393a3.24 3.24 0 0 0 1.317-.263 3.947 3.947 0 0 0 1.092-.71c.324-.298.609-.646.854-1.042s.453-.816.622-1.259c.171-.443.301-.896.39-1.36a8.16 8.16 0 0 0 .158-1.549c.004-.099.007-.214.01-.347s.008-.279.014-.44l.019-.481c.013-.377.028-.791.046-1.241.975-.148 1.822-.404 2.545-.768.724-.364 1.322-.796 1.797-1.295.253-.267.469-.547.654-.839l-.006.021-.266 1.515c-.178 1.01-.268 1.817-.268 2.422 0 .704.061 1.376.18 2.016a7.86 7.86 0 0 0 .497 1.688c.213.485.461.872.747 1.16.285.289.594.433.926.433.216 0 .447-.028.695-.084a6.22 6.22 0 0 0 .761-.224c.261-.094.52-.201.776-.321.214-.1.417-.2.619-.302.061.084.119.171.189.245.215.227.463.4.744.521.28.122.568.183.864.183.279 0 .559-.046.839-.138.279-.091.549-.209.806-.352a4.907 4.907 0 0 0 1.264-1.001c.198.494.435.871.708 1.13s.614.389 1.024.389c.339 0 .678-.084 1.017-.252.211-.104.41-.229.604-.363.111.035.23.058.368.058.173 0 .377-.035.611-.106.271.136.521.249.748.337.229.089.429.162.601.217.173.057.312.097.417.12.104.024.169.036.193.036a4.7 4.7 0 0 0 .967-.108c.342-.072.678-.17 1.008-.293s.646-.266.947-.428c.102-.054.192-.111.285-.167.056.073.105.152.168.218a2.249 2.249 0 0 0 1.609.704c.279 0 .559-.046.839-.138a4.61 4.61 0 0 0 .806-.352 4.962 4.962 0 0 0 1.264-1.001c.198.494.435.871.708 1.13.272.259.614.389 1.024.389.339 0 .678-.084 1.017-.252.339-.168.656-.374.952-.617s.562-.499.8-.767.427-.501.569-.701l-.444-2.036zm-61.771-.557c.013-.187.069-.425.172-.714s.191-.532.269-.728c.078-.196.18-.371.307-.524.127-.153.285-.278.474-.375s.416-.145.683-.145c.147 0 .273.087.375.262.103.174.153.398.153.669 0 .193-.108.437-.325.732-.216.295-.438.53-.663.705s-.47.318-.733.429a1.875 1.875 0 0 1-.729.167 5.822 5.822 0 0 1 .017-.478zm9.2 1.959c-.074.11-.155.215-.245.316a2.24 2.24 0 0 1-.282.271 1.47 1.47 0 0 1-.31.192.79.79 0 0 1-.328.074c-.217 0-.392-.024-.528-.072a.789.789 0 0 1-.313-.188.634.634 0 0 1-.153-.261 1.074 1.074 0 0 1-.041-.29c0-.311.055-.659.166-1.044.111-.386.273-.846.486-1.38s.477-.965.795-1.291a3.9 3.9 0 0 1 1.086-.788c.006-.006.013.056.019.186.006.131.011.299.014.503.003.205.008.432.015.681.006.249.012.567.018.956.007.389.016.678.029.867.013.189.028.328.047.415a5.573 5.573 0 0 1-.475.853zm3.014-3.966v-.497c0-.175-.214-.379-.207-.614s-.091-.493-.073-.778c.016-.284-.015-.579.011-.885.014-.15.009-.403.042-.759.032-.356.062-.756.115-1.2s.133-.896.248-1.359c.117-.463.222-.891.321-1.286.098-.394.227-.716.389-.965.164-.25.345-.375.546-.375.113 0 .198.065.259.194.059.129.088.361.088.694 0 .253-.02.595-.058 1.027a8.855 8.855 0 0 1-.168 1.036c-.08.364-.178.731-.294 1.103l-.349 1.123c-.118.377-.02.739-.14 1.086-.289.816-.73 1.634-.73 2.455zm19.716-3.705a2.8 2.8 0 0 1-.637.928 3.874 3.874 0 0 1-1.084.73c-.436.206-.955.356-1.559.45l.084-.74.562-2.406c0-.025.001-.045.004-.061a.451.451 0 0 0 .005-.089.682.682 0 0 0-.097-.381.775.775 0 0 0-.24-.237.93.93 0 0 0-.319-.121 1.84 1.84 0 0 0-.342-.033c-.366 0-.674.092-.923.276-.248.184-.45.416-.605.696-.155.28-.273.589-.354.925a7.603 7.603 0 0 0-.173.967 8.612 8.612 0 0 0-.056.823c-.004.24-.005.4-.005.481a2.78 2.78 0 0 1-.366-.115 8.6 8.6 0 0 1-.422-.178 6.515 6.515 0 0 1-.551-.283 3.824 3.824 0 0 0-.196-.106.376.376 0 0 0-.17-.039.286.286 0 0 0-.216.081c-.052.054-.092.124-.119.209s-.044.184-.05.294-.01.223-.01.337c0 .206.021.386.06.541.04.155.133.302.28.441.146.139.329.285.62.436.289.151 1.16.328 1.16.527v.435c0 .284.029.628.018 1.033s-.021.829-.065 1.273c-.043.444-.099.887-.185 1.329-.088.441-.2.836-.348 1.185-.147.349-.33.633-.551.852-.223.219-.49.329-.806.329-.302 0-.552-.128-.753-.384s-.366-.586-.498-.99c-.134-.404-.231-.856-.3-1.356s-.118-.993-.147-1.48c-.031-.488-.049-.946-.052-1.375s-.005-.77-.005-1.023c0-.618.045-1.253.135-1.905s.229-1.286.416-1.9a9.82 9.82 0 0 1 .719-1.739 6.314 6.314 0 0 1 1.029-1.427c.396-.408.846-.73 1.353-.969a3.941 3.941 0 0 1 1.696-.357c.831 0 1.521.096 2.069.288s.985.437 1.312.734c.325.297.556.627.688.99s.199.717.199 1.064c.003.357-.066.703-.205 1.04zm3.778 1.066l.249-1.253.407-1.351c.271-.9.506-1.55.701-1.95s.392-.716.588-.951c.194-.234.377-.351.547-.351.047 0 .074.063.083.191s.014.281.014.461c-.056.566-.186 1.177-.39 1.833s-.445 1.313-.724 1.972a31.253 31.253 0 0 1-.886 1.92 41.031 41.031 0 0 1-.886 1.678c.032-.631.131-1.364.297-2.199zm6.706 5.147a5.387 5.387 0 0 1-.161.745 5.129 5.129 0 0 1-.33.866 2.9 2.9 0 0 1-.481.717c-.185.199-.392.298-.62.298a.556.556 0 0 1-.352-.109.79.79 0 0 1-.223-.286 1.375 1.375 0 0 1-.116-.4 3.332 3.332 0 0 1-.032-.463c0-.269.036-.556.107-.862.07-.305.191-.66.364-1.063s.349-.742.527-1.018c.179-.275.374-.52.587-.733.213-.214.439-.384.68-.509.24-.125.486-.188.739-.188l-.689 3.005zm14.184 0a5.412 5.412 0 0 1-.162.745c-.084.298-.193.586-.329.866s-.296.518-.481.717-.393.298-.621.298a.56.56 0 0 1-.352-.109.787.787 0 0 1-.222-.286 1.345 1.345 0 0 1-.116-.4 3.332 3.332 0 0 1-.032-.463c0-.269.035-.556.106-.862.07-.305.192-.66.365-1.063.172-.403.348-.742.526-1.018.179-.275.375-.52.587-.733.213-.214.439-.384.68-.509.24-.125.487-.188.74-.188l-.689 3.005z"/></g><g fill="#00A0AE"><path d="M21.027 69.649c.004-.005.246.193.246.193s-7.576-4.745 12.402-10.934c-.045.105-.223.084-.307.155l2.531-2.17c-.003.001.16.235.092.178-3.859-3.311-4.445-7.58.292-11.655l-2.137-1.833c-.725.734.115.117.15.202-19.975-6.192-12.6-10.767-12.6-10.767s-.729.62.056-.063l-5.496-4.712c-.796.672-.219.149-.343.256-4.015 3.441-3.207 9.886-1.631 15.126-.809.395-1.558.875-2.251 1.468-4.123 3.535-4.155 9.226-.083 12.717.79.677 1.327.917 2.272 1.329-1.823 5.38-3.165 12.276.762 15.691l6.045-5.181zM19.32 44.954s-1.131-6.066 13.942 0c-15.073 6.066-13.942 0-13.942 0zm.306 13.058s-1.132-6.069 13.944-.002c-15.076 6.068-13.944.002-13.944.002z"/><path d="M14.984 74.832c3.98 3.367 12.559 2.671 18.832 1.106.48.812 1.163 1.614 1.951 2.291 4.072 3.491 10.779 3.515 14.903-.021.69-.593 1.297-1.218 1.758-1.91 6.11 1.352 13.618 2.079 17.63-1.363.125-.106-.468.403.315-.282l-5.495-4.712c-.795.675-.049.028-.049.028s-5.382 6.365-12.6-10.765c.098.029-.601.731.257.11l-2.138-1.833c-4.752 4.064-10.265 3.102-14.125-.208a5.334 5.334 0 0 1-.324-.377l-2.531 2.17c.084-.071.46.12.584.083-7.217 17.132-12.754 10.632-12.754 10.632s-.168-.133-.172-.128l-6.042 5.179zm35.905-14.761c7.074 12.927.002 11.958.002 11.958s-7.076.969-.002-11.958zm-15.224-.263c7.075 12.93-.001 11.959-.001 11.959s-7.072.971.001-11.959zm30.002-27.086c-.004.004-.115-.079-.115-.079s7.509 4.688-12.468 10.876c.046-.106.155-.141.24-.213l-2.533 2.171c.004-.002-.193.023-.128.081 3.862 3.311 3.628 8.518-.321 11.915l2.137 1.833c-.065-.058.054-.262.016-.343C72.471 65.151 65.01 69.799 65.01 69.799s-.143.131-.137.136l5.493 4.711c.008.007.39-.293.514-.399 4.014-3.441 3.29-9.956 1.714-15.197.809-.396 1.6-.911 2.289-1.503 4.125-3.536 4.18-9.245.107-12.737-.789-.677-1.452-1.042-2.397-1.455 1.824-5.378 3.042-12.399-.884-15.814l-6.042 5.181zm1.977 24.926s1.128 6.066-13.944 0c15.071-6.066 13.944 0 13.944 0zm-.307-13.058s1.131 6.07-13.946.003c15.077-6.068 13.946-.003 13.946-.003z"/><path d="M71.709 27.54c-4.773-4.046-12.426-2.556-18.698-.991a8.86 8.86 0 0 0-1.886-2.232c-4.071-3.492-10.746-3.486-14.867.048a9.59 9.59 0 0 0-1.743 1.926c-6.108-1.351-13.776-1.928-17.789 1.513a9.491 9.491 0 0 0-.474.434l5.494 4.711c.004.005.217-.169.217-.169s5.299-6.294 12.518 10.836c-.1-.029-.275.019-.341-.039l2.138 1.833c3.961-3.386 10.295-3.361 14.156-.05.066.056.361.115.357.117l2.533-2.171c-.085.072-.325-.004-.45.034 7.217-17.132 12.688-10.689 12.688-10.689s.101.075.104.071l6.043-5.182zM36.074 42.532c-7.075-12.928-.002-11.958-.002-11.958s7.074-.97.002 11.958zm15.223.263c-7.075-12.929.002-11.959.002-11.959s7.071-.97-.002 11.959z"/></g><path fill="gray" d="M78.814 43.565c-1.137-.874-2.19-.92-1.727-2.433.37-1.206.645-2.437.896-3.672.439-2.167.57-4.381.367-6.581-.911-9.841-12.164-10.047-19.604-8.731-2.241.397-3.809 1.504-5.401-.389-1.332-1.584-3.333-2.542-5.231-3.235-4.068-1.488-8.785-.535-12.306 1.799-2.385 1.581-2.002 2.589-5.032 2.059a42.779 42.779 0 0 0-7.451-.618c-3.765.008-7.809.881-10.594 3.564-.014.013-.022.027-.034.041l-.167.136c-.06.033.132.062.077.114-.032.03.162-.166.162-.135v-.186h-.361c-2.169 3-3.133 4.863-3.423 7.856-.163 1.679.033 3.484.269 5.143.311 2.196 1.484 3.573-.393 5.042-5.357 4.19-5.901 11.189-.89 15.895 1.704 1.601 2.158.986 1.448 3.465-.47 1.637-.845 3.356-1.006 5.054-.288 3.021-.246 6.623 1.775 9.119 4.343 5.363 12.953 4.444 18.983 3.483 2.123-.339 2.901-.963 4.354.738 1.095 1.284 2.672 2.166 4.181 2.851 3.094 1.407 6.661 1.321 9.865.405a11.174 11.174 0 0 0 3.714-1.9c1.456-1.146 1.919-2.472 3.856-2.088 3.71.735 7.717 1.231 11.479.657 6.082-.928 10.437-4.691 11.249-10.903.156-1.188-1.177-9.646-.828-9.835 2.966-1.61 4.928-4.621 5.445-7.899.513-3.242-1.097-6.838-3.672-8.816zM75.33 59.346a.821.821 0 0 0-.377.926c1.644 5.698 2.662 12.423-2.419 16.652-5.047 4.201-13.069 2.703-18.917 1.452-.397-.085-.69.065-.926.377-4.749 6.278-14.78 6.136-19.213-.398-.213-.315-.547-.467-.926-.377-5.758 1.378-12.619 2.48-18.266.094-6.82-2.881-4.173-12.428-2.436-17.7.105-.32-.058-.782-.376-.926-7.454-3.373-6.64-12.168.067-15.777.318-.171.477-.583.377-.926-1.495-5.167-2.759-11.664 1.494-15.855.17-.125.336-.271.483-.392.03-.025.053-.052.077-.078 4.876-4.591 13.475-3.124 19.355-1.875.395.084.693-.062.926-.376 4.64-6.232 14.71-6.249 19.08.285.211.314.551.469.926.376 5.963-1.466 12.834-3.112 18.568-.06 6.252 3.329 3.855 12.399 2.121 17.674-.105.325.06.776.377.926 7.478 3.536 6.902 12.233.005 15.978z"/><path d="M32.122 1.013h1.334v5.945h4.816V1.013h1.334v13.685h-1.334V8.115h-4.816v6.583h-1.334V1.013zm16.049 12.703c-.995.798-1.968 1.197-2.917 1.197-1.114 0-2.015-.446-2.702-1.339-.688-.893-1.031-2.055-1.031-3.488 0-1.478.354-2.673 1.063-3.585.71-.913 1.607-1.369 2.693-1.369.961 0 1.732.368 2.314 1.104.582.735.873 1.666.873 2.791v.608h-5.67v.481c0 1.216.254 2.135.76 2.757.507.621 1.101.932 1.781.932.941 0 1.887-.52 2.835-1.56v1.471zm-1.021-5.13c-.025-.775-.225-1.356-.597-1.744-.372-.388-.806-.581-1.302-.581-.503 0-.971.193-1.404.581-.434.387-.742.969-.925 1.744h4.228zm3.277-2.61c1.001-.562 1.841-.843 2.521-.843.98 0 1.724.285 2.228.854.503.577.755 1.349.755 2.318v4.94c0 .36.17.54.51.54.177 0 .354-.049.53-.146v1.059a2.287 2.287 0 0 1-.962.216c-.851 0-1.288-.5-1.314-1.501-.32.497-.677.872-1.069 1.124a2.32 2.32 0 0 1-1.275.377c-.746 0-1.369-.271-1.873-.814s-.756-1.207-.756-1.991c0-.831.312-1.521.938-2.07.624-.549 1.97-.922 4.036-1.118v-.806c0-.529-.172-.966-.515-1.309-.344-.344-.771-.515-1.28-.515-.726 0-1.55.363-2.473 1.089V5.976zm4.267 3.895c-1.61.197-2.63.474-3.058.832a1.699 1.699 0 0 0-.641 1.362c0 .499.157.91.47 1.234.313.325.708.486 1.184.486.594 0 1.083-.249 1.468-.747s.577-1.138.577-1.918V9.871zm3.601-8.858h1.236v13.685h-1.236V1.013zm-36.96 107.358h.63v5.912h2.402v.546h-3.032v-6.458zm5.167 1.944c.484 0 .889.21 1.213.632.324.421.486.979.486 1.673 0 .402-.064.78-.192 1.137a1.854 1.854 0 0 1-.595.854 1.46 1.46 0 0 1-.936.319c-.527 0-.943-.218-1.247-.653s-.457-.98-.457-1.634c0-.521.097-.972.288-1.352.191-.38.425-.638.701-.773s.522-.203.739-.203zm.039.547c-.386 0-.678.164-.872.491s-.292.773-.292 1.338c0 .485.097.891.287 1.218.191.327.461.491.809.491.327 0 .597-.152.809-.456s.318-.748.318-1.331c0-.556-.104-.986-.312-1.292-.207-.307-.456-.459-.747-.459zm2.293 3.009c.433.352.846.528 1.237.528.303 0 .552-.077.749-.23a.705.705 0 0 0 .297-.583.543.543 0 0 0-.196-.427c-.132-.115-.385-.228-.763-.339-.462-.139-.801-.297-1.013-.477-.213-.179-.32-.428-.32-.746 0-.364.144-.668.431-.914s.643-.368 1.064-.368c.34 0 .727.12 1.158.359v.655c-.368-.321-.744-.481-1.129-.481-.267 0-.485.071-.656.214a.649.649 0 0 0-.257.515c0 .17.077.31.232.418.149.111.402.217.753.315.865.241 1.297.651 1.297 1.231 0 .392-.158.722-.474.988-.317.267-.7.4-1.15.4-.417 0-.837-.134-1.261-.403v-.655zm7.066-5.5h.618l1.803 6.458h-.704l-.549-2.232h-1.714l-.548 2.232h-.686l1.78-6.458zm.297.787l-.715 2.917h1.445l-.73-2.917zm2.601-.787h.583v6.458h-.583v-6.458zm4.176 2.046h.431v4.667c0 .596-.162 1.062-.485 1.398a1.567 1.567 0 0 1-1.168.505c-.397 0-.826-.158-1.286-.473v-.689c.447.429.868.644 1.263.644a.96.96 0 0 0 .793-.384c.2-.256.3-.59.3-1v-.949a1.75 1.75 0 0 1-.504.521 1.08 1.08 0 0 1-.589.174c-.446 0-.818-.216-1.115-.648-.296-.432-.443-.949-.443-1.551 0-.648.164-1.196.495-1.644.33-.447.722-.671 1.176-.671.193 0 .372.042.537.127.163.085.312.212.443.382l.152-.409zm-.154.945a1.451 1.451 0 0 0-.416-.366.938.938 0 0 0-.459-.121c-.339 0-.618.166-.838.496-.218.33-.328.751-.328 1.264 0 .469.096.867.286 1.192.192.326.449.488.774.488.281 0 .515-.128.701-.384.188-.256.279-.588.279-.995v-1.574zm3.047-1.047c.484 0 .888.21 1.213.632.324.421.486.979.486 1.673 0 .402-.064.78-.192 1.137a1.849 1.849 0 0 1-.596.854 1.457 1.457 0 0 1-.935.319c-.527 0-.944-.218-1.247-.653-.305-.435-.457-.98-.457-1.634 0-.521.097-.972.287-1.352.192-.38.426-.638.701-.773.277-.135.523-.203.74-.203zm.039.547c-.387 0-.678.164-.872.491s-.293.773-.293 1.338c0 .485.097.891.288 1.218s.461.491.808.491c.328 0 .597-.152.81-.456.212-.304.317-.748.317-1.331 0-.556-.103-.986-.311-1.292s-.456-.459-.747-.459zm4.928-2.491h.584v6.458h-.584v-.621a1.647 1.647 0 0 1-.493.542 1.08 1.08 0 0 1-.604.181c-.465 0-.84-.228-1.129-.683-.287-.455-.431-.985-.431-1.59 0-.648.158-1.201.476-1.658.317-.457.72-.685 1.208-.685.158 0 .318.036.48.106.162.071.326.179.493.324v-2.374zm0 2.935a1.23 1.23 0 0 0-.393-.331 1.015 1.015 0 0 0-.464-.108c-.342 0-.628.164-.856.49-.229.327-.342.76-.342 1.297 0 .503.101.919.301 1.25.2.33.456.495.769.495.274 0 .508-.122.698-.366.192-.244.287-.552.287-.926v-1.801zm3.135-.991c.484 0 .889.21 1.213.632.323.421.485.979.485 1.673 0 .402-.063.78-.192 1.137a1.853 1.853 0 0 1-.594.854 1.465 1.465 0 0 1-.937.319c-.527 0-.942-.218-1.247-.653-.304-.435-.455-.98-.455-1.634 0-.521.095-.972.287-1.352.19-.38.424-.638.701-.773.276-.135.523-.203.739-.203zm.039.547a.954.954 0 0 0-.873.491c-.194.327-.291.773-.291 1.338 0 .485.096.891.287 1.218.192.327.461.491.808.491.327 0 .598-.152.81-.456.211-.304.317-.748.317-1.331 0-.556-.104-.986-.312-1.292-.206-.307-.455-.459-.746-.459zm2.488-.445h.527l.057.63a1.7 1.7 0 0 1 .523-.549c.196-.122.412-.183.65-.183.375 0 .668.126.877.38.209.253.315.591.315 1.014v3.121h-.584v-3.121c0-.259-.067-.466-.204-.621a.671.671 0 0 0-.527-.231c-.294 0-.542.129-.745.387a1.396 1.396 0 0 0-.306.891v2.695h-.584v-4.413zm6.866 3.95c-.47.376-.929.564-1.378.564-.525 0-.95-.21-1.274-.632-.325-.421-.487-.97-.487-1.646 0-.698.168-1.262.503-1.692s.759-.646 1.271-.646c.453 0 .817.174 1.093.521.274.347.411.786.411 1.317v.287h-2.675v.227c0 .574.12 1.008.358 1.301.239.293.519.439.84.439.445 0 .891-.245 1.339-.735v.695zm-.482-2.422c-.012-.366-.105-.64-.282-.823a.822.822 0 0 0-.613-.274c-.237 0-.458.091-.663.274-.204.183-.351.458-.437.823h1.995zm1.223 1.926c.433.352.845.528 1.236.528.303 0 .553-.077.75-.23a.707.707 0 0 0 .296-.583.546.546 0 0 0-.195-.427c-.132-.115-.386-.228-.763-.339-.462-.139-.801-.297-1.014-.477s-.319-.428-.319-.746c0-.364.144-.668.431-.914s.643-.368 1.063-.368c.34 0 .727.12 1.159.359v.655c-.368-.321-.745-.481-1.13-.481-.267 0-.484.071-.655.214a.65.65 0 0 0-.258.515c0 .17.077.31.232.418.15.111.402.217.754.315.864.241 1.297.651 1.297 1.231 0 .392-.158.722-.475.988-.317.267-.7.4-1.15.4-.416 0-.837-.134-1.26-.403v-.655z" fill="#00A0AE"/></svg>